%FSLAX45Y45*%
G04 Gerber Fmt 4.5, Leading zero omitted, Abs format (unit mm)*
G04 Created by KiCad (PCBNEW 5.1.12-84ad8e8a86~92~ubuntu20.04.1) date 2021-12-24 11:38:53*
%MOMM*%
%LPD*%
G01*
G04 APERTURE LIST*
%TA.AperFunction,Profile*%
%ADD10C,0.050000*%
%TD*%
%ADD11C,0.200000*%
%ADD12C,0.300000*%
G04 APERTURE END LIST*
D10*
X8128000Y-2540000D02*
X2540000Y-2540000D01*
X8128000Y-10414000D02*
X8128000Y-2540000D01*
X2540000Y-10414000D02*
X8128000Y-10414000D01*
X2540000Y-2540000D02*
X2540000Y-10414000D01*
D11*
D12*
X2823928Y-10882214D02*
X2823928Y-10582214D01*
X2895357Y-10582214D01*
X2938214Y-10596500D01*
X2966786Y-10625072D01*
X2981071Y-10653643D01*
X2995357Y-10710786D01*
X2995357Y-10753643D01*
X2981071Y-10810786D01*
X2966786Y-10839357D01*
X2938214Y-10867929D01*
X2895357Y-10882214D01*
X2823928Y-10882214D01*
X3123928Y-10882214D02*
X3123928Y-10682214D01*
X3123928Y-10739357D02*
X3138214Y-10710786D01*
X3152500Y-10696500D01*
X3181071Y-10682214D01*
X3209643Y-10682214D01*
X3309643Y-10882214D02*
X3309643Y-10682214D01*
X3309643Y-10582214D02*
X3295357Y-10596500D01*
X3309643Y-10610786D01*
X3323928Y-10596500D01*
X3309643Y-10582214D01*
X3309643Y-10610786D01*
X3495357Y-10882214D02*
X3466786Y-10867929D01*
X3452500Y-10839357D01*
X3452500Y-10582214D01*
X3652500Y-10882214D02*
X3623928Y-10867929D01*
X3609643Y-10839357D01*
X3609643Y-10582214D01*
X3995357Y-10882214D02*
X3995357Y-10582214D01*
X4095357Y-10796500D01*
X4195357Y-10582214D01*
X4195357Y-10882214D01*
X4466786Y-10882214D02*
X4466786Y-10725072D01*
X4452500Y-10696500D01*
X4423928Y-10682214D01*
X4366786Y-10682214D01*
X4338214Y-10696500D01*
X4466786Y-10867929D02*
X4438214Y-10882214D01*
X4366786Y-10882214D01*
X4338214Y-10867929D01*
X4323928Y-10839357D01*
X4323928Y-10810786D01*
X4338214Y-10782214D01*
X4366786Y-10767929D01*
X4438214Y-10767929D01*
X4466786Y-10753643D01*
X4609643Y-10682214D02*
X4609643Y-10982214D01*
X4609643Y-10696500D02*
X4638214Y-10682214D01*
X4695357Y-10682214D01*
X4723928Y-10696500D01*
X4738214Y-10710786D01*
X4752500Y-10739357D01*
X4752500Y-10825072D01*
X4738214Y-10853643D01*
X4723928Y-10867929D01*
X4695357Y-10882214D01*
X4638214Y-10882214D01*
X4609643Y-10867929D01*
X4881071Y-10853643D02*
X4895357Y-10867929D01*
X4881071Y-10882214D01*
X4866786Y-10867929D01*
X4881071Y-10853643D01*
X4881071Y-10882214D01*
X4881071Y-10696500D02*
X4895357Y-10710786D01*
X4881071Y-10725072D01*
X4866786Y-10710786D01*
X4881071Y-10696500D01*
X4881071Y-10725072D01*
M02*
