G04 #@! TF.GenerationSoftware,KiCad,Pcbnew,5.1.12-84ad8e8a86~92~ubuntu20.04.1*
G04 #@! TF.CreationDate,2021-12-23T14:30:50-05:00*
G04 #@! TF.ProjectId,SSI2130_VCO,53534932-3133-4305-9f56-434f2e6b6963,0*
G04 #@! TF.SameCoordinates,Original*
G04 #@! TF.FileFunction,Copper,L2,Inr*
G04 #@! TF.FilePolarity,Positive*
%FSLAX46Y46*%
G04 Gerber Fmt 4.6, Leading zero omitted, Abs format (unit mm)*
G04 Created by KiCad (PCBNEW 5.1.12-84ad8e8a86~92~ubuntu20.04.1) date 2021-12-23 14:30:50*
%MOMM*%
%LPD*%
G01*
G04 APERTURE LIST*
G04 #@! TA.AperFunction,ComponentPad*
%ADD10C,1.440000*%
G04 #@! TD*
G04 #@! TA.AperFunction,ComponentPad*
%ADD11O,1.700000X1.700000*%
G04 #@! TD*
G04 #@! TA.AperFunction,ComponentPad*
%ADD12R,1.700000X1.700000*%
G04 #@! TD*
G04 #@! TA.AperFunction,ComponentPad*
%ADD13C,5.600000*%
G04 #@! TD*
G04 #@! TA.AperFunction,ViaPad*
%ADD14C,1.000000*%
G04 #@! TD*
G04 #@! TA.AperFunction,ViaPad*
%ADD15C,0.800000*%
G04 #@! TD*
G04 #@! TA.AperFunction,Conductor*
%ADD16C,0.254000*%
G04 #@! TD*
G04 #@! TA.AperFunction,Conductor*
%ADD17C,0.100000*%
G04 #@! TD*
G04 APERTURE END LIST*
D10*
X47625000Y-56515000D03*
X50165000Y-56515000D03*
X52705000Y-56515000D03*
X57785000Y-56515000D03*
X60325000Y-56515000D03*
X62865000Y-56515000D03*
X67945000Y-56515000D03*
X70485000Y-56515000D03*
X73025000Y-56515000D03*
D11*
X59690000Y-49530000D03*
X62230000Y-49530000D03*
D12*
X64770000Y-49530000D03*
D11*
X43180000Y-34290000D03*
X43180000Y-31750000D03*
D12*
X43180000Y-29210000D03*
D11*
X78740000Y-99695000D03*
X76200000Y-99695000D03*
X73660000Y-99695000D03*
X71120000Y-99695000D03*
D12*
X68580000Y-99695000D03*
D11*
X30480000Y-48260000D03*
X33020000Y-48260000D03*
X30480000Y-45720000D03*
X33020000Y-45720000D03*
X30480000Y-43180000D03*
X33020000Y-43180000D03*
X30480000Y-40640000D03*
X33020000Y-40640000D03*
X30480000Y-38100000D03*
D12*
X33020000Y-38100000D03*
D11*
X78740000Y-91440000D03*
X78740000Y-88900000D03*
X78740000Y-86360000D03*
X78740000Y-83820000D03*
D12*
X78740000Y-81280000D03*
D11*
X78740000Y-76200000D03*
D12*
X78740000Y-73660000D03*
D11*
X78740000Y-68580000D03*
D12*
X78740000Y-66040000D03*
D11*
X78740000Y-60960000D03*
X78740000Y-58420000D03*
X78740000Y-55880000D03*
D12*
X78740000Y-53340000D03*
D11*
X78740000Y-48260000D03*
X78740000Y-45720000D03*
X78740000Y-43180000D03*
X78740000Y-40640000D03*
D12*
X78740000Y-38100000D03*
D13*
X30480000Y-99060000D03*
X30480000Y-30480000D03*
D14*
X55880000Y-82042000D03*
X67818000Y-82296000D03*
X47752000Y-65024000D03*
X58674000Y-66040000D03*
X66548000Y-96266000D03*
X61722000Y-41402000D03*
X40386000Y-53848000D03*
X40640000Y-55118000D03*
X40640000Y-57150000D03*
X40386000Y-58674000D03*
X35814000Y-67818000D03*
X40640000Y-69596000D03*
X28194000Y-68580000D03*
X46736000Y-67818000D03*
X34290000Y-73660000D03*
X43434000Y-73660000D03*
X34036000Y-84836000D03*
X43180000Y-84836000D03*
X42926000Y-89662000D03*
X34036000Y-88138000D03*
X59436000Y-90678000D03*
X68834000Y-90424000D03*
X68580000Y-85344000D03*
X59690000Y-87884000D03*
X68834000Y-72898000D03*
X59436000Y-73152000D03*
X57912000Y-71120000D03*
X68580000Y-77978000D03*
X68580000Y-69342000D03*
X73406000Y-63500000D03*
X54610000Y-30226000D03*
X53340000Y-31750000D03*
X65278000Y-30226000D03*
X66802000Y-36322000D03*
X56642000Y-45974000D03*
X64008000Y-42926000D03*
X50292000Y-45974000D03*
X46228000Y-36322000D03*
X43180000Y-77724000D03*
X34036000Y-77470000D03*
X50546000Y-37033693D03*
X52578000Y-61468000D03*
X55118000Y-46482000D03*
X37846000Y-61722000D03*
X40640000Y-50800000D03*
X63500000Y-29972000D03*
X39116000Y-71374000D03*
X37084000Y-71374000D03*
X44196000Y-62738000D03*
X62992000Y-64008000D03*
X42164000Y-60452000D03*
X65532000Y-63765000D03*
X75184000Y-72390000D03*
X52462000Y-39878000D03*
X36068000Y-66040000D03*
X50292000Y-64008000D03*
X58420000Y-88900000D03*
X30734000Y-82550000D03*
X46736000Y-82550000D03*
X48768000Y-101346000D03*
X28702000Y-78994000D03*
X48006000Y-99568000D03*
X48260000Y-82042000D03*
X51054000Y-85597998D03*
X26416000Y-54864000D03*
X68326000Y-63246000D03*
X69108428Y-66266126D03*
X50038000Y-68072000D03*
X53085994Y-41402000D03*
X30480000Y-85598000D03*
X56145000Y-85598000D03*
X58166000Y-43180000D03*
X61976000Y-37592000D03*
D15*
X52578000Y-36322000D03*
D16*
X80620000Y-103480000D02*
X26060000Y-103480000D01*
X26060000Y-98721682D01*
X27045000Y-98721682D01*
X27045000Y-99398318D01*
X27177006Y-100061952D01*
X27435943Y-100687082D01*
X27811862Y-101249685D01*
X28290315Y-101728138D01*
X28852918Y-102104057D01*
X29478048Y-102362994D01*
X30141682Y-102495000D01*
X30818318Y-102495000D01*
X31481952Y-102362994D01*
X32107082Y-102104057D01*
X32669685Y-101728138D01*
X33148138Y-101249685D01*
X33524057Y-100687082D01*
X33782994Y-100061952D01*
X33903484Y-99456212D01*
X46871000Y-99456212D01*
X46871000Y-99679788D01*
X46914617Y-99899067D01*
X47000176Y-100105624D01*
X47124388Y-100291520D01*
X47282480Y-100449612D01*
X47468376Y-100573824D01*
X47674933Y-100659383D01*
X47839816Y-100692180D01*
X47762176Y-100808376D01*
X47676617Y-101014933D01*
X47633000Y-101234212D01*
X47633000Y-101457788D01*
X47676617Y-101677067D01*
X47762176Y-101883624D01*
X47886388Y-102069520D01*
X48044480Y-102227612D01*
X48230376Y-102351824D01*
X48436933Y-102437383D01*
X48656212Y-102481000D01*
X48879788Y-102481000D01*
X49099067Y-102437383D01*
X49305624Y-102351824D01*
X49491520Y-102227612D01*
X49649612Y-102069520D01*
X49773824Y-101883624D01*
X49859383Y-101677067D01*
X49903000Y-101457788D01*
X49903000Y-101234212D01*
X49859383Y-101014933D01*
X49773824Y-100808376D01*
X49649612Y-100622480D01*
X49491520Y-100464388D01*
X49305624Y-100340176D01*
X49099067Y-100254617D01*
X48934184Y-100221820D01*
X49011824Y-100105624D01*
X49097383Y-99899067D01*
X49141000Y-99679788D01*
X49141000Y-99456212D01*
X49097383Y-99236933D01*
X49011824Y-99030376D01*
X48887960Y-98845000D01*
X67091928Y-98845000D01*
X67091928Y-100545000D01*
X67104188Y-100669482D01*
X67140498Y-100789180D01*
X67199463Y-100899494D01*
X67278815Y-100996185D01*
X67375506Y-101075537D01*
X67485820Y-101134502D01*
X67605518Y-101170812D01*
X67730000Y-101183072D01*
X69430000Y-101183072D01*
X69554482Y-101170812D01*
X69674180Y-101134502D01*
X69784494Y-101075537D01*
X69881185Y-100996185D01*
X69960537Y-100899494D01*
X70019502Y-100789180D01*
X70041513Y-100716620D01*
X70173368Y-100848475D01*
X70416589Y-101010990D01*
X70686842Y-101122932D01*
X70973740Y-101180000D01*
X71266260Y-101180000D01*
X71553158Y-101122932D01*
X71823411Y-101010990D01*
X72066632Y-100848475D01*
X72273475Y-100641632D01*
X72390000Y-100467240D01*
X72506525Y-100641632D01*
X72713368Y-100848475D01*
X72956589Y-101010990D01*
X73226842Y-101122932D01*
X73513740Y-101180000D01*
X73806260Y-101180000D01*
X74093158Y-101122932D01*
X74363411Y-101010990D01*
X74606632Y-100848475D01*
X74813475Y-100641632D01*
X74930000Y-100467240D01*
X75046525Y-100641632D01*
X75253368Y-100848475D01*
X75496589Y-101010990D01*
X75766842Y-101122932D01*
X76053740Y-101180000D01*
X76346260Y-101180000D01*
X76633158Y-101122932D01*
X76903411Y-101010990D01*
X77146632Y-100848475D01*
X77353475Y-100641632D01*
X77475195Y-100459466D01*
X77544822Y-100576355D01*
X77739731Y-100792588D01*
X77973080Y-100966641D01*
X78235901Y-101091825D01*
X78383110Y-101136476D01*
X78613000Y-101015155D01*
X78613000Y-99822000D01*
X78867000Y-99822000D01*
X78867000Y-101015155D01*
X79096890Y-101136476D01*
X79244099Y-101091825D01*
X79506920Y-100966641D01*
X79740269Y-100792588D01*
X79935178Y-100576355D01*
X80084157Y-100326252D01*
X80181481Y-100051891D01*
X80060814Y-99822000D01*
X78867000Y-99822000D01*
X78613000Y-99822000D01*
X78593000Y-99822000D01*
X78593000Y-99568000D01*
X78613000Y-99568000D01*
X78613000Y-98374845D01*
X78867000Y-98374845D01*
X78867000Y-99568000D01*
X80060814Y-99568000D01*
X80181481Y-99338109D01*
X80084157Y-99063748D01*
X79935178Y-98813645D01*
X79740269Y-98597412D01*
X79506920Y-98423359D01*
X79244099Y-98298175D01*
X79096890Y-98253524D01*
X78867000Y-98374845D01*
X78613000Y-98374845D01*
X78383110Y-98253524D01*
X78235901Y-98298175D01*
X77973080Y-98423359D01*
X77739731Y-98597412D01*
X77544822Y-98813645D01*
X77475195Y-98930534D01*
X77353475Y-98748368D01*
X77146632Y-98541525D01*
X76903411Y-98379010D01*
X76633158Y-98267068D01*
X76346260Y-98210000D01*
X76053740Y-98210000D01*
X75766842Y-98267068D01*
X75496589Y-98379010D01*
X75253368Y-98541525D01*
X75046525Y-98748368D01*
X74930000Y-98922760D01*
X74813475Y-98748368D01*
X74606632Y-98541525D01*
X74363411Y-98379010D01*
X74093158Y-98267068D01*
X73806260Y-98210000D01*
X73513740Y-98210000D01*
X73226842Y-98267068D01*
X72956589Y-98379010D01*
X72713368Y-98541525D01*
X72506525Y-98748368D01*
X72390000Y-98922760D01*
X72273475Y-98748368D01*
X72066632Y-98541525D01*
X71823411Y-98379010D01*
X71553158Y-98267068D01*
X71266260Y-98210000D01*
X70973740Y-98210000D01*
X70686842Y-98267068D01*
X70416589Y-98379010D01*
X70173368Y-98541525D01*
X70041513Y-98673380D01*
X70019502Y-98600820D01*
X69960537Y-98490506D01*
X69881185Y-98393815D01*
X69784494Y-98314463D01*
X69674180Y-98255498D01*
X69554482Y-98219188D01*
X69430000Y-98206928D01*
X67730000Y-98206928D01*
X67605518Y-98219188D01*
X67485820Y-98255498D01*
X67375506Y-98314463D01*
X67278815Y-98393815D01*
X67199463Y-98490506D01*
X67140498Y-98600820D01*
X67104188Y-98720518D01*
X67091928Y-98845000D01*
X48887960Y-98845000D01*
X48887612Y-98844480D01*
X48729520Y-98686388D01*
X48543624Y-98562176D01*
X48337067Y-98476617D01*
X48117788Y-98433000D01*
X47894212Y-98433000D01*
X47674933Y-98476617D01*
X47468376Y-98562176D01*
X47282480Y-98686388D01*
X47124388Y-98844480D01*
X47000176Y-99030376D01*
X46914617Y-99236933D01*
X46871000Y-99456212D01*
X33903484Y-99456212D01*
X33915000Y-99398318D01*
X33915000Y-98721682D01*
X33782994Y-98058048D01*
X33524057Y-97432918D01*
X33148138Y-96870315D01*
X32669685Y-96391862D01*
X32314017Y-96154212D01*
X65413000Y-96154212D01*
X65413000Y-96377788D01*
X65456617Y-96597067D01*
X65542176Y-96803624D01*
X65666388Y-96989520D01*
X65824480Y-97147612D01*
X66010376Y-97271824D01*
X66216933Y-97357383D01*
X66436212Y-97401000D01*
X66659788Y-97401000D01*
X66879067Y-97357383D01*
X67085624Y-97271824D01*
X67271520Y-97147612D01*
X67429612Y-96989520D01*
X67553824Y-96803624D01*
X67639383Y-96597067D01*
X67683000Y-96377788D01*
X67683000Y-96154212D01*
X67639383Y-95934933D01*
X67553824Y-95728376D01*
X67429612Y-95542480D01*
X67271520Y-95384388D01*
X67085624Y-95260176D01*
X66879067Y-95174617D01*
X66659788Y-95131000D01*
X66436212Y-95131000D01*
X66216933Y-95174617D01*
X66010376Y-95260176D01*
X65824480Y-95384388D01*
X65666388Y-95542480D01*
X65542176Y-95728376D01*
X65456617Y-95934933D01*
X65413000Y-96154212D01*
X32314017Y-96154212D01*
X32107082Y-96015943D01*
X31481952Y-95757006D01*
X30818318Y-95625000D01*
X30141682Y-95625000D01*
X29478048Y-95757006D01*
X28852918Y-96015943D01*
X28290315Y-96391862D01*
X27811862Y-96870315D01*
X27435943Y-97432918D01*
X27177006Y-98058048D01*
X27045000Y-98721682D01*
X26060000Y-98721682D01*
X26060000Y-91293740D01*
X77255000Y-91293740D01*
X77255000Y-91586260D01*
X77312068Y-91873158D01*
X77424010Y-92143411D01*
X77586525Y-92386632D01*
X77793368Y-92593475D01*
X78036589Y-92755990D01*
X78306842Y-92867932D01*
X78593740Y-92925000D01*
X78886260Y-92925000D01*
X79173158Y-92867932D01*
X79443411Y-92755990D01*
X79686632Y-92593475D01*
X79893475Y-92386632D01*
X80055990Y-92143411D01*
X80167932Y-91873158D01*
X80225000Y-91586260D01*
X80225000Y-91293740D01*
X80167932Y-91006842D01*
X80055990Y-90736589D01*
X79893475Y-90493368D01*
X79686632Y-90286525D01*
X79504466Y-90164805D01*
X79621355Y-90095178D01*
X79837588Y-89900269D01*
X80011641Y-89666920D01*
X80136825Y-89404099D01*
X80181476Y-89256890D01*
X80060155Y-89027000D01*
X78867000Y-89027000D01*
X78867000Y-89047000D01*
X78613000Y-89047000D01*
X78613000Y-89027000D01*
X77419845Y-89027000D01*
X77298524Y-89256890D01*
X77343175Y-89404099D01*
X77468359Y-89666920D01*
X77642412Y-89900269D01*
X77858645Y-90095178D01*
X77975534Y-90164805D01*
X77793368Y-90286525D01*
X77586525Y-90493368D01*
X77424010Y-90736589D01*
X77312068Y-91006842D01*
X77255000Y-91293740D01*
X26060000Y-91293740D01*
X26060000Y-88788212D01*
X57285000Y-88788212D01*
X57285000Y-89011788D01*
X57328617Y-89231067D01*
X57414176Y-89437624D01*
X57538388Y-89623520D01*
X57696480Y-89781612D01*
X57882376Y-89905824D01*
X58088933Y-89991383D01*
X58308212Y-90035000D01*
X58531788Y-90035000D01*
X58751067Y-89991383D01*
X58957624Y-89905824D01*
X59143520Y-89781612D01*
X59301612Y-89623520D01*
X59425824Y-89437624D01*
X59511383Y-89231067D01*
X59555000Y-89011788D01*
X59555000Y-88788212D01*
X59511383Y-88568933D01*
X59425824Y-88362376D01*
X59301612Y-88176480D01*
X59143520Y-88018388D01*
X58957624Y-87894176D01*
X58751067Y-87808617D01*
X58531788Y-87765000D01*
X58308212Y-87765000D01*
X58088933Y-87808617D01*
X57882376Y-87894176D01*
X57696480Y-88018388D01*
X57538388Y-88176480D01*
X57414176Y-88362376D01*
X57328617Y-88568933D01*
X57285000Y-88788212D01*
X26060000Y-88788212D01*
X26060000Y-85486212D01*
X29345000Y-85486212D01*
X29345000Y-85709788D01*
X29388617Y-85929067D01*
X29474176Y-86135624D01*
X29598388Y-86321520D01*
X29756480Y-86479612D01*
X29942376Y-86603824D01*
X30148933Y-86689383D01*
X30368212Y-86733000D01*
X30591788Y-86733000D01*
X30811067Y-86689383D01*
X31017624Y-86603824D01*
X31203520Y-86479612D01*
X31361612Y-86321520D01*
X31485824Y-86135624D01*
X31571383Y-85929067D01*
X31615000Y-85709788D01*
X31615000Y-85486212D01*
X31615000Y-85486210D01*
X49919000Y-85486210D01*
X49919000Y-85709786D01*
X49962617Y-85929065D01*
X50048176Y-86135622D01*
X50172388Y-86321518D01*
X50330480Y-86479610D01*
X50516376Y-86603822D01*
X50722933Y-86689381D01*
X50942212Y-86732998D01*
X51165788Y-86732998D01*
X51385067Y-86689381D01*
X51591624Y-86603822D01*
X51777520Y-86479610D01*
X51935612Y-86321518D01*
X52059824Y-86135622D01*
X52145383Y-85929065D01*
X52189000Y-85709786D01*
X52189000Y-85486212D01*
X55010000Y-85486212D01*
X55010000Y-85709788D01*
X55053617Y-85929067D01*
X55139176Y-86135624D01*
X55263388Y-86321520D01*
X55421480Y-86479612D01*
X55607376Y-86603824D01*
X55813933Y-86689383D01*
X56033212Y-86733000D01*
X56256788Y-86733000D01*
X56476067Y-86689383D01*
X56682624Y-86603824D01*
X56868520Y-86479612D01*
X57026612Y-86321520D01*
X57150824Y-86135624D01*
X57236383Y-85929067D01*
X57280000Y-85709788D01*
X57280000Y-85486212D01*
X57236383Y-85266933D01*
X57150824Y-85060376D01*
X57026612Y-84874480D01*
X56868520Y-84716388D01*
X56682624Y-84592176D01*
X56476067Y-84506617D01*
X56256788Y-84463000D01*
X56033212Y-84463000D01*
X55813933Y-84506617D01*
X55607376Y-84592176D01*
X55421480Y-84716388D01*
X55263388Y-84874480D01*
X55139176Y-85060376D01*
X55053617Y-85266933D01*
X55010000Y-85486212D01*
X52189000Y-85486212D01*
X52189000Y-85486210D01*
X52145383Y-85266931D01*
X52059824Y-85060374D01*
X51935612Y-84874478D01*
X51777520Y-84716386D01*
X51591624Y-84592174D01*
X51385067Y-84506615D01*
X51165788Y-84462998D01*
X50942212Y-84462998D01*
X50722933Y-84506615D01*
X50516376Y-84592174D01*
X50330480Y-84716386D01*
X50172388Y-84874478D01*
X50048176Y-85060374D01*
X49962617Y-85266931D01*
X49919000Y-85486210D01*
X31615000Y-85486210D01*
X31571383Y-85266933D01*
X31485824Y-85060376D01*
X31361612Y-84874480D01*
X31203520Y-84716388D01*
X31017624Y-84592176D01*
X30811067Y-84506617D01*
X30591788Y-84463000D01*
X30368212Y-84463000D01*
X30148933Y-84506617D01*
X29942376Y-84592176D01*
X29756480Y-84716388D01*
X29598388Y-84874480D01*
X29474176Y-85060376D01*
X29388617Y-85266933D01*
X29345000Y-85486212D01*
X26060000Y-85486212D01*
X26060000Y-82438212D01*
X29599000Y-82438212D01*
X29599000Y-82661788D01*
X29642617Y-82881067D01*
X29728176Y-83087624D01*
X29852388Y-83273520D01*
X30010480Y-83431612D01*
X30196376Y-83555824D01*
X30402933Y-83641383D01*
X30622212Y-83685000D01*
X30845788Y-83685000D01*
X31065067Y-83641383D01*
X31271624Y-83555824D01*
X31457520Y-83431612D01*
X31615612Y-83273520D01*
X31739824Y-83087624D01*
X31825383Y-82881067D01*
X31869000Y-82661788D01*
X31869000Y-82438212D01*
X45601000Y-82438212D01*
X45601000Y-82661788D01*
X45644617Y-82881067D01*
X45730176Y-83087624D01*
X45854388Y-83273520D01*
X46012480Y-83431612D01*
X46198376Y-83555824D01*
X46404933Y-83641383D01*
X46624212Y-83685000D01*
X46847788Y-83685000D01*
X47067067Y-83641383D01*
X47273624Y-83555824D01*
X47459520Y-83431612D01*
X47617612Y-83273520D01*
X47741824Y-83087624D01*
X47753047Y-83060529D01*
X47928933Y-83133383D01*
X48148212Y-83177000D01*
X48371788Y-83177000D01*
X48591067Y-83133383D01*
X48797624Y-83047824D01*
X48983520Y-82923612D01*
X49141612Y-82765520D01*
X49265824Y-82579624D01*
X49351383Y-82373067D01*
X49395000Y-82153788D01*
X49395000Y-81930212D01*
X54745000Y-81930212D01*
X54745000Y-82153788D01*
X54788617Y-82373067D01*
X54874176Y-82579624D01*
X54998388Y-82765520D01*
X55156480Y-82923612D01*
X55342376Y-83047824D01*
X55548933Y-83133383D01*
X55768212Y-83177000D01*
X55991788Y-83177000D01*
X56211067Y-83133383D01*
X56417624Y-83047824D01*
X56603520Y-82923612D01*
X56761612Y-82765520D01*
X56885824Y-82579624D01*
X56971383Y-82373067D01*
X57008948Y-82184212D01*
X66683000Y-82184212D01*
X66683000Y-82407788D01*
X66726617Y-82627067D01*
X66812176Y-82833624D01*
X66936388Y-83019520D01*
X67094480Y-83177612D01*
X67280376Y-83301824D01*
X67486933Y-83387383D01*
X67706212Y-83431000D01*
X67929788Y-83431000D01*
X68149067Y-83387383D01*
X68355624Y-83301824D01*
X68541520Y-83177612D01*
X68699612Y-83019520D01*
X68823824Y-82833624D01*
X68909383Y-82627067D01*
X68953000Y-82407788D01*
X68953000Y-82184212D01*
X68909383Y-81964933D01*
X68823824Y-81758376D01*
X68699612Y-81572480D01*
X68541520Y-81414388D01*
X68355624Y-81290176D01*
X68149067Y-81204617D01*
X67929788Y-81161000D01*
X67706212Y-81161000D01*
X67486933Y-81204617D01*
X67280376Y-81290176D01*
X67094480Y-81414388D01*
X66936388Y-81572480D01*
X66812176Y-81758376D01*
X66726617Y-81964933D01*
X66683000Y-82184212D01*
X57008948Y-82184212D01*
X57015000Y-82153788D01*
X57015000Y-81930212D01*
X56971383Y-81710933D01*
X56885824Y-81504376D01*
X56761612Y-81318480D01*
X56603520Y-81160388D01*
X56417624Y-81036176D01*
X56211067Y-80950617D01*
X55991788Y-80907000D01*
X55768212Y-80907000D01*
X55548933Y-80950617D01*
X55342376Y-81036176D01*
X55156480Y-81160388D01*
X54998388Y-81318480D01*
X54874176Y-81504376D01*
X54788617Y-81710933D01*
X54745000Y-81930212D01*
X49395000Y-81930212D01*
X49351383Y-81710933D01*
X49265824Y-81504376D01*
X49141612Y-81318480D01*
X48983520Y-81160388D01*
X48797624Y-81036176D01*
X48591067Y-80950617D01*
X48371788Y-80907000D01*
X48148212Y-80907000D01*
X47928933Y-80950617D01*
X47722376Y-81036176D01*
X47536480Y-81160388D01*
X47378388Y-81318480D01*
X47254176Y-81504376D01*
X47242953Y-81531471D01*
X47067067Y-81458617D01*
X46847788Y-81415000D01*
X46624212Y-81415000D01*
X46404933Y-81458617D01*
X46198376Y-81544176D01*
X46012480Y-81668388D01*
X45854388Y-81826480D01*
X45730176Y-82012376D01*
X45644617Y-82218933D01*
X45601000Y-82438212D01*
X31869000Y-82438212D01*
X31825383Y-82218933D01*
X31739824Y-82012376D01*
X31615612Y-81826480D01*
X31457520Y-81668388D01*
X31271624Y-81544176D01*
X31065067Y-81458617D01*
X30845788Y-81415000D01*
X30622212Y-81415000D01*
X30402933Y-81458617D01*
X30196376Y-81544176D01*
X30010480Y-81668388D01*
X29852388Y-81826480D01*
X29728176Y-82012376D01*
X29642617Y-82218933D01*
X29599000Y-82438212D01*
X26060000Y-82438212D01*
X26060000Y-80430000D01*
X77251928Y-80430000D01*
X77251928Y-82130000D01*
X77264188Y-82254482D01*
X77300498Y-82374180D01*
X77359463Y-82484494D01*
X77438815Y-82581185D01*
X77535506Y-82660537D01*
X77645820Y-82719502D01*
X77718380Y-82741513D01*
X77586525Y-82873368D01*
X77424010Y-83116589D01*
X77312068Y-83386842D01*
X77255000Y-83673740D01*
X77255000Y-83966260D01*
X77312068Y-84253158D01*
X77424010Y-84523411D01*
X77586525Y-84766632D01*
X77793368Y-84973475D01*
X77967760Y-85090000D01*
X77793368Y-85206525D01*
X77586525Y-85413368D01*
X77424010Y-85656589D01*
X77312068Y-85926842D01*
X77255000Y-86213740D01*
X77255000Y-86506260D01*
X77312068Y-86793158D01*
X77424010Y-87063411D01*
X77586525Y-87306632D01*
X77793368Y-87513475D01*
X77975534Y-87635195D01*
X77858645Y-87704822D01*
X77642412Y-87899731D01*
X77468359Y-88133080D01*
X77343175Y-88395901D01*
X77298524Y-88543110D01*
X77419845Y-88773000D01*
X78613000Y-88773000D01*
X78613000Y-88753000D01*
X78867000Y-88753000D01*
X78867000Y-88773000D01*
X80060155Y-88773000D01*
X80181476Y-88543110D01*
X80136825Y-88395901D01*
X80011641Y-88133080D01*
X79837588Y-87899731D01*
X79621355Y-87704822D01*
X79504466Y-87635195D01*
X79686632Y-87513475D01*
X79893475Y-87306632D01*
X80055990Y-87063411D01*
X80167932Y-86793158D01*
X80225000Y-86506260D01*
X80225000Y-86213740D01*
X80167932Y-85926842D01*
X80055990Y-85656589D01*
X79893475Y-85413368D01*
X79686632Y-85206525D01*
X79512240Y-85090000D01*
X79686632Y-84973475D01*
X79893475Y-84766632D01*
X80055990Y-84523411D01*
X80167932Y-84253158D01*
X80225000Y-83966260D01*
X80225000Y-83673740D01*
X80167932Y-83386842D01*
X80055990Y-83116589D01*
X79893475Y-82873368D01*
X79761620Y-82741513D01*
X79834180Y-82719502D01*
X79944494Y-82660537D01*
X80041185Y-82581185D01*
X80120537Y-82484494D01*
X80179502Y-82374180D01*
X80215812Y-82254482D01*
X80228072Y-82130000D01*
X80228072Y-80430000D01*
X80215812Y-80305518D01*
X80179502Y-80185820D01*
X80120537Y-80075506D01*
X80041185Y-79978815D01*
X79944494Y-79899463D01*
X79834180Y-79840498D01*
X79714482Y-79804188D01*
X79590000Y-79791928D01*
X77890000Y-79791928D01*
X77765518Y-79804188D01*
X77645820Y-79840498D01*
X77535506Y-79899463D01*
X77438815Y-79978815D01*
X77359463Y-80075506D01*
X77300498Y-80185820D01*
X77264188Y-80305518D01*
X77251928Y-80430000D01*
X26060000Y-80430000D01*
X26060000Y-78882212D01*
X27567000Y-78882212D01*
X27567000Y-79105788D01*
X27610617Y-79325067D01*
X27696176Y-79531624D01*
X27820388Y-79717520D01*
X27978480Y-79875612D01*
X28164376Y-79999824D01*
X28370933Y-80085383D01*
X28590212Y-80129000D01*
X28813788Y-80129000D01*
X29033067Y-80085383D01*
X29239624Y-79999824D01*
X29425520Y-79875612D01*
X29583612Y-79717520D01*
X29707824Y-79531624D01*
X29793383Y-79325067D01*
X29837000Y-79105788D01*
X29837000Y-78882212D01*
X29793383Y-78662933D01*
X29707824Y-78456376D01*
X29583612Y-78270480D01*
X29425520Y-78112388D01*
X29239624Y-77988176D01*
X29033067Y-77902617D01*
X28813788Y-77859000D01*
X28590212Y-77859000D01*
X28370933Y-77902617D01*
X28164376Y-77988176D01*
X27978480Y-78112388D01*
X27820388Y-78270480D01*
X27696176Y-78456376D01*
X27610617Y-78662933D01*
X27567000Y-78882212D01*
X26060000Y-78882212D01*
X26060000Y-76556890D01*
X77298524Y-76556890D01*
X77343175Y-76704099D01*
X77468359Y-76966920D01*
X77642412Y-77200269D01*
X77858645Y-77395178D01*
X78108748Y-77544157D01*
X78383109Y-77641481D01*
X78613000Y-77520814D01*
X78613000Y-76327000D01*
X78867000Y-76327000D01*
X78867000Y-77520814D01*
X79096891Y-77641481D01*
X79371252Y-77544157D01*
X79621355Y-77395178D01*
X79837588Y-77200269D01*
X80011641Y-76966920D01*
X80136825Y-76704099D01*
X80181476Y-76556890D01*
X80060155Y-76327000D01*
X78867000Y-76327000D01*
X78613000Y-76327000D01*
X77419845Y-76327000D01*
X77298524Y-76556890D01*
X26060000Y-76556890D01*
X26060000Y-71262212D01*
X35949000Y-71262212D01*
X35949000Y-71485788D01*
X35992617Y-71705067D01*
X36078176Y-71911624D01*
X36202388Y-72097520D01*
X36360480Y-72255612D01*
X36546376Y-72379824D01*
X36752933Y-72465383D01*
X36972212Y-72509000D01*
X37195788Y-72509000D01*
X37415067Y-72465383D01*
X37621624Y-72379824D01*
X37807520Y-72255612D01*
X37965612Y-72097520D01*
X38089824Y-71911624D01*
X38100000Y-71887057D01*
X38110176Y-71911624D01*
X38234388Y-72097520D01*
X38392480Y-72255612D01*
X38578376Y-72379824D01*
X38784933Y-72465383D01*
X39004212Y-72509000D01*
X39227788Y-72509000D01*
X39447067Y-72465383D01*
X39653624Y-72379824D01*
X39805696Y-72278212D01*
X74049000Y-72278212D01*
X74049000Y-72501788D01*
X74092617Y-72721067D01*
X74178176Y-72927624D01*
X74302388Y-73113520D01*
X74460480Y-73271612D01*
X74646376Y-73395824D01*
X74852933Y-73481383D01*
X75072212Y-73525000D01*
X75295788Y-73525000D01*
X75515067Y-73481383D01*
X75721624Y-73395824D01*
X75907520Y-73271612D01*
X76065612Y-73113520D01*
X76189824Y-72927624D01*
X76238545Y-72810000D01*
X77251928Y-72810000D01*
X77251928Y-74510000D01*
X77264188Y-74634482D01*
X77300498Y-74754180D01*
X77359463Y-74864494D01*
X77438815Y-74961185D01*
X77535506Y-75040537D01*
X77645820Y-75099502D01*
X77726466Y-75123966D01*
X77642412Y-75199731D01*
X77468359Y-75433080D01*
X77343175Y-75695901D01*
X77298524Y-75843110D01*
X77419845Y-76073000D01*
X78613000Y-76073000D01*
X78613000Y-76053000D01*
X78867000Y-76053000D01*
X78867000Y-76073000D01*
X80060155Y-76073000D01*
X80181476Y-75843110D01*
X80136825Y-75695901D01*
X80011641Y-75433080D01*
X79837588Y-75199731D01*
X79753534Y-75123966D01*
X79834180Y-75099502D01*
X79944494Y-75040537D01*
X80041185Y-74961185D01*
X80120537Y-74864494D01*
X80179502Y-74754180D01*
X80215812Y-74634482D01*
X80228072Y-74510000D01*
X80228072Y-72810000D01*
X80215812Y-72685518D01*
X80179502Y-72565820D01*
X80120537Y-72455506D01*
X80041185Y-72358815D01*
X79944494Y-72279463D01*
X79834180Y-72220498D01*
X79714482Y-72184188D01*
X79590000Y-72171928D01*
X77890000Y-72171928D01*
X77765518Y-72184188D01*
X77645820Y-72220498D01*
X77535506Y-72279463D01*
X77438815Y-72358815D01*
X77359463Y-72455506D01*
X77300498Y-72565820D01*
X77264188Y-72685518D01*
X77251928Y-72810000D01*
X76238545Y-72810000D01*
X76275383Y-72721067D01*
X76319000Y-72501788D01*
X76319000Y-72278212D01*
X76275383Y-72058933D01*
X76189824Y-71852376D01*
X76065612Y-71666480D01*
X75907520Y-71508388D01*
X75721624Y-71384176D01*
X75515067Y-71298617D01*
X75295788Y-71255000D01*
X75072212Y-71255000D01*
X74852933Y-71298617D01*
X74646376Y-71384176D01*
X74460480Y-71508388D01*
X74302388Y-71666480D01*
X74178176Y-71852376D01*
X74092617Y-72058933D01*
X74049000Y-72278212D01*
X39805696Y-72278212D01*
X39839520Y-72255612D01*
X39997612Y-72097520D01*
X40121824Y-71911624D01*
X40207383Y-71705067D01*
X40251000Y-71485788D01*
X40251000Y-71262212D01*
X40207383Y-71042933D01*
X40121824Y-70836376D01*
X39997612Y-70650480D01*
X39839520Y-70492388D01*
X39653624Y-70368176D01*
X39447067Y-70282617D01*
X39227788Y-70239000D01*
X39004212Y-70239000D01*
X38784933Y-70282617D01*
X38578376Y-70368176D01*
X38392480Y-70492388D01*
X38234388Y-70650480D01*
X38110176Y-70836376D01*
X38100000Y-70860943D01*
X38089824Y-70836376D01*
X37965612Y-70650480D01*
X37807520Y-70492388D01*
X37621624Y-70368176D01*
X37415067Y-70282617D01*
X37195788Y-70239000D01*
X36972212Y-70239000D01*
X36752933Y-70282617D01*
X36546376Y-70368176D01*
X36360480Y-70492388D01*
X36202388Y-70650480D01*
X36078176Y-70836376D01*
X35992617Y-71042933D01*
X35949000Y-71262212D01*
X26060000Y-71262212D01*
X26060000Y-67960212D01*
X48903000Y-67960212D01*
X48903000Y-68183788D01*
X48946617Y-68403067D01*
X49032176Y-68609624D01*
X49156388Y-68795520D01*
X49314480Y-68953612D01*
X49500376Y-69077824D01*
X49706933Y-69163383D01*
X49926212Y-69207000D01*
X50149788Y-69207000D01*
X50369067Y-69163383D01*
X50575624Y-69077824D01*
X50761520Y-68953612D01*
X50778242Y-68936890D01*
X77298524Y-68936890D01*
X77343175Y-69084099D01*
X77468359Y-69346920D01*
X77642412Y-69580269D01*
X77858645Y-69775178D01*
X78108748Y-69924157D01*
X78383109Y-70021481D01*
X78613000Y-69900814D01*
X78613000Y-68707000D01*
X78867000Y-68707000D01*
X78867000Y-69900814D01*
X79096891Y-70021481D01*
X79371252Y-69924157D01*
X79621355Y-69775178D01*
X79837588Y-69580269D01*
X80011641Y-69346920D01*
X80136825Y-69084099D01*
X80181476Y-68936890D01*
X80060155Y-68707000D01*
X78867000Y-68707000D01*
X78613000Y-68707000D01*
X77419845Y-68707000D01*
X77298524Y-68936890D01*
X50778242Y-68936890D01*
X50919612Y-68795520D01*
X51043824Y-68609624D01*
X51129383Y-68403067D01*
X51173000Y-68183788D01*
X51173000Y-67960212D01*
X51129383Y-67740933D01*
X51043824Y-67534376D01*
X50919612Y-67348480D01*
X50761520Y-67190388D01*
X50575624Y-67066176D01*
X50369067Y-66980617D01*
X50149788Y-66937000D01*
X49926212Y-66937000D01*
X49706933Y-66980617D01*
X49500376Y-67066176D01*
X49314480Y-67190388D01*
X49156388Y-67348480D01*
X49032176Y-67534376D01*
X48946617Y-67740933D01*
X48903000Y-67960212D01*
X26060000Y-67960212D01*
X26060000Y-65928212D01*
X34933000Y-65928212D01*
X34933000Y-66151788D01*
X34976617Y-66371067D01*
X35062176Y-66577624D01*
X35186388Y-66763520D01*
X35344480Y-66921612D01*
X35530376Y-67045824D01*
X35736933Y-67131383D01*
X35956212Y-67175000D01*
X36179788Y-67175000D01*
X36399067Y-67131383D01*
X36605624Y-67045824D01*
X36791520Y-66921612D01*
X36949612Y-66763520D01*
X37073824Y-66577624D01*
X37159383Y-66371067D01*
X37203000Y-66151788D01*
X37203000Y-65928212D01*
X37159383Y-65708933D01*
X37073824Y-65502376D01*
X36949612Y-65316480D01*
X36791520Y-65158388D01*
X36605624Y-65034176D01*
X36399067Y-64948617D01*
X36216046Y-64912212D01*
X46617000Y-64912212D01*
X46617000Y-65135788D01*
X46660617Y-65355067D01*
X46746176Y-65561624D01*
X46870388Y-65747520D01*
X47028480Y-65905612D01*
X47214376Y-66029824D01*
X47420933Y-66115383D01*
X47640212Y-66159000D01*
X47863788Y-66159000D01*
X48083067Y-66115383D01*
X48289624Y-66029824D01*
X48441696Y-65928212D01*
X57539000Y-65928212D01*
X57539000Y-66151788D01*
X57582617Y-66371067D01*
X57668176Y-66577624D01*
X57792388Y-66763520D01*
X57950480Y-66921612D01*
X58136376Y-67045824D01*
X58342933Y-67131383D01*
X58562212Y-67175000D01*
X58785788Y-67175000D01*
X59005067Y-67131383D01*
X59211624Y-67045824D01*
X59397520Y-66921612D01*
X59555612Y-66763520D01*
X59679824Y-66577624D01*
X59765383Y-66371067D01*
X59808492Y-66154338D01*
X67973428Y-66154338D01*
X67973428Y-66377914D01*
X68017045Y-66597193D01*
X68102604Y-66803750D01*
X68226816Y-66989646D01*
X68384908Y-67147738D01*
X68570804Y-67271950D01*
X68777361Y-67357509D01*
X68996640Y-67401126D01*
X69220216Y-67401126D01*
X69439495Y-67357509D01*
X69646052Y-67271950D01*
X69831948Y-67147738D01*
X69990040Y-66989646D01*
X70114252Y-66803750D01*
X70199811Y-66597193D01*
X70243428Y-66377914D01*
X70243428Y-66154338D01*
X70199811Y-65935059D01*
X70114252Y-65728502D01*
X69990040Y-65542606D01*
X69831948Y-65384514D01*
X69646052Y-65260302D01*
X69476329Y-65190000D01*
X77251928Y-65190000D01*
X77251928Y-66890000D01*
X77264188Y-67014482D01*
X77300498Y-67134180D01*
X77359463Y-67244494D01*
X77438815Y-67341185D01*
X77535506Y-67420537D01*
X77645820Y-67479502D01*
X77726466Y-67503966D01*
X77642412Y-67579731D01*
X77468359Y-67813080D01*
X77343175Y-68075901D01*
X77298524Y-68223110D01*
X77419845Y-68453000D01*
X78613000Y-68453000D01*
X78613000Y-68433000D01*
X78867000Y-68433000D01*
X78867000Y-68453000D01*
X80060155Y-68453000D01*
X80181476Y-68223110D01*
X80136825Y-68075901D01*
X80011641Y-67813080D01*
X79837588Y-67579731D01*
X79753534Y-67503966D01*
X79834180Y-67479502D01*
X79944494Y-67420537D01*
X80041185Y-67341185D01*
X80120537Y-67244494D01*
X80179502Y-67134180D01*
X80215812Y-67014482D01*
X80228072Y-66890000D01*
X80228072Y-65190000D01*
X80215812Y-65065518D01*
X80179502Y-64945820D01*
X80120537Y-64835506D01*
X80041185Y-64738815D01*
X79944494Y-64659463D01*
X79834180Y-64600498D01*
X79714482Y-64564188D01*
X79590000Y-64551928D01*
X77890000Y-64551928D01*
X77765518Y-64564188D01*
X77645820Y-64600498D01*
X77535506Y-64659463D01*
X77438815Y-64738815D01*
X77359463Y-64835506D01*
X77300498Y-64945820D01*
X77264188Y-65065518D01*
X77251928Y-65190000D01*
X69476329Y-65190000D01*
X69439495Y-65174743D01*
X69220216Y-65131126D01*
X68996640Y-65131126D01*
X68777361Y-65174743D01*
X68570804Y-65260302D01*
X68384908Y-65384514D01*
X68226816Y-65542606D01*
X68102604Y-65728502D01*
X68017045Y-65935059D01*
X67973428Y-66154338D01*
X59808492Y-66154338D01*
X59809000Y-66151788D01*
X59809000Y-65928212D01*
X59765383Y-65708933D01*
X59679824Y-65502376D01*
X59555612Y-65316480D01*
X59397520Y-65158388D01*
X59211624Y-65034176D01*
X59005067Y-64948617D01*
X58785788Y-64905000D01*
X58562212Y-64905000D01*
X58342933Y-64948617D01*
X58136376Y-65034176D01*
X57950480Y-65158388D01*
X57792388Y-65316480D01*
X57668176Y-65502376D01*
X57582617Y-65708933D01*
X57539000Y-65928212D01*
X48441696Y-65928212D01*
X48475520Y-65905612D01*
X48633612Y-65747520D01*
X48757824Y-65561624D01*
X48843383Y-65355067D01*
X48887000Y-65135788D01*
X48887000Y-64912212D01*
X48843383Y-64692933D01*
X48757824Y-64486376D01*
X48633612Y-64300480D01*
X48475520Y-64142388D01*
X48289624Y-64018176D01*
X48083067Y-63932617D01*
X47900046Y-63896212D01*
X49157000Y-63896212D01*
X49157000Y-64119788D01*
X49200617Y-64339067D01*
X49286176Y-64545624D01*
X49410388Y-64731520D01*
X49568480Y-64889612D01*
X49754376Y-65013824D01*
X49960933Y-65099383D01*
X50180212Y-65143000D01*
X50403788Y-65143000D01*
X50623067Y-65099383D01*
X50829624Y-65013824D01*
X51015520Y-64889612D01*
X51173612Y-64731520D01*
X51297824Y-64545624D01*
X51383383Y-64339067D01*
X51427000Y-64119788D01*
X51427000Y-63896212D01*
X61857000Y-63896212D01*
X61857000Y-64119788D01*
X61900617Y-64339067D01*
X61986176Y-64545624D01*
X62110388Y-64731520D01*
X62268480Y-64889612D01*
X62454376Y-65013824D01*
X62660933Y-65099383D01*
X62880212Y-65143000D01*
X63103788Y-65143000D01*
X63323067Y-65099383D01*
X63529624Y-65013824D01*
X63715520Y-64889612D01*
X63873612Y-64731520D01*
X63997824Y-64545624D01*
X64083383Y-64339067D01*
X64127000Y-64119788D01*
X64127000Y-63896212D01*
X64083383Y-63676933D01*
X64073558Y-63653212D01*
X64397000Y-63653212D01*
X64397000Y-63876788D01*
X64440617Y-64096067D01*
X64526176Y-64302624D01*
X64650388Y-64488520D01*
X64808480Y-64646612D01*
X64994376Y-64770824D01*
X65200933Y-64856383D01*
X65420212Y-64900000D01*
X65643788Y-64900000D01*
X65863067Y-64856383D01*
X66069624Y-64770824D01*
X66255520Y-64646612D01*
X66413612Y-64488520D01*
X66537824Y-64302624D01*
X66623383Y-64096067D01*
X66667000Y-63876788D01*
X66667000Y-63653212D01*
X66623383Y-63433933D01*
X66537824Y-63227376D01*
X66475574Y-63134212D01*
X67191000Y-63134212D01*
X67191000Y-63357788D01*
X67234617Y-63577067D01*
X67320176Y-63783624D01*
X67444388Y-63969520D01*
X67602480Y-64127612D01*
X67788376Y-64251824D01*
X67994933Y-64337383D01*
X68214212Y-64381000D01*
X68437788Y-64381000D01*
X68657067Y-64337383D01*
X68863624Y-64251824D01*
X69049520Y-64127612D01*
X69207612Y-63969520D01*
X69331824Y-63783624D01*
X69417383Y-63577067D01*
X69461000Y-63357788D01*
X69461000Y-63134212D01*
X69417383Y-62914933D01*
X69331824Y-62708376D01*
X69207612Y-62522480D01*
X69049520Y-62364388D01*
X68863624Y-62240176D01*
X68657067Y-62154617D01*
X68437788Y-62111000D01*
X68214212Y-62111000D01*
X67994933Y-62154617D01*
X67788376Y-62240176D01*
X67602480Y-62364388D01*
X67444388Y-62522480D01*
X67320176Y-62708376D01*
X67234617Y-62914933D01*
X67191000Y-63134212D01*
X66475574Y-63134212D01*
X66413612Y-63041480D01*
X66255520Y-62883388D01*
X66069624Y-62759176D01*
X65863067Y-62673617D01*
X65643788Y-62630000D01*
X65420212Y-62630000D01*
X65200933Y-62673617D01*
X64994376Y-62759176D01*
X64808480Y-62883388D01*
X64650388Y-63041480D01*
X64526176Y-63227376D01*
X64440617Y-63433933D01*
X64397000Y-63653212D01*
X64073558Y-63653212D01*
X63997824Y-63470376D01*
X63873612Y-63284480D01*
X63715520Y-63126388D01*
X63529624Y-63002176D01*
X63323067Y-62916617D01*
X63103788Y-62873000D01*
X62880212Y-62873000D01*
X62660933Y-62916617D01*
X62454376Y-63002176D01*
X62268480Y-63126388D01*
X62110388Y-63284480D01*
X61986176Y-63470376D01*
X61900617Y-63676933D01*
X61857000Y-63896212D01*
X51427000Y-63896212D01*
X51383383Y-63676933D01*
X51297824Y-63470376D01*
X51173612Y-63284480D01*
X51015520Y-63126388D01*
X50829624Y-63002176D01*
X50623067Y-62916617D01*
X50403788Y-62873000D01*
X50180212Y-62873000D01*
X49960933Y-62916617D01*
X49754376Y-63002176D01*
X49568480Y-63126388D01*
X49410388Y-63284480D01*
X49286176Y-63470376D01*
X49200617Y-63676933D01*
X49157000Y-63896212D01*
X47900046Y-63896212D01*
X47863788Y-63889000D01*
X47640212Y-63889000D01*
X47420933Y-63932617D01*
X47214376Y-64018176D01*
X47028480Y-64142388D01*
X46870388Y-64300480D01*
X46746176Y-64486376D01*
X46660617Y-64692933D01*
X46617000Y-64912212D01*
X36216046Y-64912212D01*
X36179788Y-64905000D01*
X35956212Y-64905000D01*
X35736933Y-64948617D01*
X35530376Y-65034176D01*
X35344480Y-65158388D01*
X35186388Y-65316480D01*
X35062176Y-65502376D01*
X34976617Y-65708933D01*
X34933000Y-65928212D01*
X26060000Y-65928212D01*
X26060000Y-61610212D01*
X36711000Y-61610212D01*
X36711000Y-61833788D01*
X36754617Y-62053067D01*
X36840176Y-62259624D01*
X36964388Y-62445520D01*
X37122480Y-62603612D01*
X37308376Y-62727824D01*
X37514933Y-62813383D01*
X37734212Y-62857000D01*
X37957788Y-62857000D01*
X38177067Y-62813383D01*
X38383624Y-62727824D01*
X38535696Y-62626212D01*
X43061000Y-62626212D01*
X43061000Y-62849788D01*
X43104617Y-63069067D01*
X43190176Y-63275624D01*
X43314388Y-63461520D01*
X43472480Y-63619612D01*
X43658376Y-63743824D01*
X43864933Y-63829383D01*
X44084212Y-63873000D01*
X44307788Y-63873000D01*
X44527067Y-63829383D01*
X44733624Y-63743824D01*
X44919520Y-63619612D01*
X45077612Y-63461520D01*
X45201824Y-63275624D01*
X45287383Y-63069067D01*
X45331000Y-62849788D01*
X45331000Y-62626212D01*
X45287383Y-62406933D01*
X45201824Y-62200376D01*
X45077612Y-62014480D01*
X44919520Y-61856388D01*
X44733624Y-61732176D01*
X44527067Y-61646617D01*
X44307788Y-61603000D01*
X44084212Y-61603000D01*
X43864933Y-61646617D01*
X43658376Y-61732176D01*
X43472480Y-61856388D01*
X43314388Y-62014480D01*
X43190176Y-62200376D01*
X43104617Y-62406933D01*
X43061000Y-62626212D01*
X38535696Y-62626212D01*
X38569520Y-62603612D01*
X38727612Y-62445520D01*
X38851824Y-62259624D01*
X38937383Y-62053067D01*
X38981000Y-61833788D01*
X38981000Y-61610212D01*
X38937383Y-61390933D01*
X38851824Y-61184376D01*
X38727612Y-60998480D01*
X38569520Y-60840388D01*
X38383624Y-60716176D01*
X38177067Y-60630617D01*
X37957788Y-60587000D01*
X37734212Y-60587000D01*
X37514933Y-60630617D01*
X37308376Y-60716176D01*
X37122480Y-60840388D01*
X36964388Y-60998480D01*
X36840176Y-61184376D01*
X36754617Y-61390933D01*
X36711000Y-61610212D01*
X26060000Y-61610212D01*
X26060000Y-60340212D01*
X41029000Y-60340212D01*
X41029000Y-60563788D01*
X41072617Y-60783067D01*
X41158176Y-60989624D01*
X41282388Y-61175520D01*
X41440480Y-61333612D01*
X41626376Y-61457824D01*
X41832933Y-61543383D01*
X42052212Y-61587000D01*
X42275788Y-61587000D01*
X42495067Y-61543383D01*
X42701624Y-61457824D01*
X42853696Y-61356212D01*
X51443000Y-61356212D01*
X51443000Y-61579788D01*
X51486617Y-61799067D01*
X51572176Y-62005624D01*
X51696388Y-62191520D01*
X51854480Y-62349612D01*
X52040376Y-62473824D01*
X52246933Y-62559383D01*
X52466212Y-62603000D01*
X52689788Y-62603000D01*
X52909067Y-62559383D01*
X53115624Y-62473824D01*
X53301520Y-62349612D01*
X53459612Y-62191520D01*
X53583824Y-62005624D01*
X53669383Y-61799067D01*
X53713000Y-61579788D01*
X53713000Y-61356212D01*
X53705179Y-61316890D01*
X77298524Y-61316890D01*
X77343175Y-61464099D01*
X77468359Y-61726920D01*
X77642412Y-61960269D01*
X77858645Y-62155178D01*
X78108748Y-62304157D01*
X78383109Y-62401481D01*
X78613000Y-62280814D01*
X78613000Y-61087000D01*
X78867000Y-61087000D01*
X78867000Y-62280814D01*
X79096891Y-62401481D01*
X79371252Y-62304157D01*
X79621355Y-62155178D01*
X79837588Y-61960269D01*
X80011641Y-61726920D01*
X80136825Y-61464099D01*
X80181476Y-61316890D01*
X80060155Y-61087000D01*
X78867000Y-61087000D01*
X78613000Y-61087000D01*
X77419845Y-61087000D01*
X77298524Y-61316890D01*
X53705179Y-61316890D01*
X53669383Y-61136933D01*
X53583824Y-60930376D01*
X53459612Y-60744480D01*
X53301520Y-60586388D01*
X53115624Y-60462176D01*
X52909067Y-60376617D01*
X52689788Y-60333000D01*
X52466212Y-60333000D01*
X52246933Y-60376617D01*
X52040376Y-60462176D01*
X51854480Y-60586388D01*
X51696388Y-60744480D01*
X51572176Y-60930376D01*
X51486617Y-61136933D01*
X51443000Y-61356212D01*
X42853696Y-61356212D01*
X42887520Y-61333612D01*
X43045612Y-61175520D01*
X43169824Y-60989624D01*
X43255383Y-60783067D01*
X43299000Y-60563788D01*
X43299000Y-60340212D01*
X43255383Y-60120933D01*
X43169824Y-59914376D01*
X43045612Y-59728480D01*
X42887520Y-59570388D01*
X42701624Y-59446176D01*
X42495067Y-59360617D01*
X42275788Y-59317000D01*
X42052212Y-59317000D01*
X41832933Y-59360617D01*
X41626376Y-59446176D01*
X41440480Y-59570388D01*
X41282388Y-59728480D01*
X41158176Y-59914376D01*
X41072617Y-60120933D01*
X41029000Y-60340212D01*
X26060000Y-60340212D01*
X26060000Y-56381544D01*
X46270000Y-56381544D01*
X46270000Y-56648456D01*
X46322072Y-56910239D01*
X46424215Y-57156833D01*
X46572503Y-57378762D01*
X46761238Y-57567497D01*
X46983167Y-57715785D01*
X47229761Y-57817928D01*
X47491544Y-57870000D01*
X47758456Y-57870000D01*
X48020239Y-57817928D01*
X48266833Y-57715785D01*
X48488762Y-57567497D01*
X48677497Y-57378762D01*
X48825785Y-57156833D01*
X48895000Y-56989734D01*
X48964215Y-57156833D01*
X49112503Y-57378762D01*
X49301238Y-57567497D01*
X49523167Y-57715785D01*
X49769761Y-57817928D01*
X50031544Y-57870000D01*
X50298456Y-57870000D01*
X50560239Y-57817928D01*
X50806833Y-57715785D01*
X51028762Y-57567497D01*
X51217497Y-57378762D01*
X51365785Y-57156833D01*
X51435000Y-56989734D01*
X51504215Y-57156833D01*
X51652503Y-57378762D01*
X51841238Y-57567497D01*
X52063167Y-57715785D01*
X52309761Y-57817928D01*
X52571544Y-57870000D01*
X52838456Y-57870000D01*
X53100239Y-57817928D01*
X53346833Y-57715785D01*
X53568762Y-57567497D01*
X53685699Y-57450560D01*
X57029045Y-57450560D01*
X57090932Y-57686368D01*
X57332790Y-57799266D01*
X57592027Y-57862811D01*
X57858680Y-57874561D01*
X58122501Y-57834063D01*
X58373353Y-57742875D01*
X58479068Y-57686368D01*
X58540955Y-57450560D01*
X57785000Y-56694605D01*
X57029045Y-57450560D01*
X53685699Y-57450560D01*
X53757497Y-57378762D01*
X53905785Y-57156833D01*
X54007928Y-56910239D01*
X54060000Y-56648456D01*
X54060000Y-56588680D01*
X56425439Y-56588680D01*
X56465937Y-56852501D01*
X56557125Y-57103353D01*
X56613632Y-57209068D01*
X56849440Y-57270955D01*
X57605395Y-56515000D01*
X57964605Y-56515000D01*
X58720560Y-57270955D01*
X58956368Y-57209068D01*
X59056764Y-56993993D01*
X59124215Y-57156833D01*
X59272503Y-57378762D01*
X59461238Y-57567497D01*
X59683167Y-57715785D01*
X59929761Y-57817928D01*
X60191544Y-57870000D01*
X60458456Y-57870000D01*
X60720239Y-57817928D01*
X60966833Y-57715785D01*
X61188762Y-57567497D01*
X61377497Y-57378762D01*
X61525785Y-57156833D01*
X61595000Y-56989734D01*
X61664215Y-57156833D01*
X61812503Y-57378762D01*
X62001238Y-57567497D01*
X62223167Y-57715785D01*
X62469761Y-57817928D01*
X62731544Y-57870000D01*
X62998456Y-57870000D01*
X63260239Y-57817928D01*
X63506833Y-57715785D01*
X63728762Y-57567497D01*
X63845699Y-57450560D01*
X67189045Y-57450560D01*
X67250932Y-57686368D01*
X67492790Y-57799266D01*
X67752027Y-57862811D01*
X68018680Y-57874561D01*
X68282501Y-57834063D01*
X68533353Y-57742875D01*
X68639068Y-57686368D01*
X68700955Y-57450560D01*
X67945000Y-56694605D01*
X67189045Y-57450560D01*
X63845699Y-57450560D01*
X63917497Y-57378762D01*
X64065785Y-57156833D01*
X64167928Y-56910239D01*
X64220000Y-56648456D01*
X64220000Y-56588680D01*
X66585439Y-56588680D01*
X66625937Y-56852501D01*
X66717125Y-57103353D01*
X66773632Y-57209068D01*
X67009440Y-57270955D01*
X67765395Y-56515000D01*
X68124605Y-56515000D01*
X68880560Y-57270955D01*
X69116368Y-57209068D01*
X69216764Y-56993993D01*
X69284215Y-57156833D01*
X69432503Y-57378762D01*
X69621238Y-57567497D01*
X69843167Y-57715785D01*
X70089761Y-57817928D01*
X70351544Y-57870000D01*
X70618456Y-57870000D01*
X70880239Y-57817928D01*
X71126833Y-57715785D01*
X71348762Y-57567497D01*
X71537497Y-57378762D01*
X71685785Y-57156833D01*
X71755000Y-56989734D01*
X71824215Y-57156833D01*
X71972503Y-57378762D01*
X72161238Y-57567497D01*
X72383167Y-57715785D01*
X72629761Y-57817928D01*
X72891544Y-57870000D01*
X73158456Y-57870000D01*
X73420239Y-57817928D01*
X73666833Y-57715785D01*
X73888762Y-57567497D01*
X74077497Y-57378762D01*
X74225785Y-57156833D01*
X74327928Y-56910239D01*
X74380000Y-56648456D01*
X74380000Y-56381544D01*
X74327928Y-56119761D01*
X74225785Y-55873167D01*
X74077497Y-55651238D01*
X73888762Y-55462503D01*
X73666833Y-55314215D01*
X73420239Y-55212072D01*
X73158456Y-55160000D01*
X72891544Y-55160000D01*
X72629761Y-55212072D01*
X72383167Y-55314215D01*
X72161238Y-55462503D01*
X71972503Y-55651238D01*
X71824215Y-55873167D01*
X71755000Y-56040266D01*
X71685785Y-55873167D01*
X71537497Y-55651238D01*
X71348762Y-55462503D01*
X71126833Y-55314215D01*
X70880239Y-55212072D01*
X70618456Y-55160000D01*
X70351544Y-55160000D01*
X70089761Y-55212072D01*
X69843167Y-55314215D01*
X69621238Y-55462503D01*
X69432503Y-55651238D01*
X69284215Y-55873167D01*
X69214562Y-56041324D01*
X69172875Y-55926647D01*
X69116368Y-55820932D01*
X68880560Y-55759045D01*
X68124605Y-56515000D01*
X67765395Y-56515000D01*
X67009440Y-55759045D01*
X66773632Y-55820932D01*
X66660734Y-56062790D01*
X66597189Y-56322027D01*
X66585439Y-56588680D01*
X64220000Y-56588680D01*
X64220000Y-56381544D01*
X64167928Y-56119761D01*
X64065785Y-55873167D01*
X63917497Y-55651238D01*
X63845699Y-55579440D01*
X67189045Y-55579440D01*
X67945000Y-56335395D01*
X68700955Y-55579440D01*
X68639068Y-55343632D01*
X68397210Y-55230734D01*
X68137973Y-55167189D01*
X67871320Y-55155439D01*
X67607499Y-55195937D01*
X67356647Y-55287125D01*
X67250932Y-55343632D01*
X67189045Y-55579440D01*
X63845699Y-55579440D01*
X63728762Y-55462503D01*
X63506833Y-55314215D01*
X63260239Y-55212072D01*
X62998456Y-55160000D01*
X62731544Y-55160000D01*
X62469761Y-55212072D01*
X62223167Y-55314215D01*
X62001238Y-55462503D01*
X61812503Y-55651238D01*
X61664215Y-55873167D01*
X61595000Y-56040266D01*
X61525785Y-55873167D01*
X61377497Y-55651238D01*
X61188762Y-55462503D01*
X60966833Y-55314215D01*
X60720239Y-55212072D01*
X60458456Y-55160000D01*
X60191544Y-55160000D01*
X59929761Y-55212072D01*
X59683167Y-55314215D01*
X59461238Y-55462503D01*
X59272503Y-55651238D01*
X59124215Y-55873167D01*
X59054562Y-56041324D01*
X59012875Y-55926647D01*
X58956368Y-55820932D01*
X58720560Y-55759045D01*
X57964605Y-56515000D01*
X57605395Y-56515000D01*
X56849440Y-55759045D01*
X56613632Y-55820932D01*
X56500734Y-56062790D01*
X56437189Y-56322027D01*
X56425439Y-56588680D01*
X54060000Y-56588680D01*
X54060000Y-56381544D01*
X54007928Y-56119761D01*
X53905785Y-55873167D01*
X53757497Y-55651238D01*
X53685699Y-55579440D01*
X57029045Y-55579440D01*
X57785000Y-56335395D01*
X58540955Y-55579440D01*
X58479068Y-55343632D01*
X58237210Y-55230734D01*
X57977973Y-55167189D01*
X57711320Y-55155439D01*
X57447499Y-55195937D01*
X57196647Y-55287125D01*
X57090932Y-55343632D01*
X57029045Y-55579440D01*
X53685699Y-55579440D01*
X53568762Y-55462503D01*
X53346833Y-55314215D01*
X53100239Y-55212072D01*
X52838456Y-55160000D01*
X52571544Y-55160000D01*
X52309761Y-55212072D01*
X52063167Y-55314215D01*
X51841238Y-55462503D01*
X51652503Y-55651238D01*
X51504215Y-55873167D01*
X51435000Y-56040266D01*
X51365785Y-55873167D01*
X51217497Y-55651238D01*
X51028762Y-55462503D01*
X50806833Y-55314215D01*
X50560239Y-55212072D01*
X50298456Y-55160000D01*
X50031544Y-55160000D01*
X49769761Y-55212072D01*
X49523167Y-55314215D01*
X49301238Y-55462503D01*
X49112503Y-55651238D01*
X48964215Y-55873167D01*
X48895000Y-56040266D01*
X48825785Y-55873167D01*
X48677497Y-55651238D01*
X48488762Y-55462503D01*
X48266833Y-55314215D01*
X48020239Y-55212072D01*
X47758456Y-55160000D01*
X47491544Y-55160000D01*
X47229761Y-55212072D01*
X46983167Y-55314215D01*
X46761238Y-55462503D01*
X46572503Y-55651238D01*
X46424215Y-55873167D01*
X46322072Y-56119761D01*
X46270000Y-56381544D01*
X26060000Y-56381544D01*
X26060000Y-55945055D01*
X26084933Y-55955383D01*
X26304212Y-55999000D01*
X26527788Y-55999000D01*
X26747067Y-55955383D01*
X26953624Y-55869824D01*
X27139520Y-55745612D01*
X27297612Y-55587520D01*
X27421824Y-55401624D01*
X27507383Y-55195067D01*
X27551000Y-54975788D01*
X27551000Y-54752212D01*
X27507383Y-54532933D01*
X27421824Y-54326376D01*
X27297612Y-54140480D01*
X27139520Y-53982388D01*
X26953624Y-53858176D01*
X26747067Y-53772617D01*
X26527788Y-53729000D01*
X26304212Y-53729000D01*
X26084933Y-53772617D01*
X26060000Y-53782945D01*
X26060000Y-52490000D01*
X77251928Y-52490000D01*
X77251928Y-54190000D01*
X77264188Y-54314482D01*
X77300498Y-54434180D01*
X77359463Y-54544494D01*
X77438815Y-54641185D01*
X77535506Y-54720537D01*
X77645820Y-54779502D01*
X77718380Y-54801513D01*
X77586525Y-54933368D01*
X77424010Y-55176589D01*
X77312068Y-55446842D01*
X77255000Y-55733740D01*
X77255000Y-56026260D01*
X77312068Y-56313158D01*
X77424010Y-56583411D01*
X77586525Y-56826632D01*
X77793368Y-57033475D01*
X77967760Y-57150000D01*
X77793368Y-57266525D01*
X77586525Y-57473368D01*
X77424010Y-57716589D01*
X77312068Y-57986842D01*
X77255000Y-58273740D01*
X77255000Y-58566260D01*
X77312068Y-58853158D01*
X77424010Y-59123411D01*
X77586525Y-59366632D01*
X77793368Y-59573475D01*
X77975534Y-59695195D01*
X77858645Y-59764822D01*
X77642412Y-59959731D01*
X77468359Y-60193080D01*
X77343175Y-60455901D01*
X77298524Y-60603110D01*
X77419845Y-60833000D01*
X78613000Y-60833000D01*
X78613000Y-60813000D01*
X78867000Y-60813000D01*
X78867000Y-60833000D01*
X80060155Y-60833000D01*
X80181476Y-60603110D01*
X80136825Y-60455901D01*
X80011641Y-60193080D01*
X79837588Y-59959731D01*
X79621355Y-59764822D01*
X79504466Y-59695195D01*
X79686632Y-59573475D01*
X79893475Y-59366632D01*
X80055990Y-59123411D01*
X80167932Y-58853158D01*
X80225000Y-58566260D01*
X80225000Y-58273740D01*
X80167932Y-57986842D01*
X80055990Y-57716589D01*
X79893475Y-57473368D01*
X79686632Y-57266525D01*
X79512240Y-57150000D01*
X79686632Y-57033475D01*
X79893475Y-56826632D01*
X80055990Y-56583411D01*
X80167932Y-56313158D01*
X80225000Y-56026260D01*
X80225000Y-55733740D01*
X80167932Y-55446842D01*
X80055990Y-55176589D01*
X79893475Y-54933368D01*
X79761620Y-54801513D01*
X79834180Y-54779502D01*
X79944494Y-54720537D01*
X80041185Y-54641185D01*
X80120537Y-54544494D01*
X80179502Y-54434180D01*
X80215812Y-54314482D01*
X80228072Y-54190000D01*
X80228072Y-52490000D01*
X80215812Y-52365518D01*
X80179502Y-52245820D01*
X80120537Y-52135506D01*
X80041185Y-52038815D01*
X79944494Y-51959463D01*
X79834180Y-51900498D01*
X79714482Y-51864188D01*
X79590000Y-51851928D01*
X77890000Y-51851928D01*
X77765518Y-51864188D01*
X77645820Y-51900498D01*
X77535506Y-51959463D01*
X77438815Y-52038815D01*
X77359463Y-52135506D01*
X77300498Y-52245820D01*
X77264188Y-52365518D01*
X77251928Y-52490000D01*
X26060000Y-52490000D01*
X26060000Y-50688212D01*
X39505000Y-50688212D01*
X39505000Y-50911788D01*
X39548617Y-51131067D01*
X39634176Y-51337624D01*
X39758388Y-51523520D01*
X39916480Y-51681612D01*
X40102376Y-51805824D01*
X40308933Y-51891383D01*
X40528212Y-51935000D01*
X40751788Y-51935000D01*
X40971067Y-51891383D01*
X41177624Y-51805824D01*
X41363520Y-51681612D01*
X41521612Y-51523520D01*
X41645824Y-51337624D01*
X41731383Y-51131067D01*
X41775000Y-50911788D01*
X41775000Y-50688212D01*
X41731383Y-50468933D01*
X41645824Y-50262376D01*
X41521612Y-50076480D01*
X41363520Y-49918388D01*
X41177624Y-49794176D01*
X40971067Y-49708617D01*
X40751788Y-49665000D01*
X40528212Y-49665000D01*
X40308933Y-49708617D01*
X40102376Y-49794176D01*
X39916480Y-49918388D01*
X39758388Y-50076480D01*
X39634176Y-50262376D01*
X39548617Y-50468933D01*
X39505000Y-50688212D01*
X26060000Y-50688212D01*
X26060000Y-48113740D01*
X28995000Y-48113740D01*
X28995000Y-48406260D01*
X29052068Y-48693158D01*
X29164010Y-48963411D01*
X29326525Y-49206632D01*
X29533368Y-49413475D01*
X29776589Y-49575990D01*
X30046842Y-49687932D01*
X30333740Y-49745000D01*
X30626260Y-49745000D01*
X30913158Y-49687932D01*
X31183411Y-49575990D01*
X31426632Y-49413475D01*
X31633475Y-49206632D01*
X31750000Y-49032240D01*
X31866525Y-49206632D01*
X32073368Y-49413475D01*
X32316589Y-49575990D01*
X32586842Y-49687932D01*
X32873740Y-49745000D01*
X33166260Y-49745000D01*
X33453158Y-49687932D01*
X33723411Y-49575990D01*
X33966632Y-49413475D01*
X33996367Y-49383740D01*
X58205000Y-49383740D01*
X58205000Y-49676260D01*
X58262068Y-49963158D01*
X58374010Y-50233411D01*
X58536525Y-50476632D01*
X58743368Y-50683475D01*
X58986589Y-50845990D01*
X59256842Y-50957932D01*
X59543740Y-51015000D01*
X59836260Y-51015000D01*
X60123158Y-50957932D01*
X60393411Y-50845990D01*
X60636632Y-50683475D01*
X60843475Y-50476632D01*
X60960000Y-50302240D01*
X61076525Y-50476632D01*
X61283368Y-50683475D01*
X61526589Y-50845990D01*
X61796842Y-50957932D01*
X62083740Y-51015000D01*
X62376260Y-51015000D01*
X62663158Y-50957932D01*
X62933411Y-50845990D01*
X63176632Y-50683475D01*
X63308487Y-50551620D01*
X63330498Y-50624180D01*
X63389463Y-50734494D01*
X63468815Y-50831185D01*
X63565506Y-50910537D01*
X63675820Y-50969502D01*
X63795518Y-51005812D01*
X63920000Y-51018072D01*
X65620000Y-51018072D01*
X65744482Y-51005812D01*
X65864180Y-50969502D01*
X65974494Y-50910537D01*
X66071185Y-50831185D01*
X66150537Y-50734494D01*
X66209502Y-50624180D01*
X66245812Y-50504482D01*
X66258072Y-50380000D01*
X66258072Y-48680000D01*
X66245812Y-48555518D01*
X66209502Y-48435820D01*
X66150537Y-48325506D01*
X66071185Y-48228815D01*
X65974494Y-48149463D01*
X65907663Y-48113740D01*
X77255000Y-48113740D01*
X77255000Y-48406260D01*
X77312068Y-48693158D01*
X77424010Y-48963411D01*
X77586525Y-49206632D01*
X77793368Y-49413475D01*
X78036589Y-49575990D01*
X78306842Y-49687932D01*
X78593740Y-49745000D01*
X78886260Y-49745000D01*
X79173158Y-49687932D01*
X79443411Y-49575990D01*
X79686632Y-49413475D01*
X79893475Y-49206632D01*
X80055990Y-48963411D01*
X80167932Y-48693158D01*
X80225000Y-48406260D01*
X80225000Y-48113740D01*
X80167932Y-47826842D01*
X80055990Y-47556589D01*
X79893475Y-47313368D01*
X79686632Y-47106525D01*
X79504466Y-46984805D01*
X79621355Y-46915178D01*
X79837588Y-46720269D01*
X80011641Y-46486920D01*
X80136825Y-46224099D01*
X80181476Y-46076890D01*
X80060155Y-45847000D01*
X78867000Y-45847000D01*
X78867000Y-45867000D01*
X78613000Y-45867000D01*
X78613000Y-45847000D01*
X77419845Y-45847000D01*
X77298524Y-46076890D01*
X77343175Y-46224099D01*
X77468359Y-46486920D01*
X77642412Y-46720269D01*
X77858645Y-46915178D01*
X77975534Y-46984805D01*
X77793368Y-47106525D01*
X77586525Y-47313368D01*
X77424010Y-47556589D01*
X77312068Y-47826842D01*
X77255000Y-48113740D01*
X65907663Y-48113740D01*
X65864180Y-48090498D01*
X65744482Y-48054188D01*
X65620000Y-48041928D01*
X63920000Y-48041928D01*
X63795518Y-48054188D01*
X63675820Y-48090498D01*
X63565506Y-48149463D01*
X63468815Y-48228815D01*
X63389463Y-48325506D01*
X63330498Y-48435820D01*
X63308487Y-48508380D01*
X63176632Y-48376525D01*
X62933411Y-48214010D01*
X62663158Y-48102068D01*
X62376260Y-48045000D01*
X62083740Y-48045000D01*
X61796842Y-48102068D01*
X61526589Y-48214010D01*
X61283368Y-48376525D01*
X61076525Y-48583368D01*
X60960000Y-48757760D01*
X60843475Y-48583368D01*
X60636632Y-48376525D01*
X60393411Y-48214010D01*
X60123158Y-48102068D01*
X59836260Y-48045000D01*
X59543740Y-48045000D01*
X59256842Y-48102068D01*
X58986589Y-48214010D01*
X58743368Y-48376525D01*
X58536525Y-48583368D01*
X58374010Y-48826589D01*
X58262068Y-49096842D01*
X58205000Y-49383740D01*
X33996367Y-49383740D01*
X34173475Y-49206632D01*
X34335990Y-48963411D01*
X34447932Y-48693158D01*
X34505000Y-48406260D01*
X34505000Y-48113740D01*
X34447932Y-47826842D01*
X34335990Y-47556589D01*
X34173475Y-47313368D01*
X33966632Y-47106525D01*
X33784466Y-46984805D01*
X33901355Y-46915178D01*
X34117588Y-46720269D01*
X34291641Y-46486920D01*
X34347230Y-46370212D01*
X53983000Y-46370212D01*
X53983000Y-46593788D01*
X54026617Y-46813067D01*
X54112176Y-47019624D01*
X54236388Y-47205520D01*
X54394480Y-47363612D01*
X54580376Y-47487824D01*
X54786933Y-47573383D01*
X55006212Y-47617000D01*
X55229788Y-47617000D01*
X55449067Y-47573383D01*
X55655624Y-47487824D01*
X55841520Y-47363612D01*
X55999612Y-47205520D01*
X56123824Y-47019624D01*
X56209383Y-46813067D01*
X56253000Y-46593788D01*
X56253000Y-46370212D01*
X56209383Y-46150933D01*
X56123824Y-45944376D01*
X55999612Y-45758480D01*
X55841520Y-45600388D01*
X55655624Y-45476176D01*
X55449067Y-45390617D01*
X55229788Y-45347000D01*
X55006212Y-45347000D01*
X54786933Y-45390617D01*
X54580376Y-45476176D01*
X54394480Y-45600388D01*
X54236388Y-45758480D01*
X54112176Y-45944376D01*
X54026617Y-46150933D01*
X53983000Y-46370212D01*
X34347230Y-46370212D01*
X34416825Y-46224099D01*
X34461476Y-46076890D01*
X34340155Y-45847000D01*
X33147000Y-45847000D01*
X33147000Y-45867000D01*
X32893000Y-45867000D01*
X32893000Y-45847000D01*
X30607000Y-45847000D01*
X30607000Y-45867000D01*
X30353000Y-45867000D01*
X30353000Y-45847000D01*
X29159845Y-45847000D01*
X29038524Y-46076890D01*
X29083175Y-46224099D01*
X29208359Y-46486920D01*
X29382412Y-46720269D01*
X29598645Y-46915178D01*
X29715534Y-46984805D01*
X29533368Y-47106525D01*
X29326525Y-47313368D01*
X29164010Y-47556589D01*
X29052068Y-47826842D01*
X28995000Y-48113740D01*
X26060000Y-48113740D01*
X26060000Y-43536890D01*
X29038524Y-43536890D01*
X29083175Y-43684099D01*
X29208359Y-43946920D01*
X29382412Y-44180269D01*
X29598645Y-44375178D01*
X29724255Y-44450000D01*
X29598645Y-44524822D01*
X29382412Y-44719731D01*
X29208359Y-44953080D01*
X29083175Y-45215901D01*
X29038524Y-45363110D01*
X29159845Y-45593000D01*
X30353000Y-45593000D01*
X30353000Y-43307000D01*
X30607000Y-43307000D01*
X30607000Y-45593000D01*
X32893000Y-45593000D01*
X32893000Y-43307000D01*
X33147000Y-43307000D01*
X33147000Y-45593000D01*
X34340155Y-45593000D01*
X34461476Y-45363110D01*
X34416825Y-45215901D01*
X34291641Y-44953080D01*
X34117588Y-44719731D01*
X33901355Y-44524822D01*
X33775745Y-44450000D01*
X33901355Y-44375178D01*
X34117588Y-44180269D01*
X34291641Y-43946920D01*
X34416825Y-43684099D01*
X34461476Y-43536890D01*
X34340155Y-43307000D01*
X33147000Y-43307000D01*
X32893000Y-43307000D01*
X30607000Y-43307000D01*
X30353000Y-43307000D01*
X29159845Y-43307000D01*
X29038524Y-43536890D01*
X26060000Y-43536890D01*
X26060000Y-43068212D01*
X57031000Y-43068212D01*
X57031000Y-43291788D01*
X57074617Y-43511067D01*
X57160176Y-43717624D01*
X57284388Y-43903520D01*
X57442480Y-44061612D01*
X57628376Y-44185824D01*
X57834933Y-44271383D01*
X58054212Y-44315000D01*
X58277788Y-44315000D01*
X58497067Y-44271383D01*
X58703624Y-44185824D01*
X58889520Y-44061612D01*
X59047612Y-43903520D01*
X59171824Y-43717624D01*
X59257383Y-43511067D01*
X59301000Y-43291788D01*
X59301000Y-43068212D01*
X59257383Y-42848933D01*
X59171824Y-42642376D01*
X59047612Y-42456480D01*
X58889520Y-42298388D01*
X58703624Y-42174176D01*
X58497067Y-42088617D01*
X58277788Y-42045000D01*
X58054212Y-42045000D01*
X57834933Y-42088617D01*
X57628376Y-42174176D01*
X57442480Y-42298388D01*
X57284388Y-42456480D01*
X57160176Y-42642376D01*
X57074617Y-42848933D01*
X57031000Y-43068212D01*
X26060000Y-43068212D01*
X26060000Y-40996890D01*
X29038524Y-40996890D01*
X29083175Y-41144099D01*
X29208359Y-41406920D01*
X29382412Y-41640269D01*
X29598645Y-41835178D01*
X29724255Y-41910000D01*
X29598645Y-41984822D01*
X29382412Y-42179731D01*
X29208359Y-42413080D01*
X29083175Y-42675901D01*
X29038524Y-42823110D01*
X29159845Y-43053000D01*
X30353000Y-43053000D01*
X30353000Y-40767000D01*
X30607000Y-40767000D01*
X30607000Y-43053000D01*
X32893000Y-43053000D01*
X32893000Y-40767000D01*
X33147000Y-40767000D01*
X33147000Y-43053000D01*
X34340155Y-43053000D01*
X34461476Y-42823110D01*
X34416825Y-42675901D01*
X34291641Y-42413080D01*
X34117588Y-42179731D01*
X33901355Y-41984822D01*
X33775745Y-41910000D01*
X33901355Y-41835178D01*
X34117588Y-41640269D01*
X34291641Y-41406920D01*
X34416825Y-41144099D01*
X34461476Y-40996890D01*
X34340155Y-40767000D01*
X33147000Y-40767000D01*
X32893000Y-40767000D01*
X30607000Y-40767000D01*
X30353000Y-40767000D01*
X29159845Y-40767000D01*
X29038524Y-40996890D01*
X26060000Y-40996890D01*
X26060000Y-37953740D01*
X28995000Y-37953740D01*
X28995000Y-38246260D01*
X29052068Y-38533158D01*
X29164010Y-38803411D01*
X29326525Y-39046632D01*
X29533368Y-39253475D01*
X29715534Y-39375195D01*
X29598645Y-39444822D01*
X29382412Y-39639731D01*
X29208359Y-39873080D01*
X29083175Y-40135901D01*
X29038524Y-40283110D01*
X29159845Y-40513000D01*
X30353000Y-40513000D01*
X30353000Y-40493000D01*
X30607000Y-40493000D01*
X30607000Y-40513000D01*
X32893000Y-40513000D01*
X32893000Y-40493000D01*
X33147000Y-40493000D01*
X33147000Y-40513000D01*
X34340155Y-40513000D01*
X34461476Y-40283110D01*
X34416825Y-40135901D01*
X34291641Y-39873080D01*
X34211930Y-39766212D01*
X51327000Y-39766212D01*
X51327000Y-39989788D01*
X51370617Y-40209067D01*
X51456176Y-40415624D01*
X51580388Y-40601520D01*
X51738480Y-40759612D01*
X51924376Y-40883824D01*
X52050478Y-40936058D01*
X51994611Y-41070933D01*
X51950994Y-41290212D01*
X51950994Y-41513788D01*
X51994611Y-41733067D01*
X52080170Y-41939624D01*
X52204382Y-42125520D01*
X52362474Y-42283612D01*
X52548370Y-42407824D01*
X52754927Y-42493383D01*
X52974206Y-42537000D01*
X53197782Y-42537000D01*
X53417061Y-42493383D01*
X53623618Y-42407824D01*
X53809514Y-42283612D01*
X53967606Y-42125520D01*
X54091818Y-41939624D01*
X54177377Y-41733067D01*
X54220994Y-41513788D01*
X54220994Y-41290212D01*
X60587000Y-41290212D01*
X60587000Y-41513788D01*
X60630617Y-41733067D01*
X60716176Y-41939624D01*
X60840388Y-42125520D01*
X60998480Y-42283612D01*
X61184376Y-42407824D01*
X61390933Y-42493383D01*
X61610212Y-42537000D01*
X61833788Y-42537000D01*
X62053067Y-42493383D01*
X62259624Y-42407824D01*
X62445520Y-42283612D01*
X62603612Y-42125520D01*
X62727824Y-41939624D01*
X62813383Y-41733067D01*
X62857000Y-41513788D01*
X62857000Y-41290212D01*
X62813383Y-41070933D01*
X62727824Y-40864376D01*
X62603612Y-40678480D01*
X62445520Y-40520388D01*
X62259624Y-40396176D01*
X62053067Y-40310617D01*
X61833788Y-40267000D01*
X61610212Y-40267000D01*
X61390933Y-40310617D01*
X61184376Y-40396176D01*
X60998480Y-40520388D01*
X60840388Y-40678480D01*
X60716176Y-40864376D01*
X60630617Y-41070933D01*
X60587000Y-41290212D01*
X54220994Y-41290212D01*
X54177377Y-41070933D01*
X54091818Y-40864376D01*
X53967606Y-40678480D01*
X53809514Y-40520388D01*
X53623618Y-40396176D01*
X53497516Y-40343942D01*
X53553383Y-40209067D01*
X53597000Y-39989788D01*
X53597000Y-39766212D01*
X53553383Y-39546933D01*
X53467824Y-39340376D01*
X53343612Y-39154480D01*
X53185520Y-38996388D01*
X52999624Y-38872176D01*
X52793067Y-38786617D01*
X52573788Y-38743000D01*
X52350212Y-38743000D01*
X52130933Y-38786617D01*
X51924376Y-38872176D01*
X51738480Y-38996388D01*
X51580388Y-39154480D01*
X51456176Y-39340376D01*
X51370617Y-39546933D01*
X51327000Y-39766212D01*
X34211930Y-39766212D01*
X34117588Y-39639731D01*
X34033534Y-39563966D01*
X34114180Y-39539502D01*
X34224494Y-39480537D01*
X34321185Y-39401185D01*
X34400537Y-39304494D01*
X34459502Y-39194180D01*
X34495812Y-39074482D01*
X34508072Y-38950000D01*
X34508072Y-37480212D01*
X60841000Y-37480212D01*
X60841000Y-37703788D01*
X60884617Y-37923067D01*
X60970176Y-38129624D01*
X61094388Y-38315520D01*
X61252480Y-38473612D01*
X61438376Y-38597824D01*
X61644933Y-38683383D01*
X61864212Y-38727000D01*
X62087788Y-38727000D01*
X62307067Y-38683383D01*
X62513624Y-38597824D01*
X62699520Y-38473612D01*
X62857612Y-38315520D01*
X62981824Y-38129624D01*
X63067383Y-37923067D01*
X63111000Y-37703788D01*
X63111000Y-37480212D01*
X63067383Y-37260933D01*
X63062855Y-37250000D01*
X77251928Y-37250000D01*
X77251928Y-38950000D01*
X77264188Y-39074482D01*
X77300498Y-39194180D01*
X77359463Y-39304494D01*
X77438815Y-39401185D01*
X77535506Y-39480537D01*
X77645820Y-39539502D01*
X77718380Y-39561513D01*
X77586525Y-39693368D01*
X77424010Y-39936589D01*
X77312068Y-40206842D01*
X77255000Y-40493740D01*
X77255000Y-40786260D01*
X77312068Y-41073158D01*
X77424010Y-41343411D01*
X77586525Y-41586632D01*
X77793368Y-41793475D01*
X77967760Y-41910000D01*
X77793368Y-42026525D01*
X77586525Y-42233368D01*
X77424010Y-42476589D01*
X77312068Y-42746842D01*
X77255000Y-43033740D01*
X77255000Y-43326260D01*
X77312068Y-43613158D01*
X77424010Y-43883411D01*
X77586525Y-44126632D01*
X77793368Y-44333475D01*
X77975534Y-44455195D01*
X77858645Y-44524822D01*
X77642412Y-44719731D01*
X77468359Y-44953080D01*
X77343175Y-45215901D01*
X77298524Y-45363110D01*
X77419845Y-45593000D01*
X78613000Y-45593000D01*
X78613000Y-45573000D01*
X78867000Y-45573000D01*
X78867000Y-45593000D01*
X80060155Y-45593000D01*
X80181476Y-45363110D01*
X80136825Y-45215901D01*
X80011641Y-44953080D01*
X79837588Y-44719731D01*
X79621355Y-44524822D01*
X79504466Y-44455195D01*
X79686632Y-44333475D01*
X79893475Y-44126632D01*
X80055990Y-43883411D01*
X80167932Y-43613158D01*
X80225000Y-43326260D01*
X80225000Y-43033740D01*
X80167932Y-42746842D01*
X80055990Y-42476589D01*
X79893475Y-42233368D01*
X79686632Y-42026525D01*
X79512240Y-41910000D01*
X79686632Y-41793475D01*
X79893475Y-41586632D01*
X80055990Y-41343411D01*
X80167932Y-41073158D01*
X80225000Y-40786260D01*
X80225000Y-40493740D01*
X80167932Y-40206842D01*
X80055990Y-39936589D01*
X79893475Y-39693368D01*
X79761620Y-39561513D01*
X79834180Y-39539502D01*
X79944494Y-39480537D01*
X80041185Y-39401185D01*
X80120537Y-39304494D01*
X80179502Y-39194180D01*
X80215812Y-39074482D01*
X80228072Y-38950000D01*
X80228072Y-37250000D01*
X80215812Y-37125518D01*
X80179502Y-37005820D01*
X80120537Y-36895506D01*
X80041185Y-36798815D01*
X79944494Y-36719463D01*
X79834180Y-36660498D01*
X79714482Y-36624188D01*
X79590000Y-36611928D01*
X77890000Y-36611928D01*
X77765518Y-36624188D01*
X77645820Y-36660498D01*
X77535506Y-36719463D01*
X77438815Y-36798815D01*
X77359463Y-36895506D01*
X77300498Y-37005820D01*
X77264188Y-37125518D01*
X77251928Y-37250000D01*
X63062855Y-37250000D01*
X62981824Y-37054376D01*
X62857612Y-36868480D01*
X62699520Y-36710388D01*
X62513624Y-36586176D01*
X62307067Y-36500617D01*
X62087788Y-36457000D01*
X61864212Y-36457000D01*
X61644933Y-36500617D01*
X61438376Y-36586176D01*
X61252480Y-36710388D01*
X61094388Y-36868480D01*
X60970176Y-37054376D01*
X60884617Y-37260933D01*
X60841000Y-37480212D01*
X34508072Y-37480212D01*
X34508072Y-37250000D01*
X34495812Y-37125518D01*
X34459502Y-37005820D01*
X34400537Y-36895506D01*
X34321185Y-36798815D01*
X34224494Y-36719463D01*
X34114180Y-36660498D01*
X33994482Y-36624188D01*
X33870000Y-36611928D01*
X32170000Y-36611928D01*
X32045518Y-36624188D01*
X31925820Y-36660498D01*
X31815506Y-36719463D01*
X31718815Y-36798815D01*
X31639463Y-36895506D01*
X31580498Y-37005820D01*
X31558487Y-37078380D01*
X31426632Y-36946525D01*
X31183411Y-36784010D01*
X30913158Y-36672068D01*
X30626260Y-36615000D01*
X30333740Y-36615000D01*
X30046842Y-36672068D01*
X29776589Y-36784010D01*
X29533368Y-36946525D01*
X29326525Y-37153368D01*
X29164010Y-37396589D01*
X29052068Y-37666842D01*
X28995000Y-37953740D01*
X26060000Y-37953740D01*
X26060000Y-36220061D01*
X51543000Y-36220061D01*
X51543000Y-36423939D01*
X51582774Y-36623898D01*
X51660795Y-36812256D01*
X51774063Y-36981774D01*
X51918226Y-37125937D01*
X52087744Y-37239205D01*
X52276102Y-37317226D01*
X52476061Y-37357000D01*
X52679939Y-37357000D01*
X52879898Y-37317226D01*
X53068256Y-37239205D01*
X53237774Y-37125937D01*
X53381937Y-36981774D01*
X53495205Y-36812256D01*
X53573226Y-36623898D01*
X53613000Y-36423939D01*
X53613000Y-36220061D01*
X53573226Y-36020102D01*
X53495205Y-35831744D01*
X53381937Y-35662226D01*
X53237774Y-35518063D01*
X53068256Y-35404795D01*
X52879898Y-35326774D01*
X52679939Y-35287000D01*
X52476061Y-35287000D01*
X52276102Y-35326774D01*
X52087744Y-35404795D01*
X51918226Y-35518063D01*
X51774063Y-35662226D01*
X51660795Y-35831744D01*
X51582774Y-36020102D01*
X51543000Y-36220061D01*
X26060000Y-36220061D01*
X26060000Y-30141682D01*
X27045000Y-30141682D01*
X27045000Y-30818318D01*
X27177006Y-31481952D01*
X27435943Y-32107082D01*
X27811862Y-32669685D01*
X28290315Y-33148138D01*
X28852918Y-33524057D01*
X29478048Y-33782994D01*
X30141682Y-33915000D01*
X30818318Y-33915000D01*
X31481952Y-33782994D01*
X32107082Y-33524057D01*
X32669685Y-33148138D01*
X33148138Y-32669685D01*
X33524057Y-32107082D01*
X33782994Y-31481952D01*
X33915000Y-30818318D01*
X33915000Y-30141682D01*
X33782994Y-29478048D01*
X33524057Y-28852918D01*
X33194700Y-28360000D01*
X41691928Y-28360000D01*
X41691928Y-30060000D01*
X41704188Y-30184482D01*
X41740498Y-30304180D01*
X41799463Y-30414494D01*
X41878815Y-30511185D01*
X41975506Y-30590537D01*
X42085820Y-30649502D01*
X42158380Y-30671513D01*
X42026525Y-30803368D01*
X41864010Y-31046589D01*
X41752068Y-31316842D01*
X41695000Y-31603740D01*
X41695000Y-31896260D01*
X41752068Y-32183158D01*
X41864010Y-32453411D01*
X42026525Y-32696632D01*
X42233368Y-32903475D01*
X42407760Y-33020000D01*
X42233368Y-33136525D01*
X42026525Y-33343368D01*
X41864010Y-33586589D01*
X41752068Y-33856842D01*
X41695000Y-34143740D01*
X41695000Y-34436260D01*
X41752068Y-34723158D01*
X41864010Y-34993411D01*
X42026525Y-35236632D01*
X42233368Y-35443475D01*
X42476589Y-35605990D01*
X42746842Y-35717932D01*
X43033740Y-35775000D01*
X43326260Y-35775000D01*
X43613158Y-35717932D01*
X43883411Y-35605990D01*
X44126632Y-35443475D01*
X44333475Y-35236632D01*
X44495990Y-34993411D01*
X44607932Y-34723158D01*
X44665000Y-34436260D01*
X44665000Y-34143740D01*
X44607932Y-33856842D01*
X44495990Y-33586589D01*
X44333475Y-33343368D01*
X44126632Y-33136525D01*
X43952240Y-33020000D01*
X44126632Y-32903475D01*
X44333475Y-32696632D01*
X44495990Y-32453411D01*
X44607932Y-32183158D01*
X44665000Y-31896260D01*
X44665000Y-31603740D01*
X44607932Y-31316842D01*
X44495990Y-31046589D01*
X44333475Y-30803368D01*
X44201620Y-30671513D01*
X44274180Y-30649502D01*
X44384494Y-30590537D01*
X44481185Y-30511185D01*
X44560537Y-30414494D01*
X44619502Y-30304180D01*
X44655812Y-30184482D01*
X44668072Y-30060000D01*
X44668072Y-29860212D01*
X62365000Y-29860212D01*
X62365000Y-30083788D01*
X62408617Y-30303067D01*
X62494176Y-30509624D01*
X62618388Y-30695520D01*
X62776480Y-30853612D01*
X62962376Y-30977824D01*
X63168933Y-31063383D01*
X63388212Y-31107000D01*
X63611788Y-31107000D01*
X63831067Y-31063383D01*
X64037624Y-30977824D01*
X64223520Y-30853612D01*
X64381612Y-30695520D01*
X64505824Y-30509624D01*
X64591383Y-30303067D01*
X64635000Y-30083788D01*
X64635000Y-29860212D01*
X64591383Y-29640933D01*
X64505824Y-29434376D01*
X64381612Y-29248480D01*
X64223520Y-29090388D01*
X64037624Y-28966176D01*
X63831067Y-28880617D01*
X63611788Y-28837000D01*
X63388212Y-28837000D01*
X63168933Y-28880617D01*
X62962376Y-28966176D01*
X62776480Y-29090388D01*
X62618388Y-29248480D01*
X62494176Y-29434376D01*
X62408617Y-29640933D01*
X62365000Y-29860212D01*
X44668072Y-29860212D01*
X44668072Y-28360000D01*
X44655812Y-28235518D01*
X44619502Y-28115820D01*
X44560537Y-28005506D01*
X44481185Y-27908815D01*
X44384494Y-27829463D01*
X44274180Y-27770498D01*
X44154482Y-27734188D01*
X44030000Y-27721928D01*
X42330000Y-27721928D01*
X42205518Y-27734188D01*
X42085820Y-27770498D01*
X41975506Y-27829463D01*
X41878815Y-27908815D01*
X41799463Y-28005506D01*
X41740498Y-28115820D01*
X41704188Y-28235518D01*
X41691928Y-28360000D01*
X33194700Y-28360000D01*
X33148138Y-28290315D01*
X32669685Y-27811862D01*
X32107082Y-27435943D01*
X31481952Y-27177006D01*
X30818318Y-27045000D01*
X30141682Y-27045000D01*
X29478048Y-27177006D01*
X28852918Y-27435943D01*
X28290315Y-27811862D01*
X27811862Y-28290315D01*
X27435943Y-28852918D01*
X27177006Y-29478048D01*
X27045000Y-30141682D01*
X26060000Y-30141682D01*
X26060000Y-26060000D01*
X80620001Y-26060000D01*
X80620000Y-103480000D01*
G04 #@! TA.AperFunction,Conductor*
D17*
G36*
X80620000Y-103480000D02*
G01*
X26060000Y-103480000D01*
X26060000Y-98721682D01*
X27045000Y-98721682D01*
X27045000Y-99398318D01*
X27177006Y-100061952D01*
X27435943Y-100687082D01*
X27811862Y-101249685D01*
X28290315Y-101728138D01*
X28852918Y-102104057D01*
X29478048Y-102362994D01*
X30141682Y-102495000D01*
X30818318Y-102495000D01*
X31481952Y-102362994D01*
X32107082Y-102104057D01*
X32669685Y-101728138D01*
X33148138Y-101249685D01*
X33524057Y-100687082D01*
X33782994Y-100061952D01*
X33903484Y-99456212D01*
X46871000Y-99456212D01*
X46871000Y-99679788D01*
X46914617Y-99899067D01*
X47000176Y-100105624D01*
X47124388Y-100291520D01*
X47282480Y-100449612D01*
X47468376Y-100573824D01*
X47674933Y-100659383D01*
X47839816Y-100692180D01*
X47762176Y-100808376D01*
X47676617Y-101014933D01*
X47633000Y-101234212D01*
X47633000Y-101457788D01*
X47676617Y-101677067D01*
X47762176Y-101883624D01*
X47886388Y-102069520D01*
X48044480Y-102227612D01*
X48230376Y-102351824D01*
X48436933Y-102437383D01*
X48656212Y-102481000D01*
X48879788Y-102481000D01*
X49099067Y-102437383D01*
X49305624Y-102351824D01*
X49491520Y-102227612D01*
X49649612Y-102069520D01*
X49773824Y-101883624D01*
X49859383Y-101677067D01*
X49903000Y-101457788D01*
X49903000Y-101234212D01*
X49859383Y-101014933D01*
X49773824Y-100808376D01*
X49649612Y-100622480D01*
X49491520Y-100464388D01*
X49305624Y-100340176D01*
X49099067Y-100254617D01*
X48934184Y-100221820D01*
X49011824Y-100105624D01*
X49097383Y-99899067D01*
X49141000Y-99679788D01*
X49141000Y-99456212D01*
X49097383Y-99236933D01*
X49011824Y-99030376D01*
X48887960Y-98845000D01*
X67091928Y-98845000D01*
X67091928Y-100545000D01*
X67104188Y-100669482D01*
X67140498Y-100789180D01*
X67199463Y-100899494D01*
X67278815Y-100996185D01*
X67375506Y-101075537D01*
X67485820Y-101134502D01*
X67605518Y-101170812D01*
X67730000Y-101183072D01*
X69430000Y-101183072D01*
X69554482Y-101170812D01*
X69674180Y-101134502D01*
X69784494Y-101075537D01*
X69881185Y-100996185D01*
X69960537Y-100899494D01*
X70019502Y-100789180D01*
X70041513Y-100716620D01*
X70173368Y-100848475D01*
X70416589Y-101010990D01*
X70686842Y-101122932D01*
X70973740Y-101180000D01*
X71266260Y-101180000D01*
X71553158Y-101122932D01*
X71823411Y-101010990D01*
X72066632Y-100848475D01*
X72273475Y-100641632D01*
X72390000Y-100467240D01*
X72506525Y-100641632D01*
X72713368Y-100848475D01*
X72956589Y-101010990D01*
X73226842Y-101122932D01*
X73513740Y-101180000D01*
X73806260Y-101180000D01*
X74093158Y-101122932D01*
X74363411Y-101010990D01*
X74606632Y-100848475D01*
X74813475Y-100641632D01*
X74930000Y-100467240D01*
X75046525Y-100641632D01*
X75253368Y-100848475D01*
X75496589Y-101010990D01*
X75766842Y-101122932D01*
X76053740Y-101180000D01*
X76346260Y-101180000D01*
X76633158Y-101122932D01*
X76903411Y-101010990D01*
X77146632Y-100848475D01*
X77353475Y-100641632D01*
X77475195Y-100459466D01*
X77544822Y-100576355D01*
X77739731Y-100792588D01*
X77973080Y-100966641D01*
X78235901Y-101091825D01*
X78383110Y-101136476D01*
X78613000Y-101015155D01*
X78613000Y-99822000D01*
X78867000Y-99822000D01*
X78867000Y-101015155D01*
X79096890Y-101136476D01*
X79244099Y-101091825D01*
X79506920Y-100966641D01*
X79740269Y-100792588D01*
X79935178Y-100576355D01*
X80084157Y-100326252D01*
X80181481Y-100051891D01*
X80060814Y-99822000D01*
X78867000Y-99822000D01*
X78613000Y-99822000D01*
X78593000Y-99822000D01*
X78593000Y-99568000D01*
X78613000Y-99568000D01*
X78613000Y-98374845D01*
X78867000Y-98374845D01*
X78867000Y-99568000D01*
X80060814Y-99568000D01*
X80181481Y-99338109D01*
X80084157Y-99063748D01*
X79935178Y-98813645D01*
X79740269Y-98597412D01*
X79506920Y-98423359D01*
X79244099Y-98298175D01*
X79096890Y-98253524D01*
X78867000Y-98374845D01*
X78613000Y-98374845D01*
X78383110Y-98253524D01*
X78235901Y-98298175D01*
X77973080Y-98423359D01*
X77739731Y-98597412D01*
X77544822Y-98813645D01*
X77475195Y-98930534D01*
X77353475Y-98748368D01*
X77146632Y-98541525D01*
X76903411Y-98379010D01*
X76633158Y-98267068D01*
X76346260Y-98210000D01*
X76053740Y-98210000D01*
X75766842Y-98267068D01*
X75496589Y-98379010D01*
X75253368Y-98541525D01*
X75046525Y-98748368D01*
X74930000Y-98922760D01*
X74813475Y-98748368D01*
X74606632Y-98541525D01*
X74363411Y-98379010D01*
X74093158Y-98267068D01*
X73806260Y-98210000D01*
X73513740Y-98210000D01*
X73226842Y-98267068D01*
X72956589Y-98379010D01*
X72713368Y-98541525D01*
X72506525Y-98748368D01*
X72390000Y-98922760D01*
X72273475Y-98748368D01*
X72066632Y-98541525D01*
X71823411Y-98379010D01*
X71553158Y-98267068D01*
X71266260Y-98210000D01*
X70973740Y-98210000D01*
X70686842Y-98267068D01*
X70416589Y-98379010D01*
X70173368Y-98541525D01*
X70041513Y-98673380D01*
X70019502Y-98600820D01*
X69960537Y-98490506D01*
X69881185Y-98393815D01*
X69784494Y-98314463D01*
X69674180Y-98255498D01*
X69554482Y-98219188D01*
X69430000Y-98206928D01*
X67730000Y-98206928D01*
X67605518Y-98219188D01*
X67485820Y-98255498D01*
X67375506Y-98314463D01*
X67278815Y-98393815D01*
X67199463Y-98490506D01*
X67140498Y-98600820D01*
X67104188Y-98720518D01*
X67091928Y-98845000D01*
X48887960Y-98845000D01*
X48887612Y-98844480D01*
X48729520Y-98686388D01*
X48543624Y-98562176D01*
X48337067Y-98476617D01*
X48117788Y-98433000D01*
X47894212Y-98433000D01*
X47674933Y-98476617D01*
X47468376Y-98562176D01*
X47282480Y-98686388D01*
X47124388Y-98844480D01*
X47000176Y-99030376D01*
X46914617Y-99236933D01*
X46871000Y-99456212D01*
X33903484Y-99456212D01*
X33915000Y-99398318D01*
X33915000Y-98721682D01*
X33782994Y-98058048D01*
X33524057Y-97432918D01*
X33148138Y-96870315D01*
X32669685Y-96391862D01*
X32314017Y-96154212D01*
X65413000Y-96154212D01*
X65413000Y-96377788D01*
X65456617Y-96597067D01*
X65542176Y-96803624D01*
X65666388Y-96989520D01*
X65824480Y-97147612D01*
X66010376Y-97271824D01*
X66216933Y-97357383D01*
X66436212Y-97401000D01*
X66659788Y-97401000D01*
X66879067Y-97357383D01*
X67085624Y-97271824D01*
X67271520Y-97147612D01*
X67429612Y-96989520D01*
X67553824Y-96803624D01*
X67639383Y-96597067D01*
X67683000Y-96377788D01*
X67683000Y-96154212D01*
X67639383Y-95934933D01*
X67553824Y-95728376D01*
X67429612Y-95542480D01*
X67271520Y-95384388D01*
X67085624Y-95260176D01*
X66879067Y-95174617D01*
X66659788Y-95131000D01*
X66436212Y-95131000D01*
X66216933Y-95174617D01*
X66010376Y-95260176D01*
X65824480Y-95384388D01*
X65666388Y-95542480D01*
X65542176Y-95728376D01*
X65456617Y-95934933D01*
X65413000Y-96154212D01*
X32314017Y-96154212D01*
X32107082Y-96015943D01*
X31481952Y-95757006D01*
X30818318Y-95625000D01*
X30141682Y-95625000D01*
X29478048Y-95757006D01*
X28852918Y-96015943D01*
X28290315Y-96391862D01*
X27811862Y-96870315D01*
X27435943Y-97432918D01*
X27177006Y-98058048D01*
X27045000Y-98721682D01*
X26060000Y-98721682D01*
X26060000Y-91293740D01*
X77255000Y-91293740D01*
X77255000Y-91586260D01*
X77312068Y-91873158D01*
X77424010Y-92143411D01*
X77586525Y-92386632D01*
X77793368Y-92593475D01*
X78036589Y-92755990D01*
X78306842Y-92867932D01*
X78593740Y-92925000D01*
X78886260Y-92925000D01*
X79173158Y-92867932D01*
X79443411Y-92755990D01*
X79686632Y-92593475D01*
X79893475Y-92386632D01*
X80055990Y-92143411D01*
X80167932Y-91873158D01*
X80225000Y-91586260D01*
X80225000Y-91293740D01*
X80167932Y-91006842D01*
X80055990Y-90736589D01*
X79893475Y-90493368D01*
X79686632Y-90286525D01*
X79504466Y-90164805D01*
X79621355Y-90095178D01*
X79837588Y-89900269D01*
X80011641Y-89666920D01*
X80136825Y-89404099D01*
X80181476Y-89256890D01*
X80060155Y-89027000D01*
X78867000Y-89027000D01*
X78867000Y-89047000D01*
X78613000Y-89047000D01*
X78613000Y-89027000D01*
X77419845Y-89027000D01*
X77298524Y-89256890D01*
X77343175Y-89404099D01*
X77468359Y-89666920D01*
X77642412Y-89900269D01*
X77858645Y-90095178D01*
X77975534Y-90164805D01*
X77793368Y-90286525D01*
X77586525Y-90493368D01*
X77424010Y-90736589D01*
X77312068Y-91006842D01*
X77255000Y-91293740D01*
X26060000Y-91293740D01*
X26060000Y-88788212D01*
X57285000Y-88788212D01*
X57285000Y-89011788D01*
X57328617Y-89231067D01*
X57414176Y-89437624D01*
X57538388Y-89623520D01*
X57696480Y-89781612D01*
X57882376Y-89905824D01*
X58088933Y-89991383D01*
X58308212Y-90035000D01*
X58531788Y-90035000D01*
X58751067Y-89991383D01*
X58957624Y-89905824D01*
X59143520Y-89781612D01*
X59301612Y-89623520D01*
X59425824Y-89437624D01*
X59511383Y-89231067D01*
X59555000Y-89011788D01*
X59555000Y-88788212D01*
X59511383Y-88568933D01*
X59425824Y-88362376D01*
X59301612Y-88176480D01*
X59143520Y-88018388D01*
X58957624Y-87894176D01*
X58751067Y-87808617D01*
X58531788Y-87765000D01*
X58308212Y-87765000D01*
X58088933Y-87808617D01*
X57882376Y-87894176D01*
X57696480Y-88018388D01*
X57538388Y-88176480D01*
X57414176Y-88362376D01*
X57328617Y-88568933D01*
X57285000Y-88788212D01*
X26060000Y-88788212D01*
X26060000Y-85486212D01*
X29345000Y-85486212D01*
X29345000Y-85709788D01*
X29388617Y-85929067D01*
X29474176Y-86135624D01*
X29598388Y-86321520D01*
X29756480Y-86479612D01*
X29942376Y-86603824D01*
X30148933Y-86689383D01*
X30368212Y-86733000D01*
X30591788Y-86733000D01*
X30811067Y-86689383D01*
X31017624Y-86603824D01*
X31203520Y-86479612D01*
X31361612Y-86321520D01*
X31485824Y-86135624D01*
X31571383Y-85929067D01*
X31615000Y-85709788D01*
X31615000Y-85486212D01*
X31615000Y-85486210D01*
X49919000Y-85486210D01*
X49919000Y-85709786D01*
X49962617Y-85929065D01*
X50048176Y-86135622D01*
X50172388Y-86321518D01*
X50330480Y-86479610D01*
X50516376Y-86603822D01*
X50722933Y-86689381D01*
X50942212Y-86732998D01*
X51165788Y-86732998D01*
X51385067Y-86689381D01*
X51591624Y-86603822D01*
X51777520Y-86479610D01*
X51935612Y-86321518D01*
X52059824Y-86135622D01*
X52145383Y-85929065D01*
X52189000Y-85709786D01*
X52189000Y-85486212D01*
X55010000Y-85486212D01*
X55010000Y-85709788D01*
X55053617Y-85929067D01*
X55139176Y-86135624D01*
X55263388Y-86321520D01*
X55421480Y-86479612D01*
X55607376Y-86603824D01*
X55813933Y-86689383D01*
X56033212Y-86733000D01*
X56256788Y-86733000D01*
X56476067Y-86689383D01*
X56682624Y-86603824D01*
X56868520Y-86479612D01*
X57026612Y-86321520D01*
X57150824Y-86135624D01*
X57236383Y-85929067D01*
X57280000Y-85709788D01*
X57280000Y-85486212D01*
X57236383Y-85266933D01*
X57150824Y-85060376D01*
X57026612Y-84874480D01*
X56868520Y-84716388D01*
X56682624Y-84592176D01*
X56476067Y-84506617D01*
X56256788Y-84463000D01*
X56033212Y-84463000D01*
X55813933Y-84506617D01*
X55607376Y-84592176D01*
X55421480Y-84716388D01*
X55263388Y-84874480D01*
X55139176Y-85060376D01*
X55053617Y-85266933D01*
X55010000Y-85486212D01*
X52189000Y-85486212D01*
X52189000Y-85486210D01*
X52145383Y-85266931D01*
X52059824Y-85060374D01*
X51935612Y-84874478D01*
X51777520Y-84716386D01*
X51591624Y-84592174D01*
X51385067Y-84506615D01*
X51165788Y-84462998D01*
X50942212Y-84462998D01*
X50722933Y-84506615D01*
X50516376Y-84592174D01*
X50330480Y-84716386D01*
X50172388Y-84874478D01*
X50048176Y-85060374D01*
X49962617Y-85266931D01*
X49919000Y-85486210D01*
X31615000Y-85486210D01*
X31571383Y-85266933D01*
X31485824Y-85060376D01*
X31361612Y-84874480D01*
X31203520Y-84716388D01*
X31017624Y-84592176D01*
X30811067Y-84506617D01*
X30591788Y-84463000D01*
X30368212Y-84463000D01*
X30148933Y-84506617D01*
X29942376Y-84592176D01*
X29756480Y-84716388D01*
X29598388Y-84874480D01*
X29474176Y-85060376D01*
X29388617Y-85266933D01*
X29345000Y-85486212D01*
X26060000Y-85486212D01*
X26060000Y-82438212D01*
X29599000Y-82438212D01*
X29599000Y-82661788D01*
X29642617Y-82881067D01*
X29728176Y-83087624D01*
X29852388Y-83273520D01*
X30010480Y-83431612D01*
X30196376Y-83555824D01*
X30402933Y-83641383D01*
X30622212Y-83685000D01*
X30845788Y-83685000D01*
X31065067Y-83641383D01*
X31271624Y-83555824D01*
X31457520Y-83431612D01*
X31615612Y-83273520D01*
X31739824Y-83087624D01*
X31825383Y-82881067D01*
X31869000Y-82661788D01*
X31869000Y-82438212D01*
X45601000Y-82438212D01*
X45601000Y-82661788D01*
X45644617Y-82881067D01*
X45730176Y-83087624D01*
X45854388Y-83273520D01*
X46012480Y-83431612D01*
X46198376Y-83555824D01*
X46404933Y-83641383D01*
X46624212Y-83685000D01*
X46847788Y-83685000D01*
X47067067Y-83641383D01*
X47273624Y-83555824D01*
X47459520Y-83431612D01*
X47617612Y-83273520D01*
X47741824Y-83087624D01*
X47753047Y-83060529D01*
X47928933Y-83133383D01*
X48148212Y-83177000D01*
X48371788Y-83177000D01*
X48591067Y-83133383D01*
X48797624Y-83047824D01*
X48983520Y-82923612D01*
X49141612Y-82765520D01*
X49265824Y-82579624D01*
X49351383Y-82373067D01*
X49395000Y-82153788D01*
X49395000Y-81930212D01*
X54745000Y-81930212D01*
X54745000Y-82153788D01*
X54788617Y-82373067D01*
X54874176Y-82579624D01*
X54998388Y-82765520D01*
X55156480Y-82923612D01*
X55342376Y-83047824D01*
X55548933Y-83133383D01*
X55768212Y-83177000D01*
X55991788Y-83177000D01*
X56211067Y-83133383D01*
X56417624Y-83047824D01*
X56603520Y-82923612D01*
X56761612Y-82765520D01*
X56885824Y-82579624D01*
X56971383Y-82373067D01*
X57008948Y-82184212D01*
X66683000Y-82184212D01*
X66683000Y-82407788D01*
X66726617Y-82627067D01*
X66812176Y-82833624D01*
X66936388Y-83019520D01*
X67094480Y-83177612D01*
X67280376Y-83301824D01*
X67486933Y-83387383D01*
X67706212Y-83431000D01*
X67929788Y-83431000D01*
X68149067Y-83387383D01*
X68355624Y-83301824D01*
X68541520Y-83177612D01*
X68699612Y-83019520D01*
X68823824Y-82833624D01*
X68909383Y-82627067D01*
X68953000Y-82407788D01*
X68953000Y-82184212D01*
X68909383Y-81964933D01*
X68823824Y-81758376D01*
X68699612Y-81572480D01*
X68541520Y-81414388D01*
X68355624Y-81290176D01*
X68149067Y-81204617D01*
X67929788Y-81161000D01*
X67706212Y-81161000D01*
X67486933Y-81204617D01*
X67280376Y-81290176D01*
X67094480Y-81414388D01*
X66936388Y-81572480D01*
X66812176Y-81758376D01*
X66726617Y-81964933D01*
X66683000Y-82184212D01*
X57008948Y-82184212D01*
X57015000Y-82153788D01*
X57015000Y-81930212D01*
X56971383Y-81710933D01*
X56885824Y-81504376D01*
X56761612Y-81318480D01*
X56603520Y-81160388D01*
X56417624Y-81036176D01*
X56211067Y-80950617D01*
X55991788Y-80907000D01*
X55768212Y-80907000D01*
X55548933Y-80950617D01*
X55342376Y-81036176D01*
X55156480Y-81160388D01*
X54998388Y-81318480D01*
X54874176Y-81504376D01*
X54788617Y-81710933D01*
X54745000Y-81930212D01*
X49395000Y-81930212D01*
X49351383Y-81710933D01*
X49265824Y-81504376D01*
X49141612Y-81318480D01*
X48983520Y-81160388D01*
X48797624Y-81036176D01*
X48591067Y-80950617D01*
X48371788Y-80907000D01*
X48148212Y-80907000D01*
X47928933Y-80950617D01*
X47722376Y-81036176D01*
X47536480Y-81160388D01*
X47378388Y-81318480D01*
X47254176Y-81504376D01*
X47242953Y-81531471D01*
X47067067Y-81458617D01*
X46847788Y-81415000D01*
X46624212Y-81415000D01*
X46404933Y-81458617D01*
X46198376Y-81544176D01*
X46012480Y-81668388D01*
X45854388Y-81826480D01*
X45730176Y-82012376D01*
X45644617Y-82218933D01*
X45601000Y-82438212D01*
X31869000Y-82438212D01*
X31825383Y-82218933D01*
X31739824Y-82012376D01*
X31615612Y-81826480D01*
X31457520Y-81668388D01*
X31271624Y-81544176D01*
X31065067Y-81458617D01*
X30845788Y-81415000D01*
X30622212Y-81415000D01*
X30402933Y-81458617D01*
X30196376Y-81544176D01*
X30010480Y-81668388D01*
X29852388Y-81826480D01*
X29728176Y-82012376D01*
X29642617Y-82218933D01*
X29599000Y-82438212D01*
X26060000Y-82438212D01*
X26060000Y-80430000D01*
X77251928Y-80430000D01*
X77251928Y-82130000D01*
X77264188Y-82254482D01*
X77300498Y-82374180D01*
X77359463Y-82484494D01*
X77438815Y-82581185D01*
X77535506Y-82660537D01*
X77645820Y-82719502D01*
X77718380Y-82741513D01*
X77586525Y-82873368D01*
X77424010Y-83116589D01*
X77312068Y-83386842D01*
X77255000Y-83673740D01*
X77255000Y-83966260D01*
X77312068Y-84253158D01*
X77424010Y-84523411D01*
X77586525Y-84766632D01*
X77793368Y-84973475D01*
X77967760Y-85090000D01*
X77793368Y-85206525D01*
X77586525Y-85413368D01*
X77424010Y-85656589D01*
X77312068Y-85926842D01*
X77255000Y-86213740D01*
X77255000Y-86506260D01*
X77312068Y-86793158D01*
X77424010Y-87063411D01*
X77586525Y-87306632D01*
X77793368Y-87513475D01*
X77975534Y-87635195D01*
X77858645Y-87704822D01*
X77642412Y-87899731D01*
X77468359Y-88133080D01*
X77343175Y-88395901D01*
X77298524Y-88543110D01*
X77419845Y-88773000D01*
X78613000Y-88773000D01*
X78613000Y-88753000D01*
X78867000Y-88753000D01*
X78867000Y-88773000D01*
X80060155Y-88773000D01*
X80181476Y-88543110D01*
X80136825Y-88395901D01*
X80011641Y-88133080D01*
X79837588Y-87899731D01*
X79621355Y-87704822D01*
X79504466Y-87635195D01*
X79686632Y-87513475D01*
X79893475Y-87306632D01*
X80055990Y-87063411D01*
X80167932Y-86793158D01*
X80225000Y-86506260D01*
X80225000Y-86213740D01*
X80167932Y-85926842D01*
X80055990Y-85656589D01*
X79893475Y-85413368D01*
X79686632Y-85206525D01*
X79512240Y-85090000D01*
X79686632Y-84973475D01*
X79893475Y-84766632D01*
X80055990Y-84523411D01*
X80167932Y-84253158D01*
X80225000Y-83966260D01*
X80225000Y-83673740D01*
X80167932Y-83386842D01*
X80055990Y-83116589D01*
X79893475Y-82873368D01*
X79761620Y-82741513D01*
X79834180Y-82719502D01*
X79944494Y-82660537D01*
X80041185Y-82581185D01*
X80120537Y-82484494D01*
X80179502Y-82374180D01*
X80215812Y-82254482D01*
X80228072Y-82130000D01*
X80228072Y-80430000D01*
X80215812Y-80305518D01*
X80179502Y-80185820D01*
X80120537Y-80075506D01*
X80041185Y-79978815D01*
X79944494Y-79899463D01*
X79834180Y-79840498D01*
X79714482Y-79804188D01*
X79590000Y-79791928D01*
X77890000Y-79791928D01*
X77765518Y-79804188D01*
X77645820Y-79840498D01*
X77535506Y-79899463D01*
X77438815Y-79978815D01*
X77359463Y-80075506D01*
X77300498Y-80185820D01*
X77264188Y-80305518D01*
X77251928Y-80430000D01*
X26060000Y-80430000D01*
X26060000Y-78882212D01*
X27567000Y-78882212D01*
X27567000Y-79105788D01*
X27610617Y-79325067D01*
X27696176Y-79531624D01*
X27820388Y-79717520D01*
X27978480Y-79875612D01*
X28164376Y-79999824D01*
X28370933Y-80085383D01*
X28590212Y-80129000D01*
X28813788Y-80129000D01*
X29033067Y-80085383D01*
X29239624Y-79999824D01*
X29425520Y-79875612D01*
X29583612Y-79717520D01*
X29707824Y-79531624D01*
X29793383Y-79325067D01*
X29837000Y-79105788D01*
X29837000Y-78882212D01*
X29793383Y-78662933D01*
X29707824Y-78456376D01*
X29583612Y-78270480D01*
X29425520Y-78112388D01*
X29239624Y-77988176D01*
X29033067Y-77902617D01*
X28813788Y-77859000D01*
X28590212Y-77859000D01*
X28370933Y-77902617D01*
X28164376Y-77988176D01*
X27978480Y-78112388D01*
X27820388Y-78270480D01*
X27696176Y-78456376D01*
X27610617Y-78662933D01*
X27567000Y-78882212D01*
X26060000Y-78882212D01*
X26060000Y-76556890D01*
X77298524Y-76556890D01*
X77343175Y-76704099D01*
X77468359Y-76966920D01*
X77642412Y-77200269D01*
X77858645Y-77395178D01*
X78108748Y-77544157D01*
X78383109Y-77641481D01*
X78613000Y-77520814D01*
X78613000Y-76327000D01*
X78867000Y-76327000D01*
X78867000Y-77520814D01*
X79096891Y-77641481D01*
X79371252Y-77544157D01*
X79621355Y-77395178D01*
X79837588Y-77200269D01*
X80011641Y-76966920D01*
X80136825Y-76704099D01*
X80181476Y-76556890D01*
X80060155Y-76327000D01*
X78867000Y-76327000D01*
X78613000Y-76327000D01*
X77419845Y-76327000D01*
X77298524Y-76556890D01*
X26060000Y-76556890D01*
X26060000Y-71262212D01*
X35949000Y-71262212D01*
X35949000Y-71485788D01*
X35992617Y-71705067D01*
X36078176Y-71911624D01*
X36202388Y-72097520D01*
X36360480Y-72255612D01*
X36546376Y-72379824D01*
X36752933Y-72465383D01*
X36972212Y-72509000D01*
X37195788Y-72509000D01*
X37415067Y-72465383D01*
X37621624Y-72379824D01*
X37807520Y-72255612D01*
X37965612Y-72097520D01*
X38089824Y-71911624D01*
X38100000Y-71887057D01*
X38110176Y-71911624D01*
X38234388Y-72097520D01*
X38392480Y-72255612D01*
X38578376Y-72379824D01*
X38784933Y-72465383D01*
X39004212Y-72509000D01*
X39227788Y-72509000D01*
X39447067Y-72465383D01*
X39653624Y-72379824D01*
X39805696Y-72278212D01*
X74049000Y-72278212D01*
X74049000Y-72501788D01*
X74092617Y-72721067D01*
X74178176Y-72927624D01*
X74302388Y-73113520D01*
X74460480Y-73271612D01*
X74646376Y-73395824D01*
X74852933Y-73481383D01*
X75072212Y-73525000D01*
X75295788Y-73525000D01*
X75515067Y-73481383D01*
X75721624Y-73395824D01*
X75907520Y-73271612D01*
X76065612Y-73113520D01*
X76189824Y-72927624D01*
X76238545Y-72810000D01*
X77251928Y-72810000D01*
X77251928Y-74510000D01*
X77264188Y-74634482D01*
X77300498Y-74754180D01*
X77359463Y-74864494D01*
X77438815Y-74961185D01*
X77535506Y-75040537D01*
X77645820Y-75099502D01*
X77726466Y-75123966D01*
X77642412Y-75199731D01*
X77468359Y-75433080D01*
X77343175Y-75695901D01*
X77298524Y-75843110D01*
X77419845Y-76073000D01*
X78613000Y-76073000D01*
X78613000Y-76053000D01*
X78867000Y-76053000D01*
X78867000Y-76073000D01*
X80060155Y-76073000D01*
X80181476Y-75843110D01*
X80136825Y-75695901D01*
X80011641Y-75433080D01*
X79837588Y-75199731D01*
X79753534Y-75123966D01*
X79834180Y-75099502D01*
X79944494Y-75040537D01*
X80041185Y-74961185D01*
X80120537Y-74864494D01*
X80179502Y-74754180D01*
X80215812Y-74634482D01*
X80228072Y-74510000D01*
X80228072Y-72810000D01*
X80215812Y-72685518D01*
X80179502Y-72565820D01*
X80120537Y-72455506D01*
X80041185Y-72358815D01*
X79944494Y-72279463D01*
X79834180Y-72220498D01*
X79714482Y-72184188D01*
X79590000Y-72171928D01*
X77890000Y-72171928D01*
X77765518Y-72184188D01*
X77645820Y-72220498D01*
X77535506Y-72279463D01*
X77438815Y-72358815D01*
X77359463Y-72455506D01*
X77300498Y-72565820D01*
X77264188Y-72685518D01*
X77251928Y-72810000D01*
X76238545Y-72810000D01*
X76275383Y-72721067D01*
X76319000Y-72501788D01*
X76319000Y-72278212D01*
X76275383Y-72058933D01*
X76189824Y-71852376D01*
X76065612Y-71666480D01*
X75907520Y-71508388D01*
X75721624Y-71384176D01*
X75515067Y-71298617D01*
X75295788Y-71255000D01*
X75072212Y-71255000D01*
X74852933Y-71298617D01*
X74646376Y-71384176D01*
X74460480Y-71508388D01*
X74302388Y-71666480D01*
X74178176Y-71852376D01*
X74092617Y-72058933D01*
X74049000Y-72278212D01*
X39805696Y-72278212D01*
X39839520Y-72255612D01*
X39997612Y-72097520D01*
X40121824Y-71911624D01*
X40207383Y-71705067D01*
X40251000Y-71485788D01*
X40251000Y-71262212D01*
X40207383Y-71042933D01*
X40121824Y-70836376D01*
X39997612Y-70650480D01*
X39839520Y-70492388D01*
X39653624Y-70368176D01*
X39447067Y-70282617D01*
X39227788Y-70239000D01*
X39004212Y-70239000D01*
X38784933Y-70282617D01*
X38578376Y-70368176D01*
X38392480Y-70492388D01*
X38234388Y-70650480D01*
X38110176Y-70836376D01*
X38100000Y-70860943D01*
X38089824Y-70836376D01*
X37965612Y-70650480D01*
X37807520Y-70492388D01*
X37621624Y-70368176D01*
X37415067Y-70282617D01*
X37195788Y-70239000D01*
X36972212Y-70239000D01*
X36752933Y-70282617D01*
X36546376Y-70368176D01*
X36360480Y-70492388D01*
X36202388Y-70650480D01*
X36078176Y-70836376D01*
X35992617Y-71042933D01*
X35949000Y-71262212D01*
X26060000Y-71262212D01*
X26060000Y-67960212D01*
X48903000Y-67960212D01*
X48903000Y-68183788D01*
X48946617Y-68403067D01*
X49032176Y-68609624D01*
X49156388Y-68795520D01*
X49314480Y-68953612D01*
X49500376Y-69077824D01*
X49706933Y-69163383D01*
X49926212Y-69207000D01*
X50149788Y-69207000D01*
X50369067Y-69163383D01*
X50575624Y-69077824D01*
X50761520Y-68953612D01*
X50778242Y-68936890D01*
X77298524Y-68936890D01*
X77343175Y-69084099D01*
X77468359Y-69346920D01*
X77642412Y-69580269D01*
X77858645Y-69775178D01*
X78108748Y-69924157D01*
X78383109Y-70021481D01*
X78613000Y-69900814D01*
X78613000Y-68707000D01*
X78867000Y-68707000D01*
X78867000Y-69900814D01*
X79096891Y-70021481D01*
X79371252Y-69924157D01*
X79621355Y-69775178D01*
X79837588Y-69580269D01*
X80011641Y-69346920D01*
X80136825Y-69084099D01*
X80181476Y-68936890D01*
X80060155Y-68707000D01*
X78867000Y-68707000D01*
X78613000Y-68707000D01*
X77419845Y-68707000D01*
X77298524Y-68936890D01*
X50778242Y-68936890D01*
X50919612Y-68795520D01*
X51043824Y-68609624D01*
X51129383Y-68403067D01*
X51173000Y-68183788D01*
X51173000Y-67960212D01*
X51129383Y-67740933D01*
X51043824Y-67534376D01*
X50919612Y-67348480D01*
X50761520Y-67190388D01*
X50575624Y-67066176D01*
X50369067Y-66980617D01*
X50149788Y-66937000D01*
X49926212Y-66937000D01*
X49706933Y-66980617D01*
X49500376Y-67066176D01*
X49314480Y-67190388D01*
X49156388Y-67348480D01*
X49032176Y-67534376D01*
X48946617Y-67740933D01*
X48903000Y-67960212D01*
X26060000Y-67960212D01*
X26060000Y-65928212D01*
X34933000Y-65928212D01*
X34933000Y-66151788D01*
X34976617Y-66371067D01*
X35062176Y-66577624D01*
X35186388Y-66763520D01*
X35344480Y-66921612D01*
X35530376Y-67045824D01*
X35736933Y-67131383D01*
X35956212Y-67175000D01*
X36179788Y-67175000D01*
X36399067Y-67131383D01*
X36605624Y-67045824D01*
X36791520Y-66921612D01*
X36949612Y-66763520D01*
X37073824Y-66577624D01*
X37159383Y-66371067D01*
X37203000Y-66151788D01*
X37203000Y-65928212D01*
X37159383Y-65708933D01*
X37073824Y-65502376D01*
X36949612Y-65316480D01*
X36791520Y-65158388D01*
X36605624Y-65034176D01*
X36399067Y-64948617D01*
X36216046Y-64912212D01*
X46617000Y-64912212D01*
X46617000Y-65135788D01*
X46660617Y-65355067D01*
X46746176Y-65561624D01*
X46870388Y-65747520D01*
X47028480Y-65905612D01*
X47214376Y-66029824D01*
X47420933Y-66115383D01*
X47640212Y-66159000D01*
X47863788Y-66159000D01*
X48083067Y-66115383D01*
X48289624Y-66029824D01*
X48441696Y-65928212D01*
X57539000Y-65928212D01*
X57539000Y-66151788D01*
X57582617Y-66371067D01*
X57668176Y-66577624D01*
X57792388Y-66763520D01*
X57950480Y-66921612D01*
X58136376Y-67045824D01*
X58342933Y-67131383D01*
X58562212Y-67175000D01*
X58785788Y-67175000D01*
X59005067Y-67131383D01*
X59211624Y-67045824D01*
X59397520Y-66921612D01*
X59555612Y-66763520D01*
X59679824Y-66577624D01*
X59765383Y-66371067D01*
X59808492Y-66154338D01*
X67973428Y-66154338D01*
X67973428Y-66377914D01*
X68017045Y-66597193D01*
X68102604Y-66803750D01*
X68226816Y-66989646D01*
X68384908Y-67147738D01*
X68570804Y-67271950D01*
X68777361Y-67357509D01*
X68996640Y-67401126D01*
X69220216Y-67401126D01*
X69439495Y-67357509D01*
X69646052Y-67271950D01*
X69831948Y-67147738D01*
X69990040Y-66989646D01*
X70114252Y-66803750D01*
X70199811Y-66597193D01*
X70243428Y-66377914D01*
X70243428Y-66154338D01*
X70199811Y-65935059D01*
X70114252Y-65728502D01*
X69990040Y-65542606D01*
X69831948Y-65384514D01*
X69646052Y-65260302D01*
X69476329Y-65190000D01*
X77251928Y-65190000D01*
X77251928Y-66890000D01*
X77264188Y-67014482D01*
X77300498Y-67134180D01*
X77359463Y-67244494D01*
X77438815Y-67341185D01*
X77535506Y-67420537D01*
X77645820Y-67479502D01*
X77726466Y-67503966D01*
X77642412Y-67579731D01*
X77468359Y-67813080D01*
X77343175Y-68075901D01*
X77298524Y-68223110D01*
X77419845Y-68453000D01*
X78613000Y-68453000D01*
X78613000Y-68433000D01*
X78867000Y-68433000D01*
X78867000Y-68453000D01*
X80060155Y-68453000D01*
X80181476Y-68223110D01*
X80136825Y-68075901D01*
X80011641Y-67813080D01*
X79837588Y-67579731D01*
X79753534Y-67503966D01*
X79834180Y-67479502D01*
X79944494Y-67420537D01*
X80041185Y-67341185D01*
X80120537Y-67244494D01*
X80179502Y-67134180D01*
X80215812Y-67014482D01*
X80228072Y-66890000D01*
X80228072Y-65190000D01*
X80215812Y-65065518D01*
X80179502Y-64945820D01*
X80120537Y-64835506D01*
X80041185Y-64738815D01*
X79944494Y-64659463D01*
X79834180Y-64600498D01*
X79714482Y-64564188D01*
X79590000Y-64551928D01*
X77890000Y-64551928D01*
X77765518Y-64564188D01*
X77645820Y-64600498D01*
X77535506Y-64659463D01*
X77438815Y-64738815D01*
X77359463Y-64835506D01*
X77300498Y-64945820D01*
X77264188Y-65065518D01*
X77251928Y-65190000D01*
X69476329Y-65190000D01*
X69439495Y-65174743D01*
X69220216Y-65131126D01*
X68996640Y-65131126D01*
X68777361Y-65174743D01*
X68570804Y-65260302D01*
X68384908Y-65384514D01*
X68226816Y-65542606D01*
X68102604Y-65728502D01*
X68017045Y-65935059D01*
X67973428Y-66154338D01*
X59808492Y-66154338D01*
X59809000Y-66151788D01*
X59809000Y-65928212D01*
X59765383Y-65708933D01*
X59679824Y-65502376D01*
X59555612Y-65316480D01*
X59397520Y-65158388D01*
X59211624Y-65034176D01*
X59005067Y-64948617D01*
X58785788Y-64905000D01*
X58562212Y-64905000D01*
X58342933Y-64948617D01*
X58136376Y-65034176D01*
X57950480Y-65158388D01*
X57792388Y-65316480D01*
X57668176Y-65502376D01*
X57582617Y-65708933D01*
X57539000Y-65928212D01*
X48441696Y-65928212D01*
X48475520Y-65905612D01*
X48633612Y-65747520D01*
X48757824Y-65561624D01*
X48843383Y-65355067D01*
X48887000Y-65135788D01*
X48887000Y-64912212D01*
X48843383Y-64692933D01*
X48757824Y-64486376D01*
X48633612Y-64300480D01*
X48475520Y-64142388D01*
X48289624Y-64018176D01*
X48083067Y-63932617D01*
X47900046Y-63896212D01*
X49157000Y-63896212D01*
X49157000Y-64119788D01*
X49200617Y-64339067D01*
X49286176Y-64545624D01*
X49410388Y-64731520D01*
X49568480Y-64889612D01*
X49754376Y-65013824D01*
X49960933Y-65099383D01*
X50180212Y-65143000D01*
X50403788Y-65143000D01*
X50623067Y-65099383D01*
X50829624Y-65013824D01*
X51015520Y-64889612D01*
X51173612Y-64731520D01*
X51297824Y-64545624D01*
X51383383Y-64339067D01*
X51427000Y-64119788D01*
X51427000Y-63896212D01*
X61857000Y-63896212D01*
X61857000Y-64119788D01*
X61900617Y-64339067D01*
X61986176Y-64545624D01*
X62110388Y-64731520D01*
X62268480Y-64889612D01*
X62454376Y-65013824D01*
X62660933Y-65099383D01*
X62880212Y-65143000D01*
X63103788Y-65143000D01*
X63323067Y-65099383D01*
X63529624Y-65013824D01*
X63715520Y-64889612D01*
X63873612Y-64731520D01*
X63997824Y-64545624D01*
X64083383Y-64339067D01*
X64127000Y-64119788D01*
X64127000Y-63896212D01*
X64083383Y-63676933D01*
X64073558Y-63653212D01*
X64397000Y-63653212D01*
X64397000Y-63876788D01*
X64440617Y-64096067D01*
X64526176Y-64302624D01*
X64650388Y-64488520D01*
X64808480Y-64646612D01*
X64994376Y-64770824D01*
X65200933Y-64856383D01*
X65420212Y-64900000D01*
X65643788Y-64900000D01*
X65863067Y-64856383D01*
X66069624Y-64770824D01*
X66255520Y-64646612D01*
X66413612Y-64488520D01*
X66537824Y-64302624D01*
X66623383Y-64096067D01*
X66667000Y-63876788D01*
X66667000Y-63653212D01*
X66623383Y-63433933D01*
X66537824Y-63227376D01*
X66475574Y-63134212D01*
X67191000Y-63134212D01*
X67191000Y-63357788D01*
X67234617Y-63577067D01*
X67320176Y-63783624D01*
X67444388Y-63969520D01*
X67602480Y-64127612D01*
X67788376Y-64251824D01*
X67994933Y-64337383D01*
X68214212Y-64381000D01*
X68437788Y-64381000D01*
X68657067Y-64337383D01*
X68863624Y-64251824D01*
X69049520Y-64127612D01*
X69207612Y-63969520D01*
X69331824Y-63783624D01*
X69417383Y-63577067D01*
X69461000Y-63357788D01*
X69461000Y-63134212D01*
X69417383Y-62914933D01*
X69331824Y-62708376D01*
X69207612Y-62522480D01*
X69049520Y-62364388D01*
X68863624Y-62240176D01*
X68657067Y-62154617D01*
X68437788Y-62111000D01*
X68214212Y-62111000D01*
X67994933Y-62154617D01*
X67788376Y-62240176D01*
X67602480Y-62364388D01*
X67444388Y-62522480D01*
X67320176Y-62708376D01*
X67234617Y-62914933D01*
X67191000Y-63134212D01*
X66475574Y-63134212D01*
X66413612Y-63041480D01*
X66255520Y-62883388D01*
X66069624Y-62759176D01*
X65863067Y-62673617D01*
X65643788Y-62630000D01*
X65420212Y-62630000D01*
X65200933Y-62673617D01*
X64994376Y-62759176D01*
X64808480Y-62883388D01*
X64650388Y-63041480D01*
X64526176Y-63227376D01*
X64440617Y-63433933D01*
X64397000Y-63653212D01*
X64073558Y-63653212D01*
X63997824Y-63470376D01*
X63873612Y-63284480D01*
X63715520Y-63126388D01*
X63529624Y-63002176D01*
X63323067Y-62916617D01*
X63103788Y-62873000D01*
X62880212Y-62873000D01*
X62660933Y-62916617D01*
X62454376Y-63002176D01*
X62268480Y-63126388D01*
X62110388Y-63284480D01*
X61986176Y-63470376D01*
X61900617Y-63676933D01*
X61857000Y-63896212D01*
X51427000Y-63896212D01*
X51383383Y-63676933D01*
X51297824Y-63470376D01*
X51173612Y-63284480D01*
X51015520Y-63126388D01*
X50829624Y-63002176D01*
X50623067Y-62916617D01*
X50403788Y-62873000D01*
X50180212Y-62873000D01*
X49960933Y-62916617D01*
X49754376Y-63002176D01*
X49568480Y-63126388D01*
X49410388Y-63284480D01*
X49286176Y-63470376D01*
X49200617Y-63676933D01*
X49157000Y-63896212D01*
X47900046Y-63896212D01*
X47863788Y-63889000D01*
X47640212Y-63889000D01*
X47420933Y-63932617D01*
X47214376Y-64018176D01*
X47028480Y-64142388D01*
X46870388Y-64300480D01*
X46746176Y-64486376D01*
X46660617Y-64692933D01*
X46617000Y-64912212D01*
X36216046Y-64912212D01*
X36179788Y-64905000D01*
X35956212Y-64905000D01*
X35736933Y-64948617D01*
X35530376Y-65034176D01*
X35344480Y-65158388D01*
X35186388Y-65316480D01*
X35062176Y-65502376D01*
X34976617Y-65708933D01*
X34933000Y-65928212D01*
X26060000Y-65928212D01*
X26060000Y-61610212D01*
X36711000Y-61610212D01*
X36711000Y-61833788D01*
X36754617Y-62053067D01*
X36840176Y-62259624D01*
X36964388Y-62445520D01*
X37122480Y-62603612D01*
X37308376Y-62727824D01*
X37514933Y-62813383D01*
X37734212Y-62857000D01*
X37957788Y-62857000D01*
X38177067Y-62813383D01*
X38383624Y-62727824D01*
X38535696Y-62626212D01*
X43061000Y-62626212D01*
X43061000Y-62849788D01*
X43104617Y-63069067D01*
X43190176Y-63275624D01*
X43314388Y-63461520D01*
X43472480Y-63619612D01*
X43658376Y-63743824D01*
X43864933Y-63829383D01*
X44084212Y-63873000D01*
X44307788Y-63873000D01*
X44527067Y-63829383D01*
X44733624Y-63743824D01*
X44919520Y-63619612D01*
X45077612Y-63461520D01*
X45201824Y-63275624D01*
X45287383Y-63069067D01*
X45331000Y-62849788D01*
X45331000Y-62626212D01*
X45287383Y-62406933D01*
X45201824Y-62200376D01*
X45077612Y-62014480D01*
X44919520Y-61856388D01*
X44733624Y-61732176D01*
X44527067Y-61646617D01*
X44307788Y-61603000D01*
X44084212Y-61603000D01*
X43864933Y-61646617D01*
X43658376Y-61732176D01*
X43472480Y-61856388D01*
X43314388Y-62014480D01*
X43190176Y-62200376D01*
X43104617Y-62406933D01*
X43061000Y-62626212D01*
X38535696Y-62626212D01*
X38569520Y-62603612D01*
X38727612Y-62445520D01*
X38851824Y-62259624D01*
X38937383Y-62053067D01*
X38981000Y-61833788D01*
X38981000Y-61610212D01*
X38937383Y-61390933D01*
X38851824Y-61184376D01*
X38727612Y-60998480D01*
X38569520Y-60840388D01*
X38383624Y-60716176D01*
X38177067Y-60630617D01*
X37957788Y-60587000D01*
X37734212Y-60587000D01*
X37514933Y-60630617D01*
X37308376Y-60716176D01*
X37122480Y-60840388D01*
X36964388Y-60998480D01*
X36840176Y-61184376D01*
X36754617Y-61390933D01*
X36711000Y-61610212D01*
X26060000Y-61610212D01*
X26060000Y-60340212D01*
X41029000Y-60340212D01*
X41029000Y-60563788D01*
X41072617Y-60783067D01*
X41158176Y-60989624D01*
X41282388Y-61175520D01*
X41440480Y-61333612D01*
X41626376Y-61457824D01*
X41832933Y-61543383D01*
X42052212Y-61587000D01*
X42275788Y-61587000D01*
X42495067Y-61543383D01*
X42701624Y-61457824D01*
X42853696Y-61356212D01*
X51443000Y-61356212D01*
X51443000Y-61579788D01*
X51486617Y-61799067D01*
X51572176Y-62005624D01*
X51696388Y-62191520D01*
X51854480Y-62349612D01*
X52040376Y-62473824D01*
X52246933Y-62559383D01*
X52466212Y-62603000D01*
X52689788Y-62603000D01*
X52909067Y-62559383D01*
X53115624Y-62473824D01*
X53301520Y-62349612D01*
X53459612Y-62191520D01*
X53583824Y-62005624D01*
X53669383Y-61799067D01*
X53713000Y-61579788D01*
X53713000Y-61356212D01*
X53705179Y-61316890D01*
X77298524Y-61316890D01*
X77343175Y-61464099D01*
X77468359Y-61726920D01*
X77642412Y-61960269D01*
X77858645Y-62155178D01*
X78108748Y-62304157D01*
X78383109Y-62401481D01*
X78613000Y-62280814D01*
X78613000Y-61087000D01*
X78867000Y-61087000D01*
X78867000Y-62280814D01*
X79096891Y-62401481D01*
X79371252Y-62304157D01*
X79621355Y-62155178D01*
X79837588Y-61960269D01*
X80011641Y-61726920D01*
X80136825Y-61464099D01*
X80181476Y-61316890D01*
X80060155Y-61087000D01*
X78867000Y-61087000D01*
X78613000Y-61087000D01*
X77419845Y-61087000D01*
X77298524Y-61316890D01*
X53705179Y-61316890D01*
X53669383Y-61136933D01*
X53583824Y-60930376D01*
X53459612Y-60744480D01*
X53301520Y-60586388D01*
X53115624Y-60462176D01*
X52909067Y-60376617D01*
X52689788Y-60333000D01*
X52466212Y-60333000D01*
X52246933Y-60376617D01*
X52040376Y-60462176D01*
X51854480Y-60586388D01*
X51696388Y-60744480D01*
X51572176Y-60930376D01*
X51486617Y-61136933D01*
X51443000Y-61356212D01*
X42853696Y-61356212D01*
X42887520Y-61333612D01*
X43045612Y-61175520D01*
X43169824Y-60989624D01*
X43255383Y-60783067D01*
X43299000Y-60563788D01*
X43299000Y-60340212D01*
X43255383Y-60120933D01*
X43169824Y-59914376D01*
X43045612Y-59728480D01*
X42887520Y-59570388D01*
X42701624Y-59446176D01*
X42495067Y-59360617D01*
X42275788Y-59317000D01*
X42052212Y-59317000D01*
X41832933Y-59360617D01*
X41626376Y-59446176D01*
X41440480Y-59570388D01*
X41282388Y-59728480D01*
X41158176Y-59914376D01*
X41072617Y-60120933D01*
X41029000Y-60340212D01*
X26060000Y-60340212D01*
X26060000Y-56381544D01*
X46270000Y-56381544D01*
X46270000Y-56648456D01*
X46322072Y-56910239D01*
X46424215Y-57156833D01*
X46572503Y-57378762D01*
X46761238Y-57567497D01*
X46983167Y-57715785D01*
X47229761Y-57817928D01*
X47491544Y-57870000D01*
X47758456Y-57870000D01*
X48020239Y-57817928D01*
X48266833Y-57715785D01*
X48488762Y-57567497D01*
X48677497Y-57378762D01*
X48825785Y-57156833D01*
X48895000Y-56989734D01*
X48964215Y-57156833D01*
X49112503Y-57378762D01*
X49301238Y-57567497D01*
X49523167Y-57715785D01*
X49769761Y-57817928D01*
X50031544Y-57870000D01*
X50298456Y-57870000D01*
X50560239Y-57817928D01*
X50806833Y-57715785D01*
X51028762Y-57567497D01*
X51217497Y-57378762D01*
X51365785Y-57156833D01*
X51435000Y-56989734D01*
X51504215Y-57156833D01*
X51652503Y-57378762D01*
X51841238Y-57567497D01*
X52063167Y-57715785D01*
X52309761Y-57817928D01*
X52571544Y-57870000D01*
X52838456Y-57870000D01*
X53100239Y-57817928D01*
X53346833Y-57715785D01*
X53568762Y-57567497D01*
X53685699Y-57450560D01*
X57029045Y-57450560D01*
X57090932Y-57686368D01*
X57332790Y-57799266D01*
X57592027Y-57862811D01*
X57858680Y-57874561D01*
X58122501Y-57834063D01*
X58373353Y-57742875D01*
X58479068Y-57686368D01*
X58540955Y-57450560D01*
X57785000Y-56694605D01*
X57029045Y-57450560D01*
X53685699Y-57450560D01*
X53757497Y-57378762D01*
X53905785Y-57156833D01*
X54007928Y-56910239D01*
X54060000Y-56648456D01*
X54060000Y-56588680D01*
X56425439Y-56588680D01*
X56465937Y-56852501D01*
X56557125Y-57103353D01*
X56613632Y-57209068D01*
X56849440Y-57270955D01*
X57605395Y-56515000D01*
X57964605Y-56515000D01*
X58720560Y-57270955D01*
X58956368Y-57209068D01*
X59056764Y-56993993D01*
X59124215Y-57156833D01*
X59272503Y-57378762D01*
X59461238Y-57567497D01*
X59683167Y-57715785D01*
X59929761Y-57817928D01*
X60191544Y-57870000D01*
X60458456Y-57870000D01*
X60720239Y-57817928D01*
X60966833Y-57715785D01*
X61188762Y-57567497D01*
X61377497Y-57378762D01*
X61525785Y-57156833D01*
X61595000Y-56989734D01*
X61664215Y-57156833D01*
X61812503Y-57378762D01*
X62001238Y-57567497D01*
X62223167Y-57715785D01*
X62469761Y-57817928D01*
X62731544Y-57870000D01*
X62998456Y-57870000D01*
X63260239Y-57817928D01*
X63506833Y-57715785D01*
X63728762Y-57567497D01*
X63845699Y-57450560D01*
X67189045Y-57450560D01*
X67250932Y-57686368D01*
X67492790Y-57799266D01*
X67752027Y-57862811D01*
X68018680Y-57874561D01*
X68282501Y-57834063D01*
X68533353Y-57742875D01*
X68639068Y-57686368D01*
X68700955Y-57450560D01*
X67945000Y-56694605D01*
X67189045Y-57450560D01*
X63845699Y-57450560D01*
X63917497Y-57378762D01*
X64065785Y-57156833D01*
X64167928Y-56910239D01*
X64220000Y-56648456D01*
X64220000Y-56588680D01*
X66585439Y-56588680D01*
X66625937Y-56852501D01*
X66717125Y-57103353D01*
X66773632Y-57209068D01*
X67009440Y-57270955D01*
X67765395Y-56515000D01*
X68124605Y-56515000D01*
X68880560Y-57270955D01*
X69116368Y-57209068D01*
X69216764Y-56993993D01*
X69284215Y-57156833D01*
X69432503Y-57378762D01*
X69621238Y-57567497D01*
X69843167Y-57715785D01*
X70089761Y-57817928D01*
X70351544Y-57870000D01*
X70618456Y-57870000D01*
X70880239Y-57817928D01*
X71126833Y-57715785D01*
X71348762Y-57567497D01*
X71537497Y-57378762D01*
X71685785Y-57156833D01*
X71755000Y-56989734D01*
X71824215Y-57156833D01*
X71972503Y-57378762D01*
X72161238Y-57567497D01*
X72383167Y-57715785D01*
X72629761Y-57817928D01*
X72891544Y-57870000D01*
X73158456Y-57870000D01*
X73420239Y-57817928D01*
X73666833Y-57715785D01*
X73888762Y-57567497D01*
X74077497Y-57378762D01*
X74225785Y-57156833D01*
X74327928Y-56910239D01*
X74380000Y-56648456D01*
X74380000Y-56381544D01*
X74327928Y-56119761D01*
X74225785Y-55873167D01*
X74077497Y-55651238D01*
X73888762Y-55462503D01*
X73666833Y-55314215D01*
X73420239Y-55212072D01*
X73158456Y-55160000D01*
X72891544Y-55160000D01*
X72629761Y-55212072D01*
X72383167Y-55314215D01*
X72161238Y-55462503D01*
X71972503Y-55651238D01*
X71824215Y-55873167D01*
X71755000Y-56040266D01*
X71685785Y-55873167D01*
X71537497Y-55651238D01*
X71348762Y-55462503D01*
X71126833Y-55314215D01*
X70880239Y-55212072D01*
X70618456Y-55160000D01*
X70351544Y-55160000D01*
X70089761Y-55212072D01*
X69843167Y-55314215D01*
X69621238Y-55462503D01*
X69432503Y-55651238D01*
X69284215Y-55873167D01*
X69214562Y-56041324D01*
X69172875Y-55926647D01*
X69116368Y-55820932D01*
X68880560Y-55759045D01*
X68124605Y-56515000D01*
X67765395Y-56515000D01*
X67009440Y-55759045D01*
X66773632Y-55820932D01*
X66660734Y-56062790D01*
X66597189Y-56322027D01*
X66585439Y-56588680D01*
X64220000Y-56588680D01*
X64220000Y-56381544D01*
X64167928Y-56119761D01*
X64065785Y-55873167D01*
X63917497Y-55651238D01*
X63845699Y-55579440D01*
X67189045Y-55579440D01*
X67945000Y-56335395D01*
X68700955Y-55579440D01*
X68639068Y-55343632D01*
X68397210Y-55230734D01*
X68137973Y-55167189D01*
X67871320Y-55155439D01*
X67607499Y-55195937D01*
X67356647Y-55287125D01*
X67250932Y-55343632D01*
X67189045Y-55579440D01*
X63845699Y-55579440D01*
X63728762Y-55462503D01*
X63506833Y-55314215D01*
X63260239Y-55212072D01*
X62998456Y-55160000D01*
X62731544Y-55160000D01*
X62469761Y-55212072D01*
X62223167Y-55314215D01*
X62001238Y-55462503D01*
X61812503Y-55651238D01*
X61664215Y-55873167D01*
X61595000Y-56040266D01*
X61525785Y-55873167D01*
X61377497Y-55651238D01*
X61188762Y-55462503D01*
X60966833Y-55314215D01*
X60720239Y-55212072D01*
X60458456Y-55160000D01*
X60191544Y-55160000D01*
X59929761Y-55212072D01*
X59683167Y-55314215D01*
X59461238Y-55462503D01*
X59272503Y-55651238D01*
X59124215Y-55873167D01*
X59054562Y-56041324D01*
X59012875Y-55926647D01*
X58956368Y-55820932D01*
X58720560Y-55759045D01*
X57964605Y-56515000D01*
X57605395Y-56515000D01*
X56849440Y-55759045D01*
X56613632Y-55820932D01*
X56500734Y-56062790D01*
X56437189Y-56322027D01*
X56425439Y-56588680D01*
X54060000Y-56588680D01*
X54060000Y-56381544D01*
X54007928Y-56119761D01*
X53905785Y-55873167D01*
X53757497Y-55651238D01*
X53685699Y-55579440D01*
X57029045Y-55579440D01*
X57785000Y-56335395D01*
X58540955Y-55579440D01*
X58479068Y-55343632D01*
X58237210Y-55230734D01*
X57977973Y-55167189D01*
X57711320Y-55155439D01*
X57447499Y-55195937D01*
X57196647Y-55287125D01*
X57090932Y-55343632D01*
X57029045Y-55579440D01*
X53685699Y-55579440D01*
X53568762Y-55462503D01*
X53346833Y-55314215D01*
X53100239Y-55212072D01*
X52838456Y-55160000D01*
X52571544Y-55160000D01*
X52309761Y-55212072D01*
X52063167Y-55314215D01*
X51841238Y-55462503D01*
X51652503Y-55651238D01*
X51504215Y-55873167D01*
X51435000Y-56040266D01*
X51365785Y-55873167D01*
X51217497Y-55651238D01*
X51028762Y-55462503D01*
X50806833Y-55314215D01*
X50560239Y-55212072D01*
X50298456Y-55160000D01*
X50031544Y-55160000D01*
X49769761Y-55212072D01*
X49523167Y-55314215D01*
X49301238Y-55462503D01*
X49112503Y-55651238D01*
X48964215Y-55873167D01*
X48895000Y-56040266D01*
X48825785Y-55873167D01*
X48677497Y-55651238D01*
X48488762Y-55462503D01*
X48266833Y-55314215D01*
X48020239Y-55212072D01*
X47758456Y-55160000D01*
X47491544Y-55160000D01*
X47229761Y-55212072D01*
X46983167Y-55314215D01*
X46761238Y-55462503D01*
X46572503Y-55651238D01*
X46424215Y-55873167D01*
X46322072Y-56119761D01*
X46270000Y-56381544D01*
X26060000Y-56381544D01*
X26060000Y-55945055D01*
X26084933Y-55955383D01*
X26304212Y-55999000D01*
X26527788Y-55999000D01*
X26747067Y-55955383D01*
X26953624Y-55869824D01*
X27139520Y-55745612D01*
X27297612Y-55587520D01*
X27421824Y-55401624D01*
X27507383Y-55195067D01*
X27551000Y-54975788D01*
X27551000Y-54752212D01*
X27507383Y-54532933D01*
X27421824Y-54326376D01*
X27297612Y-54140480D01*
X27139520Y-53982388D01*
X26953624Y-53858176D01*
X26747067Y-53772617D01*
X26527788Y-53729000D01*
X26304212Y-53729000D01*
X26084933Y-53772617D01*
X26060000Y-53782945D01*
X26060000Y-52490000D01*
X77251928Y-52490000D01*
X77251928Y-54190000D01*
X77264188Y-54314482D01*
X77300498Y-54434180D01*
X77359463Y-54544494D01*
X77438815Y-54641185D01*
X77535506Y-54720537D01*
X77645820Y-54779502D01*
X77718380Y-54801513D01*
X77586525Y-54933368D01*
X77424010Y-55176589D01*
X77312068Y-55446842D01*
X77255000Y-55733740D01*
X77255000Y-56026260D01*
X77312068Y-56313158D01*
X77424010Y-56583411D01*
X77586525Y-56826632D01*
X77793368Y-57033475D01*
X77967760Y-57150000D01*
X77793368Y-57266525D01*
X77586525Y-57473368D01*
X77424010Y-57716589D01*
X77312068Y-57986842D01*
X77255000Y-58273740D01*
X77255000Y-58566260D01*
X77312068Y-58853158D01*
X77424010Y-59123411D01*
X77586525Y-59366632D01*
X77793368Y-59573475D01*
X77975534Y-59695195D01*
X77858645Y-59764822D01*
X77642412Y-59959731D01*
X77468359Y-60193080D01*
X77343175Y-60455901D01*
X77298524Y-60603110D01*
X77419845Y-60833000D01*
X78613000Y-60833000D01*
X78613000Y-60813000D01*
X78867000Y-60813000D01*
X78867000Y-60833000D01*
X80060155Y-60833000D01*
X80181476Y-60603110D01*
X80136825Y-60455901D01*
X80011641Y-60193080D01*
X79837588Y-59959731D01*
X79621355Y-59764822D01*
X79504466Y-59695195D01*
X79686632Y-59573475D01*
X79893475Y-59366632D01*
X80055990Y-59123411D01*
X80167932Y-58853158D01*
X80225000Y-58566260D01*
X80225000Y-58273740D01*
X80167932Y-57986842D01*
X80055990Y-57716589D01*
X79893475Y-57473368D01*
X79686632Y-57266525D01*
X79512240Y-57150000D01*
X79686632Y-57033475D01*
X79893475Y-56826632D01*
X80055990Y-56583411D01*
X80167932Y-56313158D01*
X80225000Y-56026260D01*
X80225000Y-55733740D01*
X80167932Y-55446842D01*
X80055990Y-55176589D01*
X79893475Y-54933368D01*
X79761620Y-54801513D01*
X79834180Y-54779502D01*
X79944494Y-54720537D01*
X80041185Y-54641185D01*
X80120537Y-54544494D01*
X80179502Y-54434180D01*
X80215812Y-54314482D01*
X80228072Y-54190000D01*
X80228072Y-52490000D01*
X80215812Y-52365518D01*
X80179502Y-52245820D01*
X80120537Y-52135506D01*
X80041185Y-52038815D01*
X79944494Y-51959463D01*
X79834180Y-51900498D01*
X79714482Y-51864188D01*
X79590000Y-51851928D01*
X77890000Y-51851928D01*
X77765518Y-51864188D01*
X77645820Y-51900498D01*
X77535506Y-51959463D01*
X77438815Y-52038815D01*
X77359463Y-52135506D01*
X77300498Y-52245820D01*
X77264188Y-52365518D01*
X77251928Y-52490000D01*
X26060000Y-52490000D01*
X26060000Y-50688212D01*
X39505000Y-50688212D01*
X39505000Y-50911788D01*
X39548617Y-51131067D01*
X39634176Y-51337624D01*
X39758388Y-51523520D01*
X39916480Y-51681612D01*
X40102376Y-51805824D01*
X40308933Y-51891383D01*
X40528212Y-51935000D01*
X40751788Y-51935000D01*
X40971067Y-51891383D01*
X41177624Y-51805824D01*
X41363520Y-51681612D01*
X41521612Y-51523520D01*
X41645824Y-51337624D01*
X41731383Y-51131067D01*
X41775000Y-50911788D01*
X41775000Y-50688212D01*
X41731383Y-50468933D01*
X41645824Y-50262376D01*
X41521612Y-50076480D01*
X41363520Y-49918388D01*
X41177624Y-49794176D01*
X40971067Y-49708617D01*
X40751788Y-49665000D01*
X40528212Y-49665000D01*
X40308933Y-49708617D01*
X40102376Y-49794176D01*
X39916480Y-49918388D01*
X39758388Y-50076480D01*
X39634176Y-50262376D01*
X39548617Y-50468933D01*
X39505000Y-50688212D01*
X26060000Y-50688212D01*
X26060000Y-48113740D01*
X28995000Y-48113740D01*
X28995000Y-48406260D01*
X29052068Y-48693158D01*
X29164010Y-48963411D01*
X29326525Y-49206632D01*
X29533368Y-49413475D01*
X29776589Y-49575990D01*
X30046842Y-49687932D01*
X30333740Y-49745000D01*
X30626260Y-49745000D01*
X30913158Y-49687932D01*
X31183411Y-49575990D01*
X31426632Y-49413475D01*
X31633475Y-49206632D01*
X31750000Y-49032240D01*
X31866525Y-49206632D01*
X32073368Y-49413475D01*
X32316589Y-49575990D01*
X32586842Y-49687932D01*
X32873740Y-49745000D01*
X33166260Y-49745000D01*
X33453158Y-49687932D01*
X33723411Y-49575990D01*
X33966632Y-49413475D01*
X33996367Y-49383740D01*
X58205000Y-49383740D01*
X58205000Y-49676260D01*
X58262068Y-49963158D01*
X58374010Y-50233411D01*
X58536525Y-50476632D01*
X58743368Y-50683475D01*
X58986589Y-50845990D01*
X59256842Y-50957932D01*
X59543740Y-51015000D01*
X59836260Y-51015000D01*
X60123158Y-50957932D01*
X60393411Y-50845990D01*
X60636632Y-50683475D01*
X60843475Y-50476632D01*
X60960000Y-50302240D01*
X61076525Y-50476632D01*
X61283368Y-50683475D01*
X61526589Y-50845990D01*
X61796842Y-50957932D01*
X62083740Y-51015000D01*
X62376260Y-51015000D01*
X62663158Y-50957932D01*
X62933411Y-50845990D01*
X63176632Y-50683475D01*
X63308487Y-50551620D01*
X63330498Y-50624180D01*
X63389463Y-50734494D01*
X63468815Y-50831185D01*
X63565506Y-50910537D01*
X63675820Y-50969502D01*
X63795518Y-51005812D01*
X63920000Y-51018072D01*
X65620000Y-51018072D01*
X65744482Y-51005812D01*
X65864180Y-50969502D01*
X65974494Y-50910537D01*
X66071185Y-50831185D01*
X66150537Y-50734494D01*
X66209502Y-50624180D01*
X66245812Y-50504482D01*
X66258072Y-50380000D01*
X66258072Y-48680000D01*
X66245812Y-48555518D01*
X66209502Y-48435820D01*
X66150537Y-48325506D01*
X66071185Y-48228815D01*
X65974494Y-48149463D01*
X65907663Y-48113740D01*
X77255000Y-48113740D01*
X77255000Y-48406260D01*
X77312068Y-48693158D01*
X77424010Y-48963411D01*
X77586525Y-49206632D01*
X77793368Y-49413475D01*
X78036589Y-49575990D01*
X78306842Y-49687932D01*
X78593740Y-49745000D01*
X78886260Y-49745000D01*
X79173158Y-49687932D01*
X79443411Y-49575990D01*
X79686632Y-49413475D01*
X79893475Y-49206632D01*
X80055990Y-48963411D01*
X80167932Y-48693158D01*
X80225000Y-48406260D01*
X80225000Y-48113740D01*
X80167932Y-47826842D01*
X80055990Y-47556589D01*
X79893475Y-47313368D01*
X79686632Y-47106525D01*
X79504466Y-46984805D01*
X79621355Y-46915178D01*
X79837588Y-46720269D01*
X80011641Y-46486920D01*
X80136825Y-46224099D01*
X80181476Y-46076890D01*
X80060155Y-45847000D01*
X78867000Y-45847000D01*
X78867000Y-45867000D01*
X78613000Y-45867000D01*
X78613000Y-45847000D01*
X77419845Y-45847000D01*
X77298524Y-46076890D01*
X77343175Y-46224099D01*
X77468359Y-46486920D01*
X77642412Y-46720269D01*
X77858645Y-46915178D01*
X77975534Y-46984805D01*
X77793368Y-47106525D01*
X77586525Y-47313368D01*
X77424010Y-47556589D01*
X77312068Y-47826842D01*
X77255000Y-48113740D01*
X65907663Y-48113740D01*
X65864180Y-48090498D01*
X65744482Y-48054188D01*
X65620000Y-48041928D01*
X63920000Y-48041928D01*
X63795518Y-48054188D01*
X63675820Y-48090498D01*
X63565506Y-48149463D01*
X63468815Y-48228815D01*
X63389463Y-48325506D01*
X63330498Y-48435820D01*
X63308487Y-48508380D01*
X63176632Y-48376525D01*
X62933411Y-48214010D01*
X62663158Y-48102068D01*
X62376260Y-48045000D01*
X62083740Y-48045000D01*
X61796842Y-48102068D01*
X61526589Y-48214010D01*
X61283368Y-48376525D01*
X61076525Y-48583368D01*
X60960000Y-48757760D01*
X60843475Y-48583368D01*
X60636632Y-48376525D01*
X60393411Y-48214010D01*
X60123158Y-48102068D01*
X59836260Y-48045000D01*
X59543740Y-48045000D01*
X59256842Y-48102068D01*
X58986589Y-48214010D01*
X58743368Y-48376525D01*
X58536525Y-48583368D01*
X58374010Y-48826589D01*
X58262068Y-49096842D01*
X58205000Y-49383740D01*
X33996367Y-49383740D01*
X34173475Y-49206632D01*
X34335990Y-48963411D01*
X34447932Y-48693158D01*
X34505000Y-48406260D01*
X34505000Y-48113740D01*
X34447932Y-47826842D01*
X34335990Y-47556589D01*
X34173475Y-47313368D01*
X33966632Y-47106525D01*
X33784466Y-46984805D01*
X33901355Y-46915178D01*
X34117588Y-46720269D01*
X34291641Y-46486920D01*
X34347230Y-46370212D01*
X53983000Y-46370212D01*
X53983000Y-46593788D01*
X54026617Y-46813067D01*
X54112176Y-47019624D01*
X54236388Y-47205520D01*
X54394480Y-47363612D01*
X54580376Y-47487824D01*
X54786933Y-47573383D01*
X55006212Y-47617000D01*
X55229788Y-47617000D01*
X55449067Y-47573383D01*
X55655624Y-47487824D01*
X55841520Y-47363612D01*
X55999612Y-47205520D01*
X56123824Y-47019624D01*
X56209383Y-46813067D01*
X56253000Y-46593788D01*
X56253000Y-46370212D01*
X56209383Y-46150933D01*
X56123824Y-45944376D01*
X55999612Y-45758480D01*
X55841520Y-45600388D01*
X55655624Y-45476176D01*
X55449067Y-45390617D01*
X55229788Y-45347000D01*
X55006212Y-45347000D01*
X54786933Y-45390617D01*
X54580376Y-45476176D01*
X54394480Y-45600388D01*
X54236388Y-45758480D01*
X54112176Y-45944376D01*
X54026617Y-46150933D01*
X53983000Y-46370212D01*
X34347230Y-46370212D01*
X34416825Y-46224099D01*
X34461476Y-46076890D01*
X34340155Y-45847000D01*
X33147000Y-45847000D01*
X33147000Y-45867000D01*
X32893000Y-45867000D01*
X32893000Y-45847000D01*
X30607000Y-45847000D01*
X30607000Y-45867000D01*
X30353000Y-45867000D01*
X30353000Y-45847000D01*
X29159845Y-45847000D01*
X29038524Y-46076890D01*
X29083175Y-46224099D01*
X29208359Y-46486920D01*
X29382412Y-46720269D01*
X29598645Y-46915178D01*
X29715534Y-46984805D01*
X29533368Y-47106525D01*
X29326525Y-47313368D01*
X29164010Y-47556589D01*
X29052068Y-47826842D01*
X28995000Y-48113740D01*
X26060000Y-48113740D01*
X26060000Y-43536890D01*
X29038524Y-43536890D01*
X29083175Y-43684099D01*
X29208359Y-43946920D01*
X29382412Y-44180269D01*
X29598645Y-44375178D01*
X29724255Y-44450000D01*
X29598645Y-44524822D01*
X29382412Y-44719731D01*
X29208359Y-44953080D01*
X29083175Y-45215901D01*
X29038524Y-45363110D01*
X29159845Y-45593000D01*
X30353000Y-45593000D01*
X30353000Y-43307000D01*
X30607000Y-43307000D01*
X30607000Y-45593000D01*
X32893000Y-45593000D01*
X32893000Y-43307000D01*
X33147000Y-43307000D01*
X33147000Y-45593000D01*
X34340155Y-45593000D01*
X34461476Y-45363110D01*
X34416825Y-45215901D01*
X34291641Y-44953080D01*
X34117588Y-44719731D01*
X33901355Y-44524822D01*
X33775745Y-44450000D01*
X33901355Y-44375178D01*
X34117588Y-44180269D01*
X34291641Y-43946920D01*
X34416825Y-43684099D01*
X34461476Y-43536890D01*
X34340155Y-43307000D01*
X33147000Y-43307000D01*
X32893000Y-43307000D01*
X30607000Y-43307000D01*
X30353000Y-43307000D01*
X29159845Y-43307000D01*
X29038524Y-43536890D01*
X26060000Y-43536890D01*
X26060000Y-43068212D01*
X57031000Y-43068212D01*
X57031000Y-43291788D01*
X57074617Y-43511067D01*
X57160176Y-43717624D01*
X57284388Y-43903520D01*
X57442480Y-44061612D01*
X57628376Y-44185824D01*
X57834933Y-44271383D01*
X58054212Y-44315000D01*
X58277788Y-44315000D01*
X58497067Y-44271383D01*
X58703624Y-44185824D01*
X58889520Y-44061612D01*
X59047612Y-43903520D01*
X59171824Y-43717624D01*
X59257383Y-43511067D01*
X59301000Y-43291788D01*
X59301000Y-43068212D01*
X59257383Y-42848933D01*
X59171824Y-42642376D01*
X59047612Y-42456480D01*
X58889520Y-42298388D01*
X58703624Y-42174176D01*
X58497067Y-42088617D01*
X58277788Y-42045000D01*
X58054212Y-42045000D01*
X57834933Y-42088617D01*
X57628376Y-42174176D01*
X57442480Y-42298388D01*
X57284388Y-42456480D01*
X57160176Y-42642376D01*
X57074617Y-42848933D01*
X57031000Y-43068212D01*
X26060000Y-43068212D01*
X26060000Y-40996890D01*
X29038524Y-40996890D01*
X29083175Y-41144099D01*
X29208359Y-41406920D01*
X29382412Y-41640269D01*
X29598645Y-41835178D01*
X29724255Y-41910000D01*
X29598645Y-41984822D01*
X29382412Y-42179731D01*
X29208359Y-42413080D01*
X29083175Y-42675901D01*
X29038524Y-42823110D01*
X29159845Y-43053000D01*
X30353000Y-43053000D01*
X30353000Y-40767000D01*
X30607000Y-40767000D01*
X30607000Y-43053000D01*
X32893000Y-43053000D01*
X32893000Y-40767000D01*
X33147000Y-40767000D01*
X33147000Y-43053000D01*
X34340155Y-43053000D01*
X34461476Y-42823110D01*
X34416825Y-42675901D01*
X34291641Y-42413080D01*
X34117588Y-42179731D01*
X33901355Y-41984822D01*
X33775745Y-41910000D01*
X33901355Y-41835178D01*
X34117588Y-41640269D01*
X34291641Y-41406920D01*
X34416825Y-41144099D01*
X34461476Y-40996890D01*
X34340155Y-40767000D01*
X33147000Y-40767000D01*
X32893000Y-40767000D01*
X30607000Y-40767000D01*
X30353000Y-40767000D01*
X29159845Y-40767000D01*
X29038524Y-40996890D01*
X26060000Y-40996890D01*
X26060000Y-37953740D01*
X28995000Y-37953740D01*
X28995000Y-38246260D01*
X29052068Y-38533158D01*
X29164010Y-38803411D01*
X29326525Y-39046632D01*
X29533368Y-39253475D01*
X29715534Y-39375195D01*
X29598645Y-39444822D01*
X29382412Y-39639731D01*
X29208359Y-39873080D01*
X29083175Y-40135901D01*
X29038524Y-40283110D01*
X29159845Y-40513000D01*
X30353000Y-40513000D01*
X30353000Y-40493000D01*
X30607000Y-40493000D01*
X30607000Y-40513000D01*
X32893000Y-40513000D01*
X32893000Y-40493000D01*
X33147000Y-40493000D01*
X33147000Y-40513000D01*
X34340155Y-40513000D01*
X34461476Y-40283110D01*
X34416825Y-40135901D01*
X34291641Y-39873080D01*
X34211930Y-39766212D01*
X51327000Y-39766212D01*
X51327000Y-39989788D01*
X51370617Y-40209067D01*
X51456176Y-40415624D01*
X51580388Y-40601520D01*
X51738480Y-40759612D01*
X51924376Y-40883824D01*
X52050478Y-40936058D01*
X51994611Y-41070933D01*
X51950994Y-41290212D01*
X51950994Y-41513788D01*
X51994611Y-41733067D01*
X52080170Y-41939624D01*
X52204382Y-42125520D01*
X52362474Y-42283612D01*
X52548370Y-42407824D01*
X52754927Y-42493383D01*
X52974206Y-42537000D01*
X53197782Y-42537000D01*
X53417061Y-42493383D01*
X53623618Y-42407824D01*
X53809514Y-42283612D01*
X53967606Y-42125520D01*
X54091818Y-41939624D01*
X54177377Y-41733067D01*
X54220994Y-41513788D01*
X54220994Y-41290212D01*
X60587000Y-41290212D01*
X60587000Y-41513788D01*
X60630617Y-41733067D01*
X60716176Y-41939624D01*
X60840388Y-42125520D01*
X60998480Y-42283612D01*
X61184376Y-42407824D01*
X61390933Y-42493383D01*
X61610212Y-42537000D01*
X61833788Y-42537000D01*
X62053067Y-42493383D01*
X62259624Y-42407824D01*
X62445520Y-42283612D01*
X62603612Y-42125520D01*
X62727824Y-41939624D01*
X62813383Y-41733067D01*
X62857000Y-41513788D01*
X62857000Y-41290212D01*
X62813383Y-41070933D01*
X62727824Y-40864376D01*
X62603612Y-40678480D01*
X62445520Y-40520388D01*
X62259624Y-40396176D01*
X62053067Y-40310617D01*
X61833788Y-40267000D01*
X61610212Y-40267000D01*
X61390933Y-40310617D01*
X61184376Y-40396176D01*
X60998480Y-40520388D01*
X60840388Y-40678480D01*
X60716176Y-40864376D01*
X60630617Y-41070933D01*
X60587000Y-41290212D01*
X54220994Y-41290212D01*
X54177377Y-41070933D01*
X54091818Y-40864376D01*
X53967606Y-40678480D01*
X53809514Y-40520388D01*
X53623618Y-40396176D01*
X53497516Y-40343942D01*
X53553383Y-40209067D01*
X53597000Y-39989788D01*
X53597000Y-39766212D01*
X53553383Y-39546933D01*
X53467824Y-39340376D01*
X53343612Y-39154480D01*
X53185520Y-38996388D01*
X52999624Y-38872176D01*
X52793067Y-38786617D01*
X52573788Y-38743000D01*
X52350212Y-38743000D01*
X52130933Y-38786617D01*
X51924376Y-38872176D01*
X51738480Y-38996388D01*
X51580388Y-39154480D01*
X51456176Y-39340376D01*
X51370617Y-39546933D01*
X51327000Y-39766212D01*
X34211930Y-39766212D01*
X34117588Y-39639731D01*
X34033534Y-39563966D01*
X34114180Y-39539502D01*
X34224494Y-39480537D01*
X34321185Y-39401185D01*
X34400537Y-39304494D01*
X34459502Y-39194180D01*
X34495812Y-39074482D01*
X34508072Y-38950000D01*
X34508072Y-37480212D01*
X60841000Y-37480212D01*
X60841000Y-37703788D01*
X60884617Y-37923067D01*
X60970176Y-38129624D01*
X61094388Y-38315520D01*
X61252480Y-38473612D01*
X61438376Y-38597824D01*
X61644933Y-38683383D01*
X61864212Y-38727000D01*
X62087788Y-38727000D01*
X62307067Y-38683383D01*
X62513624Y-38597824D01*
X62699520Y-38473612D01*
X62857612Y-38315520D01*
X62981824Y-38129624D01*
X63067383Y-37923067D01*
X63111000Y-37703788D01*
X63111000Y-37480212D01*
X63067383Y-37260933D01*
X63062855Y-37250000D01*
X77251928Y-37250000D01*
X77251928Y-38950000D01*
X77264188Y-39074482D01*
X77300498Y-39194180D01*
X77359463Y-39304494D01*
X77438815Y-39401185D01*
X77535506Y-39480537D01*
X77645820Y-39539502D01*
X77718380Y-39561513D01*
X77586525Y-39693368D01*
X77424010Y-39936589D01*
X77312068Y-40206842D01*
X77255000Y-40493740D01*
X77255000Y-40786260D01*
X77312068Y-41073158D01*
X77424010Y-41343411D01*
X77586525Y-41586632D01*
X77793368Y-41793475D01*
X77967760Y-41910000D01*
X77793368Y-42026525D01*
X77586525Y-42233368D01*
X77424010Y-42476589D01*
X77312068Y-42746842D01*
X77255000Y-43033740D01*
X77255000Y-43326260D01*
X77312068Y-43613158D01*
X77424010Y-43883411D01*
X77586525Y-44126632D01*
X77793368Y-44333475D01*
X77975534Y-44455195D01*
X77858645Y-44524822D01*
X77642412Y-44719731D01*
X77468359Y-44953080D01*
X77343175Y-45215901D01*
X77298524Y-45363110D01*
X77419845Y-45593000D01*
X78613000Y-45593000D01*
X78613000Y-45573000D01*
X78867000Y-45573000D01*
X78867000Y-45593000D01*
X80060155Y-45593000D01*
X80181476Y-45363110D01*
X80136825Y-45215901D01*
X80011641Y-44953080D01*
X79837588Y-44719731D01*
X79621355Y-44524822D01*
X79504466Y-44455195D01*
X79686632Y-44333475D01*
X79893475Y-44126632D01*
X80055990Y-43883411D01*
X80167932Y-43613158D01*
X80225000Y-43326260D01*
X80225000Y-43033740D01*
X80167932Y-42746842D01*
X80055990Y-42476589D01*
X79893475Y-42233368D01*
X79686632Y-42026525D01*
X79512240Y-41910000D01*
X79686632Y-41793475D01*
X79893475Y-41586632D01*
X80055990Y-41343411D01*
X80167932Y-41073158D01*
X80225000Y-40786260D01*
X80225000Y-40493740D01*
X80167932Y-40206842D01*
X80055990Y-39936589D01*
X79893475Y-39693368D01*
X79761620Y-39561513D01*
X79834180Y-39539502D01*
X79944494Y-39480537D01*
X80041185Y-39401185D01*
X80120537Y-39304494D01*
X80179502Y-39194180D01*
X80215812Y-39074482D01*
X80228072Y-38950000D01*
X80228072Y-37250000D01*
X80215812Y-37125518D01*
X80179502Y-37005820D01*
X80120537Y-36895506D01*
X80041185Y-36798815D01*
X79944494Y-36719463D01*
X79834180Y-36660498D01*
X79714482Y-36624188D01*
X79590000Y-36611928D01*
X77890000Y-36611928D01*
X77765518Y-36624188D01*
X77645820Y-36660498D01*
X77535506Y-36719463D01*
X77438815Y-36798815D01*
X77359463Y-36895506D01*
X77300498Y-37005820D01*
X77264188Y-37125518D01*
X77251928Y-37250000D01*
X63062855Y-37250000D01*
X62981824Y-37054376D01*
X62857612Y-36868480D01*
X62699520Y-36710388D01*
X62513624Y-36586176D01*
X62307067Y-36500617D01*
X62087788Y-36457000D01*
X61864212Y-36457000D01*
X61644933Y-36500617D01*
X61438376Y-36586176D01*
X61252480Y-36710388D01*
X61094388Y-36868480D01*
X60970176Y-37054376D01*
X60884617Y-37260933D01*
X60841000Y-37480212D01*
X34508072Y-37480212D01*
X34508072Y-37250000D01*
X34495812Y-37125518D01*
X34459502Y-37005820D01*
X34400537Y-36895506D01*
X34321185Y-36798815D01*
X34224494Y-36719463D01*
X34114180Y-36660498D01*
X33994482Y-36624188D01*
X33870000Y-36611928D01*
X32170000Y-36611928D01*
X32045518Y-36624188D01*
X31925820Y-36660498D01*
X31815506Y-36719463D01*
X31718815Y-36798815D01*
X31639463Y-36895506D01*
X31580498Y-37005820D01*
X31558487Y-37078380D01*
X31426632Y-36946525D01*
X31183411Y-36784010D01*
X30913158Y-36672068D01*
X30626260Y-36615000D01*
X30333740Y-36615000D01*
X30046842Y-36672068D01*
X29776589Y-36784010D01*
X29533368Y-36946525D01*
X29326525Y-37153368D01*
X29164010Y-37396589D01*
X29052068Y-37666842D01*
X28995000Y-37953740D01*
X26060000Y-37953740D01*
X26060000Y-36220061D01*
X51543000Y-36220061D01*
X51543000Y-36423939D01*
X51582774Y-36623898D01*
X51660795Y-36812256D01*
X51774063Y-36981774D01*
X51918226Y-37125937D01*
X52087744Y-37239205D01*
X52276102Y-37317226D01*
X52476061Y-37357000D01*
X52679939Y-37357000D01*
X52879898Y-37317226D01*
X53068256Y-37239205D01*
X53237774Y-37125937D01*
X53381937Y-36981774D01*
X53495205Y-36812256D01*
X53573226Y-36623898D01*
X53613000Y-36423939D01*
X53613000Y-36220061D01*
X53573226Y-36020102D01*
X53495205Y-35831744D01*
X53381937Y-35662226D01*
X53237774Y-35518063D01*
X53068256Y-35404795D01*
X52879898Y-35326774D01*
X52679939Y-35287000D01*
X52476061Y-35287000D01*
X52276102Y-35326774D01*
X52087744Y-35404795D01*
X51918226Y-35518063D01*
X51774063Y-35662226D01*
X51660795Y-35831744D01*
X51582774Y-36020102D01*
X51543000Y-36220061D01*
X26060000Y-36220061D01*
X26060000Y-30141682D01*
X27045000Y-30141682D01*
X27045000Y-30818318D01*
X27177006Y-31481952D01*
X27435943Y-32107082D01*
X27811862Y-32669685D01*
X28290315Y-33148138D01*
X28852918Y-33524057D01*
X29478048Y-33782994D01*
X30141682Y-33915000D01*
X30818318Y-33915000D01*
X31481952Y-33782994D01*
X32107082Y-33524057D01*
X32669685Y-33148138D01*
X33148138Y-32669685D01*
X33524057Y-32107082D01*
X33782994Y-31481952D01*
X33915000Y-30818318D01*
X33915000Y-30141682D01*
X33782994Y-29478048D01*
X33524057Y-28852918D01*
X33194700Y-28360000D01*
X41691928Y-28360000D01*
X41691928Y-30060000D01*
X41704188Y-30184482D01*
X41740498Y-30304180D01*
X41799463Y-30414494D01*
X41878815Y-30511185D01*
X41975506Y-30590537D01*
X42085820Y-30649502D01*
X42158380Y-30671513D01*
X42026525Y-30803368D01*
X41864010Y-31046589D01*
X41752068Y-31316842D01*
X41695000Y-31603740D01*
X41695000Y-31896260D01*
X41752068Y-32183158D01*
X41864010Y-32453411D01*
X42026525Y-32696632D01*
X42233368Y-32903475D01*
X42407760Y-33020000D01*
X42233368Y-33136525D01*
X42026525Y-33343368D01*
X41864010Y-33586589D01*
X41752068Y-33856842D01*
X41695000Y-34143740D01*
X41695000Y-34436260D01*
X41752068Y-34723158D01*
X41864010Y-34993411D01*
X42026525Y-35236632D01*
X42233368Y-35443475D01*
X42476589Y-35605990D01*
X42746842Y-35717932D01*
X43033740Y-35775000D01*
X43326260Y-35775000D01*
X43613158Y-35717932D01*
X43883411Y-35605990D01*
X44126632Y-35443475D01*
X44333475Y-35236632D01*
X44495990Y-34993411D01*
X44607932Y-34723158D01*
X44665000Y-34436260D01*
X44665000Y-34143740D01*
X44607932Y-33856842D01*
X44495990Y-33586589D01*
X44333475Y-33343368D01*
X44126632Y-33136525D01*
X43952240Y-33020000D01*
X44126632Y-32903475D01*
X44333475Y-32696632D01*
X44495990Y-32453411D01*
X44607932Y-32183158D01*
X44665000Y-31896260D01*
X44665000Y-31603740D01*
X44607932Y-31316842D01*
X44495990Y-31046589D01*
X44333475Y-30803368D01*
X44201620Y-30671513D01*
X44274180Y-30649502D01*
X44384494Y-30590537D01*
X44481185Y-30511185D01*
X44560537Y-30414494D01*
X44619502Y-30304180D01*
X44655812Y-30184482D01*
X44668072Y-30060000D01*
X44668072Y-29860212D01*
X62365000Y-29860212D01*
X62365000Y-30083788D01*
X62408617Y-30303067D01*
X62494176Y-30509624D01*
X62618388Y-30695520D01*
X62776480Y-30853612D01*
X62962376Y-30977824D01*
X63168933Y-31063383D01*
X63388212Y-31107000D01*
X63611788Y-31107000D01*
X63831067Y-31063383D01*
X64037624Y-30977824D01*
X64223520Y-30853612D01*
X64381612Y-30695520D01*
X64505824Y-30509624D01*
X64591383Y-30303067D01*
X64635000Y-30083788D01*
X64635000Y-29860212D01*
X64591383Y-29640933D01*
X64505824Y-29434376D01*
X64381612Y-29248480D01*
X64223520Y-29090388D01*
X64037624Y-28966176D01*
X63831067Y-28880617D01*
X63611788Y-28837000D01*
X63388212Y-28837000D01*
X63168933Y-28880617D01*
X62962376Y-28966176D01*
X62776480Y-29090388D01*
X62618388Y-29248480D01*
X62494176Y-29434376D01*
X62408617Y-29640933D01*
X62365000Y-29860212D01*
X44668072Y-29860212D01*
X44668072Y-28360000D01*
X44655812Y-28235518D01*
X44619502Y-28115820D01*
X44560537Y-28005506D01*
X44481185Y-27908815D01*
X44384494Y-27829463D01*
X44274180Y-27770498D01*
X44154482Y-27734188D01*
X44030000Y-27721928D01*
X42330000Y-27721928D01*
X42205518Y-27734188D01*
X42085820Y-27770498D01*
X41975506Y-27829463D01*
X41878815Y-27908815D01*
X41799463Y-28005506D01*
X41740498Y-28115820D01*
X41704188Y-28235518D01*
X41691928Y-28360000D01*
X33194700Y-28360000D01*
X33148138Y-28290315D01*
X32669685Y-27811862D01*
X32107082Y-27435943D01*
X31481952Y-27177006D01*
X30818318Y-27045000D01*
X30141682Y-27045000D01*
X29478048Y-27177006D01*
X28852918Y-27435943D01*
X28290315Y-27811862D01*
X27811862Y-28290315D01*
X27435943Y-28852918D01*
X27177006Y-29478048D01*
X27045000Y-30141682D01*
X26060000Y-30141682D01*
X26060000Y-26060000D01*
X80620001Y-26060000D01*
X80620000Y-103480000D01*
G37*
G04 #@! TD.AperFunction*
M02*
