G04 #@! TF.GenerationSoftware,KiCad,Pcbnew,5.1.12-84ad8e8a86~92~ubuntu20.04.1*
G04 #@! TF.CreationDate,2021-12-23T14:30:50-05:00*
G04 #@! TF.ProjectId,SSI2130_VCO,53534932-3133-4305-9f56-434f2e6b6963,0*
G04 #@! TF.SameCoordinates,Original*
G04 #@! TF.FileFunction,Soldermask,Bot*
G04 #@! TF.FilePolarity,Negative*
%FSLAX46Y46*%
G04 Gerber Fmt 4.6, Leading zero omitted, Abs format (unit mm)*
G04 Created by KiCad (PCBNEW 5.1.12-84ad8e8a86~92~ubuntu20.04.1) date 2021-12-23 14:30:50*
%MOMM*%
%LPD*%
G01*
G04 APERTURE LIST*
%ADD10C,1.440000*%
%ADD11O,1.700000X1.700000*%
%ADD12R,1.700000X1.700000*%
%ADD13C,5.600000*%
G04 APERTURE END LIST*
D10*
X47625000Y-56515000D03*
X50165000Y-56515000D03*
X52705000Y-56515000D03*
X57785000Y-56515000D03*
X60325000Y-56515000D03*
X62865000Y-56515000D03*
X67945000Y-56515000D03*
X70485000Y-56515000D03*
X73025000Y-56515000D03*
D11*
X59690000Y-49530000D03*
X62230000Y-49530000D03*
D12*
X64770000Y-49530000D03*
D11*
X43180000Y-34290000D03*
X43180000Y-31750000D03*
D12*
X43180000Y-29210000D03*
D11*
X78740000Y-99695000D03*
X76200000Y-99695000D03*
X73660000Y-99695000D03*
X71120000Y-99695000D03*
D12*
X68580000Y-99695000D03*
D11*
X30480000Y-48260000D03*
X33020000Y-48260000D03*
X30480000Y-45720000D03*
X33020000Y-45720000D03*
X30480000Y-43180000D03*
X33020000Y-43180000D03*
X30480000Y-40640000D03*
X33020000Y-40640000D03*
X30480000Y-38100000D03*
D12*
X33020000Y-38100000D03*
D11*
X78740000Y-91440000D03*
X78740000Y-88900000D03*
X78740000Y-86360000D03*
X78740000Y-83820000D03*
D12*
X78740000Y-81280000D03*
D11*
X78740000Y-76200000D03*
D12*
X78740000Y-73660000D03*
D11*
X78740000Y-68580000D03*
D12*
X78740000Y-66040000D03*
D11*
X78740000Y-60960000D03*
X78740000Y-58420000D03*
X78740000Y-55880000D03*
D12*
X78740000Y-53340000D03*
D11*
X78740000Y-48260000D03*
X78740000Y-45720000D03*
X78740000Y-43180000D03*
X78740000Y-40640000D03*
D12*
X78740000Y-38100000D03*
D13*
X30480000Y-99060000D03*
X30480000Y-30480000D03*
M02*
