G04 #@! TF.GenerationSoftware,KiCad,Pcbnew,5.1.12-84ad8e8a86~92~ubuntu20.04.1*
G04 #@! TF.CreationDate,2021-12-23T13:48:03-05:00*
G04 #@! TF.ProjectId,SSI2130_VCO,53534932-3133-4305-9f56-434f2e6b6963,0*
G04 #@! TF.SameCoordinates,Original*
G04 #@! TF.FileFunction,Legend,Top*
G04 #@! TF.FilePolarity,Positive*
%FSLAX46Y46*%
G04 Gerber Fmt 4.6, Leading zero omitted, Abs format (unit mm)*
G04 Created by KiCad (PCBNEW 5.1.12-84ad8e8a86~92~ubuntu20.04.1) date 2021-12-23 13:48:03*
%MOMM*%
%LPD*%
G01*
G04 APERTURE LIST*
%ADD10C,0.150000*%
%ADD11C,0.100000*%
%ADD12C,0.120000*%
%ADD13R,1.500000X0.200000*%
%ADD14R,0.200000X1.500000*%
%ADD15R,0.900000X0.800000*%
%ADD16R,1.300000X0.900000*%
%ADD17C,1.440000*%
%ADD18O,1.700000X1.700000*%
%ADD19R,1.700000X1.700000*%
%ADD20C,5.600000*%
G04 APERTURE END LIST*
D10*
X52411666Y-48490714D02*
X52411666Y-49490714D01*
X52411666Y-48538333D02*
X52506904Y-48490714D01*
X52697380Y-48490714D01*
X52792619Y-48538333D01*
X52840238Y-48585952D01*
X52887857Y-48681190D01*
X52887857Y-48966904D01*
X52840238Y-49062142D01*
X52792619Y-49109761D01*
X52697380Y-49157380D01*
X52506904Y-49157380D01*
X52411666Y-49109761D01*
X53745000Y-48490714D02*
X53745000Y-49157380D01*
X53316428Y-48490714D02*
X53316428Y-49014523D01*
X53364047Y-49109761D01*
X53459285Y-49157380D01*
X53602142Y-49157380D01*
X53697380Y-49109761D01*
X53745000Y-49062142D01*
X54364047Y-49157380D02*
X54268809Y-49109761D01*
X54221190Y-49014523D01*
X54221190Y-48157380D01*
X54697380Y-49109761D02*
X54792619Y-49157380D01*
X54983095Y-49157380D01*
X55078333Y-49109761D01*
X55125952Y-49014523D01*
X55125952Y-48966904D01*
X55078333Y-48871666D01*
X54983095Y-48824047D01*
X54840238Y-48824047D01*
X54745000Y-48776428D01*
X54697380Y-48681190D01*
X54697380Y-48633571D01*
X54745000Y-48538333D01*
X54840238Y-48490714D01*
X54983095Y-48490714D01*
X55078333Y-48538333D01*
X55935476Y-49109761D02*
X55840238Y-49157380D01*
X55649761Y-49157380D01*
X55554523Y-49109761D01*
X55506904Y-49014523D01*
X55506904Y-48633571D01*
X55554523Y-48538333D01*
X55649761Y-48490714D01*
X55840238Y-48490714D01*
X55935476Y-48538333D01*
X55983095Y-48633571D01*
X55983095Y-48728809D01*
X55506904Y-48824047D01*
X57173571Y-49157380D02*
X57173571Y-48490714D01*
X57173571Y-48157380D02*
X57125952Y-48205000D01*
X57173571Y-48252619D01*
X57221190Y-48205000D01*
X57173571Y-48157380D01*
X57173571Y-48252619D01*
X57649761Y-48490714D02*
X57649761Y-49157380D01*
X57649761Y-48585952D02*
X57697380Y-48538333D01*
X57792619Y-48490714D01*
X57935476Y-48490714D01*
X58030714Y-48538333D01*
X58078333Y-48633571D01*
X58078333Y-49157380D01*
X53197380Y-50759761D02*
X53292619Y-50807380D01*
X53483095Y-50807380D01*
X53578333Y-50759761D01*
X53625952Y-50664523D01*
X53625952Y-50616904D01*
X53578333Y-50521666D01*
X53483095Y-50474047D01*
X53340238Y-50474047D01*
X53245000Y-50426428D01*
X53197380Y-50331190D01*
X53197380Y-50283571D01*
X53245000Y-50188333D01*
X53340238Y-50140714D01*
X53483095Y-50140714D01*
X53578333Y-50188333D01*
X54435476Y-50759761D02*
X54340238Y-50807380D01*
X54149761Y-50807380D01*
X54054523Y-50759761D01*
X54006904Y-50664523D01*
X54006904Y-50283571D01*
X54054523Y-50188333D01*
X54149761Y-50140714D01*
X54340238Y-50140714D01*
X54435476Y-50188333D01*
X54483095Y-50283571D01*
X54483095Y-50378809D01*
X54006904Y-50474047D01*
X55054523Y-50807380D02*
X54959285Y-50759761D01*
X54911666Y-50664523D01*
X54911666Y-49807380D01*
X55816428Y-50759761D02*
X55721190Y-50807380D01*
X55530714Y-50807380D01*
X55435476Y-50759761D01*
X55387857Y-50664523D01*
X55387857Y-50283571D01*
X55435476Y-50188333D01*
X55530714Y-50140714D01*
X55721190Y-50140714D01*
X55816428Y-50188333D01*
X55864047Y-50283571D01*
X55864047Y-50378809D01*
X55387857Y-50474047D01*
X56721190Y-50759761D02*
X56625952Y-50807380D01*
X56435476Y-50807380D01*
X56340238Y-50759761D01*
X56292619Y-50712142D01*
X56245000Y-50616904D01*
X56245000Y-50331190D01*
X56292619Y-50235952D01*
X56340238Y-50188333D01*
X56435476Y-50140714D01*
X56625952Y-50140714D01*
X56721190Y-50188333D01*
X57006904Y-50140714D02*
X57387857Y-50140714D01*
X57149761Y-49807380D02*
X57149761Y-50664523D01*
X57197380Y-50759761D01*
X57292619Y-50807380D01*
X57387857Y-50807380D01*
X64031904Y-46775714D02*
X64412857Y-46775714D01*
X64174761Y-46442380D02*
X64174761Y-47299523D01*
X64222380Y-47394761D01*
X64317619Y-47442380D01*
X64412857Y-47442380D01*
X64746190Y-47442380D02*
X64746190Y-46775714D01*
X64746190Y-46966190D02*
X64793809Y-46870952D01*
X64841428Y-46823333D01*
X64936666Y-46775714D01*
X65031904Y-46775714D01*
X65365238Y-47442380D02*
X65365238Y-46775714D01*
X65365238Y-46442380D02*
X65317619Y-46490000D01*
X65365238Y-46537619D01*
X65412857Y-46490000D01*
X65365238Y-46442380D01*
X65365238Y-46537619D01*
X58499523Y-47394761D02*
X58594761Y-47442380D01*
X58785238Y-47442380D01*
X58880476Y-47394761D01*
X58928095Y-47299523D01*
X58928095Y-47251904D01*
X58880476Y-47156666D01*
X58785238Y-47109047D01*
X58642380Y-47109047D01*
X58547142Y-47061428D01*
X58499523Y-46966190D01*
X58499523Y-46918571D01*
X58547142Y-46823333D01*
X58642380Y-46775714D01*
X58785238Y-46775714D01*
X58880476Y-46823333D01*
X59785238Y-47442380D02*
X59785238Y-46918571D01*
X59737619Y-46823333D01*
X59642380Y-46775714D01*
X59451904Y-46775714D01*
X59356666Y-46823333D01*
X59785238Y-47394761D02*
X59690000Y-47442380D01*
X59451904Y-47442380D01*
X59356666Y-47394761D01*
X59309047Y-47299523D01*
X59309047Y-47204285D01*
X59356666Y-47109047D01*
X59451904Y-47061428D01*
X59690000Y-47061428D01*
X59785238Y-47013809D01*
X60166190Y-46775714D02*
X60356666Y-47442380D01*
X60547142Y-46966190D01*
X60737619Y-47442380D01*
X60928095Y-46775714D01*
X41703809Y-37044761D02*
X41799047Y-37092380D01*
X41989523Y-37092380D01*
X42084761Y-37044761D01*
X42132380Y-36949523D01*
X42132380Y-36901904D01*
X42084761Y-36806666D01*
X41989523Y-36759047D01*
X41846666Y-36759047D01*
X41751428Y-36711428D01*
X41703809Y-36616190D01*
X41703809Y-36568571D01*
X41751428Y-36473333D01*
X41846666Y-36425714D01*
X41989523Y-36425714D01*
X42084761Y-36473333D01*
X42465714Y-36425714D02*
X42703809Y-37092380D01*
X42941904Y-36425714D02*
X42703809Y-37092380D01*
X42608571Y-37330476D01*
X42560952Y-37378095D01*
X42465714Y-37425714D01*
X43322857Y-36425714D02*
X43322857Y-37092380D01*
X43322857Y-36520952D02*
X43370476Y-36473333D01*
X43465714Y-36425714D01*
X43608571Y-36425714D01*
X43703809Y-36473333D01*
X43751428Y-36568571D01*
X43751428Y-37092380D01*
X44656190Y-37044761D02*
X44560952Y-37092380D01*
X44370476Y-37092380D01*
X44275238Y-37044761D01*
X44227619Y-36997142D01*
X44180000Y-36901904D01*
X44180000Y-36616190D01*
X44227619Y-36520952D01*
X44275238Y-36473333D01*
X44370476Y-36425714D01*
X44560952Y-36425714D01*
X44656190Y-36473333D01*
X41132380Y-38694761D02*
X41227619Y-38742380D01*
X41418095Y-38742380D01*
X41513333Y-38694761D01*
X41560952Y-38599523D01*
X41560952Y-38551904D01*
X41513333Y-38456666D01*
X41418095Y-38409047D01*
X41275238Y-38409047D01*
X41180000Y-38361428D01*
X41132380Y-38266190D01*
X41132380Y-38218571D01*
X41180000Y-38123333D01*
X41275238Y-38075714D01*
X41418095Y-38075714D01*
X41513333Y-38123333D01*
X42370476Y-38694761D02*
X42275238Y-38742380D01*
X42084761Y-38742380D01*
X41989523Y-38694761D01*
X41941904Y-38599523D01*
X41941904Y-38218571D01*
X41989523Y-38123333D01*
X42084761Y-38075714D01*
X42275238Y-38075714D01*
X42370476Y-38123333D01*
X42418095Y-38218571D01*
X42418095Y-38313809D01*
X41941904Y-38409047D01*
X42989523Y-38742380D02*
X42894285Y-38694761D01*
X42846666Y-38599523D01*
X42846666Y-37742380D01*
X43751428Y-38694761D02*
X43656190Y-38742380D01*
X43465714Y-38742380D01*
X43370476Y-38694761D01*
X43322857Y-38599523D01*
X43322857Y-38218571D01*
X43370476Y-38123333D01*
X43465714Y-38075714D01*
X43656190Y-38075714D01*
X43751428Y-38123333D01*
X43799047Y-38218571D01*
X43799047Y-38313809D01*
X43322857Y-38409047D01*
X44656190Y-38694761D02*
X44560952Y-38742380D01*
X44370476Y-38742380D01*
X44275238Y-38694761D01*
X44227619Y-38647142D01*
X44180000Y-38551904D01*
X44180000Y-38266190D01*
X44227619Y-38170952D01*
X44275238Y-38123333D01*
X44370476Y-38075714D01*
X44560952Y-38075714D01*
X44656190Y-38123333D01*
X44941904Y-38075714D02*
X45322857Y-38075714D01*
X45084761Y-37742380D02*
X45084761Y-38599523D01*
X45132380Y-38694761D01*
X45227619Y-38742380D01*
X45322857Y-38742380D01*
X38510833Y-34694761D02*
X38606071Y-34742380D01*
X38796547Y-34742380D01*
X38891785Y-34694761D01*
X38939404Y-34599523D01*
X38939404Y-34551904D01*
X38891785Y-34456666D01*
X38796547Y-34409047D01*
X38653690Y-34409047D01*
X38558452Y-34361428D01*
X38510833Y-34266190D01*
X38510833Y-34218571D01*
X38558452Y-34123333D01*
X38653690Y-34075714D01*
X38796547Y-34075714D01*
X38891785Y-34123333D01*
X39510833Y-34742380D02*
X39415595Y-34694761D01*
X39367976Y-34647142D01*
X39320357Y-34551904D01*
X39320357Y-34266190D01*
X39367976Y-34170952D01*
X39415595Y-34123333D01*
X39510833Y-34075714D01*
X39653690Y-34075714D01*
X39748928Y-34123333D01*
X39796547Y-34170952D01*
X39844166Y-34266190D01*
X39844166Y-34551904D01*
X39796547Y-34647142D01*
X39748928Y-34694761D01*
X39653690Y-34742380D01*
X39510833Y-34742380D01*
X40129880Y-34075714D02*
X40510833Y-34075714D01*
X40272738Y-34742380D02*
X40272738Y-33885238D01*
X40320357Y-33790000D01*
X40415595Y-33742380D01*
X40510833Y-33742380D01*
X40701309Y-34075714D02*
X41082261Y-34075714D01*
X40844166Y-33742380D02*
X40844166Y-34599523D01*
X40891785Y-34694761D01*
X40987023Y-34742380D01*
X41082261Y-34742380D01*
X38435595Y-29662380D02*
X38435595Y-28662380D01*
X38864166Y-29662380D02*
X38864166Y-29138571D01*
X38816547Y-29043333D01*
X38721309Y-28995714D01*
X38578452Y-28995714D01*
X38483214Y-29043333D01*
X38435595Y-29090952D01*
X39768928Y-29662380D02*
X39768928Y-29138571D01*
X39721309Y-29043333D01*
X39626071Y-28995714D01*
X39435595Y-28995714D01*
X39340357Y-29043333D01*
X39768928Y-29614761D02*
X39673690Y-29662380D01*
X39435595Y-29662380D01*
X39340357Y-29614761D01*
X39292738Y-29519523D01*
X39292738Y-29424285D01*
X39340357Y-29329047D01*
X39435595Y-29281428D01*
X39673690Y-29281428D01*
X39768928Y-29233809D01*
X40245119Y-29662380D02*
X40245119Y-28995714D01*
X40245119Y-29186190D02*
X40292738Y-29090952D01*
X40340357Y-29043333D01*
X40435595Y-28995714D01*
X40530833Y-28995714D01*
X41292738Y-29662380D02*
X41292738Y-28662380D01*
X41292738Y-29614761D02*
X41197500Y-29662380D01*
X41007023Y-29662380D01*
X40911785Y-29614761D01*
X40864166Y-29567142D01*
X40816547Y-29471904D01*
X40816547Y-29186190D01*
X40864166Y-29090952D01*
X40911785Y-29043333D01*
X41007023Y-28995714D01*
X41197500Y-28995714D01*
X41292738Y-29043333D01*
X67127857Y-60777380D02*
X67127857Y-59777380D01*
X67127857Y-60158333D02*
X67223095Y-60110714D01*
X67413571Y-60110714D01*
X67508809Y-60158333D01*
X67556428Y-60205952D01*
X67604047Y-60301190D01*
X67604047Y-60586904D01*
X67556428Y-60682142D01*
X67508809Y-60729761D01*
X67413571Y-60777380D01*
X67223095Y-60777380D01*
X67127857Y-60729761D01*
X68461190Y-60777380D02*
X68461190Y-60253571D01*
X68413571Y-60158333D01*
X68318333Y-60110714D01*
X68127857Y-60110714D01*
X68032619Y-60158333D01*
X68461190Y-60729761D02*
X68365952Y-60777380D01*
X68127857Y-60777380D01*
X68032619Y-60729761D01*
X67985000Y-60634523D01*
X67985000Y-60539285D01*
X68032619Y-60444047D01*
X68127857Y-60396428D01*
X68365952Y-60396428D01*
X68461190Y-60348809D01*
X68889761Y-60729761D02*
X68985000Y-60777380D01*
X69175476Y-60777380D01*
X69270714Y-60729761D01*
X69318333Y-60634523D01*
X69318333Y-60586904D01*
X69270714Y-60491666D01*
X69175476Y-60444047D01*
X69032619Y-60444047D01*
X68937380Y-60396428D01*
X68889761Y-60301190D01*
X68889761Y-60253571D01*
X68937380Y-60158333D01*
X69032619Y-60110714D01*
X69175476Y-60110714D01*
X69270714Y-60158333D01*
X70127857Y-60729761D02*
X70032619Y-60777380D01*
X69842142Y-60777380D01*
X69746904Y-60729761D01*
X69699285Y-60634523D01*
X69699285Y-60253571D01*
X69746904Y-60158333D01*
X69842142Y-60110714D01*
X70032619Y-60110714D01*
X70127857Y-60158333D01*
X70175476Y-60253571D01*
X70175476Y-60348809D01*
X69699285Y-60444047D01*
X71223095Y-60110714D02*
X71604047Y-60110714D01*
X71365952Y-60777380D02*
X71365952Y-59920238D01*
X71413571Y-59825000D01*
X71508809Y-59777380D01*
X71604047Y-59777380D01*
X71937380Y-60777380D02*
X71937380Y-60110714D01*
X71937380Y-60301190D02*
X71985000Y-60205952D01*
X72032619Y-60158333D01*
X72127857Y-60110714D01*
X72223095Y-60110714D01*
X72937380Y-60729761D02*
X72842142Y-60777380D01*
X72651666Y-60777380D01*
X72556428Y-60729761D01*
X72508809Y-60634523D01*
X72508809Y-60253571D01*
X72556428Y-60158333D01*
X72651666Y-60110714D01*
X72842142Y-60110714D01*
X72937380Y-60158333D01*
X72985000Y-60253571D01*
X72985000Y-60348809D01*
X72508809Y-60444047D01*
X73842142Y-60110714D02*
X73842142Y-61110714D01*
X73842142Y-60729761D02*
X73746904Y-60777380D01*
X73556428Y-60777380D01*
X73461190Y-60729761D01*
X73413571Y-60682142D01*
X73365952Y-60586904D01*
X73365952Y-60301190D01*
X73413571Y-60205952D01*
X73461190Y-60158333D01*
X73556428Y-60110714D01*
X73746904Y-60110714D01*
X73842142Y-60158333D01*
X57944047Y-60777380D02*
X57944047Y-59777380D01*
X58372619Y-60777380D02*
X58372619Y-60253571D01*
X58325000Y-60158333D01*
X58229761Y-60110714D01*
X58086904Y-60110714D01*
X57991666Y-60158333D01*
X57944047Y-60205952D01*
X58705952Y-60110714D02*
X59086904Y-60110714D01*
X58848809Y-60777380D02*
X58848809Y-59920238D01*
X58896428Y-59825000D01*
X58991666Y-59777380D01*
X59086904Y-59777380D01*
X60039285Y-60110714D02*
X60420238Y-60110714D01*
X60182142Y-59777380D02*
X60182142Y-60634523D01*
X60229761Y-60729761D01*
X60325000Y-60777380D01*
X60420238Y-60777380D01*
X60753571Y-60777380D02*
X60753571Y-60110714D01*
X60753571Y-60301190D02*
X60801190Y-60205952D01*
X60848809Y-60158333D01*
X60944047Y-60110714D01*
X61039285Y-60110714D01*
X61372619Y-60777380D02*
X61372619Y-60110714D01*
X61372619Y-59777380D02*
X61325000Y-59825000D01*
X61372619Y-59872619D01*
X61420238Y-59825000D01*
X61372619Y-59777380D01*
X61372619Y-59872619D01*
X61848809Y-60777380D02*
X61848809Y-60110714D01*
X61848809Y-60205952D02*
X61896428Y-60158333D01*
X61991666Y-60110714D01*
X62134523Y-60110714D01*
X62229761Y-60158333D01*
X62277380Y-60253571D01*
X62277380Y-60777380D01*
X62277380Y-60253571D02*
X62325000Y-60158333D01*
X62420238Y-60110714D01*
X62563095Y-60110714D01*
X62658333Y-60158333D01*
X62705952Y-60253571D01*
X62705952Y-60777380D01*
X46498333Y-60729761D02*
X46593571Y-60777380D01*
X46784047Y-60777380D01*
X46879285Y-60729761D01*
X46926904Y-60634523D01*
X46926904Y-60586904D01*
X46879285Y-60491666D01*
X46784047Y-60444047D01*
X46641190Y-60444047D01*
X46545952Y-60396428D01*
X46498333Y-60301190D01*
X46498333Y-60253571D01*
X46545952Y-60158333D01*
X46641190Y-60110714D01*
X46784047Y-60110714D01*
X46879285Y-60158333D01*
X47784047Y-60729761D02*
X47688809Y-60777380D01*
X47498333Y-60777380D01*
X47403095Y-60729761D01*
X47355476Y-60682142D01*
X47307857Y-60586904D01*
X47307857Y-60301190D01*
X47355476Y-60205952D01*
X47403095Y-60158333D01*
X47498333Y-60110714D01*
X47688809Y-60110714D01*
X47784047Y-60158333D01*
X48641190Y-60777380D02*
X48641190Y-60253571D01*
X48593571Y-60158333D01*
X48498333Y-60110714D01*
X48307857Y-60110714D01*
X48212619Y-60158333D01*
X48641190Y-60729761D02*
X48545952Y-60777380D01*
X48307857Y-60777380D01*
X48212619Y-60729761D01*
X48165000Y-60634523D01*
X48165000Y-60539285D01*
X48212619Y-60444047D01*
X48307857Y-60396428D01*
X48545952Y-60396428D01*
X48641190Y-60348809D01*
X49260238Y-60777380D02*
X49165000Y-60729761D01*
X49117380Y-60634523D01*
X49117380Y-59777380D01*
X50022142Y-60729761D02*
X49926904Y-60777380D01*
X49736428Y-60777380D01*
X49641190Y-60729761D01*
X49593571Y-60634523D01*
X49593571Y-60253571D01*
X49641190Y-60158333D01*
X49736428Y-60110714D01*
X49926904Y-60110714D01*
X50022142Y-60158333D01*
X50069761Y-60253571D01*
X50069761Y-60348809D01*
X49593571Y-60444047D01*
X51117380Y-60110714D02*
X51498333Y-60110714D01*
X51260238Y-59777380D02*
X51260238Y-60634523D01*
X51307857Y-60729761D01*
X51403095Y-60777380D01*
X51498333Y-60777380D01*
X51831666Y-60777380D02*
X51831666Y-60110714D01*
X51831666Y-60301190D02*
X51879285Y-60205952D01*
X51926904Y-60158333D01*
X52022142Y-60110714D01*
X52117380Y-60110714D01*
X52450714Y-60777380D02*
X52450714Y-60110714D01*
X52450714Y-59777380D02*
X52403095Y-59825000D01*
X52450714Y-59872619D01*
X52498333Y-59825000D01*
X52450714Y-59777380D01*
X52450714Y-59872619D01*
X52926904Y-60777380D02*
X52926904Y-60110714D01*
X52926904Y-60205952D02*
X52974523Y-60158333D01*
X53069761Y-60110714D01*
X53212619Y-60110714D01*
X53307857Y-60158333D01*
X53355476Y-60253571D01*
X53355476Y-60777380D01*
X53355476Y-60253571D02*
X53403095Y-60158333D01*
X53498333Y-60110714D01*
X53641190Y-60110714D01*
X53736428Y-60158333D01*
X53784047Y-60253571D01*
X53784047Y-60777380D01*
D11*
G36*
X59600000Y-39850000D02*
G01*
X60000000Y-39850000D01*
X60000000Y-40250000D01*
X59600000Y-40250000D01*
X59600000Y-39850000D01*
G37*
X59600000Y-39850000D02*
X60000000Y-39850000D01*
X60000000Y-40250000D01*
X59600000Y-40250000D01*
X59600000Y-39850000D01*
D10*
X55000000Y-36400000D02*
X55000000Y-35950000D01*
X55000000Y-35950000D02*
X55450000Y-35950000D01*
X58850000Y-35950000D02*
X59300000Y-35950000D01*
X59300000Y-35950000D02*
X59300000Y-36400000D01*
X59300000Y-39800000D02*
X59300000Y-40250000D01*
X59300000Y-40250000D02*
X58850000Y-40250000D01*
X55000000Y-40250000D02*
X55000000Y-39800000D01*
X55450000Y-40250000D02*
X55000000Y-40250000D01*
X58400000Y-39100000D02*
X58150000Y-39350000D01*
X58150000Y-39350000D02*
X55900000Y-39350000D01*
X55900000Y-39350000D02*
X55900000Y-36850000D01*
X55900000Y-36850000D02*
X58400000Y-36850000D01*
X58400000Y-36850000D02*
X58400000Y-39100000D01*
D12*
X42305000Y-68763000D02*
X42305000Y-67833000D01*
X42305000Y-65603000D02*
X42305000Y-66533000D01*
X42305000Y-65603000D02*
X40145000Y-65603000D01*
X42305000Y-68763000D02*
X40845000Y-68763000D01*
X31510000Y-68890000D02*
X31510000Y-67960000D01*
X31510000Y-65730000D02*
X31510000Y-66660000D01*
X31510000Y-65730000D02*
X29350000Y-65730000D01*
X31510000Y-68890000D02*
X30050000Y-68890000D01*
X29455000Y-52290000D02*
X29455000Y-50980000D01*
X29455000Y-50980000D02*
X32175000Y-50980000D01*
X33315000Y-55470000D02*
X32175000Y-55470000D01*
X29455000Y-55700000D02*
X29455000Y-54390000D01*
X32175000Y-55700000D02*
X29455000Y-55700000D01*
X32175000Y-55700000D02*
X32175000Y-55470000D01*
X32175000Y-50980000D02*
X32175000Y-51210000D01*
X29455000Y-57600000D02*
X29455000Y-56290000D01*
X29455000Y-56290000D02*
X32175000Y-56290000D01*
X33315000Y-60780000D02*
X32175000Y-60780000D01*
X29455000Y-61010000D02*
X29455000Y-59700000D01*
X32175000Y-61010000D02*
X29455000Y-61010000D01*
X32175000Y-61010000D02*
X32175000Y-60780000D01*
X32175000Y-56290000D02*
X32175000Y-56520000D01*
X64135000Y-64750000D02*
X62185000Y-64750000D01*
X64135000Y-64750000D02*
X66085000Y-64750000D01*
X64135000Y-69870000D02*
X62185000Y-69870000D01*
X64135000Y-69870000D02*
X67585000Y-69870000D01*
X64135000Y-90150000D02*
X62185000Y-90150000D01*
X64135000Y-90150000D02*
X66085000Y-90150000D01*
X64135000Y-95270000D02*
X62185000Y-95270000D01*
X64135000Y-95270000D02*
X67585000Y-95270000D01*
X64135000Y-76180000D02*
X62185000Y-76180000D01*
X64135000Y-76180000D02*
X66085000Y-76180000D01*
X64135000Y-81300000D02*
X62185000Y-81300000D01*
X64135000Y-81300000D02*
X67585000Y-81300000D01*
X38507000Y-87595000D02*
X36557000Y-87595000D01*
X38507000Y-87595000D02*
X40457000Y-87595000D01*
X38507000Y-92715000D02*
X36557000Y-92715000D01*
X38507000Y-92715000D02*
X41957000Y-92715000D01*
X38507000Y-76815000D02*
X36557000Y-76815000D01*
X38507000Y-76815000D02*
X40457000Y-76815000D01*
X38507000Y-81935000D02*
X36557000Y-81935000D01*
X38507000Y-81935000D02*
X41957000Y-81935000D01*
X45280000Y-53985000D02*
X55050000Y-53985000D01*
X45280000Y-59055000D02*
X55050000Y-59055000D01*
X45280000Y-53985000D02*
X45280000Y-59055000D01*
X55050000Y-53985000D02*
X55050000Y-59055000D01*
X55440000Y-53985000D02*
X65210000Y-53985000D01*
X55440000Y-59055000D02*
X65210000Y-59055000D01*
X55440000Y-53985000D02*
X55440000Y-59055000D01*
X65210000Y-53985000D02*
X65210000Y-59055000D01*
X65600000Y-53985000D02*
X75370000Y-53985000D01*
X65600000Y-59055000D02*
X75370000Y-59055000D01*
X65600000Y-53985000D02*
X65600000Y-59055000D01*
X75370000Y-53985000D02*
X75370000Y-59055000D01*
X64592564Y-35660000D02*
X64138436Y-35660000D01*
X64592564Y-34190000D02*
X64138436Y-34190000D01*
X64185436Y-37365000D02*
X64639564Y-37365000D01*
X64185436Y-38835000D02*
X64639564Y-38835000D01*
X64185436Y-43715000D02*
X64639564Y-43715000D01*
X64185436Y-45185000D02*
X64639564Y-45185000D01*
X64639564Y-42010000D02*
X64185436Y-42010000D01*
X64639564Y-40540000D02*
X64185436Y-40540000D01*
X48129564Y-45185000D02*
X47675436Y-45185000D01*
X48129564Y-43715000D02*
X47675436Y-43715000D01*
X47755436Y-40540000D02*
X48209564Y-40540000D01*
X47755436Y-42010000D02*
X48209564Y-42010000D01*
X71704564Y-51535000D02*
X71250436Y-51535000D01*
X71704564Y-50065000D02*
X71250436Y-50065000D01*
X71250436Y-46890000D02*
X71704564Y-46890000D01*
X71250436Y-48360000D02*
X71704564Y-48360000D01*
X48209564Y-38835000D02*
X47755436Y-38835000D01*
X48209564Y-37365000D02*
X47755436Y-37365000D01*
X71250436Y-40667000D02*
X71704564Y-40667000D01*
X71250436Y-42137000D02*
X71704564Y-42137000D01*
X71250436Y-37365000D02*
X71704564Y-37365000D01*
X71250436Y-38835000D02*
X71704564Y-38835000D01*
X71250436Y-34063000D02*
X71704564Y-34063000D01*
X71250436Y-35533000D02*
X71704564Y-35533000D01*
X71250436Y-31015000D02*
X71704564Y-31015000D01*
X71250436Y-32485000D02*
X71704564Y-32485000D01*
X71297436Y-27967000D02*
X71751564Y-27967000D01*
X71297436Y-29437000D02*
X71751564Y-29437000D01*
X71250436Y-43715000D02*
X71704564Y-43715000D01*
X71250436Y-45185000D02*
X71704564Y-45185000D01*
X48209564Y-35660000D02*
X47755436Y-35660000D01*
X48209564Y-34190000D02*
X47755436Y-34190000D01*
X56010436Y-92610000D02*
X56464564Y-92610000D01*
X56010436Y-94080000D02*
X56464564Y-94080000D01*
X56464564Y-90905000D02*
X56010436Y-90905000D01*
X56464564Y-89435000D02*
X56010436Y-89435000D01*
X41779564Y-64235000D02*
X41325436Y-64235000D01*
X41779564Y-62765000D02*
X41325436Y-62765000D01*
X30984564Y-64235000D02*
X30530436Y-64235000D01*
X30984564Y-62765000D02*
X30530436Y-62765000D01*
X71704564Y-94080000D02*
X71250436Y-94080000D01*
X71704564Y-92610000D02*
X71250436Y-92610000D01*
X71250436Y-83085000D02*
X71704564Y-83085000D01*
X71250436Y-84555000D02*
X71704564Y-84555000D01*
X71250436Y-86260000D02*
X71704564Y-86260000D01*
X71250436Y-87730000D02*
X71704564Y-87730000D01*
X71250436Y-89435000D02*
X71704564Y-89435000D01*
X71250436Y-90905000D02*
X71704564Y-90905000D01*
X30530436Y-92610000D02*
X30984564Y-92610000D01*
X30530436Y-94080000D02*
X30984564Y-94080000D01*
X46224564Y-94080000D02*
X45770436Y-94080000D01*
X46224564Y-92610000D02*
X45770436Y-92610000D01*
X30610436Y-79910000D02*
X31064564Y-79910000D01*
X30610436Y-81380000D02*
X31064564Y-81380000D01*
X46224564Y-81380000D02*
X45770436Y-81380000D01*
X46224564Y-79910000D02*
X45770436Y-79910000D01*
X30530436Y-89435000D02*
X30984564Y-89435000D01*
X30530436Y-90905000D02*
X30984564Y-90905000D01*
X46224564Y-90905000D02*
X45770436Y-90905000D01*
X46224564Y-89435000D02*
X45770436Y-89435000D01*
X30610436Y-76735000D02*
X31064564Y-76735000D01*
X30610436Y-78205000D02*
X31064564Y-78205000D01*
X46304564Y-78205000D02*
X45850436Y-78205000D01*
X46304564Y-76735000D02*
X45850436Y-76735000D01*
X31064564Y-84555000D02*
X30610436Y-84555000D01*
X31064564Y-83085000D02*
X30610436Y-83085000D01*
X31064564Y-87730000D02*
X30610436Y-87730000D01*
X31064564Y-86260000D02*
X30610436Y-86260000D01*
X45770436Y-83085000D02*
X46224564Y-83085000D01*
X45770436Y-84555000D02*
X46224564Y-84555000D01*
X45850436Y-86387000D02*
X46304564Y-86387000D01*
X45850436Y-87857000D02*
X46304564Y-87857000D01*
X31064564Y-71855000D02*
X30610436Y-71855000D01*
X31064564Y-70385000D02*
X30610436Y-70385000D01*
X31064564Y-75030000D02*
X30610436Y-75030000D01*
X31064564Y-73560000D02*
X30610436Y-73560000D01*
X45850436Y-70385000D02*
X46304564Y-70385000D01*
X45850436Y-71855000D02*
X46304564Y-71855000D01*
X45850436Y-73560000D02*
X46304564Y-73560000D01*
X45850436Y-75030000D02*
X46304564Y-75030000D01*
X55930436Y-83085000D02*
X56384564Y-83085000D01*
X55930436Y-84555000D02*
X56384564Y-84555000D01*
X56384564Y-78205000D02*
X55930436Y-78205000D01*
X56384564Y-76735000D02*
X55930436Y-76735000D01*
X56384564Y-81380000D02*
X55930436Y-81380000D01*
X56384564Y-79910000D02*
X55930436Y-79910000D01*
X56464564Y-69950000D02*
X56010436Y-69950000D01*
X56464564Y-68480000D02*
X56010436Y-68480000D01*
X56010436Y-62130000D02*
X56464564Y-62130000D01*
X56010436Y-63600000D02*
X56464564Y-63600000D01*
X71624564Y-65505000D02*
X71170436Y-65505000D01*
X71624564Y-64035000D02*
X71170436Y-64035000D01*
X71624564Y-78205000D02*
X71170436Y-78205000D01*
X71624564Y-76735000D02*
X71170436Y-76735000D01*
X71170436Y-70385000D02*
X71624564Y-70385000D01*
X71170436Y-71855000D02*
X71624564Y-71855000D01*
X71250436Y-73560000D02*
X71704564Y-73560000D01*
X71250436Y-75030000D02*
X71704564Y-75030000D01*
X55120000Y-71445000D02*
X55120000Y-72375000D01*
X55120000Y-74605000D02*
X55120000Y-73675000D01*
X55120000Y-74605000D02*
X57280000Y-74605000D01*
X55120000Y-71445000D02*
X56580000Y-71445000D01*
X58360000Y-48200000D02*
X58360000Y-50860000D01*
X63500000Y-48200000D02*
X58360000Y-48200000D01*
X63500000Y-50860000D02*
X58360000Y-50860000D01*
X63500000Y-48200000D02*
X63500000Y-50860000D01*
X64770000Y-48200000D02*
X66100000Y-48200000D01*
X66100000Y-48200000D02*
X66100000Y-49530000D01*
X41850000Y-35620000D02*
X44510000Y-35620000D01*
X41850000Y-30480000D02*
X41850000Y-35620000D01*
X44510000Y-30480000D02*
X44510000Y-35620000D01*
X41850000Y-30480000D02*
X44510000Y-30480000D01*
X41850000Y-29210000D02*
X41850000Y-27880000D01*
X41850000Y-27880000D02*
X43180000Y-27880000D01*
X66621252Y-73887000D02*
X66098748Y-73887000D01*
X66621252Y-72417000D02*
X66098748Y-72417000D01*
X62171252Y-73887000D02*
X61648748Y-73887000D01*
X62171252Y-72417000D02*
X61648748Y-72417000D01*
X47683748Y-46890000D02*
X48206252Y-46890000D01*
X47683748Y-48360000D02*
X48206252Y-48360000D01*
X55821252Y-32485000D02*
X55298748Y-32485000D01*
X55821252Y-31015000D02*
X55298748Y-31015000D01*
X48201252Y-29310000D02*
X47678748Y-29310000D01*
X48201252Y-27840000D02*
X47678748Y-27840000D01*
X48201252Y-32485000D02*
X47678748Y-32485000D01*
X48201252Y-31015000D02*
X47678748Y-31015000D01*
X55933748Y-95785000D02*
X56456252Y-95785000D01*
X55933748Y-97255000D02*
X56456252Y-97255000D01*
X45820000Y-66733748D02*
X45820000Y-67256252D01*
X44350000Y-66733748D02*
X44350000Y-67256252D01*
X35025000Y-66733748D02*
X35025000Y-67256252D01*
X33555000Y-66733748D02*
X33555000Y-67256252D01*
X38000000Y-54551252D02*
X38000000Y-54028748D01*
X39470000Y-54551252D02*
X39470000Y-54028748D01*
X38000000Y-58361252D02*
X38000000Y-57838748D01*
X39470000Y-58361252D02*
X39470000Y-57838748D01*
X66616252Y-87730000D02*
X66093748Y-87730000D01*
X66616252Y-86260000D02*
X66093748Y-86260000D01*
X62171252Y-87730000D02*
X61648748Y-87730000D01*
X62171252Y-86260000D02*
X61648748Y-86260000D01*
X41216252Y-74395000D02*
X40693748Y-74395000D01*
X41216252Y-72925000D02*
X40693748Y-72925000D01*
X36776252Y-74395000D02*
X36253748Y-74395000D01*
X36776252Y-72925000D02*
X36253748Y-72925000D01*
X41216252Y-85571000D02*
X40693748Y-85571000D01*
X41216252Y-84101000D02*
X40693748Y-84101000D01*
X36776252Y-85571000D02*
X36253748Y-85571000D01*
X36776252Y-84101000D02*
X36253748Y-84101000D01*
X34825000Y-54551252D02*
X34825000Y-54028748D01*
X36295000Y-54551252D02*
X36295000Y-54028748D01*
X36295000Y-57843748D02*
X36295000Y-58366252D01*
X34825000Y-57843748D02*
X34825000Y-58366252D01*
X36930000Y-47048748D02*
X36930000Y-47571252D01*
X35460000Y-47048748D02*
X35460000Y-47571252D01*
X36930000Y-39428748D02*
X36930000Y-39951252D01*
X35460000Y-39428748D02*
X35460000Y-39951252D01*
X64589252Y-32485000D02*
X64066748Y-32485000D01*
X64589252Y-31015000D02*
X64066748Y-31015000D01*
X55303748Y-43715000D02*
X55826252Y-43715000D01*
X55303748Y-45185000D02*
X55826252Y-45185000D01*
X71701252Y-97255000D02*
X71178748Y-97255000D01*
X71701252Y-95785000D02*
X71178748Y-95785000D01*
X55938748Y-86260000D02*
X56461252Y-86260000D01*
X55938748Y-87730000D02*
X56461252Y-87730000D01*
X56461252Y-66775000D02*
X55938748Y-66775000D01*
X56461252Y-65305000D02*
X55938748Y-65305000D01*
X71696252Y-81380000D02*
X71173748Y-81380000D01*
X71696252Y-79910000D02*
X71173748Y-79910000D01*
X71178748Y-67210000D02*
X71701252Y-67210000D01*
X71178748Y-68680000D02*
X71701252Y-68680000D01*
D10*
X56238095Y-41502380D02*
X56238095Y-42311904D01*
X56285714Y-42407142D01*
X56333333Y-42454761D01*
X56428571Y-42502380D01*
X56619047Y-42502380D01*
X56714285Y-42454761D01*
X56761904Y-42407142D01*
X56809523Y-42311904D01*
X56809523Y-41502380D01*
X57809523Y-42502380D02*
X57238095Y-42502380D01*
X57523809Y-42502380D02*
X57523809Y-41502380D01*
X57428571Y-41645238D01*
X57333333Y-41740476D01*
X57238095Y-41788095D01*
X37115904Y-66762380D02*
X37115904Y-67571904D01*
X37163523Y-67667142D01*
X37211142Y-67714761D01*
X37306380Y-67762380D01*
X37496857Y-67762380D01*
X37592095Y-67714761D01*
X37639714Y-67667142D01*
X37687333Y-67571904D01*
X37687333Y-66762380D01*
X38687333Y-67762380D02*
X38115904Y-67762380D01*
X38401619Y-67762380D02*
X38401619Y-66762380D01*
X38306380Y-66905238D01*
X38211142Y-67000476D01*
X38115904Y-67048095D01*
X39306380Y-66762380D02*
X39401619Y-66762380D01*
X39496857Y-66810000D01*
X39544476Y-66857619D01*
X39592095Y-66952857D01*
X39639714Y-67143333D01*
X39639714Y-67381428D01*
X39592095Y-67571904D01*
X39544476Y-67667142D01*
X39496857Y-67714761D01*
X39401619Y-67762380D01*
X39306380Y-67762380D01*
X39211142Y-67714761D01*
X39163523Y-67667142D01*
X39115904Y-67571904D01*
X39068285Y-67381428D01*
X39068285Y-67143333D01*
X39115904Y-66952857D01*
X39163523Y-66857619D01*
X39211142Y-66810000D01*
X39306380Y-66762380D01*
X27178095Y-66762380D02*
X27178095Y-67571904D01*
X27225714Y-67667142D01*
X27273333Y-67714761D01*
X27368571Y-67762380D01*
X27559047Y-67762380D01*
X27654285Y-67714761D01*
X27701904Y-67667142D01*
X27749523Y-67571904D01*
X27749523Y-66762380D01*
X28273333Y-67762380D02*
X28463809Y-67762380D01*
X28559047Y-67714761D01*
X28606666Y-67667142D01*
X28701904Y-67524285D01*
X28749523Y-67333809D01*
X28749523Y-66952857D01*
X28701904Y-66857619D01*
X28654285Y-66810000D01*
X28559047Y-66762380D01*
X28368571Y-66762380D01*
X28273333Y-66810000D01*
X28225714Y-66857619D01*
X28178095Y-66952857D01*
X28178095Y-67190952D01*
X28225714Y-67286190D01*
X28273333Y-67333809D01*
X28368571Y-67381428D01*
X28559047Y-67381428D01*
X28654285Y-67333809D01*
X28701904Y-67286190D01*
X28749523Y-67190952D01*
X26543095Y-52792380D02*
X26543095Y-53601904D01*
X26590714Y-53697142D01*
X26638333Y-53744761D01*
X26733571Y-53792380D01*
X26924047Y-53792380D01*
X27019285Y-53744761D01*
X27066904Y-53697142D01*
X27114523Y-53601904D01*
X27114523Y-52792380D01*
X27733571Y-53220952D02*
X27638333Y-53173333D01*
X27590714Y-53125714D01*
X27543095Y-53030476D01*
X27543095Y-52982857D01*
X27590714Y-52887619D01*
X27638333Y-52840000D01*
X27733571Y-52792380D01*
X27924047Y-52792380D01*
X28019285Y-52840000D01*
X28066904Y-52887619D01*
X28114523Y-52982857D01*
X28114523Y-53030476D01*
X28066904Y-53125714D01*
X28019285Y-53173333D01*
X27924047Y-53220952D01*
X27733571Y-53220952D01*
X27638333Y-53268571D01*
X27590714Y-53316190D01*
X27543095Y-53411428D01*
X27543095Y-53601904D01*
X27590714Y-53697142D01*
X27638333Y-53744761D01*
X27733571Y-53792380D01*
X27924047Y-53792380D01*
X28019285Y-53744761D01*
X28066904Y-53697142D01*
X28114523Y-53601904D01*
X28114523Y-53411428D01*
X28066904Y-53316190D01*
X28019285Y-53268571D01*
X27924047Y-53220952D01*
X26543095Y-58507380D02*
X26543095Y-59316904D01*
X26590714Y-59412142D01*
X26638333Y-59459761D01*
X26733571Y-59507380D01*
X26924047Y-59507380D01*
X27019285Y-59459761D01*
X27066904Y-59412142D01*
X27114523Y-59316904D01*
X27114523Y-58507380D01*
X27495476Y-58507380D02*
X28162142Y-58507380D01*
X27733571Y-59507380D01*
X63373095Y-70162380D02*
X63373095Y-70971904D01*
X63420714Y-71067142D01*
X63468333Y-71114761D01*
X63563571Y-71162380D01*
X63754047Y-71162380D01*
X63849285Y-71114761D01*
X63896904Y-71067142D01*
X63944523Y-70971904D01*
X63944523Y-70162380D01*
X64849285Y-70162380D02*
X64658809Y-70162380D01*
X64563571Y-70210000D01*
X64515952Y-70257619D01*
X64420714Y-70400476D01*
X64373095Y-70590952D01*
X64373095Y-70971904D01*
X64420714Y-71067142D01*
X64468333Y-71114761D01*
X64563571Y-71162380D01*
X64754047Y-71162380D01*
X64849285Y-71114761D01*
X64896904Y-71067142D01*
X64944523Y-70971904D01*
X64944523Y-70733809D01*
X64896904Y-70638571D01*
X64849285Y-70590952D01*
X64754047Y-70543333D01*
X64563571Y-70543333D01*
X64468333Y-70590952D01*
X64420714Y-70638571D01*
X64373095Y-70733809D01*
X63373095Y-95562380D02*
X63373095Y-96371904D01*
X63420714Y-96467142D01*
X63468333Y-96514761D01*
X63563571Y-96562380D01*
X63754047Y-96562380D01*
X63849285Y-96514761D01*
X63896904Y-96467142D01*
X63944523Y-96371904D01*
X63944523Y-95562380D01*
X64896904Y-95562380D02*
X64420714Y-95562380D01*
X64373095Y-96038571D01*
X64420714Y-95990952D01*
X64515952Y-95943333D01*
X64754047Y-95943333D01*
X64849285Y-95990952D01*
X64896904Y-96038571D01*
X64944523Y-96133809D01*
X64944523Y-96371904D01*
X64896904Y-96467142D01*
X64849285Y-96514761D01*
X64754047Y-96562380D01*
X64515952Y-96562380D01*
X64420714Y-96514761D01*
X64373095Y-96467142D01*
X63373095Y-81592380D02*
X63373095Y-82401904D01*
X63420714Y-82497142D01*
X63468333Y-82544761D01*
X63563571Y-82592380D01*
X63754047Y-82592380D01*
X63849285Y-82544761D01*
X63896904Y-82497142D01*
X63944523Y-82401904D01*
X63944523Y-81592380D01*
X64849285Y-81925714D02*
X64849285Y-82592380D01*
X64611190Y-81544761D02*
X64373095Y-82259047D01*
X64992142Y-82259047D01*
X37745095Y-93007380D02*
X37745095Y-93816904D01*
X37792714Y-93912142D01*
X37840333Y-93959761D01*
X37935571Y-94007380D01*
X38126047Y-94007380D01*
X38221285Y-93959761D01*
X38268904Y-93912142D01*
X38316523Y-93816904D01*
X38316523Y-93007380D01*
X38697476Y-93007380D02*
X39316523Y-93007380D01*
X38983190Y-93388333D01*
X39126047Y-93388333D01*
X39221285Y-93435952D01*
X39268904Y-93483571D01*
X39316523Y-93578809D01*
X39316523Y-93816904D01*
X39268904Y-93912142D01*
X39221285Y-93959761D01*
X39126047Y-94007380D01*
X38840333Y-94007380D01*
X38745095Y-93959761D01*
X38697476Y-93912142D01*
X37745095Y-82227380D02*
X37745095Y-83036904D01*
X37792714Y-83132142D01*
X37840333Y-83179761D01*
X37935571Y-83227380D01*
X38126047Y-83227380D01*
X38221285Y-83179761D01*
X38268904Y-83132142D01*
X38316523Y-83036904D01*
X38316523Y-82227380D01*
X38745095Y-82322619D02*
X38792714Y-82275000D01*
X38887952Y-82227380D01*
X39126047Y-82227380D01*
X39221285Y-82275000D01*
X39268904Y-82322619D01*
X39316523Y-82417857D01*
X39316523Y-82513095D01*
X39268904Y-82655952D01*
X38697476Y-83227380D01*
X39316523Y-83227380D01*
X49569761Y-53538380D02*
X49236428Y-53062190D01*
X48998333Y-53538380D02*
X48998333Y-52538380D01*
X49379285Y-52538380D01*
X49474523Y-52586000D01*
X49522142Y-52633619D01*
X49569761Y-52728857D01*
X49569761Y-52871714D01*
X49522142Y-52966952D01*
X49474523Y-53014571D01*
X49379285Y-53062190D01*
X48998333Y-53062190D01*
X49855476Y-52538380D02*
X50188809Y-53538380D01*
X50522142Y-52538380D01*
X50760238Y-52538380D02*
X51379285Y-52538380D01*
X51045952Y-52919333D01*
X51188809Y-52919333D01*
X51284047Y-52966952D01*
X51331666Y-53014571D01*
X51379285Y-53109809D01*
X51379285Y-53347904D01*
X51331666Y-53443142D01*
X51284047Y-53490761D01*
X51188809Y-53538380D01*
X50903095Y-53538380D01*
X50807857Y-53490761D01*
X50760238Y-53443142D01*
X59729761Y-53538380D02*
X59396428Y-53062190D01*
X59158333Y-53538380D02*
X59158333Y-52538380D01*
X59539285Y-52538380D01*
X59634523Y-52586000D01*
X59682142Y-52633619D01*
X59729761Y-52728857D01*
X59729761Y-52871714D01*
X59682142Y-52966952D01*
X59634523Y-53014571D01*
X59539285Y-53062190D01*
X59158333Y-53062190D01*
X60015476Y-52538380D02*
X60348809Y-53538380D01*
X60682142Y-52538380D01*
X60967857Y-52633619D02*
X61015476Y-52586000D01*
X61110714Y-52538380D01*
X61348809Y-52538380D01*
X61444047Y-52586000D01*
X61491666Y-52633619D01*
X61539285Y-52728857D01*
X61539285Y-52824095D01*
X61491666Y-52966952D01*
X60920238Y-53538380D01*
X61539285Y-53538380D01*
X69889761Y-53538380D02*
X69556428Y-53062190D01*
X69318333Y-53538380D02*
X69318333Y-52538380D01*
X69699285Y-52538380D01*
X69794523Y-52586000D01*
X69842142Y-52633619D01*
X69889761Y-52728857D01*
X69889761Y-52871714D01*
X69842142Y-52966952D01*
X69794523Y-53014571D01*
X69699285Y-53062190D01*
X69318333Y-53062190D01*
X70175476Y-52538380D02*
X70508809Y-53538380D01*
X70842142Y-52538380D01*
X71699285Y-53538380D02*
X71127857Y-53538380D01*
X71413571Y-53538380D02*
X71413571Y-52538380D01*
X71318333Y-52681238D01*
X71223095Y-52776476D01*
X71127857Y-52824095D01*
X66874142Y-35377380D02*
X66540809Y-34901190D01*
X66302714Y-35377380D02*
X66302714Y-34377380D01*
X66683666Y-34377380D01*
X66778904Y-34425000D01*
X66826523Y-34472619D01*
X66874142Y-34567857D01*
X66874142Y-34710714D01*
X66826523Y-34805952D01*
X66778904Y-34853571D01*
X66683666Y-34901190D01*
X66302714Y-34901190D01*
X67731285Y-34710714D02*
X67731285Y-35377380D01*
X67493190Y-34329761D02*
X67255095Y-35044047D01*
X67874142Y-35044047D01*
X68302714Y-35377380D02*
X68493190Y-35377380D01*
X68588428Y-35329761D01*
X68636047Y-35282142D01*
X68731285Y-35139285D01*
X68778904Y-34948809D01*
X68778904Y-34567857D01*
X68731285Y-34472619D01*
X68683666Y-34425000D01*
X68588428Y-34377380D01*
X68397952Y-34377380D01*
X68302714Y-34425000D01*
X68255095Y-34472619D01*
X68207476Y-34567857D01*
X68207476Y-34805952D01*
X68255095Y-34901190D01*
X68302714Y-34948809D01*
X68397952Y-34996428D01*
X68588428Y-34996428D01*
X68683666Y-34948809D01*
X68731285Y-34901190D01*
X68778904Y-34805952D01*
X66921142Y-38552380D02*
X66587809Y-38076190D01*
X66349714Y-38552380D02*
X66349714Y-37552380D01*
X66730666Y-37552380D01*
X66825904Y-37600000D01*
X66873523Y-37647619D01*
X66921142Y-37742857D01*
X66921142Y-37885714D01*
X66873523Y-37980952D01*
X66825904Y-38028571D01*
X66730666Y-38076190D01*
X66349714Y-38076190D01*
X67778285Y-37885714D02*
X67778285Y-38552380D01*
X67540190Y-37504761D02*
X67302095Y-38219047D01*
X67921142Y-38219047D01*
X68444952Y-37980952D02*
X68349714Y-37933333D01*
X68302095Y-37885714D01*
X68254476Y-37790476D01*
X68254476Y-37742857D01*
X68302095Y-37647619D01*
X68349714Y-37600000D01*
X68444952Y-37552380D01*
X68635428Y-37552380D01*
X68730666Y-37600000D01*
X68778285Y-37647619D01*
X68825904Y-37742857D01*
X68825904Y-37790476D01*
X68778285Y-37885714D01*
X68730666Y-37933333D01*
X68635428Y-37980952D01*
X68444952Y-37980952D01*
X68349714Y-38028571D01*
X68302095Y-38076190D01*
X68254476Y-38171428D01*
X68254476Y-38361904D01*
X68302095Y-38457142D01*
X68349714Y-38504761D01*
X68444952Y-38552380D01*
X68635428Y-38552380D01*
X68730666Y-38504761D01*
X68778285Y-38457142D01*
X68825904Y-38361904D01*
X68825904Y-38171428D01*
X68778285Y-38076190D01*
X68730666Y-38028571D01*
X68635428Y-37980952D01*
X66921142Y-44902380D02*
X66587809Y-44426190D01*
X66349714Y-44902380D02*
X66349714Y-43902380D01*
X66730666Y-43902380D01*
X66825904Y-43950000D01*
X66873523Y-43997619D01*
X66921142Y-44092857D01*
X66921142Y-44235714D01*
X66873523Y-44330952D01*
X66825904Y-44378571D01*
X66730666Y-44426190D01*
X66349714Y-44426190D01*
X67778285Y-44235714D02*
X67778285Y-44902380D01*
X67540190Y-43854761D02*
X67302095Y-44569047D01*
X67921142Y-44569047D01*
X68206857Y-43902380D02*
X68873523Y-43902380D01*
X68444952Y-44902380D01*
X66921142Y-41727380D02*
X66587809Y-41251190D01*
X66349714Y-41727380D02*
X66349714Y-40727380D01*
X66730666Y-40727380D01*
X66825904Y-40775000D01*
X66873523Y-40822619D01*
X66921142Y-40917857D01*
X66921142Y-41060714D01*
X66873523Y-41155952D01*
X66825904Y-41203571D01*
X66730666Y-41251190D01*
X66349714Y-41251190D01*
X67778285Y-41060714D02*
X67778285Y-41727380D01*
X67540190Y-40679761D02*
X67302095Y-41394047D01*
X67921142Y-41394047D01*
X68730666Y-40727380D02*
X68540190Y-40727380D01*
X68444952Y-40775000D01*
X68397333Y-40822619D01*
X68302095Y-40965476D01*
X68254476Y-41155952D01*
X68254476Y-41536904D01*
X68302095Y-41632142D01*
X68349714Y-41679761D01*
X68444952Y-41727380D01*
X68635428Y-41727380D01*
X68730666Y-41679761D01*
X68778285Y-41632142D01*
X68825904Y-41536904D01*
X68825904Y-41298809D01*
X68778285Y-41203571D01*
X68730666Y-41155952D01*
X68635428Y-41108333D01*
X68444952Y-41108333D01*
X68349714Y-41155952D01*
X68302095Y-41203571D01*
X68254476Y-41298809D01*
X50411142Y-44902380D02*
X50077809Y-44426190D01*
X49839714Y-44902380D02*
X49839714Y-43902380D01*
X50220666Y-43902380D01*
X50315904Y-43950000D01*
X50363523Y-43997619D01*
X50411142Y-44092857D01*
X50411142Y-44235714D01*
X50363523Y-44330952D01*
X50315904Y-44378571D01*
X50220666Y-44426190D01*
X49839714Y-44426190D01*
X51268285Y-44235714D02*
X51268285Y-44902380D01*
X51030190Y-43854761D02*
X50792095Y-44569047D01*
X51411142Y-44569047D01*
X52268285Y-43902380D02*
X51792095Y-43902380D01*
X51744476Y-44378571D01*
X51792095Y-44330952D01*
X51887333Y-44283333D01*
X52125428Y-44283333D01*
X52220666Y-44330952D01*
X52268285Y-44378571D01*
X52315904Y-44473809D01*
X52315904Y-44711904D01*
X52268285Y-44807142D01*
X52220666Y-44854761D01*
X52125428Y-44902380D01*
X51887333Y-44902380D01*
X51792095Y-44854761D01*
X51744476Y-44807142D01*
X50411142Y-41727380D02*
X50077809Y-41251190D01*
X49839714Y-41727380D02*
X49839714Y-40727380D01*
X50220666Y-40727380D01*
X50315904Y-40775000D01*
X50363523Y-40822619D01*
X50411142Y-40917857D01*
X50411142Y-41060714D01*
X50363523Y-41155952D01*
X50315904Y-41203571D01*
X50220666Y-41251190D01*
X49839714Y-41251190D01*
X51268285Y-41060714D02*
X51268285Y-41727380D01*
X51030190Y-40679761D02*
X50792095Y-41394047D01*
X51411142Y-41394047D01*
X52220666Y-41060714D02*
X52220666Y-41727380D01*
X51982571Y-40679761D02*
X51744476Y-41394047D01*
X52363523Y-41394047D01*
X74113142Y-51252380D02*
X73779809Y-50776190D01*
X73541714Y-51252380D02*
X73541714Y-50252380D01*
X73922666Y-50252380D01*
X74017904Y-50300000D01*
X74065523Y-50347619D01*
X74113142Y-50442857D01*
X74113142Y-50585714D01*
X74065523Y-50680952D01*
X74017904Y-50728571D01*
X73922666Y-50776190D01*
X73541714Y-50776190D01*
X74970285Y-50585714D02*
X74970285Y-51252380D01*
X74732190Y-50204761D02*
X74494095Y-50919047D01*
X75113142Y-50919047D01*
X75398857Y-50252380D02*
X76017904Y-50252380D01*
X75684571Y-50633333D01*
X75827428Y-50633333D01*
X75922666Y-50680952D01*
X75970285Y-50728571D01*
X76017904Y-50823809D01*
X76017904Y-51061904D01*
X75970285Y-51157142D01*
X75922666Y-51204761D01*
X75827428Y-51252380D01*
X75541714Y-51252380D01*
X75446476Y-51204761D01*
X75398857Y-51157142D01*
X74033142Y-48077380D02*
X73699809Y-47601190D01*
X73461714Y-48077380D02*
X73461714Y-47077380D01*
X73842666Y-47077380D01*
X73937904Y-47125000D01*
X73985523Y-47172619D01*
X74033142Y-47267857D01*
X74033142Y-47410714D01*
X73985523Y-47505952D01*
X73937904Y-47553571D01*
X73842666Y-47601190D01*
X73461714Y-47601190D01*
X74890285Y-47410714D02*
X74890285Y-48077380D01*
X74652190Y-47029761D02*
X74414095Y-47744047D01*
X75033142Y-47744047D01*
X75366476Y-47172619D02*
X75414095Y-47125000D01*
X75509333Y-47077380D01*
X75747428Y-47077380D01*
X75842666Y-47125000D01*
X75890285Y-47172619D01*
X75937904Y-47267857D01*
X75937904Y-47363095D01*
X75890285Y-47505952D01*
X75318857Y-48077380D01*
X75937904Y-48077380D01*
X50411142Y-38552380D02*
X50077809Y-38076190D01*
X49839714Y-38552380D02*
X49839714Y-37552380D01*
X50220666Y-37552380D01*
X50315904Y-37600000D01*
X50363523Y-37647619D01*
X50411142Y-37742857D01*
X50411142Y-37885714D01*
X50363523Y-37980952D01*
X50315904Y-38028571D01*
X50220666Y-38076190D01*
X49839714Y-38076190D01*
X51268285Y-37885714D02*
X51268285Y-38552380D01*
X51030190Y-37504761D02*
X50792095Y-38219047D01*
X51411142Y-38219047D01*
X52315904Y-38552380D02*
X51744476Y-38552380D01*
X52030190Y-38552380D02*
X52030190Y-37552380D01*
X51934952Y-37695238D01*
X51839714Y-37790476D01*
X51744476Y-37838095D01*
X74033142Y-41854380D02*
X73699809Y-41378190D01*
X73461714Y-41854380D02*
X73461714Y-40854380D01*
X73842666Y-40854380D01*
X73937904Y-40902000D01*
X73985523Y-40949619D01*
X74033142Y-41044857D01*
X74033142Y-41187714D01*
X73985523Y-41282952D01*
X73937904Y-41330571D01*
X73842666Y-41378190D01*
X73461714Y-41378190D01*
X74890285Y-41187714D02*
X74890285Y-41854380D01*
X74652190Y-40806761D02*
X74414095Y-41521047D01*
X75033142Y-41521047D01*
X75604571Y-40854380D02*
X75699809Y-40854380D01*
X75795047Y-40902000D01*
X75842666Y-40949619D01*
X75890285Y-41044857D01*
X75937904Y-41235333D01*
X75937904Y-41473428D01*
X75890285Y-41663904D01*
X75842666Y-41759142D01*
X75795047Y-41806761D01*
X75699809Y-41854380D01*
X75604571Y-41854380D01*
X75509333Y-41806761D01*
X75461714Y-41759142D01*
X75414095Y-41663904D01*
X75366476Y-41473428D01*
X75366476Y-41235333D01*
X75414095Y-41044857D01*
X75461714Y-40949619D01*
X75509333Y-40902000D01*
X75604571Y-40854380D01*
X74033142Y-38552380D02*
X73699809Y-38076190D01*
X73461714Y-38552380D02*
X73461714Y-37552380D01*
X73842666Y-37552380D01*
X73937904Y-37600000D01*
X73985523Y-37647619D01*
X74033142Y-37742857D01*
X74033142Y-37885714D01*
X73985523Y-37980952D01*
X73937904Y-38028571D01*
X73842666Y-38076190D01*
X73461714Y-38076190D01*
X74366476Y-37552380D02*
X74985523Y-37552380D01*
X74652190Y-37933333D01*
X74795047Y-37933333D01*
X74890285Y-37980952D01*
X74937904Y-38028571D01*
X74985523Y-38123809D01*
X74985523Y-38361904D01*
X74937904Y-38457142D01*
X74890285Y-38504761D01*
X74795047Y-38552380D01*
X74509333Y-38552380D01*
X74414095Y-38504761D01*
X74366476Y-38457142D01*
X75461714Y-38552380D02*
X75652190Y-38552380D01*
X75747428Y-38504761D01*
X75795047Y-38457142D01*
X75890285Y-38314285D01*
X75937904Y-38123809D01*
X75937904Y-37742857D01*
X75890285Y-37647619D01*
X75842666Y-37600000D01*
X75747428Y-37552380D01*
X75556952Y-37552380D01*
X75461714Y-37600000D01*
X75414095Y-37647619D01*
X75366476Y-37742857D01*
X75366476Y-37980952D01*
X75414095Y-38076190D01*
X75461714Y-38123809D01*
X75556952Y-38171428D01*
X75747428Y-38171428D01*
X75842666Y-38123809D01*
X75890285Y-38076190D01*
X75937904Y-37980952D01*
X73986142Y-35250380D02*
X73652809Y-34774190D01*
X73414714Y-35250380D02*
X73414714Y-34250380D01*
X73795666Y-34250380D01*
X73890904Y-34298000D01*
X73938523Y-34345619D01*
X73986142Y-34440857D01*
X73986142Y-34583714D01*
X73938523Y-34678952D01*
X73890904Y-34726571D01*
X73795666Y-34774190D01*
X73414714Y-34774190D01*
X74319476Y-34250380D02*
X74938523Y-34250380D01*
X74605190Y-34631333D01*
X74748047Y-34631333D01*
X74843285Y-34678952D01*
X74890904Y-34726571D01*
X74938523Y-34821809D01*
X74938523Y-35059904D01*
X74890904Y-35155142D01*
X74843285Y-35202761D01*
X74748047Y-35250380D01*
X74462333Y-35250380D01*
X74367095Y-35202761D01*
X74319476Y-35155142D01*
X75509952Y-34678952D02*
X75414714Y-34631333D01*
X75367095Y-34583714D01*
X75319476Y-34488476D01*
X75319476Y-34440857D01*
X75367095Y-34345619D01*
X75414714Y-34298000D01*
X75509952Y-34250380D01*
X75700428Y-34250380D01*
X75795666Y-34298000D01*
X75843285Y-34345619D01*
X75890904Y-34440857D01*
X75890904Y-34488476D01*
X75843285Y-34583714D01*
X75795666Y-34631333D01*
X75700428Y-34678952D01*
X75509952Y-34678952D01*
X75414714Y-34726571D01*
X75367095Y-34774190D01*
X75319476Y-34869428D01*
X75319476Y-35059904D01*
X75367095Y-35155142D01*
X75414714Y-35202761D01*
X75509952Y-35250380D01*
X75700428Y-35250380D01*
X75795666Y-35202761D01*
X75843285Y-35155142D01*
X75890904Y-35059904D01*
X75890904Y-34869428D01*
X75843285Y-34774190D01*
X75795666Y-34726571D01*
X75700428Y-34678952D01*
X74033142Y-32202380D02*
X73699809Y-31726190D01*
X73461714Y-32202380D02*
X73461714Y-31202380D01*
X73842666Y-31202380D01*
X73937904Y-31250000D01*
X73985523Y-31297619D01*
X74033142Y-31392857D01*
X74033142Y-31535714D01*
X73985523Y-31630952D01*
X73937904Y-31678571D01*
X73842666Y-31726190D01*
X73461714Y-31726190D01*
X74366476Y-31202380D02*
X74985523Y-31202380D01*
X74652190Y-31583333D01*
X74795047Y-31583333D01*
X74890285Y-31630952D01*
X74937904Y-31678571D01*
X74985523Y-31773809D01*
X74985523Y-32011904D01*
X74937904Y-32107142D01*
X74890285Y-32154761D01*
X74795047Y-32202380D01*
X74509333Y-32202380D01*
X74414095Y-32154761D01*
X74366476Y-32107142D01*
X75318857Y-31202380D02*
X75985523Y-31202380D01*
X75556952Y-32202380D01*
X74080142Y-29154380D02*
X73746809Y-28678190D01*
X73508714Y-29154380D02*
X73508714Y-28154380D01*
X73889666Y-28154380D01*
X73984904Y-28202000D01*
X74032523Y-28249619D01*
X74080142Y-28344857D01*
X74080142Y-28487714D01*
X74032523Y-28582952D01*
X73984904Y-28630571D01*
X73889666Y-28678190D01*
X73508714Y-28678190D01*
X74413476Y-28154380D02*
X75032523Y-28154380D01*
X74699190Y-28535333D01*
X74842047Y-28535333D01*
X74937285Y-28582952D01*
X74984904Y-28630571D01*
X75032523Y-28725809D01*
X75032523Y-28963904D01*
X74984904Y-29059142D01*
X74937285Y-29106761D01*
X74842047Y-29154380D01*
X74556333Y-29154380D01*
X74461095Y-29106761D01*
X74413476Y-29059142D01*
X75889666Y-28154380D02*
X75699190Y-28154380D01*
X75603952Y-28202000D01*
X75556333Y-28249619D01*
X75461095Y-28392476D01*
X75413476Y-28582952D01*
X75413476Y-28963904D01*
X75461095Y-29059142D01*
X75508714Y-29106761D01*
X75603952Y-29154380D01*
X75794428Y-29154380D01*
X75889666Y-29106761D01*
X75937285Y-29059142D01*
X75984904Y-28963904D01*
X75984904Y-28725809D01*
X75937285Y-28630571D01*
X75889666Y-28582952D01*
X75794428Y-28535333D01*
X75603952Y-28535333D01*
X75508714Y-28582952D01*
X75461095Y-28630571D01*
X75413476Y-28725809D01*
X74033142Y-44902380D02*
X73699809Y-44426190D01*
X73461714Y-44902380D02*
X73461714Y-43902380D01*
X73842666Y-43902380D01*
X73937904Y-43950000D01*
X73985523Y-43997619D01*
X74033142Y-44092857D01*
X74033142Y-44235714D01*
X73985523Y-44330952D01*
X73937904Y-44378571D01*
X73842666Y-44426190D01*
X73461714Y-44426190D01*
X74366476Y-43902380D02*
X74985523Y-43902380D01*
X74652190Y-44283333D01*
X74795047Y-44283333D01*
X74890285Y-44330952D01*
X74937904Y-44378571D01*
X74985523Y-44473809D01*
X74985523Y-44711904D01*
X74937904Y-44807142D01*
X74890285Y-44854761D01*
X74795047Y-44902380D01*
X74509333Y-44902380D01*
X74414095Y-44854761D01*
X74366476Y-44807142D01*
X75890285Y-43902380D02*
X75414095Y-43902380D01*
X75366476Y-44378571D01*
X75414095Y-44330952D01*
X75509333Y-44283333D01*
X75747428Y-44283333D01*
X75842666Y-44330952D01*
X75890285Y-44378571D01*
X75937904Y-44473809D01*
X75937904Y-44711904D01*
X75890285Y-44807142D01*
X75842666Y-44854761D01*
X75747428Y-44902380D01*
X75509333Y-44902380D01*
X75414095Y-44854761D01*
X75366476Y-44807142D01*
X50411142Y-35377380D02*
X50077809Y-34901190D01*
X49839714Y-35377380D02*
X49839714Y-34377380D01*
X50220666Y-34377380D01*
X50315904Y-34425000D01*
X50363523Y-34472619D01*
X50411142Y-34567857D01*
X50411142Y-34710714D01*
X50363523Y-34805952D01*
X50315904Y-34853571D01*
X50220666Y-34901190D01*
X49839714Y-34901190D01*
X50744476Y-34377380D02*
X51363523Y-34377380D01*
X51030190Y-34758333D01*
X51173047Y-34758333D01*
X51268285Y-34805952D01*
X51315904Y-34853571D01*
X51363523Y-34948809D01*
X51363523Y-35186904D01*
X51315904Y-35282142D01*
X51268285Y-35329761D01*
X51173047Y-35377380D01*
X50887333Y-35377380D01*
X50792095Y-35329761D01*
X50744476Y-35282142D01*
X52220666Y-34710714D02*
X52220666Y-35377380D01*
X51982571Y-34329761D02*
X51744476Y-35044047D01*
X52363523Y-35044047D01*
X52523142Y-93797380D02*
X52189809Y-93321190D01*
X51951714Y-93797380D02*
X51951714Y-92797380D01*
X52332666Y-92797380D01*
X52427904Y-92845000D01*
X52475523Y-92892619D01*
X52523142Y-92987857D01*
X52523142Y-93130714D01*
X52475523Y-93225952D01*
X52427904Y-93273571D01*
X52332666Y-93321190D01*
X51951714Y-93321190D01*
X52856476Y-92797380D02*
X53475523Y-92797380D01*
X53142190Y-93178333D01*
X53285047Y-93178333D01*
X53380285Y-93225952D01*
X53427904Y-93273571D01*
X53475523Y-93368809D01*
X53475523Y-93606904D01*
X53427904Y-93702142D01*
X53380285Y-93749761D01*
X53285047Y-93797380D01*
X52999333Y-93797380D01*
X52904095Y-93749761D01*
X52856476Y-93702142D01*
X53808857Y-92797380D02*
X54427904Y-92797380D01*
X54094571Y-93178333D01*
X54237428Y-93178333D01*
X54332666Y-93225952D01*
X54380285Y-93273571D01*
X54427904Y-93368809D01*
X54427904Y-93606904D01*
X54380285Y-93702142D01*
X54332666Y-93749761D01*
X54237428Y-93797380D01*
X53951714Y-93797380D01*
X53856476Y-93749761D01*
X53808857Y-93702142D01*
X52419642Y-90622380D02*
X52086309Y-90146190D01*
X51848214Y-90622380D02*
X51848214Y-89622380D01*
X52229166Y-89622380D01*
X52324404Y-89670000D01*
X52372023Y-89717619D01*
X52419642Y-89812857D01*
X52419642Y-89955714D01*
X52372023Y-90050952D01*
X52324404Y-90098571D01*
X52229166Y-90146190D01*
X51848214Y-90146190D01*
X52752976Y-89622380D02*
X53372023Y-89622380D01*
X53038690Y-90003333D01*
X53181547Y-90003333D01*
X53276785Y-90050952D01*
X53324404Y-90098571D01*
X53372023Y-90193809D01*
X53372023Y-90431904D01*
X53324404Y-90527142D01*
X53276785Y-90574761D01*
X53181547Y-90622380D01*
X52895833Y-90622380D01*
X52800595Y-90574761D01*
X52752976Y-90527142D01*
X53752976Y-89717619D02*
X53800595Y-89670000D01*
X53895833Y-89622380D01*
X54133928Y-89622380D01*
X54229166Y-89670000D01*
X54276785Y-89717619D01*
X54324404Y-89812857D01*
X54324404Y-89908095D01*
X54276785Y-90050952D01*
X53705357Y-90622380D01*
X54324404Y-90622380D01*
X37711142Y-63952380D02*
X37377809Y-63476190D01*
X37139714Y-63952380D02*
X37139714Y-62952380D01*
X37520666Y-62952380D01*
X37615904Y-63000000D01*
X37663523Y-63047619D01*
X37711142Y-63142857D01*
X37711142Y-63285714D01*
X37663523Y-63380952D01*
X37615904Y-63428571D01*
X37520666Y-63476190D01*
X37139714Y-63476190D01*
X38044476Y-62952380D02*
X38663523Y-62952380D01*
X38330190Y-63333333D01*
X38473047Y-63333333D01*
X38568285Y-63380952D01*
X38615904Y-63428571D01*
X38663523Y-63523809D01*
X38663523Y-63761904D01*
X38615904Y-63857142D01*
X38568285Y-63904761D01*
X38473047Y-63952380D01*
X38187333Y-63952380D01*
X38092095Y-63904761D01*
X38044476Y-63857142D01*
X39615904Y-63952380D02*
X39044476Y-63952380D01*
X39330190Y-63952380D02*
X39330190Y-62952380D01*
X39234952Y-63095238D01*
X39139714Y-63190476D01*
X39044476Y-63238095D01*
X26789142Y-63952380D02*
X26455809Y-63476190D01*
X26217714Y-63952380D02*
X26217714Y-62952380D01*
X26598666Y-62952380D01*
X26693904Y-63000000D01*
X26741523Y-63047619D01*
X26789142Y-63142857D01*
X26789142Y-63285714D01*
X26741523Y-63380952D01*
X26693904Y-63428571D01*
X26598666Y-63476190D01*
X26217714Y-63476190D01*
X27122476Y-62952380D02*
X27741523Y-62952380D01*
X27408190Y-63333333D01*
X27551047Y-63333333D01*
X27646285Y-63380952D01*
X27693904Y-63428571D01*
X27741523Y-63523809D01*
X27741523Y-63761904D01*
X27693904Y-63857142D01*
X27646285Y-63904761D01*
X27551047Y-63952380D01*
X27265333Y-63952380D01*
X27170095Y-63904761D01*
X27122476Y-63857142D01*
X28360571Y-62952380D02*
X28455809Y-62952380D01*
X28551047Y-63000000D01*
X28598666Y-63047619D01*
X28646285Y-63142857D01*
X28693904Y-63333333D01*
X28693904Y-63571428D01*
X28646285Y-63761904D01*
X28598666Y-63857142D01*
X28551047Y-63904761D01*
X28455809Y-63952380D01*
X28360571Y-63952380D01*
X28265333Y-63904761D01*
X28217714Y-63857142D01*
X28170095Y-63761904D01*
X28122476Y-63571428D01*
X28122476Y-63333333D01*
X28170095Y-63142857D01*
X28217714Y-63047619D01*
X28265333Y-63000000D01*
X28360571Y-62952380D01*
X74033142Y-93797380D02*
X73699809Y-93321190D01*
X73461714Y-93797380D02*
X73461714Y-92797380D01*
X73842666Y-92797380D01*
X73937904Y-92845000D01*
X73985523Y-92892619D01*
X74033142Y-92987857D01*
X74033142Y-93130714D01*
X73985523Y-93225952D01*
X73937904Y-93273571D01*
X73842666Y-93321190D01*
X73461714Y-93321190D01*
X74414095Y-92892619D02*
X74461714Y-92845000D01*
X74556952Y-92797380D01*
X74795047Y-92797380D01*
X74890285Y-92845000D01*
X74937904Y-92892619D01*
X74985523Y-92987857D01*
X74985523Y-93083095D01*
X74937904Y-93225952D01*
X74366476Y-93797380D01*
X74985523Y-93797380D01*
X75461714Y-93797380D02*
X75652190Y-93797380D01*
X75747428Y-93749761D01*
X75795047Y-93702142D01*
X75890285Y-93559285D01*
X75937904Y-93368809D01*
X75937904Y-92987857D01*
X75890285Y-92892619D01*
X75842666Y-92845000D01*
X75747428Y-92797380D01*
X75556952Y-92797380D01*
X75461714Y-92845000D01*
X75414095Y-92892619D01*
X75366476Y-92987857D01*
X75366476Y-93225952D01*
X75414095Y-93321190D01*
X75461714Y-93368809D01*
X75556952Y-93416428D01*
X75747428Y-93416428D01*
X75842666Y-93368809D01*
X75890285Y-93321190D01*
X75937904Y-93225952D01*
X74033142Y-84272380D02*
X73699809Y-83796190D01*
X73461714Y-84272380D02*
X73461714Y-83272380D01*
X73842666Y-83272380D01*
X73937904Y-83320000D01*
X73985523Y-83367619D01*
X74033142Y-83462857D01*
X74033142Y-83605714D01*
X73985523Y-83700952D01*
X73937904Y-83748571D01*
X73842666Y-83796190D01*
X73461714Y-83796190D01*
X74414095Y-83367619D02*
X74461714Y-83320000D01*
X74556952Y-83272380D01*
X74795047Y-83272380D01*
X74890285Y-83320000D01*
X74937904Y-83367619D01*
X74985523Y-83462857D01*
X74985523Y-83558095D01*
X74937904Y-83700952D01*
X74366476Y-84272380D01*
X74985523Y-84272380D01*
X75556952Y-83700952D02*
X75461714Y-83653333D01*
X75414095Y-83605714D01*
X75366476Y-83510476D01*
X75366476Y-83462857D01*
X75414095Y-83367619D01*
X75461714Y-83320000D01*
X75556952Y-83272380D01*
X75747428Y-83272380D01*
X75842666Y-83320000D01*
X75890285Y-83367619D01*
X75937904Y-83462857D01*
X75937904Y-83510476D01*
X75890285Y-83605714D01*
X75842666Y-83653333D01*
X75747428Y-83700952D01*
X75556952Y-83700952D01*
X75461714Y-83748571D01*
X75414095Y-83796190D01*
X75366476Y-83891428D01*
X75366476Y-84081904D01*
X75414095Y-84177142D01*
X75461714Y-84224761D01*
X75556952Y-84272380D01*
X75747428Y-84272380D01*
X75842666Y-84224761D01*
X75890285Y-84177142D01*
X75937904Y-84081904D01*
X75937904Y-83891428D01*
X75890285Y-83796190D01*
X75842666Y-83748571D01*
X75747428Y-83700952D01*
X74033142Y-87447380D02*
X73699809Y-86971190D01*
X73461714Y-87447380D02*
X73461714Y-86447380D01*
X73842666Y-86447380D01*
X73937904Y-86495000D01*
X73985523Y-86542619D01*
X74033142Y-86637857D01*
X74033142Y-86780714D01*
X73985523Y-86875952D01*
X73937904Y-86923571D01*
X73842666Y-86971190D01*
X73461714Y-86971190D01*
X74414095Y-86542619D02*
X74461714Y-86495000D01*
X74556952Y-86447380D01*
X74795047Y-86447380D01*
X74890285Y-86495000D01*
X74937904Y-86542619D01*
X74985523Y-86637857D01*
X74985523Y-86733095D01*
X74937904Y-86875952D01*
X74366476Y-87447380D01*
X74985523Y-87447380D01*
X75318857Y-86447380D02*
X75985523Y-86447380D01*
X75556952Y-87447380D01*
X74033142Y-90622380D02*
X73699809Y-90146190D01*
X73461714Y-90622380D02*
X73461714Y-89622380D01*
X73842666Y-89622380D01*
X73937904Y-89670000D01*
X73985523Y-89717619D01*
X74033142Y-89812857D01*
X74033142Y-89955714D01*
X73985523Y-90050952D01*
X73937904Y-90098571D01*
X73842666Y-90146190D01*
X73461714Y-90146190D01*
X74414095Y-89717619D02*
X74461714Y-89670000D01*
X74556952Y-89622380D01*
X74795047Y-89622380D01*
X74890285Y-89670000D01*
X74937904Y-89717619D01*
X74985523Y-89812857D01*
X74985523Y-89908095D01*
X74937904Y-90050952D01*
X74366476Y-90622380D01*
X74985523Y-90622380D01*
X75842666Y-89622380D02*
X75652190Y-89622380D01*
X75556952Y-89670000D01*
X75509333Y-89717619D01*
X75414095Y-89860476D01*
X75366476Y-90050952D01*
X75366476Y-90431904D01*
X75414095Y-90527142D01*
X75461714Y-90574761D01*
X75556952Y-90622380D01*
X75747428Y-90622380D01*
X75842666Y-90574761D01*
X75890285Y-90527142D01*
X75937904Y-90431904D01*
X75937904Y-90193809D01*
X75890285Y-90098571D01*
X75842666Y-90050952D01*
X75747428Y-90003333D01*
X75556952Y-90003333D01*
X75461714Y-90050952D01*
X75414095Y-90098571D01*
X75366476Y-90193809D01*
X26662142Y-93797380D02*
X26328809Y-93321190D01*
X26090714Y-93797380D02*
X26090714Y-92797380D01*
X26471666Y-92797380D01*
X26566904Y-92845000D01*
X26614523Y-92892619D01*
X26662142Y-92987857D01*
X26662142Y-93130714D01*
X26614523Y-93225952D01*
X26566904Y-93273571D01*
X26471666Y-93321190D01*
X26090714Y-93321190D01*
X27043095Y-92892619D02*
X27090714Y-92845000D01*
X27185952Y-92797380D01*
X27424047Y-92797380D01*
X27519285Y-92845000D01*
X27566904Y-92892619D01*
X27614523Y-92987857D01*
X27614523Y-93083095D01*
X27566904Y-93225952D01*
X26995476Y-93797380D01*
X27614523Y-93797380D01*
X28519285Y-92797380D02*
X28043095Y-92797380D01*
X27995476Y-93273571D01*
X28043095Y-93225952D01*
X28138333Y-93178333D01*
X28376428Y-93178333D01*
X28471666Y-93225952D01*
X28519285Y-93273571D01*
X28566904Y-93368809D01*
X28566904Y-93606904D01*
X28519285Y-93702142D01*
X28471666Y-93749761D01*
X28376428Y-93797380D01*
X28138333Y-93797380D01*
X28043095Y-93749761D01*
X27995476Y-93702142D01*
X48379142Y-93797380D02*
X48045809Y-93321190D01*
X47807714Y-93797380D02*
X47807714Y-92797380D01*
X48188666Y-92797380D01*
X48283904Y-92845000D01*
X48331523Y-92892619D01*
X48379142Y-92987857D01*
X48379142Y-93130714D01*
X48331523Y-93225952D01*
X48283904Y-93273571D01*
X48188666Y-93321190D01*
X47807714Y-93321190D01*
X48760095Y-92892619D02*
X48807714Y-92845000D01*
X48902952Y-92797380D01*
X49141047Y-92797380D01*
X49236285Y-92845000D01*
X49283904Y-92892619D01*
X49331523Y-92987857D01*
X49331523Y-93083095D01*
X49283904Y-93225952D01*
X48712476Y-93797380D01*
X49331523Y-93797380D01*
X50188666Y-93130714D02*
X50188666Y-93797380D01*
X49950571Y-92749761D02*
X49712476Y-93464047D01*
X50331523Y-93464047D01*
X27043142Y-81097380D02*
X26709809Y-80621190D01*
X26471714Y-81097380D02*
X26471714Y-80097380D01*
X26852666Y-80097380D01*
X26947904Y-80145000D01*
X26995523Y-80192619D01*
X27043142Y-80287857D01*
X27043142Y-80430714D01*
X26995523Y-80525952D01*
X26947904Y-80573571D01*
X26852666Y-80621190D01*
X26471714Y-80621190D01*
X27424095Y-80192619D02*
X27471714Y-80145000D01*
X27566952Y-80097380D01*
X27805047Y-80097380D01*
X27900285Y-80145000D01*
X27947904Y-80192619D01*
X27995523Y-80287857D01*
X27995523Y-80383095D01*
X27947904Y-80525952D01*
X27376476Y-81097380D01*
X27995523Y-81097380D01*
X28328857Y-80097380D02*
X28947904Y-80097380D01*
X28614571Y-80478333D01*
X28757428Y-80478333D01*
X28852666Y-80525952D01*
X28900285Y-80573571D01*
X28947904Y-80668809D01*
X28947904Y-80906904D01*
X28900285Y-81002142D01*
X28852666Y-81049761D01*
X28757428Y-81097380D01*
X28471714Y-81097380D01*
X28376476Y-81049761D01*
X28328857Y-81002142D01*
X48379142Y-81097380D02*
X48045809Y-80621190D01*
X47807714Y-81097380D02*
X47807714Y-80097380D01*
X48188666Y-80097380D01*
X48283904Y-80145000D01*
X48331523Y-80192619D01*
X48379142Y-80287857D01*
X48379142Y-80430714D01*
X48331523Y-80525952D01*
X48283904Y-80573571D01*
X48188666Y-80621190D01*
X47807714Y-80621190D01*
X48760095Y-80192619D02*
X48807714Y-80145000D01*
X48902952Y-80097380D01*
X49141047Y-80097380D01*
X49236285Y-80145000D01*
X49283904Y-80192619D01*
X49331523Y-80287857D01*
X49331523Y-80383095D01*
X49283904Y-80525952D01*
X48712476Y-81097380D01*
X49331523Y-81097380D01*
X49712476Y-80192619D02*
X49760095Y-80145000D01*
X49855333Y-80097380D01*
X50093428Y-80097380D01*
X50188666Y-80145000D01*
X50236285Y-80192619D01*
X50283904Y-80287857D01*
X50283904Y-80383095D01*
X50236285Y-80525952D01*
X49664857Y-81097380D01*
X50283904Y-81097380D01*
X26582142Y-90622380D02*
X26248809Y-90146190D01*
X26010714Y-90622380D02*
X26010714Y-89622380D01*
X26391666Y-89622380D01*
X26486904Y-89670000D01*
X26534523Y-89717619D01*
X26582142Y-89812857D01*
X26582142Y-89955714D01*
X26534523Y-90050952D01*
X26486904Y-90098571D01*
X26391666Y-90146190D01*
X26010714Y-90146190D01*
X26963095Y-89717619D02*
X27010714Y-89670000D01*
X27105952Y-89622380D01*
X27344047Y-89622380D01*
X27439285Y-89670000D01*
X27486904Y-89717619D01*
X27534523Y-89812857D01*
X27534523Y-89908095D01*
X27486904Y-90050952D01*
X26915476Y-90622380D01*
X27534523Y-90622380D01*
X28486904Y-90622380D02*
X27915476Y-90622380D01*
X28201190Y-90622380D02*
X28201190Y-89622380D01*
X28105952Y-89765238D01*
X28010714Y-89860476D01*
X27915476Y-89908095D01*
X48379142Y-90622380D02*
X48045809Y-90146190D01*
X47807714Y-90622380D02*
X47807714Y-89622380D01*
X48188666Y-89622380D01*
X48283904Y-89670000D01*
X48331523Y-89717619D01*
X48379142Y-89812857D01*
X48379142Y-89955714D01*
X48331523Y-90050952D01*
X48283904Y-90098571D01*
X48188666Y-90146190D01*
X47807714Y-90146190D01*
X48760095Y-89717619D02*
X48807714Y-89670000D01*
X48902952Y-89622380D01*
X49141047Y-89622380D01*
X49236285Y-89670000D01*
X49283904Y-89717619D01*
X49331523Y-89812857D01*
X49331523Y-89908095D01*
X49283904Y-90050952D01*
X48712476Y-90622380D01*
X49331523Y-90622380D01*
X49950571Y-89622380D02*
X50045809Y-89622380D01*
X50141047Y-89670000D01*
X50188666Y-89717619D01*
X50236285Y-89812857D01*
X50283904Y-90003333D01*
X50283904Y-90241428D01*
X50236285Y-90431904D01*
X50188666Y-90527142D01*
X50141047Y-90574761D01*
X50045809Y-90622380D01*
X49950571Y-90622380D01*
X49855333Y-90574761D01*
X49807714Y-90527142D01*
X49760095Y-90431904D01*
X49712476Y-90241428D01*
X49712476Y-90003333D01*
X49760095Y-89812857D01*
X49807714Y-89717619D01*
X49855333Y-89670000D01*
X49950571Y-89622380D01*
X27019642Y-77922380D02*
X26686309Y-77446190D01*
X26448214Y-77922380D02*
X26448214Y-76922380D01*
X26829166Y-76922380D01*
X26924404Y-76970000D01*
X26972023Y-77017619D01*
X27019642Y-77112857D01*
X27019642Y-77255714D01*
X26972023Y-77350952D01*
X26924404Y-77398571D01*
X26829166Y-77446190D01*
X26448214Y-77446190D01*
X27972023Y-77922380D02*
X27400595Y-77922380D01*
X27686309Y-77922380D02*
X27686309Y-76922380D01*
X27591071Y-77065238D01*
X27495833Y-77160476D01*
X27400595Y-77208095D01*
X28448214Y-77922380D02*
X28638690Y-77922380D01*
X28733928Y-77874761D01*
X28781547Y-77827142D01*
X28876785Y-77684285D01*
X28924404Y-77493809D01*
X28924404Y-77112857D01*
X28876785Y-77017619D01*
X28829166Y-76970000D01*
X28733928Y-76922380D01*
X28543452Y-76922380D01*
X28448214Y-76970000D01*
X28400595Y-77017619D01*
X28352976Y-77112857D01*
X28352976Y-77350952D01*
X28400595Y-77446190D01*
X28448214Y-77493809D01*
X28543452Y-77541428D01*
X28733928Y-77541428D01*
X28829166Y-77493809D01*
X28876785Y-77446190D01*
X28924404Y-77350952D01*
X48459142Y-77922380D02*
X48125809Y-77446190D01*
X47887714Y-77922380D02*
X47887714Y-76922380D01*
X48268666Y-76922380D01*
X48363904Y-76970000D01*
X48411523Y-77017619D01*
X48459142Y-77112857D01*
X48459142Y-77255714D01*
X48411523Y-77350952D01*
X48363904Y-77398571D01*
X48268666Y-77446190D01*
X47887714Y-77446190D01*
X49411523Y-77922380D02*
X48840095Y-77922380D01*
X49125809Y-77922380D02*
X49125809Y-76922380D01*
X49030571Y-77065238D01*
X48935333Y-77160476D01*
X48840095Y-77208095D01*
X49982952Y-77350952D02*
X49887714Y-77303333D01*
X49840095Y-77255714D01*
X49792476Y-77160476D01*
X49792476Y-77112857D01*
X49840095Y-77017619D01*
X49887714Y-76970000D01*
X49982952Y-76922380D01*
X50173428Y-76922380D01*
X50268666Y-76970000D01*
X50316285Y-77017619D01*
X50363904Y-77112857D01*
X50363904Y-77160476D01*
X50316285Y-77255714D01*
X50268666Y-77303333D01*
X50173428Y-77350952D01*
X49982952Y-77350952D01*
X49887714Y-77398571D01*
X49840095Y-77446190D01*
X49792476Y-77541428D01*
X49792476Y-77731904D01*
X49840095Y-77827142D01*
X49887714Y-77874761D01*
X49982952Y-77922380D01*
X50173428Y-77922380D01*
X50268666Y-77874761D01*
X50316285Y-77827142D01*
X50363904Y-77731904D01*
X50363904Y-77541428D01*
X50316285Y-77446190D01*
X50268666Y-77398571D01*
X50173428Y-77350952D01*
X27019642Y-84272380D02*
X26686309Y-83796190D01*
X26448214Y-84272380D02*
X26448214Y-83272380D01*
X26829166Y-83272380D01*
X26924404Y-83320000D01*
X26972023Y-83367619D01*
X27019642Y-83462857D01*
X27019642Y-83605714D01*
X26972023Y-83700952D01*
X26924404Y-83748571D01*
X26829166Y-83796190D01*
X26448214Y-83796190D01*
X27972023Y-84272380D02*
X27400595Y-84272380D01*
X27686309Y-84272380D02*
X27686309Y-83272380D01*
X27591071Y-83415238D01*
X27495833Y-83510476D01*
X27400595Y-83558095D01*
X28305357Y-83272380D02*
X28972023Y-83272380D01*
X28543452Y-84272380D01*
X26662142Y-87447380D02*
X26328809Y-86971190D01*
X26090714Y-87447380D02*
X26090714Y-86447380D01*
X26471666Y-86447380D01*
X26566904Y-86495000D01*
X26614523Y-86542619D01*
X26662142Y-86637857D01*
X26662142Y-86780714D01*
X26614523Y-86875952D01*
X26566904Y-86923571D01*
X26471666Y-86971190D01*
X26090714Y-86971190D01*
X27614523Y-87447380D02*
X27043095Y-87447380D01*
X27328809Y-87447380D02*
X27328809Y-86447380D01*
X27233571Y-86590238D01*
X27138333Y-86685476D01*
X27043095Y-86733095D01*
X28471666Y-86447380D02*
X28281190Y-86447380D01*
X28185952Y-86495000D01*
X28138333Y-86542619D01*
X28043095Y-86685476D01*
X27995476Y-86875952D01*
X27995476Y-87256904D01*
X28043095Y-87352142D01*
X28090714Y-87399761D01*
X28185952Y-87447380D01*
X28376428Y-87447380D01*
X28471666Y-87399761D01*
X28519285Y-87352142D01*
X28566904Y-87256904D01*
X28566904Y-87018809D01*
X28519285Y-86923571D01*
X28471666Y-86875952D01*
X28376428Y-86828333D01*
X28185952Y-86828333D01*
X28090714Y-86875952D01*
X28043095Y-86923571D01*
X27995476Y-87018809D01*
X48379142Y-84272380D02*
X48045809Y-83796190D01*
X47807714Y-84272380D02*
X47807714Y-83272380D01*
X48188666Y-83272380D01*
X48283904Y-83320000D01*
X48331523Y-83367619D01*
X48379142Y-83462857D01*
X48379142Y-83605714D01*
X48331523Y-83700952D01*
X48283904Y-83748571D01*
X48188666Y-83796190D01*
X47807714Y-83796190D01*
X49331523Y-84272380D02*
X48760095Y-84272380D01*
X49045809Y-84272380D02*
X49045809Y-83272380D01*
X48950571Y-83415238D01*
X48855333Y-83510476D01*
X48760095Y-83558095D01*
X50236285Y-83272380D02*
X49760095Y-83272380D01*
X49712476Y-83748571D01*
X49760095Y-83700952D01*
X49855333Y-83653333D01*
X50093428Y-83653333D01*
X50188666Y-83700952D01*
X50236285Y-83748571D01*
X50283904Y-83843809D01*
X50283904Y-84081904D01*
X50236285Y-84177142D01*
X50188666Y-84224761D01*
X50093428Y-84272380D01*
X49855333Y-84272380D01*
X49760095Y-84224761D01*
X49712476Y-84177142D01*
X48633142Y-87574380D02*
X48299809Y-87098190D01*
X48061714Y-87574380D02*
X48061714Y-86574380D01*
X48442666Y-86574380D01*
X48537904Y-86622000D01*
X48585523Y-86669619D01*
X48633142Y-86764857D01*
X48633142Y-86907714D01*
X48585523Y-87002952D01*
X48537904Y-87050571D01*
X48442666Y-87098190D01*
X48061714Y-87098190D01*
X49585523Y-87574380D02*
X49014095Y-87574380D01*
X49299809Y-87574380D02*
X49299809Y-86574380D01*
X49204571Y-86717238D01*
X49109333Y-86812476D01*
X49014095Y-86860095D01*
X50442666Y-86907714D02*
X50442666Y-87574380D01*
X50204571Y-86526761D02*
X49966476Y-87241047D01*
X50585523Y-87241047D01*
X27019642Y-71572380D02*
X26686309Y-71096190D01*
X26448214Y-71572380D02*
X26448214Y-70572380D01*
X26829166Y-70572380D01*
X26924404Y-70620000D01*
X26972023Y-70667619D01*
X27019642Y-70762857D01*
X27019642Y-70905714D01*
X26972023Y-71000952D01*
X26924404Y-71048571D01*
X26829166Y-71096190D01*
X26448214Y-71096190D01*
X27972023Y-71572380D02*
X27400595Y-71572380D01*
X27686309Y-71572380D02*
X27686309Y-70572380D01*
X27591071Y-70715238D01*
X27495833Y-70810476D01*
X27400595Y-70858095D01*
X28305357Y-70572380D02*
X28924404Y-70572380D01*
X28591071Y-70953333D01*
X28733928Y-70953333D01*
X28829166Y-71000952D01*
X28876785Y-71048571D01*
X28924404Y-71143809D01*
X28924404Y-71381904D01*
X28876785Y-71477142D01*
X28829166Y-71524761D01*
X28733928Y-71572380D01*
X28448214Y-71572380D01*
X28352976Y-71524761D01*
X28305357Y-71477142D01*
X27019642Y-74747380D02*
X26686309Y-74271190D01*
X26448214Y-74747380D02*
X26448214Y-73747380D01*
X26829166Y-73747380D01*
X26924404Y-73795000D01*
X26972023Y-73842619D01*
X27019642Y-73937857D01*
X27019642Y-74080714D01*
X26972023Y-74175952D01*
X26924404Y-74223571D01*
X26829166Y-74271190D01*
X26448214Y-74271190D01*
X27972023Y-74747380D02*
X27400595Y-74747380D01*
X27686309Y-74747380D02*
X27686309Y-73747380D01*
X27591071Y-73890238D01*
X27495833Y-73985476D01*
X27400595Y-74033095D01*
X28352976Y-73842619D02*
X28400595Y-73795000D01*
X28495833Y-73747380D01*
X28733928Y-73747380D01*
X28829166Y-73795000D01*
X28876785Y-73842619D01*
X28924404Y-73937857D01*
X28924404Y-74033095D01*
X28876785Y-74175952D01*
X28305357Y-74747380D01*
X28924404Y-74747380D01*
X48633142Y-71572380D02*
X48299809Y-71096190D01*
X48061714Y-71572380D02*
X48061714Y-70572380D01*
X48442666Y-70572380D01*
X48537904Y-70620000D01*
X48585523Y-70667619D01*
X48633142Y-70762857D01*
X48633142Y-70905714D01*
X48585523Y-71000952D01*
X48537904Y-71048571D01*
X48442666Y-71096190D01*
X48061714Y-71096190D01*
X49585523Y-71572380D02*
X49014095Y-71572380D01*
X49299809Y-71572380D02*
X49299809Y-70572380D01*
X49204571Y-70715238D01*
X49109333Y-70810476D01*
X49014095Y-70858095D01*
X50537904Y-71572380D02*
X49966476Y-71572380D01*
X50252190Y-71572380D02*
X50252190Y-70572380D01*
X50156952Y-70715238D01*
X50061714Y-70810476D01*
X49966476Y-70858095D01*
X48633142Y-74747380D02*
X48299809Y-74271190D01*
X48061714Y-74747380D02*
X48061714Y-73747380D01*
X48442666Y-73747380D01*
X48537904Y-73795000D01*
X48585523Y-73842619D01*
X48633142Y-73937857D01*
X48633142Y-74080714D01*
X48585523Y-74175952D01*
X48537904Y-74223571D01*
X48442666Y-74271190D01*
X48061714Y-74271190D01*
X49585523Y-74747380D02*
X49014095Y-74747380D01*
X49299809Y-74747380D02*
X49299809Y-73747380D01*
X49204571Y-73890238D01*
X49109333Y-73985476D01*
X49014095Y-74033095D01*
X50204571Y-73747380D02*
X50299809Y-73747380D01*
X50395047Y-73795000D01*
X50442666Y-73842619D01*
X50490285Y-73937857D01*
X50537904Y-74128333D01*
X50537904Y-74366428D01*
X50490285Y-74556904D01*
X50442666Y-74652142D01*
X50395047Y-74699761D01*
X50299809Y-74747380D01*
X50204571Y-74747380D01*
X50109333Y-74699761D01*
X50061714Y-74652142D01*
X50014095Y-74556904D01*
X49966476Y-74366428D01*
X49966476Y-74128333D01*
X50014095Y-73937857D01*
X50061714Y-73842619D01*
X50109333Y-73795000D01*
X50204571Y-73747380D01*
X53173333Y-84272380D02*
X52840000Y-83796190D01*
X52601904Y-84272380D02*
X52601904Y-83272380D01*
X52982857Y-83272380D01*
X53078095Y-83320000D01*
X53125714Y-83367619D01*
X53173333Y-83462857D01*
X53173333Y-83605714D01*
X53125714Y-83700952D01*
X53078095Y-83748571D01*
X52982857Y-83796190D01*
X52601904Y-83796190D01*
X53649523Y-84272380D02*
X53840000Y-84272380D01*
X53935238Y-84224761D01*
X53982857Y-84177142D01*
X54078095Y-84034285D01*
X54125714Y-83843809D01*
X54125714Y-83462857D01*
X54078095Y-83367619D01*
X54030476Y-83320000D01*
X53935238Y-83272380D01*
X53744761Y-83272380D01*
X53649523Y-83320000D01*
X53601904Y-83367619D01*
X53554285Y-83462857D01*
X53554285Y-83700952D01*
X53601904Y-83796190D01*
X53649523Y-83843809D01*
X53744761Y-83891428D01*
X53935238Y-83891428D01*
X54030476Y-83843809D01*
X54078095Y-83796190D01*
X54125714Y-83700952D01*
X53173333Y-77922380D02*
X52840000Y-77446190D01*
X52601904Y-77922380D02*
X52601904Y-76922380D01*
X52982857Y-76922380D01*
X53078095Y-76970000D01*
X53125714Y-77017619D01*
X53173333Y-77112857D01*
X53173333Y-77255714D01*
X53125714Y-77350952D01*
X53078095Y-77398571D01*
X52982857Y-77446190D01*
X52601904Y-77446190D01*
X53744761Y-77350952D02*
X53649523Y-77303333D01*
X53601904Y-77255714D01*
X53554285Y-77160476D01*
X53554285Y-77112857D01*
X53601904Y-77017619D01*
X53649523Y-76970000D01*
X53744761Y-76922380D01*
X53935238Y-76922380D01*
X54030476Y-76970000D01*
X54078095Y-77017619D01*
X54125714Y-77112857D01*
X54125714Y-77160476D01*
X54078095Y-77255714D01*
X54030476Y-77303333D01*
X53935238Y-77350952D01*
X53744761Y-77350952D01*
X53649523Y-77398571D01*
X53601904Y-77446190D01*
X53554285Y-77541428D01*
X53554285Y-77731904D01*
X53601904Y-77827142D01*
X53649523Y-77874761D01*
X53744761Y-77922380D01*
X53935238Y-77922380D01*
X54030476Y-77874761D01*
X54078095Y-77827142D01*
X54125714Y-77731904D01*
X54125714Y-77541428D01*
X54078095Y-77446190D01*
X54030476Y-77398571D01*
X53935238Y-77350952D01*
X53173333Y-81097380D02*
X52840000Y-80621190D01*
X52601904Y-81097380D02*
X52601904Y-80097380D01*
X52982857Y-80097380D01*
X53078095Y-80145000D01*
X53125714Y-80192619D01*
X53173333Y-80287857D01*
X53173333Y-80430714D01*
X53125714Y-80525952D01*
X53078095Y-80573571D01*
X52982857Y-80621190D01*
X52601904Y-80621190D01*
X53506666Y-80097380D02*
X54173333Y-80097380D01*
X53744761Y-81097380D01*
X53427333Y-69667380D02*
X53094000Y-69191190D01*
X52855904Y-69667380D02*
X52855904Y-68667380D01*
X53236857Y-68667380D01*
X53332095Y-68715000D01*
X53379714Y-68762619D01*
X53427333Y-68857857D01*
X53427333Y-69000714D01*
X53379714Y-69095952D01*
X53332095Y-69143571D01*
X53236857Y-69191190D01*
X52855904Y-69191190D01*
X54284476Y-68667380D02*
X54094000Y-68667380D01*
X53998761Y-68715000D01*
X53951142Y-68762619D01*
X53855904Y-68905476D01*
X53808285Y-69095952D01*
X53808285Y-69476904D01*
X53855904Y-69572142D01*
X53903523Y-69619761D01*
X53998761Y-69667380D01*
X54189238Y-69667380D01*
X54284476Y-69619761D01*
X54332095Y-69572142D01*
X54379714Y-69476904D01*
X54379714Y-69238809D01*
X54332095Y-69143571D01*
X54284476Y-69095952D01*
X54189238Y-69048333D01*
X53998761Y-69048333D01*
X53903523Y-69095952D01*
X53855904Y-69143571D01*
X53808285Y-69238809D01*
X53427333Y-63317380D02*
X53094000Y-62841190D01*
X52855904Y-63317380D02*
X52855904Y-62317380D01*
X53236857Y-62317380D01*
X53332095Y-62365000D01*
X53379714Y-62412619D01*
X53427333Y-62507857D01*
X53427333Y-62650714D01*
X53379714Y-62745952D01*
X53332095Y-62793571D01*
X53236857Y-62841190D01*
X52855904Y-62841190D01*
X54332095Y-62317380D02*
X53855904Y-62317380D01*
X53808285Y-62793571D01*
X53855904Y-62745952D01*
X53951142Y-62698333D01*
X54189238Y-62698333D01*
X54284476Y-62745952D01*
X54332095Y-62793571D01*
X54379714Y-62888809D01*
X54379714Y-63126904D01*
X54332095Y-63222142D01*
X54284476Y-63269761D01*
X54189238Y-63317380D01*
X53951142Y-63317380D01*
X53855904Y-63269761D01*
X53808285Y-63222142D01*
X74001333Y-65222380D02*
X73668000Y-64746190D01*
X73429904Y-65222380D02*
X73429904Y-64222380D01*
X73810857Y-64222380D01*
X73906095Y-64270000D01*
X73953714Y-64317619D01*
X74001333Y-64412857D01*
X74001333Y-64555714D01*
X73953714Y-64650952D01*
X73906095Y-64698571D01*
X73810857Y-64746190D01*
X73429904Y-64746190D01*
X74858476Y-64555714D02*
X74858476Y-65222380D01*
X74620380Y-64174761D02*
X74382285Y-64889047D01*
X75001333Y-64889047D01*
X74128333Y-77922380D02*
X73795000Y-77446190D01*
X73556904Y-77922380D02*
X73556904Y-76922380D01*
X73937857Y-76922380D01*
X74033095Y-76970000D01*
X74080714Y-77017619D01*
X74128333Y-77112857D01*
X74128333Y-77255714D01*
X74080714Y-77350952D01*
X74033095Y-77398571D01*
X73937857Y-77446190D01*
X73556904Y-77446190D01*
X74461666Y-76922380D02*
X75080714Y-76922380D01*
X74747380Y-77303333D01*
X74890238Y-77303333D01*
X74985476Y-77350952D01*
X75033095Y-77398571D01*
X75080714Y-77493809D01*
X75080714Y-77731904D01*
X75033095Y-77827142D01*
X74985476Y-77874761D01*
X74890238Y-77922380D01*
X74604523Y-77922380D01*
X74509285Y-77874761D01*
X74461666Y-77827142D01*
X74001333Y-71572380D02*
X73668000Y-71096190D01*
X73429904Y-71572380D02*
X73429904Y-70572380D01*
X73810857Y-70572380D01*
X73906095Y-70620000D01*
X73953714Y-70667619D01*
X74001333Y-70762857D01*
X74001333Y-70905714D01*
X73953714Y-71000952D01*
X73906095Y-71048571D01*
X73810857Y-71096190D01*
X73429904Y-71096190D01*
X74382285Y-70667619D02*
X74429904Y-70620000D01*
X74525142Y-70572380D01*
X74763238Y-70572380D01*
X74858476Y-70620000D01*
X74906095Y-70667619D01*
X74953714Y-70762857D01*
X74953714Y-70858095D01*
X74906095Y-71000952D01*
X74334666Y-71572380D01*
X74953714Y-71572380D01*
X74001333Y-74747380D02*
X73668000Y-74271190D01*
X73429904Y-74747380D02*
X73429904Y-73747380D01*
X73810857Y-73747380D01*
X73906095Y-73795000D01*
X73953714Y-73842619D01*
X74001333Y-73937857D01*
X74001333Y-74080714D01*
X73953714Y-74175952D01*
X73906095Y-74223571D01*
X73810857Y-74271190D01*
X73429904Y-74271190D01*
X74953714Y-74747380D02*
X74382285Y-74747380D01*
X74668000Y-74747380D02*
X74668000Y-73747380D01*
X74572761Y-73890238D01*
X74477523Y-73985476D01*
X74382285Y-74033095D01*
X52990761Y-73445619D02*
X52895523Y-73398000D01*
X52800285Y-73302761D01*
X52657428Y-73159904D01*
X52562190Y-73112285D01*
X52466952Y-73112285D01*
X52514571Y-73350380D02*
X52419333Y-73302761D01*
X52324095Y-73207523D01*
X52276476Y-73017047D01*
X52276476Y-72683714D01*
X52324095Y-72493238D01*
X52419333Y-72398000D01*
X52514571Y-72350380D01*
X52705047Y-72350380D01*
X52800285Y-72398000D01*
X52895523Y-72493238D01*
X52943142Y-72683714D01*
X52943142Y-73017047D01*
X52895523Y-73207523D01*
X52800285Y-73302761D01*
X52705047Y-73350380D01*
X52514571Y-73350380D01*
X53895523Y-73350380D02*
X53324095Y-73350380D01*
X53609809Y-73350380D02*
X53609809Y-72350380D01*
X53514571Y-72493238D01*
X53419333Y-72588476D01*
X53324095Y-72636095D01*
X67111666Y-48982380D02*
X67111666Y-49696666D01*
X67064047Y-49839523D01*
X66968809Y-49934761D01*
X66825952Y-49982380D01*
X66730714Y-49982380D01*
X67587857Y-49982380D02*
X67587857Y-48982380D01*
X67968809Y-48982380D01*
X68064047Y-49030000D01*
X68111666Y-49077619D01*
X68159285Y-49172857D01*
X68159285Y-49315714D01*
X68111666Y-49410952D01*
X68064047Y-49458571D01*
X67968809Y-49506190D01*
X67587857Y-49506190D01*
X68540238Y-49077619D02*
X68587857Y-49030000D01*
X68683095Y-48982380D01*
X68921190Y-48982380D01*
X69016428Y-49030000D01*
X69064047Y-49077619D01*
X69111666Y-49172857D01*
X69111666Y-49268095D01*
X69064047Y-49410952D01*
X68492619Y-49982380D01*
X69111666Y-49982380D01*
X42346666Y-26332380D02*
X42346666Y-27046666D01*
X42299047Y-27189523D01*
X42203809Y-27284761D01*
X42060952Y-27332380D01*
X41965714Y-27332380D01*
X42822857Y-27332380D02*
X42822857Y-26332380D01*
X43203809Y-26332380D01*
X43299047Y-26380000D01*
X43346666Y-26427619D01*
X43394285Y-26522857D01*
X43394285Y-26665714D01*
X43346666Y-26760952D01*
X43299047Y-26808571D01*
X43203809Y-26856190D01*
X42822857Y-26856190D01*
X44346666Y-27332380D02*
X43775238Y-27332380D01*
X44060952Y-27332380D02*
X44060952Y-26332380D01*
X43965714Y-26475238D01*
X43870476Y-26570476D01*
X43775238Y-26618095D01*
X65717142Y-75189142D02*
X65669523Y-75236761D01*
X65526666Y-75284380D01*
X65431428Y-75284380D01*
X65288571Y-75236761D01*
X65193333Y-75141523D01*
X65145714Y-75046285D01*
X65098095Y-74855809D01*
X65098095Y-74712952D01*
X65145714Y-74522476D01*
X65193333Y-74427238D01*
X65288571Y-74332000D01*
X65431428Y-74284380D01*
X65526666Y-74284380D01*
X65669523Y-74332000D01*
X65717142Y-74379619D01*
X66098095Y-74379619D02*
X66145714Y-74332000D01*
X66240952Y-74284380D01*
X66479047Y-74284380D01*
X66574285Y-74332000D01*
X66621904Y-74379619D01*
X66669523Y-74474857D01*
X66669523Y-74570095D01*
X66621904Y-74712952D01*
X66050476Y-75284380D01*
X66669523Y-75284380D01*
X67240952Y-74712952D02*
X67145714Y-74665333D01*
X67098095Y-74617714D01*
X67050476Y-74522476D01*
X67050476Y-74474857D01*
X67098095Y-74379619D01*
X67145714Y-74332000D01*
X67240952Y-74284380D01*
X67431428Y-74284380D01*
X67526666Y-74332000D01*
X67574285Y-74379619D01*
X67621904Y-74474857D01*
X67621904Y-74522476D01*
X67574285Y-74617714D01*
X67526666Y-74665333D01*
X67431428Y-74712952D01*
X67240952Y-74712952D01*
X67145714Y-74760571D01*
X67098095Y-74808190D01*
X67050476Y-74903428D01*
X67050476Y-75093904D01*
X67098095Y-75189142D01*
X67145714Y-75236761D01*
X67240952Y-75284380D01*
X67431428Y-75284380D01*
X67526666Y-75236761D01*
X67574285Y-75189142D01*
X67621904Y-75093904D01*
X67621904Y-74903428D01*
X67574285Y-74808190D01*
X67526666Y-74760571D01*
X67431428Y-74712952D01*
X61267142Y-75189142D02*
X61219523Y-75236761D01*
X61076666Y-75284380D01*
X60981428Y-75284380D01*
X60838571Y-75236761D01*
X60743333Y-75141523D01*
X60695714Y-75046285D01*
X60648095Y-74855809D01*
X60648095Y-74712952D01*
X60695714Y-74522476D01*
X60743333Y-74427238D01*
X60838571Y-74332000D01*
X60981428Y-74284380D01*
X61076666Y-74284380D01*
X61219523Y-74332000D01*
X61267142Y-74379619D01*
X61648095Y-74379619D02*
X61695714Y-74332000D01*
X61790952Y-74284380D01*
X62029047Y-74284380D01*
X62124285Y-74332000D01*
X62171904Y-74379619D01*
X62219523Y-74474857D01*
X62219523Y-74570095D01*
X62171904Y-74712952D01*
X61600476Y-75284380D01*
X62219523Y-75284380D01*
X62552857Y-74284380D02*
X63219523Y-74284380D01*
X62790952Y-75284380D01*
X50411142Y-47982142D02*
X50363523Y-48029761D01*
X50220666Y-48077380D01*
X50125428Y-48077380D01*
X49982571Y-48029761D01*
X49887333Y-47934523D01*
X49839714Y-47839285D01*
X49792095Y-47648809D01*
X49792095Y-47505952D01*
X49839714Y-47315476D01*
X49887333Y-47220238D01*
X49982571Y-47125000D01*
X50125428Y-47077380D01*
X50220666Y-47077380D01*
X50363523Y-47125000D01*
X50411142Y-47172619D01*
X50792095Y-47172619D02*
X50839714Y-47125000D01*
X50934952Y-47077380D01*
X51173047Y-47077380D01*
X51268285Y-47125000D01*
X51315904Y-47172619D01*
X51363523Y-47267857D01*
X51363523Y-47363095D01*
X51315904Y-47505952D01*
X50744476Y-48077380D01*
X51363523Y-48077380D01*
X52220666Y-47077380D02*
X52030190Y-47077380D01*
X51934952Y-47125000D01*
X51887333Y-47172619D01*
X51792095Y-47315476D01*
X51744476Y-47505952D01*
X51744476Y-47886904D01*
X51792095Y-47982142D01*
X51839714Y-48029761D01*
X51934952Y-48077380D01*
X52125428Y-48077380D01*
X52220666Y-48029761D01*
X52268285Y-47982142D01*
X52315904Y-47886904D01*
X52315904Y-47648809D01*
X52268285Y-47553571D01*
X52220666Y-47505952D01*
X52125428Y-47458333D01*
X51934952Y-47458333D01*
X51839714Y-47505952D01*
X51792095Y-47553571D01*
X51744476Y-47648809D01*
X58031142Y-32112142D02*
X57983523Y-32159761D01*
X57840666Y-32207380D01*
X57745428Y-32207380D01*
X57602571Y-32159761D01*
X57507333Y-32064523D01*
X57459714Y-31969285D01*
X57412095Y-31778809D01*
X57412095Y-31635952D01*
X57459714Y-31445476D01*
X57507333Y-31350238D01*
X57602571Y-31255000D01*
X57745428Y-31207380D01*
X57840666Y-31207380D01*
X57983523Y-31255000D01*
X58031142Y-31302619D01*
X58412095Y-31302619D02*
X58459714Y-31255000D01*
X58554952Y-31207380D01*
X58793047Y-31207380D01*
X58888285Y-31255000D01*
X58935904Y-31302619D01*
X58983523Y-31397857D01*
X58983523Y-31493095D01*
X58935904Y-31635952D01*
X58364476Y-32207380D01*
X58983523Y-32207380D01*
X59888285Y-31207380D02*
X59412095Y-31207380D01*
X59364476Y-31683571D01*
X59412095Y-31635952D01*
X59507333Y-31588333D01*
X59745428Y-31588333D01*
X59840666Y-31635952D01*
X59888285Y-31683571D01*
X59935904Y-31778809D01*
X59935904Y-32016904D01*
X59888285Y-32112142D01*
X59840666Y-32159761D01*
X59745428Y-32207380D01*
X59507333Y-32207380D01*
X59412095Y-32159761D01*
X59364476Y-32112142D01*
X50411142Y-28932142D02*
X50363523Y-28979761D01*
X50220666Y-29027380D01*
X50125428Y-29027380D01*
X49982571Y-28979761D01*
X49887333Y-28884523D01*
X49839714Y-28789285D01*
X49792095Y-28598809D01*
X49792095Y-28455952D01*
X49839714Y-28265476D01*
X49887333Y-28170238D01*
X49982571Y-28075000D01*
X50125428Y-28027380D01*
X50220666Y-28027380D01*
X50363523Y-28075000D01*
X50411142Y-28122619D01*
X50792095Y-28122619D02*
X50839714Y-28075000D01*
X50934952Y-28027380D01*
X51173047Y-28027380D01*
X51268285Y-28075000D01*
X51315904Y-28122619D01*
X51363523Y-28217857D01*
X51363523Y-28313095D01*
X51315904Y-28455952D01*
X50744476Y-29027380D01*
X51363523Y-29027380D01*
X52220666Y-28360714D02*
X52220666Y-29027380D01*
X51982571Y-27979761D02*
X51744476Y-28694047D01*
X52363523Y-28694047D01*
X50411142Y-32107142D02*
X50363523Y-32154761D01*
X50220666Y-32202380D01*
X50125428Y-32202380D01*
X49982571Y-32154761D01*
X49887333Y-32059523D01*
X49839714Y-31964285D01*
X49792095Y-31773809D01*
X49792095Y-31630952D01*
X49839714Y-31440476D01*
X49887333Y-31345238D01*
X49982571Y-31250000D01*
X50125428Y-31202380D01*
X50220666Y-31202380D01*
X50363523Y-31250000D01*
X50411142Y-31297619D01*
X50792095Y-31297619D02*
X50839714Y-31250000D01*
X50934952Y-31202380D01*
X51173047Y-31202380D01*
X51268285Y-31250000D01*
X51315904Y-31297619D01*
X51363523Y-31392857D01*
X51363523Y-31488095D01*
X51315904Y-31630952D01*
X50744476Y-32202380D01*
X51363523Y-32202380D01*
X51696857Y-31202380D02*
X52315904Y-31202380D01*
X51982571Y-31583333D01*
X52125428Y-31583333D01*
X52220666Y-31630952D01*
X52268285Y-31678571D01*
X52315904Y-31773809D01*
X52315904Y-32011904D01*
X52268285Y-32107142D01*
X52220666Y-32154761D01*
X52125428Y-32202380D01*
X51839714Y-32202380D01*
X51744476Y-32154761D01*
X51696857Y-32107142D01*
X52443142Y-96877142D02*
X52395523Y-96924761D01*
X52252666Y-96972380D01*
X52157428Y-96972380D01*
X52014571Y-96924761D01*
X51919333Y-96829523D01*
X51871714Y-96734285D01*
X51824095Y-96543809D01*
X51824095Y-96400952D01*
X51871714Y-96210476D01*
X51919333Y-96115238D01*
X52014571Y-96020000D01*
X52157428Y-95972380D01*
X52252666Y-95972380D01*
X52395523Y-96020000D01*
X52443142Y-96067619D01*
X52824095Y-96067619D02*
X52871714Y-96020000D01*
X52966952Y-95972380D01*
X53205047Y-95972380D01*
X53300285Y-96020000D01*
X53347904Y-96067619D01*
X53395523Y-96162857D01*
X53395523Y-96258095D01*
X53347904Y-96400952D01*
X52776476Y-96972380D01*
X53395523Y-96972380D01*
X53776476Y-96067619D02*
X53824095Y-96020000D01*
X53919333Y-95972380D01*
X54157428Y-95972380D01*
X54252666Y-96020000D01*
X54300285Y-96067619D01*
X54347904Y-96162857D01*
X54347904Y-96258095D01*
X54300285Y-96400952D01*
X53728857Y-96972380D01*
X54347904Y-96972380D01*
X44442142Y-65127142D02*
X44394523Y-65174761D01*
X44251666Y-65222380D01*
X44156428Y-65222380D01*
X44013571Y-65174761D01*
X43918333Y-65079523D01*
X43870714Y-64984285D01*
X43823095Y-64793809D01*
X43823095Y-64650952D01*
X43870714Y-64460476D01*
X43918333Y-64365238D01*
X44013571Y-64270000D01*
X44156428Y-64222380D01*
X44251666Y-64222380D01*
X44394523Y-64270000D01*
X44442142Y-64317619D01*
X44823095Y-64317619D02*
X44870714Y-64270000D01*
X44965952Y-64222380D01*
X45204047Y-64222380D01*
X45299285Y-64270000D01*
X45346904Y-64317619D01*
X45394523Y-64412857D01*
X45394523Y-64508095D01*
X45346904Y-64650952D01*
X44775476Y-65222380D01*
X45394523Y-65222380D01*
X46346904Y-65222380D02*
X45775476Y-65222380D01*
X46061190Y-65222380D02*
X46061190Y-64222380D01*
X45965952Y-64365238D01*
X45870714Y-64460476D01*
X45775476Y-64508095D01*
X33647142Y-65127142D02*
X33599523Y-65174761D01*
X33456666Y-65222380D01*
X33361428Y-65222380D01*
X33218571Y-65174761D01*
X33123333Y-65079523D01*
X33075714Y-64984285D01*
X33028095Y-64793809D01*
X33028095Y-64650952D01*
X33075714Y-64460476D01*
X33123333Y-64365238D01*
X33218571Y-64270000D01*
X33361428Y-64222380D01*
X33456666Y-64222380D01*
X33599523Y-64270000D01*
X33647142Y-64317619D01*
X34028095Y-64317619D02*
X34075714Y-64270000D01*
X34170952Y-64222380D01*
X34409047Y-64222380D01*
X34504285Y-64270000D01*
X34551904Y-64317619D01*
X34599523Y-64412857D01*
X34599523Y-64508095D01*
X34551904Y-64650952D01*
X33980476Y-65222380D01*
X34599523Y-65222380D01*
X35218571Y-64222380D02*
X35313809Y-64222380D01*
X35409047Y-64270000D01*
X35456666Y-64317619D01*
X35504285Y-64412857D01*
X35551904Y-64603333D01*
X35551904Y-64841428D01*
X35504285Y-65031904D01*
X35456666Y-65127142D01*
X35409047Y-65174761D01*
X35313809Y-65222380D01*
X35218571Y-65222380D01*
X35123333Y-65174761D01*
X35075714Y-65127142D01*
X35028095Y-65031904D01*
X34980476Y-64841428D01*
X34980476Y-64603333D01*
X35028095Y-64412857D01*
X35075714Y-64317619D01*
X35123333Y-64270000D01*
X35218571Y-64222380D01*
X38092142Y-52427142D02*
X38044523Y-52474761D01*
X37901666Y-52522380D01*
X37806428Y-52522380D01*
X37663571Y-52474761D01*
X37568333Y-52379523D01*
X37520714Y-52284285D01*
X37473095Y-52093809D01*
X37473095Y-51950952D01*
X37520714Y-51760476D01*
X37568333Y-51665238D01*
X37663571Y-51570000D01*
X37806428Y-51522380D01*
X37901666Y-51522380D01*
X38044523Y-51570000D01*
X38092142Y-51617619D01*
X39044523Y-52522380D02*
X38473095Y-52522380D01*
X38758809Y-52522380D02*
X38758809Y-51522380D01*
X38663571Y-51665238D01*
X38568333Y-51760476D01*
X38473095Y-51808095D01*
X39520714Y-52522380D02*
X39711190Y-52522380D01*
X39806428Y-52474761D01*
X39854047Y-52427142D01*
X39949285Y-52284285D01*
X39996904Y-52093809D01*
X39996904Y-51712857D01*
X39949285Y-51617619D01*
X39901666Y-51570000D01*
X39806428Y-51522380D01*
X39615952Y-51522380D01*
X39520714Y-51570000D01*
X39473095Y-51617619D01*
X39425476Y-51712857D01*
X39425476Y-51950952D01*
X39473095Y-52046190D01*
X39520714Y-52093809D01*
X39615952Y-52141428D01*
X39806428Y-52141428D01*
X39901666Y-52093809D01*
X39949285Y-52046190D01*
X39996904Y-51950952D01*
X38092142Y-60809142D02*
X38044523Y-60856761D01*
X37901666Y-60904380D01*
X37806428Y-60904380D01*
X37663571Y-60856761D01*
X37568333Y-60761523D01*
X37520714Y-60666285D01*
X37473095Y-60475809D01*
X37473095Y-60332952D01*
X37520714Y-60142476D01*
X37568333Y-60047238D01*
X37663571Y-59952000D01*
X37806428Y-59904380D01*
X37901666Y-59904380D01*
X38044523Y-59952000D01*
X38092142Y-59999619D01*
X39044523Y-60904380D02*
X38473095Y-60904380D01*
X38758809Y-60904380D02*
X38758809Y-59904380D01*
X38663571Y-60047238D01*
X38568333Y-60142476D01*
X38473095Y-60190095D01*
X39615952Y-60332952D02*
X39520714Y-60285333D01*
X39473095Y-60237714D01*
X39425476Y-60142476D01*
X39425476Y-60094857D01*
X39473095Y-59999619D01*
X39520714Y-59952000D01*
X39615952Y-59904380D01*
X39806428Y-59904380D01*
X39901666Y-59952000D01*
X39949285Y-59999619D01*
X39996904Y-60094857D01*
X39996904Y-60142476D01*
X39949285Y-60237714D01*
X39901666Y-60285333D01*
X39806428Y-60332952D01*
X39615952Y-60332952D01*
X39520714Y-60380571D01*
X39473095Y-60428190D01*
X39425476Y-60523428D01*
X39425476Y-60713904D01*
X39473095Y-60809142D01*
X39520714Y-60856761D01*
X39615952Y-60904380D01*
X39806428Y-60904380D01*
X39901666Y-60856761D01*
X39949285Y-60809142D01*
X39996904Y-60713904D01*
X39996904Y-60523428D01*
X39949285Y-60428190D01*
X39901666Y-60380571D01*
X39806428Y-60332952D01*
X65712142Y-89032142D02*
X65664523Y-89079761D01*
X65521666Y-89127380D01*
X65426428Y-89127380D01*
X65283571Y-89079761D01*
X65188333Y-88984523D01*
X65140714Y-88889285D01*
X65093095Y-88698809D01*
X65093095Y-88555952D01*
X65140714Y-88365476D01*
X65188333Y-88270238D01*
X65283571Y-88175000D01*
X65426428Y-88127380D01*
X65521666Y-88127380D01*
X65664523Y-88175000D01*
X65712142Y-88222619D01*
X66664523Y-89127380D02*
X66093095Y-89127380D01*
X66378809Y-89127380D02*
X66378809Y-88127380D01*
X66283571Y-88270238D01*
X66188333Y-88365476D01*
X66093095Y-88413095D01*
X66997857Y-88127380D02*
X67664523Y-88127380D01*
X67235952Y-89127380D01*
X61267142Y-89032142D02*
X61219523Y-89079761D01*
X61076666Y-89127380D01*
X60981428Y-89127380D01*
X60838571Y-89079761D01*
X60743333Y-88984523D01*
X60695714Y-88889285D01*
X60648095Y-88698809D01*
X60648095Y-88555952D01*
X60695714Y-88365476D01*
X60743333Y-88270238D01*
X60838571Y-88175000D01*
X60981428Y-88127380D01*
X61076666Y-88127380D01*
X61219523Y-88175000D01*
X61267142Y-88222619D01*
X62219523Y-89127380D02*
X61648095Y-89127380D01*
X61933809Y-89127380D02*
X61933809Y-88127380D01*
X61838571Y-88270238D01*
X61743333Y-88365476D01*
X61648095Y-88413095D01*
X63076666Y-88127380D02*
X62886190Y-88127380D01*
X62790952Y-88175000D01*
X62743333Y-88222619D01*
X62648095Y-88365476D01*
X62600476Y-88555952D01*
X62600476Y-88936904D01*
X62648095Y-89032142D01*
X62695714Y-89079761D01*
X62790952Y-89127380D01*
X62981428Y-89127380D01*
X63076666Y-89079761D01*
X63124285Y-89032142D01*
X63171904Y-88936904D01*
X63171904Y-88698809D01*
X63124285Y-88603571D01*
X63076666Y-88555952D01*
X62981428Y-88508333D01*
X62790952Y-88508333D01*
X62695714Y-88555952D01*
X62648095Y-88603571D01*
X62600476Y-88698809D01*
X40312142Y-75697142D02*
X40264523Y-75744761D01*
X40121666Y-75792380D01*
X40026428Y-75792380D01*
X39883571Y-75744761D01*
X39788333Y-75649523D01*
X39740714Y-75554285D01*
X39693095Y-75363809D01*
X39693095Y-75220952D01*
X39740714Y-75030476D01*
X39788333Y-74935238D01*
X39883571Y-74840000D01*
X40026428Y-74792380D01*
X40121666Y-74792380D01*
X40264523Y-74840000D01*
X40312142Y-74887619D01*
X41264523Y-75792380D02*
X40693095Y-75792380D01*
X40978809Y-75792380D02*
X40978809Y-74792380D01*
X40883571Y-74935238D01*
X40788333Y-75030476D01*
X40693095Y-75078095D01*
X42169285Y-74792380D02*
X41693095Y-74792380D01*
X41645476Y-75268571D01*
X41693095Y-75220952D01*
X41788333Y-75173333D01*
X42026428Y-75173333D01*
X42121666Y-75220952D01*
X42169285Y-75268571D01*
X42216904Y-75363809D01*
X42216904Y-75601904D01*
X42169285Y-75697142D01*
X42121666Y-75744761D01*
X42026428Y-75792380D01*
X41788333Y-75792380D01*
X41693095Y-75744761D01*
X41645476Y-75697142D01*
X35872142Y-75697142D02*
X35824523Y-75744761D01*
X35681666Y-75792380D01*
X35586428Y-75792380D01*
X35443571Y-75744761D01*
X35348333Y-75649523D01*
X35300714Y-75554285D01*
X35253095Y-75363809D01*
X35253095Y-75220952D01*
X35300714Y-75030476D01*
X35348333Y-74935238D01*
X35443571Y-74840000D01*
X35586428Y-74792380D01*
X35681666Y-74792380D01*
X35824523Y-74840000D01*
X35872142Y-74887619D01*
X36824523Y-75792380D02*
X36253095Y-75792380D01*
X36538809Y-75792380D02*
X36538809Y-74792380D01*
X36443571Y-74935238D01*
X36348333Y-75030476D01*
X36253095Y-75078095D01*
X37681666Y-75125714D02*
X37681666Y-75792380D01*
X37443571Y-74744761D02*
X37205476Y-75459047D01*
X37824523Y-75459047D01*
X40312142Y-86873142D02*
X40264523Y-86920761D01*
X40121666Y-86968380D01*
X40026428Y-86968380D01*
X39883571Y-86920761D01*
X39788333Y-86825523D01*
X39740714Y-86730285D01*
X39693095Y-86539809D01*
X39693095Y-86396952D01*
X39740714Y-86206476D01*
X39788333Y-86111238D01*
X39883571Y-86016000D01*
X40026428Y-85968380D01*
X40121666Y-85968380D01*
X40264523Y-86016000D01*
X40312142Y-86063619D01*
X41264523Y-86968380D02*
X40693095Y-86968380D01*
X40978809Y-86968380D02*
X40978809Y-85968380D01*
X40883571Y-86111238D01*
X40788333Y-86206476D01*
X40693095Y-86254095D01*
X41597857Y-85968380D02*
X42216904Y-85968380D01*
X41883571Y-86349333D01*
X42026428Y-86349333D01*
X42121666Y-86396952D01*
X42169285Y-86444571D01*
X42216904Y-86539809D01*
X42216904Y-86777904D01*
X42169285Y-86873142D01*
X42121666Y-86920761D01*
X42026428Y-86968380D01*
X41740714Y-86968380D01*
X41645476Y-86920761D01*
X41597857Y-86873142D01*
X35872142Y-86873142D02*
X35824523Y-86920761D01*
X35681666Y-86968380D01*
X35586428Y-86968380D01*
X35443571Y-86920761D01*
X35348333Y-86825523D01*
X35300714Y-86730285D01*
X35253095Y-86539809D01*
X35253095Y-86396952D01*
X35300714Y-86206476D01*
X35348333Y-86111238D01*
X35443571Y-86016000D01*
X35586428Y-85968380D01*
X35681666Y-85968380D01*
X35824523Y-86016000D01*
X35872142Y-86063619D01*
X36824523Y-86968380D02*
X36253095Y-86968380D01*
X36538809Y-86968380D02*
X36538809Y-85968380D01*
X36443571Y-86111238D01*
X36348333Y-86206476D01*
X36253095Y-86254095D01*
X37205476Y-86063619D02*
X37253095Y-86016000D01*
X37348333Y-85968380D01*
X37586428Y-85968380D01*
X37681666Y-86016000D01*
X37729285Y-86063619D01*
X37776904Y-86158857D01*
X37776904Y-86254095D01*
X37729285Y-86396952D01*
X37157857Y-86968380D01*
X37776904Y-86968380D01*
X34917142Y-52427142D02*
X34869523Y-52474761D01*
X34726666Y-52522380D01*
X34631428Y-52522380D01*
X34488571Y-52474761D01*
X34393333Y-52379523D01*
X34345714Y-52284285D01*
X34298095Y-52093809D01*
X34298095Y-51950952D01*
X34345714Y-51760476D01*
X34393333Y-51665238D01*
X34488571Y-51570000D01*
X34631428Y-51522380D01*
X34726666Y-51522380D01*
X34869523Y-51570000D01*
X34917142Y-51617619D01*
X35869523Y-52522380D02*
X35298095Y-52522380D01*
X35583809Y-52522380D02*
X35583809Y-51522380D01*
X35488571Y-51665238D01*
X35393333Y-51760476D01*
X35298095Y-51808095D01*
X36821904Y-52522380D02*
X36250476Y-52522380D01*
X36536190Y-52522380D02*
X36536190Y-51522380D01*
X36440952Y-51665238D01*
X36345714Y-51760476D01*
X36250476Y-51808095D01*
X34917142Y-60809142D02*
X34869523Y-60856761D01*
X34726666Y-60904380D01*
X34631428Y-60904380D01*
X34488571Y-60856761D01*
X34393333Y-60761523D01*
X34345714Y-60666285D01*
X34298095Y-60475809D01*
X34298095Y-60332952D01*
X34345714Y-60142476D01*
X34393333Y-60047238D01*
X34488571Y-59952000D01*
X34631428Y-59904380D01*
X34726666Y-59904380D01*
X34869523Y-59952000D01*
X34917142Y-59999619D01*
X35869523Y-60904380D02*
X35298095Y-60904380D01*
X35583809Y-60904380D02*
X35583809Y-59904380D01*
X35488571Y-60047238D01*
X35393333Y-60142476D01*
X35298095Y-60190095D01*
X36488571Y-59904380D02*
X36583809Y-59904380D01*
X36679047Y-59952000D01*
X36726666Y-59999619D01*
X36774285Y-60094857D01*
X36821904Y-60285333D01*
X36821904Y-60523428D01*
X36774285Y-60713904D01*
X36726666Y-60809142D01*
X36679047Y-60856761D01*
X36583809Y-60904380D01*
X36488571Y-60904380D01*
X36393333Y-60856761D01*
X36345714Y-60809142D01*
X36298095Y-60713904D01*
X36250476Y-60523428D01*
X36250476Y-60285333D01*
X36298095Y-60094857D01*
X36345714Y-59999619D01*
X36393333Y-59952000D01*
X36488571Y-59904380D01*
X36028333Y-45442142D02*
X35980714Y-45489761D01*
X35837857Y-45537380D01*
X35742619Y-45537380D01*
X35599761Y-45489761D01*
X35504523Y-45394523D01*
X35456904Y-45299285D01*
X35409285Y-45108809D01*
X35409285Y-44965952D01*
X35456904Y-44775476D01*
X35504523Y-44680238D01*
X35599761Y-44585000D01*
X35742619Y-44537380D01*
X35837857Y-44537380D01*
X35980714Y-44585000D01*
X36028333Y-44632619D01*
X36504523Y-45537380D02*
X36695000Y-45537380D01*
X36790238Y-45489761D01*
X36837857Y-45442142D01*
X36933095Y-45299285D01*
X36980714Y-45108809D01*
X36980714Y-44727857D01*
X36933095Y-44632619D01*
X36885476Y-44585000D01*
X36790238Y-44537380D01*
X36599761Y-44537380D01*
X36504523Y-44585000D01*
X36456904Y-44632619D01*
X36409285Y-44727857D01*
X36409285Y-44965952D01*
X36456904Y-45061190D01*
X36504523Y-45108809D01*
X36599761Y-45156428D01*
X36790238Y-45156428D01*
X36885476Y-45108809D01*
X36933095Y-45061190D01*
X36980714Y-44965952D01*
X36028333Y-37822142D02*
X35980714Y-37869761D01*
X35837857Y-37917380D01*
X35742619Y-37917380D01*
X35599761Y-37869761D01*
X35504523Y-37774523D01*
X35456904Y-37679285D01*
X35409285Y-37488809D01*
X35409285Y-37345952D01*
X35456904Y-37155476D01*
X35504523Y-37060238D01*
X35599761Y-36965000D01*
X35742619Y-36917380D01*
X35837857Y-36917380D01*
X35980714Y-36965000D01*
X36028333Y-37012619D01*
X36599761Y-37345952D02*
X36504523Y-37298333D01*
X36456904Y-37250714D01*
X36409285Y-37155476D01*
X36409285Y-37107857D01*
X36456904Y-37012619D01*
X36504523Y-36965000D01*
X36599761Y-36917380D01*
X36790238Y-36917380D01*
X36885476Y-36965000D01*
X36933095Y-37012619D01*
X36980714Y-37107857D01*
X36980714Y-37155476D01*
X36933095Y-37250714D01*
X36885476Y-37298333D01*
X36790238Y-37345952D01*
X36599761Y-37345952D01*
X36504523Y-37393571D01*
X36456904Y-37441190D01*
X36409285Y-37536428D01*
X36409285Y-37726904D01*
X36456904Y-37822142D01*
X36504523Y-37869761D01*
X36599761Y-37917380D01*
X36790238Y-37917380D01*
X36885476Y-37869761D01*
X36933095Y-37822142D01*
X36980714Y-37726904D01*
X36980714Y-37536428D01*
X36933095Y-37441190D01*
X36885476Y-37393571D01*
X36790238Y-37345952D01*
X66767333Y-32107142D02*
X66719714Y-32154761D01*
X66576857Y-32202380D01*
X66481619Y-32202380D01*
X66338761Y-32154761D01*
X66243523Y-32059523D01*
X66195904Y-31964285D01*
X66148285Y-31773809D01*
X66148285Y-31630952D01*
X66195904Y-31440476D01*
X66243523Y-31345238D01*
X66338761Y-31250000D01*
X66481619Y-31202380D01*
X66576857Y-31202380D01*
X66719714Y-31250000D01*
X66767333Y-31297619D01*
X67100666Y-31202380D02*
X67767333Y-31202380D01*
X67338761Y-32202380D01*
X57999333Y-44807142D02*
X57951714Y-44854761D01*
X57808857Y-44902380D01*
X57713619Y-44902380D01*
X57570761Y-44854761D01*
X57475523Y-44759523D01*
X57427904Y-44664285D01*
X57380285Y-44473809D01*
X57380285Y-44330952D01*
X57427904Y-44140476D01*
X57475523Y-44045238D01*
X57570761Y-43950000D01*
X57713619Y-43902380D01*
X57808857Y-43902380D01*
X57951714Y-43950000D01*
X57999333Y-43997619D01*
X58856476Y-43902380D02*
X58666000Y-43902380D01*
X58570761Y-43950000D01*
X58523142Y-43997619D01*
X58427904Y-44140476D01*
X58380285Y-44330952D01*
X58380285Y-44711904D01*
X58427904Y-44807142D01*
X58475523Y-44854761D01*
X58570761Y-44902380D01*
X58761238Y-44902380D01*
X58856476Y-44854761D01*
X58904095Y-44807142D01*
X58951714Y-44711904D01*
X58951714Y-44473809D01*
X58904095Y-44378571D01*
X58856476Y-44330952D01*
X58761238Y-44283333D01*
X58570761Y-44283333D01*
X58475523Y-44330952D01*
X58427904Y-44378571D01*
X58380285Y-44473809D01*
X74001333Y-96877142D02*
X73953714Y-96924761D01*
X73810857Y-96972380D01*
X73715619Y-96972380D01*
X73572761Y-96924761D01*
X73477523Y-96829523D01*
X73429904Y-96734285D01*
X73382285Y-96543809D01*
X73382285Y-96400952D01*
X73429904Y-96210476D01*
X73477523Y-96115238D01*
X73572761Y-96020000D01*
X73715619Y-95972380D01*
X73810857Y-95972380D01*
X73953714Y-96020000D01*
X74001333Y-96067619D01*
X74906095Y-95972380D02*
X74429904Y-95972380D01*
X74382285Y-96448571D01*
X74429904Y-96400952D01*
X74525142Y-96353333D01*
X74763238Y-96353333D01*
X74858476Y-96400952D01*
X74906095Y-96448571D01*
X74953714Y-96543809D01*
X74953714Y-96781904D01*
X74906095Y-96877142D01*
X74858476Y-96924761D01*
X74763238Y-96972380D01*
X74525142Y-96972380D01*
X74429904Y-96924761D01*
X74382285Y-96877142D01*
X53173333Y-87352142D02*
X53125714Y-87399761D01*
X52982857Y-87447380D01*
X52887619Y-87447380D01*
X52744761Y-87399761D01*
X52649523Y-87304523D01*
X52601904Y-87209285D01*
X52554285Y-87018809D01*
X52554285Y-86875952D01*
X52601904Y-86685476D01*
X52649523Y-86590238D01*
X52744761Y-86495000D01*
X52887619Y-86447380D01*
X52982857Y-86447380D01*
X53125714Y-86495000D01*
X53173333Y-86542619D01*
X54030476Y-86780714D02*
X54030476Y-87447380D01*
X53792380Y-86399761D02*
X53554285Y-87114047D01*
X54173333Y-87114047D01*
X53427333Y-66397142D02*
X53379714Y-66444761D01*
X53236857Y-66492380D01*
X53141619Y-66492380D01*
X52998761Y-66444761D01*
X52903523Y-66349523D01*
X52855904Y-66254285D01*
X52808285Y-66063809D01*
X52808285Y-65920952D01*
X52855904Y-65730476D01*
X52903523Y-65635238D01*
X52998761Y-65540000D01*
X53141619Y-65492380D01*
X53236857Y-65492380D01*
X53379714Y-65540000D01*
X53427333Y-65587619D01*
X53760666Y-65492380D02*
X54379714Y-65492380D01*
X54046380Y-65873333D01*
X54189238Y-65873333D01*
X54284476Y-65920952D01*
X54332095Y-65968571D01*
X54379714Y-66063809D01*
X54379714Y-66301904D01*
X54332095Y-66397142D01*
X54284476Y-66444761D01*
X54189238Y-66492380D01*
X53903523Y-66492380D01*
X53808285Y-66444761D01*
X53760666Y-66397142D01*
X74001333Y-81002142D02*
X73953714Y-81049761D01*
X73810857Y-81097380D01*
X73715619Y-81097380D01*
X73572761Y-81049761D01*
X73477523Y-80954523D01*
X73429904Y-80859285D01*
X73382285Y-80668809D01*
X73382285Y-80525952D01*
X73429904Y-80335476D01*
X73477523Y-80240238D01*
X73572761Y-80145000D01*
X73715619Y-80097380D01*
X73810857Y-80097380D01*
X73953714Y-80145000D01*
X74001333Y-80192619D01*
X74382285Y-80192619D02*
X74429904Y-80145000D01*
X74525142Y-80097380D01*
X74763238Y-80097380D01*
X74858476Y-80145000D01*
X74906095Y-80192619D01*
X74953714Y-80287857D01*
X74953714Y-80383095D01*
X74906095Y-80525952D01*
X74334666Y-81097380D01*
X74953714Y-81097380D01*
X74001333Y-68302142D02*
X73953714Y-68349761D01*
X73810857Y-68397380D01*
X73715619Y-68397380D01*
X73572761Y-68349761D01*
X73477523Y-68254523D01*
X73429904Y-68159285D01*
X73382285Y-67968809D01*
X73382285Y-67825952D01*
X73429904Y-67635476D01*
X73477523Y-67540238D01*
X73572761Y-67445000D01*
X73715619Y-67397380D01*
X73810857Y-67397380D01*
X73953714Y-67445000D01*
X74001333Y-67492619D01*
X74953714Y-68397380D02*
X74382285Y-68397380D01*
X74668000Y-68397380D02*
X74668000Y-67397380D01*
X74572761Y-67540238D01*
X74477523Y-67635476D01*
X74382285Y-67683095D01*
%LPC*%
D13*
X59650000Y-39100000D03*
X59650000Y-38700000D03*
X59650000Y-38300000D03*
X59650000Y-37900000D03*
X59650000Y-37500000D03*
X59650000Y-37100000D03*
D14*
X58150000Y-35600000D03*
X57750000Y-35600000D03*
X56150000Y-35600000D03*
X57350000Y-35600000D03*
X56550000Y-35600000D03*
X56950000Y-35600000D03*
D13*
X54650000Y-37100000D03*
X54650000Y-38700000D03*
X54650000Y-37500000D03*
X54650000Y-39100000D03*
X54650000Y-37900000D03*
X54650000Y-38300000D03*
D14*
X56950000Y-40600000D03*
X57350000Y-40600000D03*
X58150000Y-40600000D03*
X56150000Y-40600000D03*
X56550000Y-40600000D03*
X57750000Y-40600000D03*
D13*
X59650000Y-39500000D03*
X59650000Y-36700000D03*
D14*
X58550000Y-35600000D03*
X55750000Y-35600000D03*
D13*
X54650000Y-36700000D03*
X54650000Y-39500000D03*
D14*
X55750000Y-40600000D03*
X58550000Y-40600000D03*
D15*
X42545000Y-67183000D03*
X40545000Y-68133000D03*
X40545000Y-66233000D03*
X31750000Y-67310000D03*
X29750000Y-68260000D03*
X29750000Y-66360000D03*
D11*
G36*
X28815000Y-52473500D02*
G01*
X31940000Y-52473500D01*
X31940000Y-52890000D01*
X33415000Y-52890000D01*
X33415000Y-53790000D01*
X31940000Y-53790000D01*
X31940000Y-54206500D01*
X28815000Y-54206500D01*
X28815000Y-52473500D01*
G37*
D16*
X32765000Y-51840000D03*
X32765000Y-54840000D03*
D11*
G36*
X28815000Y-57783500D02*
G01*
X31940000Y-57783500D01*
X31940000Y-58200000D01*
X33415000Y-58200000D01*
X33415000Y-59100000D01*
X31940000Y-59100000D01*
X31940000Y-59516500D01*
X28815000Y-59516500D01*
X28815000Y-57783500D01*
G37*
D16*
X32765000Y-57150000D03*
X32765000Y-60150000D03*
G36*
G01*
X62635000Y-69065000D02*
X62635000Y-69365000D01*
G75*
G02*
X62485000Y-69515000I-150000J0D01*
G01*
X60835000Y-69515000D01*
G75*
G02*
X60685000Y-69365000I0J150000D01*
G01*
X60685000Y-69065000D01*
G75*
G02*
X60835000Y-68915000I150000J0D01*
G01*
X62485000Y-68915000D01*
G75*
G02*
X62635000Y-69065000I0J-150000D01*
G01*
G37*
G36*
G01*
X62635000Y-67795000D02*
X62635000Y-68095000D01*
G75*
G02*
X62485000Y-68245000I-150000J0D01*
G01*
X60835000Y-68245000D01*
G75*
G02*
X60685000Y-68095000I0J150000D01*
G01*
X60685000Y-67795000D01*
G75*
G02*
X60835000Y-67645000I150000J0D01*
G01*
X62485000Y-67645000D01*
G75*
G02*
X62635000Y-67795000I0J-150000D01*
G01*
G37*
G36*
G01*
X62635000Y-66525000D02*
X62635000Y-66825000D01*
G75*
G02*
X62485000Y-66975000I-150000J0D01*
G01*
X60835000Y-66975000D01*
G75*
G02*
X60685000Y-66825000I0J150000D01*
G01*
X60685000Y-66525000D01*
G75*
G02*
X60835000Y-66375000I150000J0D01*
G01*
X62485000Y-66375000D01*
G75*
G02*
X62635000Y-66525000I0J-150000D01*
G01*
G37*
G36*
G01*
X62635000Y-65255000D02*
X62635000Y-65555000D01*
G75*
G02*
X62485000Y-65705000I-150000J0D01*
G01*
X60835000Y-65705000D01*
G75*
G02*
X60685000Y-65555000I0J150000D01*
G01*
X60685000Y-65255000D01*
G75*
G02*
X60835000Y-65105000I150000J0D01*
G01*
X62485000Y-65105000D01*
G75*
G02*
X62635000Y-65255000I0J-150000D01*
G01*
G37*
G36*
G01*
X67585000Y-65255000D02*
X67585000Y-65555000D01*
G75*
G02*
X67435000Y-65705000I-150000J0D01*
G01*
X65785000Y-65705000D01*
G75*
G02*
X65635000Y-65555000I0J150000D01*
G01*
X65635000Y-65255000D01*
G75*
G02*
X65785000Y-65105000I150000J0D01*
G01*
X67435000Y-65105000D01*
G75*
G02*
X67585000Y-65255000I0J-150000D01*
G01*
G37*
G36*
G01*
X67585000Y-66525000D02*
X67585000Y-66825000D01*
G75*
G02*
X67435000Y-66975000I-150000J0D01*
G01*
X65785000Y-66975000D01*
G75*
G02*
X65635000Y-66825000I0J150000D01*
G01*
X65635000Y-66525000D01*
G75*
G02*
X65785000Y-66375000I150000J0D01*
G01*
X67435000Y-66375000D01*
G75*
G02*
X67585000Y-66525000I0J-150000D01*
G01*
G37*
G36*
G01*
X67585000Y-67795000D02*
X67585000Y-68095000D01*
G75*
G02*
X67435000Y-68245000I-150000J0D01*
G01*
X65785000Y-68245000D01*
G75*
G02*
X65635000Y-68095000I0J150000D01*
G01*
X65635000Y-67795000D01*
G75*
G02*
X65785000Y-67645000I150000J0D01*
G01*
X67435000Y-67645000D01*
G75*
G02*
X67585000Y-67795000I0J-150000D01*
G01*
G37*
G36*
G01*
X67585000Y-69065000D02*
X67585000Y-69365000D01*
G75*
G02*
X67435000Y-69515000I-150000J0D01*
G01*
X65785000Y-69515000D01*
G75*
G02*
X65635000Y-69365000I0J150000D01*
G01*
X65635000Y-69065000D01*
G75*
G02*
X65785000Y-68915000I150000J0D01*
G01*
X67435000Y-68915000D01*
G75*
G02*
X67585000Y-69065000I0J-150000D01*
G01*
G37*
G36*
G01*
X62635000Y-94465000D02*
X62635000Y-94765000D01*
G75*
G02*
X62485000Y-94915000I-150000J0D01*
G01*
X60835000Y-94915000D01*
G75*
G02*
X60685000Y-94765000I0J150000D01*
G01*
X60685000Y-94465000D01*
G75*
G02*
X60835000Y-94315000I150000J0D01*
G01*
X62485000Y-94315000D01*
G75*
G02*
X62635000Y-94465000I0J-150000D01*
G01*
G37*
G36*
G01*
X62635000Y-93195000D02*
X62635000Y-93495000D01*
G75*
G02*
X62485000Y-93645000I-150000J0D01*
G01*
X60835000Y-93645000D01*
G75*
G02*
X60685000Y-93495000I0J150000D01*
G01*
X60685000Y-93195000D01*
G75*
G02*
X60835000Y-93045000I150000J0D01*
G01*
X62485000Y-93045000D01*
G75*
G02*
X62635000Y-93195000I0J-150000D01*
G01*
G37*
G36*
G01*
X62635000Y-91925000D02*
X62635000Y-92225000D01*
G75*
G02*
X62485000Y-92375000I-150000J0D01*
G01*
X60835000Y-92375000D01*
G75*
G02*
X60685000Y-92225000I0J150000D01*
G01*
X60685000Y-91925000D01*
G75*
G02*
X60835000Y-91775000I150000J0D01*
G01*
X62485000Y-91775000D01*
G75*
G02*
X62635000Y-91925000I0J-150000D01*
G01*
G37*
G36*
G01*
X62635000Y-90655000D02*
X62635000Y-90955000D01*
G75*
G02*
X62485000Y-91105000I-150000J0D01*
G01*
X60835000Y-91105000D01*
G75*
G02*
X60685000Y-90955000I0J150000D01*
G01*
X60685000Y-90655000D01*
G75*
G02*
X60835000Y-90505000I150000J0D01*
G01*
X62485000Y-90505000D01*
G75*
G02*
X62635000Y-90655000I0J-150000D01*
G01*
G37*
G36*
G01*
X67585000Y-90655000D02*
X67585000Y-90955000D01*
G75*
G02*
X67435000Y-91105000I-150000J0D01*
G01*
X65785000Y-91105000D01*
G75*
G02*
X65635000Y-90955000I0J150000D01*
G01*
X65635000Y-90655000D01*
G75*
G02*
X65785000Y-90505000I150000J0D01*
G01*
X67435000Y-90505000D01*
G75*
G02*
X67585000Y-90655000I0J-150000D01*
G01*
G37*
G36*
G01*
X67585000Y-91925000D02*
X67585000Y-92225000D01*
G75*
G02*
X67435000Y-92375000I-150000J0D01*
G01*
X65785000Y-92375000D01*
G75*
G02*
X65635000Y-92225000I0J150000D01*
G01*
X65635000Y-91925000D01*
G75*
G02*
X65785000Y-91775000I150000J0D01*
G01*
X67435000Y-91775000D01*
G75*
G02*
X67585000Y-91925000I0J-150000D01*
G01*
G37*
G36*
G01*
X67585000Y-93195000D02*
X67585000Y-93495000D01*
G75*
G02*
X67435000Y-93645000I-150000J0D01*
G01*
X65785000Y-93645000D01*
G75*
G02*
X65635000Y-93495000I0J150000D01*
G01*
X65635000Y-93195000D01*
G75*
G02*
X65785000Y-93045000I150000J0D01*
G01*
X67435000Y-93045000D01*
G75*
G02*
X67585000Y-93195000I0J-150000D01*
G01*
G37*
G36*
G01*
X67585000Y-94465000D02*
X67585000Y-94765000D01*
G75*
G02*
X67435000Y-94915000I-150000J0D01*
G01*
X65785000Y-94915000D01*
G75*
G02*
X65635000Y-94765000I0J150000D01*
G01*
X65635000Y-94465000D01*
G75*
G02*
X65785000Y-94315000I150000J0D01*
G01*
X67435000Y-94315000D01*
G75*
G02*
X67585000Y-94465000I0J-150000D01*
G01*
G37*
G36*
G01*
X62635000Y-80495000D02*
X62635000Y-80795000D01*
G75*
G02*
X62485000Y-80945000I-150000J0D01*
G01*
X60835000Y-80945000D01*
G75*
G02*
X60685000Y-80795000I0J150000D01*
G01*
X60685000Y-80495000D01*
G75*
G02*
X60835000Y-80345000I150000J0D01*
G01*
X62485000Y-80345000D01*
G75*
G02*
X62635000Y-80495000I0J-150000D01*
G01*
G37*
G36*
G01*
X62635000Y-79225000D02*
X62635000Y-79525000D01*
G75*
G02*
X62485000Y-79675000I-150000J0D01*
G01*
X60835000Y-79675000D01*
G75*
G02*
X60685000Y-79525000I0J150000D01*
G01*
X60685000Y-79225000D01*
G75*
G02*
X60835000Y-79075000I150000J0D01*
G01*
X62485000Y-79075000D01*
G75*
G02*
X62635000Y-79225000I0J-150000D01*
G01*
G37*
G36*
G01*
X62635000Y-77955000D02*
X62635000Y-78255000D01*
G75*
G02*
X62485000Y-78405000I-150000J0D01*
G01*
X60835000Y-78405000D01*
G75*
G02*
X60685000Y-78255000I0J150000D01*
G01*
X60685000Y-77955000D01*
G75*
G02*
X60835000Y-77805000I150000J0D01*
G01*
X62485000Y-77805000D01*
G75*
G02*
X62635000Y-77955000I0J-150000D01*
G01*
G37*
G36*
G01*
X62635000Y-76685000D02*
X62635000Y-76985000D01*
G75*
G02*
X62485000Y-77135000I-150000J0D01*
G01*
X60835000Y-77135000D01*
G75*
G02*
X60685000Y-76985000I0J150000D01*
G01*
X60685000Y-76685000D01*
G75*
G02*
X60835000Y-76535000I150000J0D01*
G01*
X62485000Y-76535000D01*
G75*
G02*
X62635000Y-76685000I0J-150000D01*
G01*
G37*
G36*
G01*
X67585000Y-76685000D02*
X67585000Y-76985000D01*
G75*
G02*
X67435000Y-77135000I-150000J0D01*
G01*
X65785000Y-77135000D01*
G75*
G02*
X65635000Y-76985000I0J150000D01*
G01*
X65635000Y-76685000D01*
G75*
G02*
X65785000Y-76535000I150000J0D01*
G01*
X67435000Y-76535000D01*
G75*
G02*
X67585000Y-76685000I0J-150000D01*
G01*
G37*
G36*
G01*
X67585000Y-77955000D02*
X67585000Y-78255000D01*
G75*
G02*
X67435000Y-78405000I-150000J0D01*
G01*
X65785000Y-78405000D01*
G75*
G02*
X65635000Y-78255000I0J150000D01*
G01*
X65635000Y-77955000D01*
G75*
G02*
X65785000Y-77805000I150000J0D01*
G01*
X67435000Y-77805000D01*
G75*
G02*
X67585000Y-77955000I0J-150000D01*
G01*
G37*
G36*
G01*
X67585000Y-79225000D02*
X67585000Y-79525000D01*
G75*
G02*
X67435000Y-79675000I-150000J0D01*
G01*
X65785000Y-79675000D01*
G75*
G02*
X65635000Y-79525000I0J150000D01*
G01*
X65635000Y-79225000D01*
G75*
G02*
X65785000Y-79075000I150000J0D01*
G01*
X67435000Y-79075000D01*
G75*
G02*
X67585000Y-79225000I0J-150000D01*
G01*
G37*
G36*
G01*
X67585000Y-80495000D02*
X67585000Y-80795000D01*
G75*
G02*
X67435000Y-80945000I-150000J0D01*
G01*
X65785000Y-80945000D01*
G75*
G02*
X65635000Y-80795000I0J150000D01*
G01*
X65635000Y-80495000D01*
G75*
G02*
X65785000Y-80345000I150000J0D01*
G01*
X67435000Y-80345000D01*
G75*
G02*
X67585000Y-80495000I0J-150000D01*
G01*
G37*
G36*
G01*
X37007000Y-91910000D02*
X37007000Y-92210000D01*
G75*
G02*
X36857000Y-92360000I-150000J0D01*
G01*
X35207000Y-92360000D01*
G75*
G02*
X35057000Y-92210000I0J150000D01*
G01*
X35057000Y-91910000D01*
G75*
G02*
X35207000Y-91760000I150000J0D01*
G01*
X36857000Y-91760000D01*
G75*
G02*
X37007000Y-91910000I0J-150000D01*
G01*
G37*
G36*
G01*
X37007000Y-90640000D02*
X37007000Y-90940000D01*
G75*
G02*
X36857000Y-91090000I-150000J0D01*
G01*
X35207000Y-91090000D01*
G75*
G02*
X35057000Y-90940000I0J150000D01*
G01*
X35057000Y-90640000D01*
G75*
G02*
X35207000Y-90490000I150000J0D01*
G01*
X36857000Y-90490000D01*
G75*
G02*
X37007000Y-90640000I0J-150000D01*
G01*
G37*
G36*
G01*
X37007000Y-89370000D02*
X37007000Y-89670000D01*
G75*
G02*
X36857000Y-89820000I-150000J0D01*
G01*
X35207000Y-89820000D01*
G75*
G02*
X35057000Y-89670000I0J150000D01*
G01*
X35057000Y-89370000D01*
G75*
G02*
X35207000Y-89220000I150000J0D01*
G01*
X36857000Y-89220000D01*
G75*
G02*
X37007000Y-89370000I0J-150000D01*
G01*
G37*
G36*
G01*
X37007000Y-88100000D02*
X37007000Y-88400000D01*
G75*
G02*
X36857000Y-88550000I-150000J0D01*
G01*
X35207000Y-88550000D01*
G75*
G02*
X35057000Y-88400000I0J150000D01*
G01*
X35057000Y-88100000D01*
G75*
G02*
X35207000Y-87950000I150000J0D01*
G01*
X36857000Y-87950000D01*
G75*
G02*
X37007000Y-88100000I0J-150000D01*
G01*
G37*
G36*
G01*
X41957000Y-88100000D02*
X41957000Y-88400000D01*
G75*
G02*
X41807000Y-88550000I-150000J0D01*
G01*
X40157000Y-88550000D01*
G75*
G02*
X40007000Y-88400000I0J150000D01*
G01*
X40007000Y-88100000D01*
G75*
G02*
X40157000Y-87950000I150000J0D01*
G01*
X41807000Y-87950000D01*
G75*
G02*
X41957000Y-88100000I0J-150000D01*
G01*
G37*
G36*
G01*
X41957000Y-89370000D02*
X41957000Y-89670000D01*
G75*
G02*
X41807000Y-89820000I-150000J0D01*
G01*
X40157000Y-89820000D01*
G75*
G02*
X40007000Y-89670000I0J150000D01*
G01*
X40007000Y-89370000D01*
G75*
G02*
X40157000Y-89220000I150000J0D01*
G01*
X41807000Y-89220000D01*
G75*
G02*
X41957000Y-89370000I0J-150000D01*
G01*
G37*
G36*
G01*
X41957000Y-90640000D02*
X41957000Y-90940000D01*
G75*
G02*
X41807000Y-91090000I-150000J0D01*
G01*
X40157000Y-91090000D01*
G75*
G02*
X40007000Y-90940000I0J150000D01*
G01*
X40007000Y-90640000D01*
G75*
G02*
X40157000Y-90490000I150000J0D01*
G01*
X41807000Y-90490000D01*
G75*
G02*
X41957000Y-90640000I0J-150000D01*
G01*
G37*
G36*
G01*
X41957000Y-91910000D02*
X41957000Y-92210000D01*
G75*
G02*
X41807000Y-92360000I-150000J0D01*
G01*
X40157000Y-92360000D01*
G75*
G02*
X40007000Y-92210000I0J150000D01*
G01*
X40007000Y-91910000D01*
G75*
G02*
X40157000Y-91760000I150000J0D01*
G01*
X41807000Y-91760000D01*
G75*
G02*
X41957000Y-91910000I0J-150000D01*
G01*
G37*
G36*
G01*
X37007000Y-81130000D02*
X37007000Y-81430000D01*
G75*
G02*
X36857000Y-81580000I-150000J0D01*
G01*
X35207000Y-81580000D01*
G75*
G02*
X35057000Y-81430000I0J150000D01*
G01*
X35057000Y-81130000D01*
G75*
G02*
X35207000Y-80980000I150000J0D01*
G01*
X36857000Y-80980000D01*
G75*
G02*
X37007000Y-81130000I0J-150000D01*
G01*
G37*
G36*
G01*
X37007000Y-79860000D02*
X37007000Y-80160000D01*
G75*
G02*
X36857000Y-80310000I-150000J0D01*
G01*
X35207000Y-80310000D01*
G75*
G02*
X35057000Y-80160000I0J150000D01*
G01*
X35057000Y-79860000D01*
G75*
G02*
X35207000Y-79710000I150000J0D01*
G01*
X36857000Y-79710000D01*
G75*
G02*
X37007000Y-79860000I0J-150000D01*
G01*
G37*
G36*
G01*
X37007000Y-78590000D02*
X37007000Y-78890000D01*
G75*
G02*
X36857000Y-79040000I-150000J0D01*
G01*
X35207000Y-79040000D01*
G75*
G02*
X35057000Y-78890000I0J150000D01*
G01*
X35057000Y-78590000D01*
G75*
G02*
X35207000Y-78440000I150000J0D01*
G01*
X36857000Y-78440000D01*
G75*
G02*
X37007000Y-78590000I0J-150000D01*
G01*
G37*
G36*
G01*
X37007000Y-77320000D02*
X37007000Y-77620000D01*
G75*
G02*
X36857000Y-77770000I-150000J0D01*
G01*
X35207000Y-77770000D01*
G75*
G02*
X35057000Y-77620000I0J150000D01*
G01*
X35057000Y-77320000D01*
G75*
G02*
X35207000Y-77170000I150000J0D01*
G01*
X36857000Y-77170000D01*
G75*
G02*
X37007000Y-77320000I0J-150000D01*
G01*
G37*
G36*
G01*
X41957000Y-77320000D02*
X41957000Y-77620000D01*
G75*
G02*
X41807000Y-77770000I-150000J0D01*
G01*
X40157000Y-77770000D01*
G75*
G02*
X40007000Y-77620000I0J150000D01*
G01*
X40007000Y-77320000D01*
G75*
G02*
X40157000Y-77170000I150000J0D01*
G01*
X41807000Y-77170000D01*
G75*
G02*
X41957000Y-77320000I0J-150000D01*
G01*
G37*
G36*
G01*
X41957000Y-78590000D02*
X41957000Y-78890000D01*
G75*
G02*
X41807000Y-79040000I-150000J0D01*
G01*
X40157000Y-79040000D01*
G75*
G02*
X40007000Y-78890000I0J150000D01*
G01*
X40007000Y-78590000D01*
G75*
G02*
X40157000Y-78440000I150000J0D01*
G01*
X41807000Y-78440000D01*
G75*
G02*
X41957000Y-78590000I0J-150000D01*
G01*
G37*
G36*
G01*
X41957000Y-79860000D02*
X41957000Y-80160000D01*
G75*
G02*
X41807000Y-80310000I-150000J0D01*
G01*
X40157000Y-80310000D01*
G75*
G02*
X40007000Y-80160000I0J150000D01*
G01*
X40007000Y-79860000D01*
G75*
G02*
X40157000Y-79710000I150000J0D01*
G01*
X41807000Y-79710000D01*
G75*
G02*
X41957000Y-79860000I0J-150000D01*
G01*
G37*
G36*
G01*
X41957000Y-81130000D02*
X41957000Y-81430000D01*
G75*
G02*
X41807000Y-81580000I-150000J0D01*
G01*
X40157000Y-81580000D01*
G75*
G02*
X40007000Y-81430000I0J150000D01*
G01*
X40007000Y-81130000D01*
G75*
G02*
X40157000Y-80980000I150000J0D01*
G01*
X41807000Y-80980000D01*
G75*
G02*
X41957000Y-81130000I0J-150000D01*
G01*
G37*
D17*
X47625000Y-56515000D03*
X50165000Y-56515000D03*
X52705000Y-56515000D03*
X57785000Y-56515000D03*
X60325000Y-56515000D03*
X62865000Y-56515000D03*
X67945000Y-56515000D03*
X70485000Y-56515000D03*
X73025000Y-56515000D03*
G36*
G01*
X63965500Y-34474999D02*
X63965500Y-35375001D01*
G75*
G02*
X63715501Y-35625000I-249999J0D01*
G01*
X63190499Y-35625000D01*
G75*
G02*
X62940500Y-35375001I0J249999D01*
G01*
X62940500Y-34474999D01*
G75*
G02*
X63190499Y-34225000I249999J0D01*
G01*
X63715501Y-34225000D01*
G75*
G02*
X63965500Y-34474999I0J-249999D01*
G01*
G37*
G36*
G01*
X65790500Y-34474999D02*
X65790500Y-35375001D01*
G75*
G02*
X65540501Y-35625000I-249999J0D01*
G01*
X65015499Y-35625000D01*
G75*
G02*
X64765500Y-35375001I0J249999D01*
G01*
X64765500Y-34474999D01*
G75*
G02*
X65015499Y-34225000I249999J0D01*
G01*
X65540501Y-34225000D01*
G75*
G02*
X65790500Y-34474999I0J-249999D01*
G01*
G37*
G36*
G01*
X64812500Y-38550001D02*
X64812500Y-37649999D01*
G75*
G02*
X65062499Y-37400000I249999J0D01*
G01*
X65587501Y-37400000D01*
G75*
G02*
X65837500Y-37649999I0J-249999D01*
G01*
X65837500Y-38550001D01*
G75*
G02*
X65587501Y-38800000I-249999J0D01*
G01*
X65062499Y-38800000D01*
G75*
G02*
X64812500Y-38550001I0J249999D01*
G01*
G37*
G36*
G01*
X62987500Y-38550001D02*
X62987500Y-37649999D01*
G75*
G02*
X63237499Y-37400000I249999J0D01*
G01*
X63762501Y-37400000D01*
G75*
G02*
X64012500Y-37649999I0J-249999D01*
G01*
X64012500Y-38550001D01*
G75*
G02*
X63762501Y-38800000I-249999J0D01*
G01*
X63237499Y-38800000D01*
G75*
G02*
X62987500Y-38550001I0J249999D01*
G01*
G37*
G36*
G01*
X64812500Y-44900001D02*
X64812500Y-43999999D01*
G75*
G02*
X65062499Y-43750000I249999J0D01*
G01*
X65587501Y-43750000D01*
G75*
G02*
X65837500Y-43999999I0J-249999D01*
G01*
X65837500Y-44900001D01*
G75*
G02*
X65587501Y-45150000I-249999J0D01*
G01*
X65062499Y-45150000D01*
G75*
G02*
X64812500Y-44900001I0J249999D01*
G01*
G37*
G36*
G01*
X62987500Y-44900001D02*
X62987500Y-43999999D01*
G75*
G02*
X63237499Y-43750000I249999J0D01*
G01*
X63762501Y-43750000D01*
G75*
G02*
X64012500Y-43999999I0J-249999D01*
G01*
X64012500Y-44900001D01*
G75*
G02*
X63762501Y-45150000I-249999J0D01*
G01*
X63237499Y-45150000D01*
G75*
G02*
X62987500Y-44900001I0J249999D01*
G01*
G37*
G36*
G01*
X64012500Y-40824999D02*
X64012500Y-41725001D01*
G75*
G02*
X63762501Y-41975000I-249999J0D01*
G01*
X63237499Y-41975000D01*
G75*
G02*
X62987500Y-41725001I0J249999D01*
G01*
X62987500Y-40824999D01*
G75*
G02*
X63237499Y-40575000I249999J0D01*
G01*
X63762501Y-40575000D01*
G75*
G02*
X64012500Y-40824999I0J-249999D01*
G01*
G37*
G36*
G01*
X65837500Y-40824999D02*
X65837500Y-41725001D01*
G75*
G02*
X65587501Y-41975000I-249999J0D01*
G01*
X65062499Y-41975000D01*
G75*
G02*
X64812500Y-41725001I0J249999D01*
G01*
X64812500Y-40824999D01*
G75*
G02*
X65062499Y-40575000I249999J0D01*
G01*
X65587501Y-40575000D01*
G75*
G02*
X65837500Y-40824999I0J-249999D01*
G01*
G37*
G36*
G01*
X47502500Y-43999999D02*
X47502500Y-44900001D01*
G75*
G02*
X47252501Y-45150000I-249999J0D01*
G01*
X46727499Y-45150000D01*
G75*
G02*
X46477500Y-44900001I0J249999D01*
G01*
X46477500Y-43999999D01*
G75*
G02*
X46727499Y-43750000I249999J0D01*
G01*
X47252501Y-43750000D01*
G75*
G02*
X47502500Y-43999999I0J-249999D01*
G01*
G37*
G36*
G01*
X49327500Y-43999999D02*
X49327500Y-44900001D01*
G75*
G02*
X49077501Y-45150000I-249999J0D01*
G01*
X48552499Y-45150000D01*
G75*
G02*
X48302500Y-44900001I0J249999D01*
G01*
X48302500Y-43999999D01*
G75*
G02*
X48552499Y-43750000I249999J0D01*
G01*
X49077501Y-43750000D01*
G75*
G02*
X49327500Y-43999999I0J-249999D01*
G01*
G37*
G36*
G01*
X48382500Y-41725001D02*
X48382500Y-40824999D01*
G75*
G02*
X48632499Y-40575000I249999J0D01*
G01*
X49157501Y-40575000D01*
G75*
G02*
X49407500Y-40824999I0J-249999D01*
G01*
X49407500Y-41725001D01*
G75*
G02*
X49157501Y-41975000I-249999J0D01*
G01*
X48632499Y-41975000D01*
G75*
G02*
X48382500Y-41725001I0J249999D01*
G01*
G37*
G36*
G01*
X46557500Y-41725001D02*
X46557500Y-40824999D01*
G75*
G02*
X46807499Y-40575000I249999J0D01*
G01*
X47332501Y-40575000D01*
G75*
G02*
X47582500Y-40824999I0J-249999D01*
G01*
X47582500Y-41725001D01*
G75*
G02*
X47332501Y-41975000I-249999J0D01*
G01*
X46807499Y-41975000D01*
G75*
G02*
X46557500Y-41725001I0J249999D01*
G01*
G37*
G36*
G01*
X71077500Y-50349999D02*
X71077500Y-51250001D01*
G75*
G02*
X70827501Y-51500000I-249999J0D01*
G01*
X70302499Y-51500000D01*
G75*
G02*
X70052500Y-51250001I0J249999D01*
G01*
X70052500Y-50349999D01*
G75*
G02*
X70302499Y-50100000I249999J0D01*
G01*
X70827501Y-50100000D01*
G75*
G02*
X71077500Y-50349999I0J-249999D01*
G01*
G37*
G36*
G01*
X72902500Y-50349999D02*
X72902500Y-51250001D01*
G75*
G02*
X72652501Y-51500000I-249999J0D01*
G01*
X72127499Y-51500000D01*
G75*
G02*
X71877500Y-51250001I0J249999D01*
G01*
X71877500Y-50349999D01*
G75*
G02*
X72127499Y-50100000I249999J0D01*
G01*
X72652501Y-50100000D01*
G75*
G02*
X72902500Y-50349999I0J-249999D01*
G01*
G37*
G36*
G01*
X71877500Y-48075001D02*
X71877500Y-47174999D01*
G75*
G02*
X72127499Y-46925000I249999J0D01*
G01*
X72652501Y-46925000D01*
G75*
G02*
X72902500Y-47174999I0J-249999D01*
G01*
X72902500Y-48075001D01*
G75*
G02*
X72652501Y-48325000I-249999J0D01*
G01*
X72127499Y-48325000D01*
G75*
G02*
X71877500Y-48075001I0J249999D01*
G01*
G37*
G36*
G01*
X70052500Y-48075001D02*
X70052500Y-47174999D01*
G75*
G02*
X70302499Y-46925000I249999J0D01*
G01*
X70827501Y-46925000D01*
G75*
G02*
X71077500Y-47174999I0J-249999D01*
G01*
X71077500Y-48075001D01*
G75*
G02*
X70827501Y-48325000I-249999J0D01*
G01*
X70302499Y-48325000D01*
G75*
G02*
X70052500Y-48075001I0J249999D01*
G01*
G37*
G36*
G01*
X47582500Y-37649999D02*
X47582500Y-38550001D01*
G75*
G02*
X47332501Y-38800000I-249999J0D01*
G01*
X46807499Y-38800000D01*
G75*
G02*
X46557500Y-38550001I0J249999D01*
G01*
X46557500Y-37649999D01*
G75*
G02*
X46807499Y-37400000I249999J0D01*
G01*
X47332501Y-37400000D01*
G75*
G02*
X47582500Y-37649999I0J-249999D01*
G01*
G37*
G36*
G01*
X49407500Y-37649999D02*
X49407500Y-38550001D01*
G75*
G02*
X49157501Y-38800000I-249999J0D01*
G01*
X48632499Y-38800000D01*
G75*
G02*
X48382500Y-38550001I0J249999D01*
G01*
X48382500Y-37649999D01*
G75*
G02*
X48632499Y-37400000I249999J0D01*
G01*
X49157501Y-37400000D01*
G75*
G02*
X49407500Y-37649999I0J-249999D01*
G01*
G37*
G36*
G01*
X71877500Y-41852001D02*
X71877500Y-40951999D01*
G75*
G02*
X72127499Y-40702000I249999J0D01*
G01*
X72652501Y-40702000D01*
G75*
G02*
X72902500Y-40951999I0J-249999D01*
G01*
X72902500Y-41852001D01*
G75*
G02*
X72652501Y-42102000I-249999J0D01*
G01*
X72127499Y-42102000D01*
G75*
G02*
X71877500Y-41852001I0J249999D01*
G01*
G37*
G36*
G01*
X70052500Y-41852001D02*
X70052500Y-40951999D01*
G75*
G02*
X70302499Y-40702000I249999J0D01*
G01*
X70827501Y-40702000D01*
G75*
G02*
X71077500Y-40951999I0J-249999D01*
G01*
X71077500Y-41852001D01*
G75*
G02*
X70827501Y-42102000I-249999J0D01*
G01*
X70302499Y-42102000D01*
G75*
G02*
X70052500Y-41852001I0J249999D01*
G01*
G37*
G36*
G01*
X71877500Y-38550001D02*
X71877500Y-37649999D01*
G75*
G02*
X72127499Y-37400000I249999J0D01*
G01*
X72652501Y-37400000D01*
G75*
G02*
X72902500Y-37649999I0J-249999D01*
G01*
X72902500Y-38550001D01*
G75*
G02*
X72652501Y-38800000I-249999J0D01*
G01*
X72127499Y-38800000D01*
G75*
G02*
X71877500Y-38550001I0J249999D01*
G01*
G37*
G36*
G01*
X70052500Y-38550001D02*
X70052500Y-37649999D01*
G75*
G02*
X70302499Y-37400000I249999J0D01*
G01*
X70827501Y-37400000D01*
G75*
G02*
X71077500Y-37649999I0J-249999D01*
G01*
X71077500Y-38550001D01*
G75*
G02*
X70827501Y-38800000I-249999J0D01*
G01*
X70302499Y-38800000D01*
G75*
G02*
X70052500Y-38550001I0J249999D01*
G01*
G37*
G36*
G01*
X71877500Y-35248001D02*
X71877500Y-34347999D01*
G75*
G02*
X72127499Y-34098000I249999J0D01*
G01*
X72652501Y-34098000D01*
G75*
G02*
X72902500Y-34347999I0J-249999D01*
G01*
X72902500Y-35248001D01*
G75*
G02*
X72652501Y-35498000I-249999J0D01*
G01*
X72127499Y-35498000D01*
G75*
G02*
X71877500Y-35248001I0J249999D01*
G01*
G37*
G36*
G01*
X70052500Y-35248001D02*
X70052500Y-34347999D01*
G75*
G02*
X70302499Y-34098000I249999J0D01*
G01*
X70827501Y-34098000D01*
G75*
G02*
X71077500Y-34347999I0J-249999D01*
G01*
X71077500Y-35248001D01*
G75*
G02*
X70827501Y-35498000I-249999J0D01*
G01*
X70302499Y-35498000D01*
G75*
G02*
X70052500Y-35248001I0J249999D01*
G01*
G37*
G36*
G01*
X71877500Y-32200001D02*
X71877500Y-31299999D01*
G75*
G02*
X72127499Y-31050000I249999J0D01*
G01*
X72652501Y-31050000D01*
G75*
G02*
X72902500Y-31299999I0J-249999D01*
G01*
X72902500Y-32200001D01*
G75*
G02*
X72652501Y-32450000I-249999J0D01*
G01*
X72127499Y-32450000D01*
G75*
G02*
X71877500Y-32200001I0J249999D01*
G01*
G37*
G36*
G01*
X70052500Y-32200001D02*
X70052500Y-31299999D01*
G75*
G02*
X70302499Y-31050000I249999J0D01*
G01*
X70827501Y-31050000D01*
G75*
G02*
X71077500Y-31299999I0J-249999D01*
G01*
X71077500Y-32200001D01*
G75*
G02*
X70827501Y-32450000I-249999J0D01*
G01*
X70302499Y-32450000D01*
G75*
G02*
X70052500Y-32200001I0J249999D01*
G01*
G37*
G36*
G01*
X71924500Y-29152001D02*
X71924500Y-28251999D01*
G75*
G02*
X72174499Y-28002000I249999J0D01*
G01*
X72699501Y-28002000D01*
G75*
G02*
X72949500Y-28251999I0J-249999D01*
G01*
X72949500Y-29152001D01*
G75*
G02*
X72699501Y-29402000I-249999J0D01*
G01*
X72174499Y-29402000D01*
G75*
G02*
X71924500Y-29152001I0J249999D01*
G01*
G37*
G36*
G01*
X70099500Y-29152001D02*
X70099500Y-28251999D01*
G75*
G02*
X70349499Y-28002000I249999J0D01*
G01*
X70874501Y-28002000D01*
G75*
G02*
X71124500Y-28251999I0J-249999D01*
G01*
X71124500Y-29152001D01*
G75*
G02*
X70874501Y-29402000I-249999J0D01*
G01*
X70349499Y-29402000D01*
G75*
G02*
X70099500Y-29152001I0J249999D01*
G01*
G37*
G36*
G01*
X71877500Y-44900001D02*
X71877500Y-43999999D01*
G75*
G02*
X72127499Y-43750000I249999J0D01*
G01*
X72652501Y-43750000D01*
G75*
G02*
X72902500Y-43999999I0J-249999D01*
G01*
X72902500Y-44900001D01*
G75*
G02*
X72652501Y-45150000I-249999J0D01*
G01*
X72127499Y-45150000D01*
G75*
G02*
X71877500Y-44900001I0J249999D01*
G01*
G37*
G36*
G01*
X70052500Y-44900001D02*
X70052500Y-43999999D01*
G75*
G02*
X70302499Y-43750000I249999J0D01*
G01*
X70827501Y-43750000D01*
G75*
G02*
X71077500Y-43999999I0J-249999D01*
G01*
X71077500Y-44900001D01*
G75*
G02*
X70827501Y-45150000I-249999J0D01*
G01*
X70302499Y-45150000D01*
G75*
G02*
X70052500Y-44900001I0J249999D01*
G01*
G37*
G36*
G01*
X47582500Y-34474999D02*
X47582500Y-35375001D01*
G75*
G02*
X47332501Y-35625000I-249999J0D01*
G01*
X46807499Y-35625000D01*
G75*
G02*
X46557500Y-35375001I0J249999D01*
G01*
X46557500Y-34474999D01*
G75*
G02*
X46807499Y-34225000I249999J0D01*
G01*
X47332501Y-34225000D01*
G75*
G02*
X47582500Y-34474999I0J-249999D01*
G01*
G37*
G36*
G01*
X49407500Y-34474999D02*
X49407500Y-35375001D01*
G75*
G02*
X49157501Y-35625000I-249999J0D01*
G01*
X48632499Y-35625000D01*
G75*
G02*
X48382500Y-35375001I0J249999D01*
G01*
X48382500Y-34474999D01*
G75*
G02*
X48632499Y-34225000I249999J0D01*
G01*
X49157501Y-34225000D01*
G75*
G02*
X49407500Y-34474999I0J-249999D01*
G01*
G37*
G36*
G01*
X56637500Y-93795001D02*
X56637500Y-92894999D01*
G75*
G02*
X56887499Y-92645000I249999J0D01*
G01*
X57412501Y-92645000D01*
G75*
G02*
X57662500Y-92894999I0J-249999D01*
G01*
X57662500Y-93795001D01*
G75*
G02*
X57412501Y-94045000I-249999J0D01*
G01*
X56887499Y-94045000D01*
G75*
G02*
X56637500Y-93795001I0J249999D01*
G01*
G37*
G36*
G01*
X54812500Y-93795001D02*
X54812500Y-92894999D01*
G75*
G02*
X55062499Y-92645000I249999J0D01*
G01*
X55587501Y-92645000D01*
G75*
G02*
X55837500Y-92894999I0J-249999D01*
G01*
X55837500Y-93795001D01*
G75*
G02*
X55587501Y-94045000I-249999J0D01*
G01*
X55062499Y-94045000D01*
G75*
G02*
X54812500Y-93795001I0J249999D01*
G01*
G37*
G36*
G01*
X55837500Y-89719999D02*
X55837500Y-90620001D01*
G75*
G02*
X55587501Y-90870000I-249999J0D01*
G01*
X55062499Y-90870000D01*
G75*
G02*
X54812500Y-90620001I0J249999D01*
G01*
X54812500Y-89719999D01*
G75*
G02*
X55062499Y-89470000I249999J0D01*
G01*
X55587501Y-89470000D01*
G75*
G02*
X55837500Y-89719999I0J-249999D01*
G01*
G37*
G36*
G01*
X57662500Y-89719999D02*
X57662500Y-90620001D01*
G75*
G02*
X57412501Y-90870000I-249999J0D01*
G01*
X56887499Y-90870000D01*
G75*
G02*
X56637500Y-90620001I0J249999D01*
G01*
X56637500Y-89719999D01*
G75*
G02*
X56887499Y-89470000I249999J0D01*
G01*
X57412501Y-89470000D01*
G75*
G02*
X57662500Y-89719999I0J-249999D01*
G01*
G37*
G36*
G01*
X41152500Y-63049999D02*
X41152500Y-63950001D01*
G75*
G02*
X40902501Y-64200000I-249999J0D01*
G01*
X40377499Y-64200000D01*
G75*
G02*
X40127500Y-63950001I0J249999D01*
G01*
X40127500Y-63049999D01*
G75*
G02*
X40377499Y-62800000I249999J0D01*
G01*
X40902501Y-62800000D01*
G75*
G02*
X41152500Y-63049999I0J-249999D01*
G01*
G37*
G36*
G01*
X42977500Y-63049999D02*
X42977500Y-63950001D01*
G75*
G02*
X42727501Y-64200000I-249999J0D01*
G01*
X42202499Y-64200000D01*
G75*
G02*
X41952500Y-63950001I0J249999D01*
G01*
X41952500Y-63049999D01*
G75*
G02*
X42202499Y-62800000I249999J0D01*
G01*
X42727501Y-62800000D01*
G75*
G02*
X42977500Y-63049999I0J-249999D01*
G01*
G37*
G36*
G01*
X30357500Y-63049999D02*
X30357500Y-63950001D01*
G75*
G02*
X30107501Y-64200000I-249999J0D01*
G01*
X29582499Y-64200000D01*
G75*
G02*
X29332500Y-63950001I0J249999D01*
G01*
X29332500Y-63049999D01*
G75*
G02*
X29582499Y-62800000I249999J0D01*
G01*
X30107501Y-62800000D01*
G75*
G02*
X30357500Y-63049999I0J-249999D01*
G01*
G37*
G36*
G01*
X32182500Y-63049999D02*
X32182500Y-63950001D01*
G75*
G02*
X31932501Y-64200000I-249999J0D01*
G01*
X31407499Y-64200000D01*
G75*
G02*
X31157500Y-63950001I0J249999D01*
G01*
X31157500Y-63049999D01*
G75*
G02*
X31407499Y-62800000I249999J0D01*
G01*
X31932501Y-62800000D01*
G75*
G02*
X32182500Y-63049999I0J-249999D01*
G01*
G37*
G36*
G01*
X71077500Y-92894999D02*
X71077500Y-93795001D01*
G75*
G02*
X70827501Y-94045000I-249999J0D01*
G01*
X70302499Y-94045000D01*
G75*
G02*
X70052500Y-93795001I0J249999D01*
G01*
X70052500Y-92894999D01*
G75*
G02*
X70302499Y-92645000I249999J0D01*
G01*
X70827501Y-92645000D01*
G75*
G02*
X71077500Y-92894999I0J-249999D01*
G01*
G37*
G36*
G01*
X72902500Y-92894999D02*
X72902500Y-93795001D01*
G75*
G02*
X72652501Y-94045000I-249999J0D01*
G01*
X72127499Y-94045000D01*
G75*
G02*
X71877500Y-93795001I0J249999D01*
G01*
X71877500Y-92894999D01*
G75*
G02*
X72127499Y-92645000I249999J0D01*
G01*
X72652501Y-92645000D01*
G75*
G02*
X72902500Y-92894999I0J-249999D01*
G01*
G37*
G36*
G01*
X71877500Y-84270001D02*
X71877500Y-83369999D01*
G75*
G02*
X72127499Y-83120000I249999J0D01*
G01*
X72652501Y-83120000D01*
G75*
G02*
X72902500Y-83369999I0J-249999D01*
G01*
X72902500Y-84270001D01*
G75*
G02*
X72652501Y-84520000I-249999J0D01*
G01*
X72127499Y-84520000D01*
G75*
G02*
X71877500Y-84270001I0J249999D01*
G01*
G37*
G36*
G01*
X70052500Y-84270001D02*
X70052500Y-83369999D01*
G75*
G02*
X70302499Y-83120000I249999J0D01*
G01*
X70827501Y-83120000D01*
G75*
G02*
X71077500Y-83369999I0J-249999D01*
G01*
X71077500Y-84270001D01*
G75*
G02*
X70827501Y-84520000I-249999J0D01*
G01*
X70302499Y-84520000D01*
G75*
G02*
X70052500Y-84270001I0J249999D01*
G01*
G37*
G36*
G01*
X71877500Y-87445001D02*
X71877500Y-86544999D01*
G75*
G02*
X72127499Y-86295000I249999J0D01*
G01*
X72652501Y-86295000D01*
G75*
G02*
X72902500Y-86544999I0J-249999D01*
G01*
X72902500Y-87445001D01*
G75*
G02*
X72652501Y-87695000I-249999J0D01*
G01*
X72127499Y-87695000D01*
G75*
G02*
X71877500Y-87445001I0J249999D01*
G01*
G37*
G36*
G01*
X70052500Y-87445001D02*
X70052500Y-86544999D01*
G75*
G02*
X70302499Y-86295000I249999J0D01*
G01*
X70827501Y-86295000D01*
G75*
G02*
X71077500Y-86544999I0J-249999D01*
G01*
X71077500Y-87445001D01*
G75*
G02*
X70827501Y-87695000I-249999J0D01*
G01*
X70302499Y-87695000D01*
G75*
G02*
X70052500Y-87445001I0J249999D01*
G01*
G37*
G36*
G01*
X71877500Y-90620001D02*
X71877500Y-89719999D01*
G75*
G02*
X72127499Y-89470000I249999J0D01*
G01*
X72652501Y-89470000D01*
G75*
G02*
X72902500Y-89719999I0J-249999D01*
G01*
X72902500Y-90620001D01*
G75*
G02*
X72652501Y-90870000I-249999J0D01*
G01*
X72127499Y-90870000D01*
G75*
G02*
X71877500Y-90620001I0J249999D01*
G01*
G37*
G36*
G01*
X70052500Y-90620001D02*
X70052500Y-89719999D01*
G75*
G02*
X70302499Y-89470000I249999J0D01*
G01*
X70827501Y-89470000D01*
G75*
G02*
X71077500Y-89719999I0J-249999D01*
G01*
X71077500Y-90620001D01*
G75*
G02*
X70827501Y-90870000I-249999J0D01*
G01*
X70302499Y-90870000D01*
G75*
G02*
X70052500Y-90620001I0J249999D01*
G01*
G37*
G36*
G01*
X31157500Y-93795001D02*
X31157500Y-92894999D01*
G75*
G02*
X31407499Y-92645000I249999J0D01*
G01*
X31932501Y-92645000D01*
G75*
G02*
X32182500Y-92894999I0J-249999D01*
G01*
X32182500Y-93795001D01*
G75*
G02*
X31932501Y-94045000I-249999J0D01*
G01*
X31407499Y-94045000D01*
G75*
G02*
X31157500Y-93795001I0J249999D01*
G01*
G37*
G36*
G01*
X29332500Y-93795001D02*
X29332500Y-92894999D01*
G75*
G02*
X29582499Y-92645000I249999J0D01*
G01*
X30107501Y-92645000D01*
G75*
G02*
X30357500Y-92894999I0J-249999D01*
G01*
X30357500Y-93795001D01*
G75*
G02*
X30107501Y-94045000I-249999J0D01*
G01*
X29582499Y-94045000D01*
G75*
G02*
X29332500Y-93795001I0J249999D01*
G01*
G37*
G36*
G01*
X45597500Y-92894999D02*
X45597500Y-93795001D01*
G75*
G02*
X45347501Y-94045000I-249999J0D01*
G01*
X44822499Y-94045000D01*
G75*
G02*
X44572500Y-93795001I0J249999D01*
G01*
X44572500Y-92894999D01*
G75*
G02*
X44822499Y-92645000I249999J0D01*
G01*
X45347501Y-92645000D01*
G75*
G02*
X45597500Y-92894999I0J-249999D01*
G01*
G37*
G36*
G01*
X47422500Y-92894999D02*
X47422500Y-93795001D01*
G75*
G02*
X47172501Y-94045000I-249999J0D01*
G01*
X46647499Y-94045000D01*
G75*
G02*
X46397500Y-93795001I0J249999D01*
G01*
X46397500Y-92894999D01*
G75*
G02*
X46647499Y-92645000I249999J0D01*
G01*
X47172501Y-92645000D01*
G75*
G02*
X47422500Y-92894999I0J-249999D01*
G01*
G37*
G36*
G01*
X31237500Y-81095001D02*
X31237500Y-80194999D01*
G75*
G02*
X31487499Y-79945000I249999J0D01*
G01*
X32012501Y-79945000D01*
G75*
G02*
X32262500Y-80194999I0J-249999D01*
G01*
X32262500Y-81095001D01*
G75*
G02*
X32012501Y-81345000I-249999J0D01*
G01*
X31487499Y-81345000D01*
G75*
G02*
X31237500Y-81095001I0J249999D01*
G01*
G37*
G36*
G01*
X29412500Y-81095001D02*
X29412500Y-80194999D01*
G75*
G02*
X29662499Y-79945000I249999J0D01*
G01*
X30187501Y-79945000D01*
G75*
G02*
X30437500Y-80194999I0J-249999D01*
G01*
X30437500Y-81095001D01*
G75*
G02*
X30187501Y-81345000I-249999J0D01*
G01*
X29662499Y-81345000D01*
G75*
G02*
X29412500Y-81095001I0J249999D01*
G01*
G37*
G36*
G01*
X45597500Y-80194999D02*
X45597500Y-81095001D01*
G75*
G02*
X45347501Y-81345000I-249999J0D01*
G01*
X44822499Y-81345000D01*
G75*
G02*
X44572500Y-81095001I0J249999D01*
G01*
X44572500Y-80194999D01*
G75*
G02*
X44822499Y-79945000I249999J0D01*
G01*
X45347501Y-79945000D01*
G75*
G02*
X45597500Y-80194999I0J-249999D01*
G01*
G37*
G36*
G01*
X47422500Y-80194999D02*
X47422500Y-81095001D01*
G75*
G02*
X47172501Y-81345000I-249999J0D01*
G01*
X46647499Y-81345000D01*
G75*
G02*
X46397500Y-81095001I0J249999D01*
G01*
X46397500Y-80194999D01*
G75*
G02*
X46647499Y-79945000I249999J0D01*
G01*
X47172501Y-79945000D01*
G75*
G02*
X47422500Y-80194999I0J-249999D01*
G01*
G37*
G36*
G01*
X31157500Y-90620001D02*
X31157500Y-89719999D01*
G75*
G02*
X31407499Y-89470000I249999J0D01*
G01*
X31932501Y-89470000D01*
G75*
G02*
X32182500Y-89719999I0J-249999D01*
G01*
X32182500Y-90620001D01*
G75*
G02*
X31932501Y-90870000I-249999J0D01*
G01*
X31407499Y-90870000D01*
G75*
G02*
X31157500Y-90620001I0J249999D01*
G01*
G37*
G36*
G01*
X29332500Y-90620001D02*
X29332500Y-89719999D01*
G75*
G02*
X29582499Y-89470000I249999J0D01*
G01*
X30107501Y-89470000D01*
G75*
G02*
X30357500Y-89719999I0J-249999D01*
G01*
X30357500Y-90620001D01*
G75*
G02*
X30107501Y-90870000I-249999J0D01*
G01*
X29582499Y-90870000D01*
G75*
G02*
X29332500Y-90620001I0J249999D01*
G01*
G37*
G36*
G01*
X45597500Y-89719999D02*
X45597500Y-90620001D01*
G75*
G02*
X45347501Y-90870000I-249999J0D01*
G01*
X44822499Y-90870000D01*
G75*
G02*
X44572500Y-90620001I0J249999D01*
G01*
X44572500Y-89719999D01*
G75*
G02*
X44822499Y-89470000I249999J0D01*
G01*
X45347501Y-89470000D01*
G75*
G02*
X45597500Y-89719999I0J-249999D01*
G01*
G37*
G36*
G01*
X47422500Y-89719999D02*
X47422500Y-90620001D01*
G75*
G02*
X47172501Y-90870000I-249999J0D01*
G01*
X46647499Y-90870000D01*
G75*
G02*
X46397500Y-90620001I0J249999D01*
G01*
X46397500Y-89719999D01*
G75*
G02*
X46647499Y-89470000I249999J0D01*
G01*
X47172501Y-89470000D01*
G75*
G02*
X47422500Y-89719999I0J-249999D01*
G01*
G37*
G36*
G01*
X31237500Y-77920001D02*
X31237500Y-77019999D01*
G75*
G02*
X31487499Y-76770000I249999J0D01*
G01*
X32012501Y-76770000D01*
G75*
G02*
X32262500Y-77019999I0J-249999D01*
G01*
X32262500Y-77920001D01*
G75*
G02*
X32012501Y-78170000I-249999J0D01*
G01*
X31487499Y-78170000D01*
G75*
G02*
X31237500Y-77920001I0J249999D01*
G01*
G37*
G36*
G01*
X29412500Y-77920001D02*
X29412500Y-77019999D01*
G75*
G02*
X29662499Y-76770000I249999J0D01*
G01*
X30187501Y-76770000D01*
G75*
G02*
X30437500Y-77019999I0J-249999D01*
G01*
X30437500Y-77920001D01*
G75*
G02*
X30187501Y-78170000I-249999J0D01*
G01*
X29662499Y-78170000D01*
G75*
G02*
X29412500Y-77920001I0J249999D01*
G01*
G37*
G36*
G01*
X45677500Y-77019999D02*
X45677500Y-77920001D01*
G75*
G02*
X45427501Y-78170000I-249999J0D01*
G01*
X44902499Y-78170000D01*
G75*
G02*
X44652500Y-77920001I0J249999D01*
G01*
X44652500Y-77019999D01*
G75*
G02*
X44902499Y-76770000I249999J0D01*
G01*
X45427501Y-76770000D01*
G75*
G02*
X45677500Y-77019999I0J-249999D01*
G01*
G37*
G36*
G01*
X47502500Y-77019999D02*
X47502500Y-77920001D01*
G75*
G02*
X47252501Y-78170000I-249999J0D01*
G01*
X46727499Y-78170000D01*
G75*
G02*
X46477500Y-77920001I0J249999D01*
G01*
X46477500Y-77019999D01*
G75*
G02*
X46727499Y-76770000I249999J0D01*
G01*
X47252501Y-76770000D01*
G75*
G02*
X47502500Y-77019999I0J-249999D01*
G01*
G37*
G36*
G01*
X30437500Y-83369999D02*
X30437500Y-84270001D01*
G75*
G02*
X30187501Y-84520000I-249999J0D01*
G01*
X29662499Y-84520000D01*
G75*
G02*
X29412500Y-84270001I0J249999D01*
G01*
X29412500Y-83369999D01*
G75*
G02*
X29662499Y-83120000I249999J0D01*
G01*
X30187501Y-83120000D01*
G75*
G02*
X30437500Y-83369999I0J-249999D01*
G01*
G37*
G36*
G01*
X32262500Y-83369999D02*
X32262500Y-84270001D01*
G75*
G02*
X32012501Y-84520000I-249999J0D01*
G01*
X31487499Y-84520000D01*
G75*
G02*
X31237500Y-84270001I0J249999D01*
G01*
X31237500Y-83369999D01*
G75*
G02*
X31487499Y-83120000I249999J0D01*
G01*
X32012501Y-83120000D01*
G75*
G02*
X32262500Y-83369999I0J-249999D01*
G01*
G37*
G36*
G01*
X30437500Y-86544999D02*
X30437500Y-87445001D01*
G75*
G02*
X30187501Y-87695000I-249999J0D01*
G01*
X29662499Y-87695000D01*
G75*
G02*
X29412500Y-87445001I0J249999D01*
G01*
X29412500Y-86544999D01*
G75*
G02*
X29662499Y-86295000I249999J0D01*
G01*
X30187501Y-86295000D01*
G75*
G02*
X30437500Y-86544999I0J-249999D01*
G01*
G37*
G36*
G01*
X32262500Y-86544999D02*
X32262500Y-87445001D01*
G75*
G02*
X32012501Y-87695000I-249999J0D01*
G01*
X31487499Y-87695000D01*
G75*
G02*
X31237500Y-87445001I0J249999D01*
G01*
X31237500Y-86544999D01*
G75*
G02*
X31487499Y-86295000I249999J0D01*
G01*
X32012501Y-86295000D01*
G75*
G02*
X32262500Y-86544999I0J-249999D01*
G01*
G37*
G36*
G01*
X46397500Y-84270001D02*
X46397500Y-83369999D01*
G75*
G02*
X46647499Y-83120000I249999J0D01*
G01*
X47172501Y-83120000D01*
G75*
G02*
X47422500Y-83369999I0J-249999D01*
G01*
X47422500Y-84270001D01*
G75*
G02*
X47172501Y-84520000I-249999J0D01*
G01*
X46647499Y-84520000D01*
G75*
G02*
X46397500Y-84270001I0J249999D01*
G01*
G37*
G36*
G01*
X44572500Y-84270001D02*
X44572500Y-83369999D01*
G75*
G02*
X44822499Y-83120000I249999J0D01*
G01*
X45347501Y-83120000D01*
G75*
G02*
X45597500Y-83369999I0J-249999D01*
G01*
X45597500Y-84270001D01*
G75*
G02*
X45347501Y-84520000I-249999J0D01*
G01*
X44822499Y-84520000D01*
G75*
G02*
X44572500Y-84270001I0J249999D01*
G01*
G37*
G36*
G01*
X46477500Y-87572001D02*
X46477500Y-86671999D01*
G75*
G02*
X46727499Y-86422000I249999J0D01*
G01*
X47252501Y-86422000D01*
G75*
G02*
X47502500Y-86671999I0J-249999D01*
G01*
X47502500Y-87572001D01*
G75*
G02*
X47252501Y-87822000I-249999J0D01*
G01*
X46727499Y-87822000D01*
G75*
G02*
X46477500Y-87572001I0J249999D01*
G01*
G37*
G36*
G01*
X44652500Y-87572001D02*
X44652500Y-86671999D01*
G75*
G02*
X44902499Y-86422000I249999J0D01*
G01*
X45427501Y-86422000D01*
G75*
G02*
X45677500Y-86671999I0J-249999D01*
G01*
X45677500Y-87572001D01*
G75*
G02*
X45427501Y-87822000I-249999J0D01*
G01*
X44902499Y-87822000D01*
G75*
G02*
X44652500Y-87572001I0J249999D01*
G01*
G37*
G36*
G01*
X30437500Y-70669999D02*
X30437500Y-71570001D01*
G75*
G02*
X30187501Y-71820000I-249999J0D01*
G01*
X29662499Y-71820000D01*
G75*
G02*
X29412500Y-71570001I0J249999D01*
G01*
X29412500Y-70669999D01*
G75*
G02*
X29662499Y-70420000I249999J0D01*
G01*
X30187501Y-70420000D01*
G75*
G02*
X30437500Y-70669999I0J-249999D01*
G01*
G37*
G36*
G01*
X32262500Y-70669999D02*
X32262500Y-71570001D01*
G75*
G02*
X32012501Y-71820000I-249999J0D01*
G01*
X31487499Y-71820000D01*
G75*
G02*
X31237500Y-71570001I0J249999D01*
G01*
X31237500Y-70669999D01*
G75*
G02*
X31487499Y-70420000I249999J0D01*
G01*
X32012501Y-70420000D01*
G75*
G02*
X32262500Y-70669999I0J-249999D01*
G01*
G37*
G36*
G01*
X30437500Y-73844999D02*
X30437500Y-74745001D01*
G75*
G02*
X30187501Y-74995000I-249999J0D01*
G01*
X29662499Y-74995000D01*
G75*
G02*
X29412500Y-74745001I0J249999D01*
G01*
X29412500Y-73844999D01*
G75*
G02*
X29662499Y-73595000I249999J0D01*
G01*
X30187501Y-73595000D01*
G75*
G02*
X30437500Y-73844999I0J-249999D01*
G01*
G37*
G36*
G01*
X32262500Y-73844999D02*
X32262500Y-74745001D01*
G75*
G02*
X32012501Y-74995000I-249999J0D01*
G01*
X31487499Y-74995000D01*
G75*
G02*
X31237500Y-74745001I0J249999D01*
G01*
X31237500Y-73844999D01*
G75*
G02*
X31487499Y-73595000I249999J0D01*
G01*
X32012501Y-73595000D01*
G75*
G02*
X32262500Y-73844999I0J-249999D01*
G01*
G37*
G36*
G01*
X46477500Y-71570001D02*
X46477500Y-70669999D01*
G75*
G02*
X46727499Y-70420000I249999J0D01*
G01*
X47252501Y-70420000D01*
G75*
G02*
X47502500Y-70669999I0J-249999D01*
G01*
X47502500Y-71570001D01*
G75*
G02*
X47252501Y-71820000I-249999J0D01*
G01*
X46727499Y-71820000D01*
G75*
G02*
X46477500Y-71570001I0J249999D01*
G01*
G37*
G36*
G01*
X44652500Y-71570001D02*
X44652500Y-70669999D01*
G75*
G02*
X44902499Y-70420000I249999J0D01*
G01*
X45427501Y-70420000D01*
G75*
G02*
X45677500Y-70669999I0J-249999D01*
G01*
X45677500Y-71570001D01*
G75*
G02*
X45427501Y-71820000I-249999J0D01*
G01*
X44902499Y-71820000D01*
G75*
G02*
X44652500Y-71570001I0J249999D01*
G01*
G37*
G36*
G01*
X46477500Y-74745001D02*
X46477500Y-73844999D01*
G75*
G02*
X46727499Y-73595000I249999J0D01*
G01*
X47252501Y-73595000D01*
G75*
G02*
X47502500Y-73844999I0J-249999D01*
G01*
X47502500Y-74745001D01*
G75*
G02*
X47252501Y-74995000I-249999J0D01*
G01*
X46727499Y-74995000D01*
G75*
G02*
X46477500Y-74745001I0J249999D01*
G01*
G37*
G36*
G01*
X44652500Y-74745001D02*
X44652500Y-73844999D01*
G75*
G02*
X44902499Y-73595000I249999J0D01*
G01*
X45427501Y-73595000D01*
G75*
G02*
X45677500Y-73844999I0J-249999D01*
G01*
X45677500Y-74745001D01*
G75*
G02*
X45427501Y-74995000I-249999J0D01*
G01*
X44902499Y-74995000D01*
G75*
G02*
X44652500Y-74745001I0J249999D01*
G01*
G37*
G36*
G01*
X56557500Y-84270001D02*
X56557500Y-83369999D01*
G75*
G02*
X56807499Y-83120000I249999J0D01*
G01*
X57332501Y-83120000D01*
G75*
G02*
X57582500Y-83369999I0J-249999D01*
G01*
X57582500Y-84270001D01*
G75*
G02*
X57332501Y-84520000I-249999J0D01*
G01*
X56807499Y-84520000D01*
G75*
G02*
X56557500Y-84270001I0J249999D01*
G01*
G37*
G36*
G01*
X54732500Y-84270001D02*
X54732500Y-83369999D01*
G75*
G02*
X54982499Y-83120000I249999J0D01*
G01*
X55507501Y-83120000D01*
G75*
G02*
X55757500Y-83369999I0J-249999D01*
G01*
X55757500Y-84270001D01*
G75*
G02*
X55507501Y-84520000I-249999J0D01*
G01*
X54982499Y-84520000D01*
G75*
G02*
X54732500Y-84270001I0J249999D01*
G01*
G37*
G36*
G01*
X55757500Y-77019999D02*
X55757500Y-77920001D01*
G75*
G02*
X55507501Y-78170000I-249999J0D01*
G01*
X54982499Y-78170000D01*
G75*
G02*
X54732500Y-77920001I0J249999D01*
G01*
X54732500Y-77019999D01*
G75*
G02*
X54982499Y-76770000I249999J0D01*
G01*
X55507501Y-76770000D01*
G75*
G02*
X55757500Y-77019999I0J-249999D01*
G01*
G37*
G36*
G01*
X57582500Y-77019999D02*
X57582500Y-77920001D01*
G75*
G02*
X57332501Y-78170000I-249999J0D01*
G01*
X56807499Y-78170000D01*
G75*
G02*
X56557500Y-77920001I0J249999D01*
G01*
X56557500Y-77019999D01*
G75*
G02*
X56807499Y-76770000I249999J0D01*
G01*
X57332501Y-76770000D01*
G75*
G02*
X57582500Y-77019999I0J-249999D01*
G01*
G37*
G36*
G01*
X55757500Y-80194999D02*
X55757500Y-81095001D01*
G75*
G02*
X55507501Y-81345000I-249999J0D01*
G01*
X54982499Y-81345000D01*
G75*
G02*
X54732500Y-81095001I0J249999D01*
G01*
X54732500Y-80194999D01*
G75*
G02*
X54982499Y-79945000I249999J0D01*
G01*
X55507501Y-79945000D01*
G75*
G02*
X55757500Y-80194999I0J-249999D01*
G01*
G37*
G36*
G01*
X57582500Y-80194999D02*
X57582500Y-81095001D01*
G75*
G02*
X57332501Y-81345000I-249999J0D01*
G01*
X56807499Y-81345000D01*
G75*
G02*
X56557500Y-81095001I0J249999D01*
G01*
X56557500Y-80194999D01*
G75*
G02*
X56807499Y-79945000I249999J0D01*
G01*
X57332501Y-79945000D01*
G75*
G02*
X57582500Y-80194999I0J-249999D01*
G01*
G37*
G36*
G01*
X55837500Y-68764999D02*
X55837500Y-69665001D01*
G75*
G02*
X55587501Y-69915000I-249999J0D01*
G01*
X55062499Y-69915000D01*
G75*
G02*
X54812500Y-69665001I0J249999D01*
G01*
X54812500Y-68764999D01*
G75*
G02*
X55062499Y-68515000I249999J0D01*
G01*
X55587501Y-68515000D01*
G75*
G02*
X55837500Y-68764999I0J-249999D01*
G01*
G37*
G36*
G01*
X57662500Y-68764999D02*
X57662500Y-69665001D01*
G75*
G02*
X57412501Y-69915000I-249999J0D01*
G01*
X56887499Y-69915000D01*
G75*
G02*
X56637500Y-69665001I0J249999D01*
G01*
X56637500Y-68764999D01*
G75*
G02*
X56887499Y-68515000I249999J0D01*
G01*
X57412501Y-68515000D01*
G75*
G02*
X57662500Y-68764999I0J-249999D01*
G01*
G37*
G36*
G01*
X56637500Y-63315001D02*
X56637500Y-62414999D01*
G75*
G02*
X56887499Y-62165000I249999J0D01*
G01*
X57412501Y-62165000D01*
G75*
G02*
X57662500Y-62414999I0J-249999D01*
G01*
X57662500Y-63315001D01*
G75*
G02*
X57412501Y-63565000I-249999J0D01*
G01*
X56887499Y-63565000D01*
G75*
G02*
X56637500Y-63315001I0J249999D01*
G01*
G37*
G36*
G01*
X54812500Y-63315001D02*
X54812500Y-62414999D01*
G75*
G02*
X55062499Y-62165000I249999J0D01*
G01*
X55587501Y-62165000D01*
G75*
G02*
X55837500Y-62414999I0J-249999D01*
G01*
X55837500Y-63315001D01*
G75*
G02*
X55587501Y-63565000I-249999J0D01*
G01*
X55062499Y-63565000D01*
G75*
G02*
X54812500Y-63315001I0J249999D01*
G01*
G37*
G36*
G01*
X70997500Y-64319999D02*
X70997500Y-65220001D01*
G75*
G02*
X70747501Y-65470000I-249999J0D01*
G01*
X70222499Y-65470000D01*
G75*
G02*
X69972500Y-65220001I0J249999D01*
G01*
X69972500Y-64319999D01*
G75*
G02*
X70222499Y-64070000I249999J0D01*
G01*
X70747501Y-64070000D01*
G75*
G02*
X70997500Y-64319999I0J-249999D01*
G01*
G37*
G36*
G01*
X72822500Y-64319999D02*
X72822500Y-65220001D01*
G75*
G02*
X72572501Y-65470000I-249999J0D01*
G01*
X72047499Y-65470000D01*
G75*
G02*
X71797500Y-65220001I0J249999D01*
G01*
X71797500Y-64319999D01*
G75*
G02*
X72047499Y-64070000I249999J0D01*
G01*
X72572501Y-64070000D01*
G75*
G02*
X72822500Y-64319999I0J-249999D01*
G01*
G37*
G36*
G01*
X70997500Y-77019999D02*
X70997500Y-77920001D01*
G75*
G02*
X70747501Y-78170000I-249999J0D01*
G01*
X70222499Y-78170000D01*
G75*
G02*
X69972500Y-77920001I0J249999D01*
G01*
X69972500Y-77019999D01*
G75*
G02*
X70222499Y-76770000I249999J0D01*
G01*
X70747501Y-76770000D01*
G75*
G02*
X70997500Y-77019999I0J-249999D01*
G01*
G37*
G36*
G01*
X72822500Y-77019999D02*
X72822500Y-77920001D01*
G75*
G02*
X72572501Y-78170000I-249999J0D01*
G01*
X72047499Y-78170000D01*
G75*
G02*
X71797500Y-77920001I0J249999D01*
G01*
X71797500Y-77019999D01*
G75*
G02*
X72047499Y-76770000I249999J0D01*
G01*
X72572501Y-76770000D01*
G75*
G02*
X72822500Y-77019999I0J-249999D01*
G01*
G37*
G36*
G01*
X71797500Y-71570001D02*
X71797500Y-70669999D01*
G75*
G02*
X72047499Y-70420000I249999J0D01*
G01*
X72572501Y-70420000D01*
G75*
G02*
X72822500Y-70669999I0J-249999D01*
G01*
X72822500Y-71570001D01*
G75*
G02*
X72572501Y-71820000I-249999J0D01*
G01*
X72047499Y-71820000D01*
G75*
G02*
X71797500Y-71570001I0J249999D01*
G01*
G37*
G36*
G01*
X69972500Y-71570001D02*
X69972500Y-70669999D01*
G75*
G02*
X70222499Y-70420000I249999J0D01*
G01*
X70747501Y-70420000D01*
G75*
G02*
X70997500Y-70669999I0J-249999D01*
G01*
X70997500Y-71570001D01*
G75*
G02*
X70747501Y-71820000I-249999J0D01*
G01*
X70222499Y-71820000D01*
G75*
G02*
X69972500Y-71570001I0J249999D01*
G01*
G37*
G36*
G01*
X71877500Y-74745001D02*
X71877500Y-73844999D01*
G75*
G02*
X72127499Y-73595000I249999J0D01*
G01*
X72652501Y-73595000D01*
G75*
G02*
X72902500Y-73844999I0J-249999D01*
G01*
X72902500Y-74745001D01*
G75*
G02*
X72652501Y-74995000I-249999J0D01*
G01*
X72127499Y-74995000D01*
G75*
G02*
X71877500Y-74745001I0J249999D01*
G01*
G37*
G36*
G01*
X70052500Y-74745001D02*
X70052500Y-73844999D01*
G75*
G02*
X70302499Y-73595000I249999J0D01*
G01*
X70827501Y-73595000D01*
G75*
G02*
X71077500Y-73844999I0J-249999D01*
G01*
X71077500Y-74745001D01*
G75*
G02*
X70827501Y-74995000I-249999J0D01*
G01*
X70302499Y-74995000D01*
G75*
G02*
X70052500Y-74745001I0J249999D01*
G01*
G37*
D15*
X54880000Y-73025000D03*
X56880000Y-72075000D03*
X56880000Y-73975000D03*
D18*
X59690000Y-49530000D03*
X62230000Y-49530000D03*
D19*
X64770000Y-49530000D03*
D18*
X43180000Y-34290000D03*
X43180000Y-31750000D03*
D19*
X43180000Y-29210000D03*
D18*
X78740000Y-99695000D03*
X76200000Y-99695000D03*
X73660000Y-99695000D03*
X71120000Y-99695000D03*
D19*
X68580000Y-99695000D03*
D18*
X30480000Y-48260000D03*
X33020000Y-48260000D03*
X30480000Y-45720000D03*
X33020000Y-45720000D03*
X30480000Y-43180000D03*
X33020000Y-43180000D03*
X30480000Y-40640000D03*
X33020000Y-40640000D03*
X30480000Y-38100000D03*
D19*
X33020000Y-38100000D03*
D18*
X78740000Y-91440000D03*
X78740000Y-88900000D03*
X78740000Y-86360000D03*
X78740000Y-83820000D03*
D19*
X78740000Y-81280000D03*
D18*
X78740000Y-76200000D03*
D19*
X78740000Y-73660000D03*
D18*
X78740000Y-68580000D03*
D19*
X78740000Y-66040000D03*
D18*
X78740000Y-60960000D03*
X78740000Y-58420000D03*
X78740000Y-55880000D03*
D19*
X78740000Y-53340000D03*
D18*
X78740000Y-48260000D03*
X78740000Y-45720000D03*
X78740000Y-43180000D03*
X78740000Y-40640000D03*
D19*
X78740000Y-38100000D03*
D20*
X30480000Y-99060000D03*
X30480000Y-30480000D03*
G36*
G01*
X65910000Y-72677000D02*
X65910000Y-73627000D01*
G75*
G02*
X65660000Y-73877000I-250000J0D01*
G01*
X65160000Y-73877000D01*
G75*
G02*
X64910000Y-73627000I0J250000D01*
G01*
X64910000Y-72677000D01*
G75*
G02*
X65160000Y-72427000I250000J0D01*
G01*
X65660000Y-72427000D01*
G75*
G02*
X65910000Y-72677000I0J-250000D01*
G01*
G37*
G36*
G01*
X67810000Y-72677000D02*
X67810000Y-73627000D01*
G75*
G02*
X67560000Y-73877000I-250000J0D01*
G01*
X67060000Y-73877000D01*
G75*
G02*
X66810000Y-73627000I0J250000D01*
G01*
X66810000Y-72677000D01*
G75*
G02*
X67060000Y-72427000I250000J0D01*
G01*
X67560000Y-72427000D01*
G75*
G02*
X67810000Y-72677000I0J-250000D01*
G01*
G37*
G36*
G01*
X61460000Y-72677000D02*
X61460000Y-73627000D01*
G75*
G02*
X61210000Y-73877000I-250000J0D01*
G01*
X60710000Y-73877000D01*
G75*
G02*
X60460000Y-73627000I0J250000D01*
G01*
X60460000Y-72677000D01*
G75*
G02*
X60710000Y-72427000I250000J0D01*
G01*
X61210000Y-72427000D01*
G75*
G02*
X61460000Y-72677000I0J-250000D01*
G01*
G37*
G36*
G01*
X63360000Y-72677000D02*
X63360000Y-73627000D01*
G75*
G02*
X63110000Y-73877000I-250000J0D01*
G01*
X62610000Y-73877000D01*
G75*
G02*
X62360000Y-73627000I0J250000D01*
G01*
X62360000Y-72677000D01*
G75*
G02*
X62610000Y-72427000I250000J0D01*
G01*
X63110000Y-72427000D01*
G75*
G02*
X63360000Y-72677000I0J-250000D01*
G01*
G37*
G36*
G01*
X48395000Y-48100000D02*
X48395000Y-47150000D01*
G75*
G02*
X48645000Y-46900000I250000J0D01*
G01*
X49145000Y-46900000D01*
G75*
G02*
X49395000Y-47150000I0J-250000D01*
G01*
X49395000Y-48100000D01*
G75*
G02*
X49145000Y-48350000I-250000J0D01*
G01*
X48645000Y-48350000D01*
G75*
G02*
X48395000Y-48100000I0J250000D01*
G01*
G37*
G36*
G01*
X46495000Y-48100000D02*
X46495000Y-47150000D01*
G75*
G02*
X46745000Y-46900000I250000J0D01*
G01*
X47245000Y-46900000D01*
G75*
G02*
X47495000Y-47150000I0J-250000D01*
G01*
X47495000Y-48100000D01*
G75*
G02*
X47245000Y-48350000I-250000J0D01*
G01*
X46745000Y-48350000D01*
G75*
G02*
X46495000Y-48100000I0J250000D01*
G01*
G37*
G36*
G01*
X55110000Y-31275000D02*
X55110000Y-32225000D01*
G75*
G02*
X54860000Y-32475000I-250000J0D01*
G01*
X54360000Y-32475000D01*
G75*
G02*
X54110000Y-32225000I0J250000D01*
G01*
X54110000Y-31275000D01*
G75*
G02*
X54360000Y-31025000I250000J0D01*
G01*
X54860000Y-31025000D01*
G75*
G02*
X55110000Y-31275000I0J-250000D01*
G01*
G37*
G36*
G01*
X57010000Y-31275000D02*
X57010000Y-32225000D01*
G75*
G02*
X56760000Y-32475000I-250000J0D01*
G01*
X56260000Y-32475000D01*
G75*
G02*
X56010000Y-32225000I0J250000D01*
G01*
X56010000Y-31275000D01*
G75*
G02*
X56260000Y-31025000I250000J0D01*
G01*
X56760000Y-31025000D01*
G75*
G02*
X57010000Y-31275000I0J-250000D01*
G01*
G37*
G36*
G01*
X47490000Y-28100000D02*
X47490000Y-29050000D01*
G75*
G02*
X47240000Y-29300000I-250000J0D01*
G01*
X46740000Y-29300000D01*
G75*
G02*
X46490000Y-29050000I0J250000D01*
G01*
X46490000Y-28100000D01*
G75*
G02*
X46740000Y-27850000I250000J0D01*
G01*
X47240000Y-27850000D01*
G75*
G02*
X47490000Y-28100000I0J-250000D01*
G01*
G37*
G36*
G01*
X49390000Y-28100000D02*
X49390000Y-29050000D01*
G75*
G02*
X49140000Y-29300000I-250000J0D01*
G01*
X48640000Y-29300000D01*
G75*
G02*
X48390000Y-29050000I0J250000D01*
G01*
X48390000Y-28100000D01*
G75*
G02*
X48640000Y-27850000I250000J0D01*
G01*
X49140000Y-27850000D01*
G75*
G02*
X49390000Y-28100000I0J-250000D01*
G01*
G37*
G36*
G01*
X47490000Y-31275000D02*
X47490000Y-32225000D01*
G75*
G02*
X47240000Y-32475000I-250000J0D01*
G01*
X46740000Y-32475000D01*
G75*
G02*
X46490000Y-32225000I0J250000D01*
G01*
X46490000Y-31275000D01*
G75*
G02*
X46740000Y-31025000I250000J0D01*
G01*
X47240000Y-31025000D01*
G75*
G02*
X47490000Y-31275000I0J-250000D01*
G01*
G37*
G36*
G01*
X49390000Y-31275000D02*
X49390000Y-32225000D01*
G75*
G02*
X49140000Y-32475000I-250000J0D01*
G01*
X48640000Y-32475000D01*
G75*
G02*
X48390000Y-32225000I0J250000D01*
G01*
X48390000Y-31275000D01*
G75*
G02*
X48640000Y-31025000I250000J0D01*
G01*
X49140000Y-31025000D01*
G75*
G02*
X49390000Y-31275000I0J-250000D01*
G01*
G37*
G36*
G01*
X56645000Y-96995000D02*
X56645000Y-96045000D01*
G75*
G02*
X56895000Y-95795000I250000J0D01*
G01*
X57395000Y-95795000D01*
G75*
G02*
X57645000Y-96045000I0J-250000D01*
G01*
X57645000Y-96995000D01*
G75*
G02*
X57395000Y-97245000I-250000J0D01*
G01*
X56895000Y-97245000D01*
G75*
G02*
X56645000Y-96995000I0J250000D01*
G01*
G37*
G36*
G01*
X54745000Y-96995000D02*
X54745000Y-96045000D01*
G75*
G02*
X54995000Y-95795000I250000J0D01*
G01*
X55495000Y-95795000D01*
G75*
G02*
X55745000Y-96045000I0J-250000D01*
G01*
X55745000Y-96995000D01*
G75*
G02*
X55495000Y-97245000I-250000J0D01*
G01*
X54995000Y-97245000D01*
G75*
G02*
X54745000Y-96995000I0J250000D01*
G01*
G37*
G36*
G01*
X44610000Y-67445000D02*
X45560000Y-67445000D01*
G75*
G02*
X45810000Y-67695000I0J-250000D01*
G01*
X45810000Y-68195000D01*
G75*
G02*
X45560000Y-68445000I-250000J0D01*
G01*
X44610000Y-68445000D01*
G75*
G02*
X44360000Y-68195000I0J250000D01*
G01*
X44360000Y-67695000D01*
G75*
G02*
X44610000Y-67445000I250000J0D01*
G01*
G37*
G36*
G01*
X44610000Y-65545000D02*
X45560000Y-65545000D01*
G75*
G02*
X45810000Y-65795000I0J-250000D01*
G01*
X45810000Y-66295000D01*
G75*
G02*
X45560000Y-66545000I-250000J0D01*
G01*
X44610000Y-66545000D01*
G75*
G02*
X44360000Y-66295000I0J250000D01*
G01*
X44360000Y-65795000D01*
G75*
G02*
X44610000Y-65545000I250000J0D01*
G01*
G37*
G36*
G01*
X33815000Y-67445000D02*
X34765000Y-67445000D01*
G75*
G02*
X35015000Y-67695000I0J-250000D01*
G01*
X35015000Y-68195000D01*
G75*
G02*
X34765000Y-68445000I-250000J0D01*
G01*
X33815000Y-68445000D01*
G75*
G02*
X33565000Y-68195000I0J250000D01*
G01*
X33565000Y-67695000D01*
G75*
G02*
X33815000Y-67445000I250000J0D01*
G01*
G37*
G36*
G01*
X33815000Y-65545000D02*
X34765000Y-65545000D01*
G75*
G02*
X35015000Y-65795000I0J-250000D01*
G01*
X35015000Y-66295000D01*
G75*
G02*
X34765000Y-66545000I-250000J0D01*
G01*
X33815000Y-66545000D01*
G75*
G02*
X33565000Y-66295000I0J250000D01*
G01*
X33565000Y-65795000D01*
G75*
G02*
X33815000Y-65545000I250000J0D01*
G01*
G37*
G36*
G01*
X39210000Y-53840000D02*
X38260000Y-53840000D01*
G75*
G02*
X38010000Y-53590000I0J250000D01*
G01*
X38010000Y-53090000D01*
G75*
G02*
X38260000Y-52840000I250000J0D01*
G01*
X39210000Y-52840000D01*
G75*
G02*
X39460000Y-53090000I0J-250000D01*
G01*
X39460000Y-53590000D01*
G75*
G02*
X39210000Y-53840000I-250000J0D01*
G01*
G37*
G36*
G01*
X39210000Y-55740000D02*
X38260000Y-55740000D01*
G75*
G02*
X38010000Y-55490000I0J250000D01*
G01*
X38010000Y-54990000D01*
G75*
G02*
X38260000Y-54740000I250000J0D01*
G01*
X39210000Y-54740000D01*
G75*
G02*
X39460000Y-54990000I0J-250000D01*
G01*
X39460000Y-55490000D01*
G75*
G02*
X39210000Y-55740000I-250000J0D01*
G01*
G37*
G36*
G01*
X39210000Y-57650000D02*
X38260000Y-57650000D01*
G75*
G02*
X38010000Y-57400000I0J250000D01*
G01*
X38010000Y-56900000D01*
G75*
G02*
X38260000Y-56650000I250000J0D01*
G01*
X39210000Y-56650000D01*
G75*
G02*
X39460000Y-56900000I0J-250000D01*
G01*
X39460000Y-57400000D01*
G75*
G02*
X39210000Y-57650000I-250000J0D01*
G01*
G37*
G36*
G01*
X39210000Y-59550000D02*
X38260000Y-59550000D01*
G75*
G02*
X38010000Y-59300000I0J250000D01*
G01*
X38010000Y-58800000D01*
G75*
G02*
X38260000Y-58550000I250000J0D01*
G01*
X39210000Y-58550000D01*
G75*
G02*
X39460000Y-58800000I0J-250000D01*
G01*
X39460000Y-59300000D01*
G75*
G02*
X39210000Y-59550000I-250000J0D01*
G01*
G37*
G36*
G01*
X65905000Y-86520000D02*
X65905000Y-87470000D01*
G75*
G02*
X65655000Y-87720000I-250000J0D01*
G01*
X65155000Y-87720000D01*
G75*
G02*
X64905000Y-87470000I0J250000D01*
G01*
X64905000Y-86520000D01*
G75*
G02*
X65155000Y-86270000I250000J0D01*
G01*
X65655000Y-86270000D01*
G75*
G02*
X65905000Y-86520000I0J-250000D01*
G01*
G37*
G36*
G01*
X67805000Y-86520000D02*
X67805000Y-87470000D01*
G75*
G02*
X67555000Y-87720000I-250000J0D01*
G01*
X67055000Y-87720000D01*
G75*
G02*
X66805000Y-87470000I0J250000D01*
G01*
X66805000Y-86520000D01*
G75*
G02*
X67055000Y-86270000I250000J0D01*
G01*
X67555000Y-86270000D01*
G75*
G02*
X67805000Y-86520000I0J-250000D01*
G01*
G37*
G36*
G01*
X61460000Y-86520000D02*
X61460000Y-87470000D01*
G75*
G02*
X61210000Y-87720000I-250000J0D01*
G01*
X60710000Y-87720000D01*
G75*
G02*
X60460000Y-87470000I0J250000D01*
G01*
X60460000Y-86520000D01*
G75*
G02*
X60710000Y-86270000I250000J0D01*
G01*
X61210000Y-86270000D01*
G75*
G02*
X61460000Y-86520000I0J-250000D01*
G01*
G37*
G36*
G01*
X63360000Y-86520000D02*
X63360000Y-87470000D01*
G75*
G02*
X63110000Y-87720000I-250000J0D01*
G01*
X62610000Y-87720000D01*
G75*
G02*
X62360000Y-87470000I0J250000D01*
G01*
X62360000Y-86520000D01*
G75*
G02*
X62610000Y-86270000I250000J0D01*
G01*
X63110000Y-86270000D01*
G75*
G02*
X63360000Y-86520000I0J-250000D01*
G01*
G37*
G36*
G01*
X40505000Y-73185000D02*
X40505000Y-74135000D01*
G75*
G02*
X40255000Y-74385000I-250000J0D01*
G01*
X39755000Y-74385000D01*
G75*
G02*
X39505000Y-74135000I0J250000D01*
G01*
X39505000Y-73185000D01*
G75*
G02*
X39755000Y-72935000I250000J0D01*
G01*
X40255000Y-72935000D01*
G75*
G02*
X40505000Y-73185000I0J-250000D01*
G01*
G37*
G36*
G01*
X42405000Y-73185000D02*
X42405000Y-74135000D01*
G75*
G02*
X42155000Y-74385000I-250000J0D01*
G01*
X41655000Y-74385000D01*
G75*
G02*
X41405000Y-74135000I0J250000D01*
G01*
X41405000Y-73185000D01*
G75*
G02*
X41655000Y-72935000I250000J0D01*
G01*
X42155000Y-72935000D01*
G75*
G02*
X42405000Y-73185000I0J-250000D01*
G01*
G37*
G36*
G01*
X36065000Y-73185000D02*
X36065000Y-74135000D01*
G75*
G02*
X35815000Y-74385000I-250000J0D01*
G01*
X35315000Y-74385000D01*
G75*
G02*
X35065000Y-74135000I0J250000D01*
G01*
X35065000Y-73185000D01*
G75*
G02*
X35315000Y-72935000I250000J0D01*
G01*
X35815000Y-72935000D01*
G75*
G02*
X36065000Y-73185000I0J-250000D01*
G01*
G37*
G36*
G01*
X37965000Y-73185000D02*
X37965000Y-74135000D01*
G75*
G02*
X37715000Y-74385000I-250000J0D01*
G01*
X37215000Y-74385000D01*
G75*
G02*
X36965000Y-74135000I0J250000D01*
G01*
X36965000Y-73185000D01*
G75*
G02*
X37215000Y-72935000I250000J0D01*
G01*
X37715000Y-72935000D01*
G75*
G02*
X37965000Y-73185000I0J-250000D01*
G01*
G37*
G36*
G01*
X40505000Y-84361000D02*
X40505000Y-85311000D01*
G75*
G02*
X40255000Y-85561000I-250000J0D01*
G01*
X39755000Y-85561000D01*
G75*
G02*
X39505000Y-85311000I0J250000D01*
G01*
X39505000Y-84361000D01*
G75*
G02*
X39755000Y-84111000I250000J0D01*
G01*
X40255000Y-84111000D01*
G75*
G02*
X40505000Y-84361000I0J-250000D01*
G01*
G37*
G36*
G01*
X42405000Y-84361000D02*
X42405000Y-85311000D01*
G75*
G02*
X42155000Y-85561000I-250000J0D01*
G01*
X41655000Y-85561000D01*
G75*
G02*
X41405000Y-85311000I0J250000D01*
G01*
X41405000Y-84361000D01*
G75*
G02*
X41655000Y-84111000I250000J0D01*
G01*
X42155000Y-84111000D01*
G75*
G02*
X42405000Y-84361000I0J-250000D01*
G01*
G37*
G36*
G01*
X36065000Y-84361000D02*
X36065000Y-85311000D01*
G75*
G02*
X35815000Y-85561000I-250000J0D01*
G01*
X35315000Y-85561000D01*
G75*
G02*
X35065000Y-85311000I0J250000D01*
G01*
X35065000Y-84361000D01*
G75*
G02*
X35315000Y-84111000I250000J0D01*
G01*
X35815000Y-84111000D01*
G75*
G02*
X36065000Y-84361000I0J-250000D01*
G01*
G37*
G36*
G01*
X37965000Y-84361000D02*
X37965000Y-85311000D01*
G75*
G02*
X37715000Y-85561000I-250000J0D01*
G01*
X37215000Y-85561000D01*
G75*
G02*
X36965000Y-85311000I0J250000D01*
G01*
X36965000Y-84361000D01*
G75*
G02*
X37215000Y-84111000I250000J0D01*
G01*
X37715000Y-84111000D01*
G75*
G02*
X37965000Y-84361000I0J-250000D01*
G01*
G37*
G36*
G01*
X36035000Y-53840000D02*
X35085000Y-53840000D01*
G75*
G02*
X34835000Y-53590000I0J250000D01*
G01*
X34835000Y-53090000D01*
G75*
G02*
X35085000Y-52840000I250000J0D01*
G01*
X36035000Y-52840000D01*
G75*
G02*
X36285000Y-53090000I0J-250000D01*
G01*
X36285000Y-53590000D01*
G75*
G02*
X36035000Y-53840000I-250000J0D01*
G01*
G37*
G36*
G01*
X36035000Y-55740000D02*
X35085000Y-55740000D01*
G75*
G02*
X34835000Y-55490000I0J250000D01*
G01*
X34835000Y-54990000D01*
G75*
G02*
X35085000Y-54740000I250000J0D01*
G01*
X36035000Y-54740000D01*
G75*
G02*
X36285000Y-54990000I0J-250000D01*
G01*
X36285000Y-55490000D01*
G75*
G02*
X36035000Y-55740000I-250000J0D01*
G01*
G37*
G36*
G01*
X35085000Y-58555000D02*
X36035000Y-58555000D01*
G75*
G02*
X36285000Y-58805000I0J-250000D01*
G01*
X36285000Y-59305000D01*
G75*
G02*
X36035000Y-59555000I-250000J0D01*
G01*
X35085000Y-59555000D01*
G75*
G02*
X34835000Y-59305000I0J250000D01*
G01*
X34835000Y-58805000D01*
G75*
G02*
X35085000Y-58555000I250000J0D01*
G01*
G37*
G36*
G01*
X35085000Y-56655000D02*
X36035000Y-56655000D01*
G75*
G02*
X36285000Y-56905000I0J-250000D01*
G01*
X36285000Y-57405000D01*
G75*
G02*
X36035000Y-57655000I-250000J0D01*
G01*
X35085000Y-57655000D01*
G75*
G02*
X34835000Y-57405000I0J250000D01*
G01*
X34835000Y-56905000D01*
G75*
G02*
X35085000Y-56655000I250000J0D01*
G01*
G37*
G36*
G01*
X35720000Y-47760000D02*
X36670000Y-47760000D01*
G75*
G02*
X36920000Y-48010000I0J-250000D01*
G01*
X36920000Y-48510000D01*
G75*
G02*
X36670000Y-48760000I-250000J0D01*
G01*
X35720000Y-48760000D01*
G75*
G02*
X35470000Y-48510000I0J250000D01*
G01*
X35470000Y-48010000D01*
G75*
G02*
X35720000Y-47760000I250000J0D01*
G01*
G37*
G36*
G01*
X35720000Y-45860000D02*
X36670000Y-45860000D01*
G75*
G02*
X36920000Y-46110000I0J-250000D01*
G01*
X36920000Y-46610000D01*
G75*
G02*
X36670000Y-46860000I-250000J0D01*
G01*
X35720000Y-46860000D01*
G75*
G02*
X35470000Y-46610000I0J250000D01*
G01*
X35470000Y-46110000D01*
G75*
G02*
X35720000Y-45860000I250000J0D01*
G01*
G37*
G36*
G01*
X35720000Y-40140000D02*
X36670000Y-40140000D01*
G75*
G02*
X36920000Y-40390000I0J-250000D01*
G01*
X36920000Y-40890000D01*
G75*
G02*
X36670000Y-41140000I-250000J0D01*
G01*
X35720000Y-41140000D01*
G75*
G02*
X35470000Y-40890000I0J250000D01*
G01*
X35470000Y-40390000D01*
G75*
G02*
X35720000Y-40140000I250000J0D01*
G01*
G37*
G36*
G01*
X35720000Y-38240000D02*
X36670000Y-38240000D01*
G75*
G02*
X36920000Y-38490000I0J-250000D01*
G01*
X36920000Y-38990000D01*
G75*
G02*
X36670000Y-39240000I-250000J0D01*
G01*
X35720000Y-39240000D01*
G75*
G02*
X35470000Y-38990000I0J250000D01*
G01*
X35470000Y-38490000D01*
G75*
G02*
X35720000Y-38240000I250000J0D01*
G01*
G37*
G36*
G01*
X63878000Y-31275000D02*
X63878000Y-32225000D01*
G75*
G02*
X63628000Y-32475000I-250000J0D01*
G01*
X63128000Y-32475000D01*
G75*
G02*
X62878000Y-32225000I0J250000D01*
G01*
X62878000Y-31275000D01*
G75*
G02*
X63128000Y-31025000I250000J0D01*
G01*
X63628000Y-31025000D01*
G75*
G02*
X63878000Y-31275000I0J-250000D01*
G01*
G37*
G36*
G01*
X65778000Y-31275000D02*
X65778000Y-32225000D01*
G75*
G02*
X65528000Y-32475000I-250000J0D01*
G01*
X65028000Y-32475000D01*
G75*
G02*
X64778000Y-32225000I0J250000D01*
G01*
X64778000Y-31275000D01*
G75*
G02*
X65028000Y-31025000I250000J0D01*
G01*
X65528000Y-31025000D01*
G75*
G02*
X65778000Y-31275000I0J-250000D01*
G01*
G37*
G36*
G01*
X56015000Y-44925000D02*
X56015000Y-43975000D01*
G75*
G02*
X56265000Y-43725000I250000J0D01*
G01*
X56765000Y-43725000D01*
G75*
G02*
X57015000Y-43975000I0J-250000D01*
G01*
X57015000Y-44925000D01*
G75*
G02*
X56765000Y-45175000I-250000J0D01*
G01*
X56265000Y-45175000D01*
G75*
G02*
X56015000Y-44925000I0J250000D01*
G01*
G37*
G36*
G01*
X54115000Y-44925000D02*
X54115000Y-43975000D01*
G75*
G02*
X54365000Y-43725000I250000J0D01*
G01*
X54865000Y-43725000D01*
G75*
G02*
X55115000Y-43975000I0J-250000D01*
G01*
X55115000Y-44925000D01*
G75*
G02*
X54865000Y-45175000I-250000J0D01*
G01*
X54365000Y-45175000D01*
G75*
G02*
X54115000Y-44925000I0J250000D01*
G01*
G37*
G36*
G01*
X70990000Y-96045000D02*
X70990000Y-96995000D01*
G75*
G02*
X70740000Y-97245000I-250000J0D01*
G01*
X70240000Y-97245000D01*
G75*
G02*
X69990000Y-96995000I0J250000D01*
G01*
X69990000Y-96045000D01*
G75*
G02*
X70240000Y-95795000I250000J0D01*
G01*
X70740000Y-95795000D01*
G75*
G02*
X70990000Y-96045000I0J-250000D01*
G01*
G37*
G36*
G01*
X72890000Y-96045000D02*
X72890000Y-96995000D01*
G75*
G02*
X72640000Y-97245000I-250000J0D01*
G01*
X72140000Y-97245000D01*
G75*
G02*
X71890000Y-96995000I0J250000D01*
G01*
X71890000Y-96045000D01*
G75*
G02*
X72140000Y-95795000I250000J0D01*
G01*
X72640000Y-95795000D01*
G75*
G02*
X72890000Y-96045000I0J-250000D01*
G01*
G37*
G36*
G01*
X56650000Y-87470000D02*
X56650000Y-86520000D01*
G75*
G02*
X56900000Y-86270000I250000J0D01*
G01*
X57400000Y-86270000D01*
G75*
G02*
X57650000Y-86520000I0J-250000D01*
G01*
X57650000Y-87470000D01*
G75*
G02*
X57400000Y-87720000I-250000J0D01*
G01*
X56900000Y-87720000D01*
G75*
G02*
X56650000Y-87470000I0J250000D01*
G01*
G37*
G36*
G01*
X54750000Y-87470000D02*
X54750000Y-86520000D01*
G75*
G02*
X55000000Y-86270000I250000J0D01*
G01*
X55500000Y-86270000D01*
G75*
G02*
X55750000Y-86520000I0J-250000D01*
G01*
X55750000Y-87470000D01*
G75*
G02*
X55500000Y-87720000I-250000J0D01*
G01*
X55000000Y-87720000D01*
G75*
G02*
X54750000Y-87470000I0J250000D01*
G01*
G37*
G36*
G01*
X55750000Y-65565000D02*
X55750000Y-66515000D01*
G75*
G02*
X55500000Y-66765000I-250000J0D01*
G01*
X55000000Y-66765000D01*
G75*
G02*
X54750000Y-66515000I0J250000D01*
G01*
X54750000Y-65565000D01*
G75*
G02*
X55000000Y-65315000I250000J0D01*
G01*
X55500000Y-65315000D01*
G75*
G02*
X55750000Y-65565000I0J-250000D01*
G01*
G37*
G36*
G01*
X57650000Y-65565000D02*
X57650000Y-66515000D01*
G75*
G02*
X57400000Y-66765000I-250000J0D01*
G01*
X56900000Y-66765000D01*
G75*
G02*
X56650000Y-66515000I0J250000D01*
G01*
X56650000Y-65565000D01*
G75*
G02*
X56900000Y-65315000I250000J0D01*
G01*
X57400000Y-65315000D01*
G75*
G02*
X57650000Y-65565000I0J-250000D01*
G01*
G37*
G36*
G01*
X70985000Y-80170000D02*
X70985000Y-81120000D01*
G75*
G02*
X70735000Y-81370000I-250000J0D01*
G01*
X70235000Y-81370000D01*
G75*
G02*
X69985000Y-81120000I0J250000D01*
G01*
X69985000Y-80170000D01*
G75*
G02*
X70235000Y-79920000I250000J0D01*
G01*
X70735000Y-79920000D01*
G75*
G02*
X70985000Y-80170000I0J-250000D01*
G01*
G37*
G36*
G01*
X72885000Y-80170000D02*
X72885000Y-81120000D01*
G75*
G02*
X72635000Y-81370000I-250000J0D01*
G01*
X72135000Y-81370000D01*
G75*
G02*
X71885000Y-81120000I0J250000D01*
G01*
X71885000Y-80170000D01*
G75*
G02*
X72135000Y-79920000I250000J0D01*
G01*
X72635000Y-79920000D01*
G75*
G02*
X72885000Y-80170000I0J-250000D01*
G01*
G37*
G36*
G01*
X71890000Y-68420000D02*
X71890000Y-67470000D01*
G75*
G02*
X72140000Y-67220000I250000J0D01*
G01*
X72640000Y-67220000D01*
G75*
G02*
X72890000Y-67470000I0J-250000D01*
G01*
X72890000Y-68420000D01*
G75*
G02*
X72640000Y-68670000I-250000J0D01*
G01*
X72140000Y-68670000D01*
G75*
G02*
X71890000Y-68420000I0J250000D01*
G01*
G37*
G36*
G01*
X69990000Y-68420000D02*
X69990000Y-67470000D01*
G75*
G02*
X70240000Y-67220000I250000J0D01*
G01*
X70740000Y-67220000D01*
G75*
G02*
X70990000Y-67470000I0J-250000D01*
G01*
X70990000Y-68420000D01*
G75*
G02*
X70740000Y-68670000I-250000J0D01*
G01*
X70240000Y-68670000D01*
G75*
G02*
X69990000Y-68420000I0J250000D01*
G01*
G37*
M02*
