G04 #@! TF.GenerationSoftware,KiCad,Pcbnew,5.1.12-84ad8e8a86~92~ubuntu20.04.1*
G04 #@! TF.CreationDate,2021-12-24T11:38:52-05:00*
G04 #@! TF.ProjectId,SSI2130_VCO,53534932-3133-4305-9f56-434f2e6b6963,0*
G04 #@! TF.SameCoordinates,Original*
G04 #@! TF.FileFunction,Legend,Bot*
G04 #@! TF.FilePolarity,Positive*
%FSLAX46Y46*%
G04 Gerber Fmt 4.6, Leading zero omitted, Abs format (unit mm)*
G04 Created by KiCad (PCBNEW 5.1.12-84ad8e8a86~92~ubuntu20.04.1) date 2021-12-24 11:38:52*
%MOMM*%
%LPD*%
G01*
G04 APERTURE LIST*
%ADD10C,0.150000*%
%ADD11C,0.120000*%
%ADD12C,1.440000*%
%ADD13O,1.700000X1.700000*%
%ADD14R,1.700000X1.700000*%
%ADD15C,5.600000*%
G04 APERTURE END LIST*
D10*
X79499833Y-27599714D02*
X79499833Y-28409238D01*
X79547452Y-28504476D01*
X79595071Y-28552095D01*
X79690309Y-28599714D01*
X79833166Y-28599714D01*
X79928404Y-28552095D01*
X79499833Y-28218761D02*
X79595071Y-28266380D01*
X79785547Y-28266380D01*
X79880785Y-28218761D01*
X79928404Y-28171142D01*
X79976023Y-28075904D01*
X79976023Y-27790190D01*
X79928404Y-27694952D01*
X79880785Y-27647333D01*
X79785547Y-27599714D01*
X79595071Y-27599714D01*
X79499833Y-27647333D01*
X79023642Y-28266380D02*
X79023642Y-27599714D01*
X79023642Y-27266380D02*
X79071261Y-27314000D01*
X79023642Y-27361619D01*
X78976023Y-27314000D01*
X79023642Y-27266380D01*
X79023642Y-27361619D01*
X78690309Y-27599714D02*
X78309357Y-27599714D01*
X78547452Y-27266380D02*
X78547452Y-28123523D01*
X78499833Y-28218761D01*
X78404595Y-28266380D01*
X78309357Y-28266380D01*
X77976023Y-28266380D02*
X77976023Y-27266380D01*
X77547452Y-28266380D02*
X77547452Y-27742571D01*
X77595071Y-27647333D01*
X77690309Y-27599714D01*
X77833166Y-27599714D01*
X77928404Y-27647333D01*
X77976023Y-27694952D01*
X76642690Y-27599714D02*
X76642690Y-28266380D01*
X77071261Y-27599714D02*
X77071261Y-28123523D01*
X77023642Y-28218761D01*
X76928404Y-28266380D01*
X76785547Y-28266380D01*
X76690309Y-28218761D01*
X76642690Y-28171142D01*
X76166500Y-28266380D02*
X76166500Y-27266380D01*
X76166500Y-27647333D02*
X76071261Y-27599714D01*
X75880785Y-27599714D01*
X75785547Y-27647333D01*
X75737928Y-27694952D01*
X75690309Y-27790190D01*
X75690309Y-28075904D01*
X75737928Y-28171142D01*
X75785547Y-28218761D01*
X75880785Y-28266380D01*
X76071261Y-28266380D01*
X76166500Y-28218761D01*
X75261738Y-28171142D02*
X75214119Y-28218761D01*
X75261738Y-28266380D01*
X75309357Y-28218761D01*
X75261738Y-28171142D01*
X75261738Y-28266380D01*
X74356976Y-28218761D02*
X74452214Y-28266380D01*
X74642690Y-28266380D01*
X74737928Y-28218761D01*
X74785547Y-28171142D01*
X74833166Y-28075904D01*
X74833166Y-27790190D01*
X74785547Y-27694952D01*
X74737928Y-27647333D01*
X74642690Y-27599714D01*
X74452214Y-27599714D01*
X74356976Y-27647333D01*
X73785547Y-28266380D02*
X73880785Y-28218761D01*
X73928404Y-28171142D01*
X73976023Y-28075904D01*
X73976023Y-27790190D01*
X73928404Y-27694952D01*
X73880785Y-27647333D01*
X73785547Y-27599714D01*
X73642690Y-27599714D01*
X73547452Y-27647333D01*
X73499833Y-27694952D01*
X73452214Y-27790190D01*
X73452214Y-28075904D01*
X73499833Y-28171142D01*
X73547452Y-28218761D01*
X73642690Y-28266380D01*
X73785547Y-28266380D01*
X73023642Y-28266380D02*
X73023642Y-27599714D01*
X73023642Y-27694952D02*
X72976023Y-27647333D01*
X72880785Y-27599714D01*
X72737928Y-27599714D01*
X72642690Y-27647333D01*
X72595071Y-27742571D01*
X72595071Y-28266380D01*
X72595071Y-27742571D02*
X72547452Y-27647333D01*
X72452214Y-27599714D01*
X72309357Y-27599714D01*
X72214119Y-27647333D01*
X72166500Y-27742571D01*
X72166500Y-28266380D01*
X70976023Y-27218761D02*
X71833166Y-28504476D01*
X70356976Y-27266380D02*
X70356976Y-27980666D01*
X70404595Y-28123523D01*
X70499833Y-28218761D01*
X70642690Y-28266380D01*
X70737928Y-28266380D01*
X69737928Y-28266380D02*
X69833166Y-28218761D01*
X69880785Y-28171142D01*
X69928404Y-28075904D01*
X69928404Y-27790190D01*
X69880785Y-27694952D01*
X69833166Y-27647333D01*
X69737928Y-27599714D01*
X69595071Y-27599714D01*
X69499833Y-27647333D01*
X69452214Y-27694952D01*
X69404595Y-27790190D01*
X69404595Y-28075904D01*
X69452214Y-28171142D01*
X69499833Y-28218761D01*
X69595071Y-28266380D01*
X69737928Y-28266380D01*
X68976023Y-28266380D02*
X68976023Y-27599714D01*
X68976023Y-27790190D02*
X68928404Y-27694952D01*
X68880785Y-27647333D01*
X68785547Y-27599714D01*
X68690309Y-27599714D01*
X67928404Y-28266380D02*
X67928404Y-27266380D01*
X67928404Y-28218761D02*
X68023642Y-28266380D01*
X68214119Y-28266380D01*
X68309357Y-28218761D01*
X68356976Y-28171142D01*
X68404595Y-28075904D01*
X68404595Y-27790190D01*
X68356976Y-27694952D01*
X68309357Y-27647333D01*
X68214119Y-27599714D01*
X68023642Y-27599714D01*
X67928404Y-27647333D01*
X67023642Y-28266380D02*
X67023642Y-27742571D01*
X67071261Y-27647333D01*
X67166500Y-27599714D01*
X67356976Y-27599714D01*
X67452214Y-27647333D01*
X67023642Y-28218761D02*
X67118880Y-28266380D01*
X67356976Y-28266380D01*
X67452214Y-28218761D01*
X67499833Y-28123523D01*
X67499833Y-28028285D01*
X67452214Y-27933047D01*
X67356976Y-27885428D01*
X67118880Y-27885428D01*
X67023642Y-27837809D01*
X66547452Y-27599714D02*
X66547452Y-28266380D01*
X66547452Y-27694952D02*
X66499833Y-27647333D01*
X66404595Y-27599714D01*
X66261738Y-27599714D01*
X66166500Y-27647333D01*
X66118880Y-27742571D01*
X66118880Y-28266380D01*
X65690309Y-27980666D02*
X65214119Y-27980666D01*
X65785547Y-28266380D02*
X65452214Y-27266380D01*
X65118880Y-28266380D01*
X64356976Y-28218761D02*
X64452214Y-28266380D01*
X64642690Y-28266380D01*
X64737928Y-28218761D01*
X64785547Y-28171142D01*
X64833166Y-28075904D01*
X64833166Y-27790190D01*
X64785547Y-27694952D01*
X64737928Y-27647333D01*
X64642690Y-27599714D01*
X64452214Y-27599714D01*
X64356976Y-27647333D01*
X63547452Y-28218761D02*
X63642690Y-28266380D01*
X63833166Y-28266380D01*
X63928404Y-28218761D01*
X63976023Y-28123523D01*
X63976023Y-27742571D01*
X63928404Y-27647333D01*
X63833166Y-27599714D01*
X63642690Y-27599714D01*
X63547452Y-27647333D01*
X63499833Y-27742571D01*
X63499833Y-27837809D01*
X63976023Y-27933047D01*
X63214119Y-27599714D02*
X62833166Y-27599714D01*
X63071261Y-27266380D02*
X63071261Y-28123523D01*
X63023642Y-28218761D01*
X62928404Y-28266380D01*
X62833166Y-28266380D01*
X62356976Y-28266380D02*
X62452214Y-28218761D01*
X62499833Y-28171142D01*
X62547452Y-28075904D01*
X62547452Y-27790190D01*
X62499833Y-27694952D01*
X62452214Y-27647333D01*
X62356976Y-27599714D01*
X62214119Y-27599714D01*
X62118880Y-27647333D01*
X62071261Y-27694952D01*
X62023642Y-27790190D01*
X62023642Y-28075904D01*
X62071261Y-28171142D01*
X62118880Y-28218761D01*
X62214119Y-28266380D01*
X62356976Y-28266380D01*
X60880785Y-27218761D02*
X61737928Y-28504476D01*
X60595071Y-28218761D02*
X60452214Y-28266380D01*
X60214119Y-28266380D01*
X60118880Y-28218761D01*
X60071261Y-28171142D01*
X60023642Y-28075904D01*
X60023642Y-27980666D01*
X60071261Y-27885428D01*
X60118880Y-27837809D01*
X60214119Y-27790190D01*
X60404595Y-27742571D01*
X60499833Y-27694952D01*
X60547452Y-27647333D01*
X60595071Y-27552095D01*
X60595071Y-27456857D01*
X60547452Y-27361619D01*
X60499833Y-27314000D01*
X60404595Y-27266380D01*
X60166500Y-27266380D01*
X60023642Y-27314000D01*
X59642690Y-28218761D02*
X59499833Y-28266380D01*
X59261738Y-28266380D01*
X59166500Y-28218761D01*
X59118880Y-28171142D01*
X59071261Y-28075904D01*
X59071261Y-27980666D01*
X59118880Y-27885428D01*
X59166500Y-27837809D01*
X59261738Y-27790190D01*
X59452214Y-27742571D01*
X59547452Y-27694952D01*
X59595071Y-27647333D01*
X59642690Y-27552095D01*
X59642690Y-27456857D01*
X59595071Y-27361619D01*
X59547452Y-27314000D01*
X59452214Y-27266380D01*
X59214119Y-27266380D01*
X59071261Y-27314000D01*
X58642690Y-28266380D02*
X58642690Y-27266380D01*
X58214119Y-27361619D02*
X58166500Y-27314000D01*
X58071261Y-27266380D01*
X57833166Y-27266380D01*
X57737928Y-27314000D01*
X57690309Y-27361619D01*
X57642690Y-27456857D01*
X57642690Y-27552095D01*
X57690309Y-27694952D01*
X58261738Y-28266380D01*
X57642690Y-28266380D01*
X56690309Y-28266380D02*
X57261738Y-28266380D01*
X56976023Y-28266380D02*
X56976023Y-27266380D01*
X57071261Y-27409238D01*
X57166500Y-27504476D01*
X57261738Y-27552095D01*
X56356976Y-27266380D02*
X55737928Y-27266380D01*
X56071261Y-27647333D01*
X55928404Y-27647333D01*
X55833166Y-27694952D01*
X55785547Y-27742571D01*
X55737928Y-27837809D01*
X55737928Y-28075904D01*
X55785547Y-28171142D01*
X55833166Y-28218761D01*
X55928404Y-28266380D01*
X56214119Y-28266380D01*
X56309357Y-28218761D01*
X56356976Y-28171142D01*
X55118880Y-27266380D02*
X55023642Y-27266380D01*
X54928404Y-27314000D01*
X54880785Y-27361619D01*
X54833166Y-27456857D01*
X54785547Y-27647333D01*
X54785547Y-27885428D01*
X54833166Y-28075904D01*
X54880785Y-28171142D01*
X54928404Y-28218761D01*
X55023642Y-28266380D01*
X55118880Y-28266380D01*
X55214119Y-28218761D01*
X55261738Y-28171142D01*
X55309357Y-28075904D01*
X55356976Y-27885428D01*
X55356976Y-27647333D01*
X55309357Y-27456857D01*
X55261738Y-27361619D01*
X55214119Y-27314000D01*
X55118880Y-27266380D01*
X54595071Y-28361619D02*
X53833166Y-28361619D01*
X53737928Y-27266380D02*
X53404595Y-28266380D01*
X53071261Y-27266380D01*
X52166500Y-28171142D02*
X52214119Y-28218761D01*
X52356976Y-28266380D01*
X52452214Y-28266380D01*
X52595071Y-28218761D01*
X52690309Y-28123523D01*
X52737928Y-28028285D01*
X52785547Y-27837809D01*
X52785547Y-27694952D01*
X52737928Y-27504476D01*
X52690309Y-27409238D01*
X52595071Y-27314000D01*
X52452214Y-27266380D01*
X52356976Y-27266380D01*
X52214119Y-27314000D01*
X52166500Y-27361619D01*
X51547452Y-27266380D02*
X51356976Y-27266380D01*
X51261738Y-27314000D01*
X51166500Y-27409238D01*
X51118880Y-27599714D01*
X51118880Y-27933047D01*
X51166500Y-28123523D01*
X51261738Y-28218761D01*
X51356976Y-28266380D01*
X51547452Y-28266380D01*
X51642690Y-28218761D01*
X51737928Y-28123523D01*
X51785547Y-27933047D01*
X51785547Y-27599714D01*
X51737928Y-27409238D01*
X51642690Y-27314000D01*
X51547452Y-27266380D01*
X79928404Y-29916380D02*
X79928404Y-29249714D01*
X79928404Y-29440190D02*
X79880785Y-29344952D01*
X79833166Y-29297333D01*
X79737928Y-29249714D01*
X79642690Y-29249714D01*
X78928404Y-29868761D02*
X79023642Y-29916380D01*
X79214119Y-29916380D01*
X79309357Y-29868761D01*
X79356976Y-29773523D01*
X79356976Y-29392571D01*
X79309357Y-29297333D01*
X79214119Y-29249714D01*
X79023642Y-29249714D01*
X78928404Y-29297333D01*
X78880785Y-29392571D01*
X78880785Y-29487809D01*
X79356976Y-29583047D01*
X78547452Y-29249714D02*
X78309357Y-29916380D01*
X78071261Y-29249714D01*
X76737928Y-28916380D02*
X76642690Y-28916380D01*
X76547452Y-28964000D01*
X76499833Y-29011619D01*
X76452214Y-29106857D01*
X76404595Y-29297333D01*
X76404595Y-29535428D01*
X76452214Y-29725904D01*
X76499833Y-29821142D01*
X76547452Y-29868761D01*
X76642690Y-29916380D01*
X76737928Y-29916380D01*
X76833166Y-29868761D01*
X76880785Y-29821142D01*
X76928404Y-29725904D01*
X76976023Y-29535428D01*
X76976023Y-29297333D01*
X76928404Y-29106857D01*
X76880785Y-29011619D01*
X76833166Y-28964000D01*
X76737928Y-28916380D01*
X79404595Y-31566380D02*
X79976023Y-31566380D01*
X79690309Y-31566380D02*
X79690309Y-30566380D01*
X79785547Y-30709238D01*
X79880785Y-30804476D01*
X79976023Y-30852095D01*
X79023642Y-30661619D02*
X78976023Y-30614000D01*
X78880785Y-30566380D01*
X78642690Y-30566380D01*
X78547452Y-30614000D01*
X78499833Y-30661619D01*
X78452214Y-30756857D01*
X78452214Y-30852095D01*
X78499833Y-30994952D01*
X79071261Y-31566380D01*
X78452214Y-31566380D01*
X77309357Y-30518761D02*
X78166500Y-31804476D01*
X77023642Y-30661619D02*
X76976023Y-30614000D01*
X76880785Y-30566380D01*
X76642690Y-30566380D01*
X76547452Y-30614000D01*
X76499833Y-30661619D01*
X76452214Y-30756857D01*
X76452214Y-30852095D01*
X76499833Y-30994952D01*
X77071261Y-31566380D01*
X76452214Y-31566380D01*
X76118880Y-30566380D02*
X75499833Y-30566380D01*
X75833166Y-30947333D01*
X75690309Y-30947333D01*
X75595071Y-30994952D01*
X75547452Y-31042571D01*
X75499833Y-31137809D01*
X75499833Y-31375904D01*
X75547452Y-31471142D01*
X75595071Y-31518761D01*
X75690309Y-31566380D01*
X75976023Y-31566380D01*
X76071261Y-31518761D01*
X76118880Y-31471142D01*
X74356976Y-30518761D02*
X75214119Y-31804476D01*
X74071261Y-30661619D02*
X74023642Y-30614000D01*
X73928404Y-30566380D01*
X73690309Y-30566380D01*
X73595071Y-30614000D01*
X73547452Y-30661619D01*
X73499833Y-30756857D01*
X73499833Y-30852095D01*
X73547452Y-30994952D01*
X74118880Y-31566380D01*
X73499833Y-31566380D01*
X72880785Y-30566380D02*
X72785547Y-30566380D01*
X72690309Y-30614000D01*
X72642690Y-30661619D01*
X72595071Y-30756857D01*
X72547452Y-30947333D01*
X72547452Y-31185428D01*
X72595071Y-31375904D01*
X72642690Y-31471142D01*
X72690309Y-31518761D01*
X72785547Y-31566380D01*
X72880785Y-31566380D01*
X72976023Y-31518761D01*
X73023642Y-31471142D01*
X73071261Y-31375904D01*
X73118880Y-31185428D01*
X73118880Y-30947333D01*
X73071261Y-30756857D01*
X73023642Y-30661619D01*
X72976023Y-30614000D01*
X72880785Y-30566380D01*
X72166500Y-30661619D02*
X72118880Y-30614000D01*
X72023642Y-30566380D01*
X71785547Y-30566380D01*
X71690309Y-30614000D01*
X71642690Y-30661619D01*
X71595071Y-30756857D01*
X71595071Y-30852095D01*
X71642690Y-30994952D01*
X72214119Y-31566380D01*
X71595071Y-31566380D01*
X70642690Y-31566380D02*
X71214119Y-31566380D01*
X70928404Y-31566380D02*
X70928404Y-30566380D01*
X71023642Y-30709238D01*
X71118880Y-30804476D01*
X71214119Y-30852095D01*
X38816166Y-48331428D02*
X38054261Y-48331428D01*
X37054261Y-48712380D02*
X37625690Y-48712380D01*
X37339976Y-48712380D02*
X37339976Y-47712380D01*
X37435214Y-47855238D01*
X37530452Y-47950476D01*
X37625690Y-47998095D01*
X36673309Y-47807619D02*
X36625690Y-47760000D01*
X36530452Y-47712380D01*
X36292357Y-47712380D01*
X36197119Y-47760000D01*
X36149500Y-47807619D01*
X36101880Y-47902857D01*
X36101880Y-47998095D01*
X36149500Y-48140952D01*
X36720928Y-48712380D01*
X36101880Y-48712380D01*
X35768547Y-48045714D02*
X35530452Y-48712380D01*
X35292357Y-48045714D01*
X37197119Y-45505714D02*
X37197119Y-46315238D01*
X37244738Y-46410476D01*
X37292357Y-46458095D01*
X37387595Y-46505714D01*
X37530452Y-46505714D01*
X37625690Y-46458095D01*
X37197119Y-46124761D02*
X37292357Y-46172380D01*
X37482833Y-46172380D01*
X37578071Y-46124761D01*
X37625690Y-46077142D01*
X37673309Y-45981904D01*
X37673309Y-45696190D01*
X37625690Y-45600952D01*
X37578071Y-45553333D01*
X37482833Y-45505714D01*
X37292357Y-45505714D01*
X37197119Y-45553333D01*
X36720928Y-45505714D02*
X36720928Y-46172380D01*
X36720928Y-45600952D02*
X36673309Y-45553333D01*
X36578071Y-45505714D01*
X36435214Y-45505714D01*
X36339976Y-45553333D01*
X36292357Y-45648571D01*
X36292357Y-46172380D01*
X35387595Y-46172380D02*
X35387595Y-45172380D01*
X35387595Y-46124761D02*
X35482833Y-46172380D01*
X35673309Y-46172380D01*
X35768547Y-46124761D01*
X35816166Y-46077142D01*
X35863785Y-45981904D01*
X35863785Y-45696190D01*
X35816166Y-45600952D01*
X35768547Y-45553333D01*
X35673309Y-45505714D01*
X35482833Y-45505714D01*
X35387595Y-45553333D01*
X37197119Y-42965714D02*
X37197119Y-43775238D01*
X37244738Y-43870476D01*
X37292357Y-43918095D01*
X37387595Y-43965714D01*
X37530452Y-43965714D01*
X37625690Y-43918095D01*
X37197119Y-43584761D02*
X37292357Y-43632380D01*
X37482833Y-43632380D01*
X37578071Y-43584761D01*
X37625690Y-43537142D01*
X37673309Y-43441904D01*
X37673309Y-43156190D01*
X37625690Y-43060952D01*
X37578071Y-43013333D01*
X37482833Y-42965714D01*
X37292357Y-42965714D01*
X37197119Y-43013333D01*
X36720928Y-42965714D02*
X36720928Y-43632380D01*
X36720928Y-43060952D02*
X36673309Y-43013333D01*
X36578071Y-42965714D01*
X36435214Y-42965714D01*
X36339976Y-43013333D01*
X36292357Y-43108571D01*
X36292357Y-43632380D01*
X35387595Y-43632380D02*
X35387595Y-42632380D01*
X35387595Y-43584761D02*
X35482833Y-43632380D01*
X35673309Y-43632380D01*
X35768547Y-43584761D01*
X35816166Y-43537142D01*
X35863785Y-43441904D01*
X35863785Y-43156190D01*
X35816166Y-43060952D01*
X35768547Y-43013333D01*
X35673309Y-42965714D01*
X35482833Y-42965714D01*
X35387595Y-43013333D01*
X37197119Y-40425714D02*
X37197119Y-41235238D01*
X37244738Y-41330476D01*
X37292357Y-41378095D01*
X37387595Y-41425714D01*
X37530452Y-41425714D01*
X37625690Y-41378095D01*
X37197119Y-41044761D02*
X37292357Y-41092380D01*
X37482833Y-41092380D01*
X37578071Y-41044761D01*
X37625690Y-40997142D01*
X37673309Y-40901904D01*
X37673309Y-40616190D01*
X37625690Y-40520952D01*
X37578071Y-40473333D01*
X37482833Y-40425714D01*
X37292357Y-40425714D01*
X37197119Y-40473333D01*
X36720928Y-40425714D02*
X36720928Y-41092380D01*
X36720928Y-40520952D02*
X36673309Y-40473333D01*
X36578071Y-40425714D01*
X36435214Y-40425714D01*
X36339976Y-40473333D01*
X36292357Y-40568571D01*
X36292357Y-41092380D01*
X35387595Y-41092380D02*
X35387595Y-40092380D01*
X35387595Y-41044761D02*
X35482833Y-41092380D01*
X35673309Y-41092380D01*
X35768547Y-41044761D01*
X35816166Y-40997142D01*
X35863785Y-40901904D01*
X35863785Y-40616190D01*
X35816166Y-40520952D01*
X35768547Y-40473333D01*
X35673309Y-40425714D01*
X35482833Y-40425714D01*
X35387595Y-40473333D01*
X38816166Y-37663428D02*
X38054261Y-37663428D01*
X38435214Y-38044380D02*
X38435214Y-37282476D01*
X37054261Y-38044380D02*
X37625690Y-38044380D01*
X37339976Y-38044380D02*
X37339976Y-37044380D01*
X37435214Y-37187238D01*
X37530452Y-37282476D01*
X37625690Y-37330095D01*
X36673309Y-37139619D02*
X36625690Y-37092000D01*
X36530452Y-37044380D01*
X36292357Y-37044380D01*
X36197119Y-37092000D01*
X36149500Y-37139619D01*
X36101880Y-37234857D01*
X36101880Y-37330095D01*
X36149500Y-37472952D01*
X36720928Y-38044380D01*
X36101880Y-38044380D01*
X35768547Y-37377714D02*
X35530452Y-38044380D01*
X35292357Y-37377714D01*
X76880404Y-48331428D02*
X76118500Y-48331428D01*
X75166119Y-47712380D02*
X75642309Y-47712380D01*
X75689928Y-48188571D01*
X75642309Y-48140952D01*
X75547071Y-48093333D01*
X75308976Y-48093333D01*
X75213738Y-48140952D01*
X75166119Y-48188571D01*
X75118500Y-48283809D01*
X75118500Y-48521904D01*
X75166119Y-48617142D01*
X75213738Y-48664761D01*
X75308976Y-48712380D01*
X75547071Y-48712380D01*
X75642309Y-48664761D01*
X75689928Y-48617142D01*
X74785166Y-48045714D02*
X74547071Y-48712380D01*
X74308976Y-48045714D01*
X73166119Y-48712380D02*
X73166119Y-48045714D01*
X73166119Y-48236190D02*
X73118500Y-48140952D01*
X73070880Y-48093333D01*
X72975642Y-48045714D01*
X72880404Y-48045714D01*
X72166119Y-48664761D02*
X72261357Y-48712380D01*
X72451833Y-48712380D01*
X72547071Y-48664761D01*
X72594690Y-48569523D01*
X72594690Y-48188571D01*
X72547071Y-48093333D01*
X72451833Y-48045714D01*
X72261357Y-48045714D01*
X72166119Y-48093333D01*
X72118500Y-48188571D01*
X72118500Y-48283809D01*
X72594690Y-48379047D01*
X71832785Y-48045714D02*
X71451833Y-48045714D01*
X71689928Y-48712380D02*
X71689928Y-47855238D01*
X71642309Y-47760000D01*
X71547071Y-47712380D01*
X71451833Y-47712380D01*
X70213738Y-48712380D02*
X70308976Y-48664761D01*
X70356595Y-48617142D01*
X70404214Y-48521904D01*
X70404214Y-48236190D01*
X70356595Y-48140952D01*
X70308976Y-48093333D01*
X70213738Y-48045714D01*
X70070880Y-48045714D01*
X69975642Y-48093333D01*
X69928023Y-48140952D01*
X69880404Y-48236190D01*
X69880404Y-48521904D01*
X69928023Y-48617142D01*
X69975642Y-48664761D01*
X70070880Y-48712380D01*
X70213738Y-48712380D01*
X69023261Y-48045714D02*
X69023261Y-48712380D01*
X69451833Y-48045714D02*
X69451833Y-48569523D01*
X69404214Y-48664761D01*
X69308976Y-48712380D01*
X69166119Y-48712380D01*
X69070880Y-48664761D01*
X69023261Y-48617142D01*
X68689928Y-48045714D02*
X68308976Y-48045714D01*
X68547071Y-47712380D02*
X68547071Y-48569523D01*
X68499452Y-48664761D01*
X68404214Y-48712380D01*
X68308976Y-48712380D01*
X75943833Y-45505714D02*
X75943833Y-46315238D01*
X75991452Y-46410476D01*
X76039071Y-46458095D01*
X76134309Y-46505714D01*
X76277166Y-46505714D01*
X76372404Y-46458095D01*
X75943833Y-46124761D02*
X76039071Y-46172380D01*
X76229547Y-46172380D01*
X76324785Y-46124761D01*
X76372404Y-46077142D01*
X76420023Y-45981904D01*
X76420023Y-45696190D01*
X76372404Y-45600952D01*
X76324785Y-45553333D01*
X76229547Y-45505714D01*
X76039071Y-45505714D01*
X75943833Y-45553333D01*
X75467642Y-45505714D02*
X75467642Y-46172380D01*
X75467642Y-45600952D02*
X75420023Y-45553333D01*
X75324785Y-45505714D01*
X75181928Y-45505714D01*
X75086690Y-45553333D01*
X75039071Y-45648571D01*
X75039071Y-46172380D01*
X74134309Y-46172380D02*
X74134309Y-45172380D01*
X74134309Y-46124761D02*
X74229547Y-46172380D01*
X74420023Y-46172380D01*
X74515261Y-46124761D01*
X74562880Y-46077142D01*
X74610500Y-45981904D01*
X74610500Y-45696190D01*
X74562880Y-45600952D01*
X74515261Y-45553333D01*
X74420023Y-45505714D01*
X74229547Y-45505714D01*
X74134309Y-45553333D01*
X76372404Y-43251428D02*
X75610500Y-43251428D01*
X75991452Y-43632380D02*
X75991452Y-42870476D01*
X74658119Y-42632380D02*
X75134309Y-42632380D01*
X75181928Y-43108571D01*
X75134309Y-43060952D01*
X75039071Y-43013333D01*
X74800976Y-43013333D01*
X74705738Y-43060952D01*
X74658119Y-43108571D01*
X74610500Y-43203809D01*
X74610500Y-43441904D01*
X74658119Y-43537142D01*
X74705738Y-43584761D01*
X74800976Y-43632380D01*
X75039071Y-43632380D01*
X75134309Y-43584761D01*
X75181928Y-43537142D01*
X74277166Y-42965714D02*
X74039071Y-43632380D01*
X73800976Y-42965714D01*
X72658119Y-43632380D02*
X72658119Y-42965714D01*
X72658119Y-43156190D02*
X72610500Y-43060952D01*
X72562880Y-43013333D01*
X72467642Y-42965714D01*
X72372404Y-42965714D01*
X71658119Y-43584761D02*
X71753357Y-43632380D01*
X71943833Y-43632380D01*
X72039071Y-43584761D01*
X72086690Y-43489523D01*
X72086690Y-43108571D01*
X72039071Y-43013333D01*
X71943833Y-42965714D01*
X71753357Y-42965714D01*
X71658119Y-43013333D01*
X71610500Y-43108571D01*
X71610500Y-43203809D01*
X72086690Y-43299047D01*
X71324785Y-42965714D02*
X70943833Y-42965714D01*
X71181928Y-43632380D02*
X71181928Y-42775238D01*
X71134309Y-42680000D01*
X71039071Y-42632380D01*
X70943833Y-42632380D01*
X69705738Y-43632380D02*
X69800976Y-43584761D01*
X69848595Y-43537142D01*
X69896214Y-43441904D01*
X69896214Y-43156190D01*
X69848595Y-43060952D01*
X69800976Y-43013333D01*
X69705738Y-42965714D01*
X69562880Y-42965714D01*
X69467642Y-43013333D01*
X69420023Y-43060952D01*
X69372404Y-43156190D01*
X69372404Y-43441904D01*
X69420023Y-43537142D01*
X69467642Y-43584761D01*
X69562880Y-43632380D01*
X69705738Y-43632380D01*
X68515261Y-42965714D02*
X68515261Y-43632380D01*
X68943833Y-42965714D02*
X68943833Y-43489523D01*
X68896214Y-43584761D01*
X68800976Y-43632380D01*
X68658119Y-43632380D01*
X68562880Y-43584761D01*
X68515261Y-43537142D01*
X68181928Y-42965714D02*
X67800976Y-42965714D01*
X68039071Y-42632380D02*
X68039071Y-43489523D01*
X67991452Y-43584761D01*
X67896214Y-43632380D01*
X67800976Y-43632380D01*
X76515261Y-40425714D02*
X76134309Y-40425714D01*
X76372404Y-41092380D02*
X76372404Y-40235238D01*
X76324785Y-40140000D01*
X76229547Y-40092380D01*
X76134309Y-40092380D01*
X75800976Y-41092380D02*
X75800976Y-40425714D01*
X75800976Y-40092380D02*
X75848595Y-40140000D01*
X75800976Y-40187619D01*
X75753357Y-40140000D01*
X75800976Y-40092380D01*
X75800976Y-40187619D01*
X75324785Y-40425714D02*
X75324785Y-41092380D01*
X75324785Y-40520952D02*
X75277166Y-40473333D01*
X75181928Y-40425714D01*
X75039071Y-40425714D01*
X74943833Y-40473333D01*
X74896214Y-40568571D01*
X74896214Y-41092380D01*
X74039071Y-41044761D02*
X74134309Y-41092380D01*
X74324785Y-41092380D01*
X74420023Y-41044761D01*
X74467642Y-40949523D01*
X74467642Y-40568571D01*
X74420023Y-40473333D01*
X74324785Y-40425714D01*
X74134309Y-40425714D01*
X74039071Y-40473333D01*
X73991452Y-40568571D01*
X73991452Y-40663809D01*
X74467642Y-40759047D01*
X72943833Y-40425714D02*
X72562880Y-40425714D01*
X72800976Y-40092380D02*
X72800976Y-40949523D01*
X72753357Y-41044761D01*
X72658119Y-41092380D01*
X72562880Y-41092380D01*
X71800976Y-40425714D02*
X71800976Y-41092380D01*
X72229547Y-40425714D02*
X72229547Y-40949523D01*
X72181928Y-41044761D01*
X72086690Y-41092380D01*
X71943833Y-41092380D01*
X71848595Y-41044761D01*
X71800976Y-40997142D01*
X71324785Y-40425714D02*
X71324785Y-41092380D01*
X71324785Y-40520952D02*
X71277166Y-40473333D01*
X71181928Y-40425714D01*
X71039071Y-40425714D01*
X70943833Y-40473333D01*
X70896214Y-40568571D01*
X70896214Y-41092380D01*
X70039071Y-41044761D02*
X70134309Y-41092380D01*
X70324785Y-41092380D01*
X70420023Y-41044761D01*
X70467642Y-40949523D01*
X70467642Y-40568571D01*
X70420023Y-40473333D01*
X70324785Y-40425714D01*
X70134309Y-40425714D01*
X70039071Y-40473333D01*
X69991452Y-40568571D01*
X69991452Y-40663809D01*
X70467642Y-40759047D01*
X75943833Y-38504761D02*
X76039071Y-38552380D01*
X76229547Y-38552380D01*
X76324785Y-38504761D01*
X76372404Y-38457142D01*
X76420023Y-38361904D01*
X76420023Y-38076190D01*
X76372404Y-37980952D01*
X76324785Y-37933333D01*
X76229547Y-37885714D01*
X76039071Y-37885714D01*
X75943833Y-37933333D01*
X75372404Y-38552380D02*
X75467642Y-38504761D01*
X75515261Y-38457142D01*
X75562880Y-38361904D01*
X75562880Y-38076190D01*
X75515261Y-37980952D01*
X75467642Y-37933333D01*
X75372404Y-37885714D01*
X75229547Y-37885714D01*
X75134309Y-37933333D01*
X75086690Y-37980952D01*
X75039071Y-38076190D01*
X75039071Y-38361904D01*
X75086690Y-38457142D01*
X75134309Y-38504761D01*
X75229547Y-38552380D01*
X75372404Y-38552380D01*
X74181928Y-38552380D02*
X74181928Y-38028571D01*
X74229547Y-37933333D01*
X74324785Y-37885714D01*
X74515261Y-37885714D01*
X74610500Y-37933333D01*
X74181928Y-38504761D02*
X74277166Y-38552380D01*
X74515261Y-38552380D01*
X74610500Y-38504761D01*
X74658119Y-38409523D01*
X74658119Y-38314285D01*
X74610500Y-38219047D01*
X74515261Y-38171428D01*
X74277166Y-38171428D01*
X74181928Y-38123809D01*
X73705738Y-38552380D02*
X73705738Y-37885714D01*
X73705738Y-38076190D02*
X73658119Y-37980952D01*
X73610500Y-37933333D01*
X73515261Y-37885714D01*
X73420023Y-37885714D01*
X73134309Y-38504761D02*
X73039071Y-38552380D01*
X72848595Y-38552380D01*
X72753357Y-38504761D01*
X72705738Y-38409523D01*
X72705738Y-38361904D01*
X72753357Y-38266666D01*
X72848595Y-38219047D01*
X72991452Y-38219047D01*
X73086690Y-38171428D01*
X73134309Y-38076190D01*
X73134309Y-38028571D01*
X73086690Y-37933333D01*
X72991452Y-37885714D01*
X72848595Y-37885714D01*
X72753357Y-37933333D01*
X71896214Y-38504761D02*
X71991452Y-38552380D01*
X72181928Y-38552380D01*
X72277166Y-38504761D01*
X72324785Y-38409523D01*
X72324785Y-38028571D01*
X72277166Y-37933333D01*
X72181928Y-37885714D01*
X71991452Y-37885714D01*
X71896214Y-37933333D01*
X71848595Y-38028571D01*
X71848595Y-38123809D01*
X72324785Y-38219047D01*
X70800976Y-37885714D02*
X70420023Y-37885714D01*
X70658119Y-37552380D02*
X70658119Y-38409523D01*
X70610500Y-38504761D01*
X70515261Y-38552380D01*
X70420023Y-38552380D01*
X69658119Y-37885714D02*
X69658119Y-38552380D01*
X70086690Y-37885714D02*
X70086690Y-38409523D01*
X70039071Y-38504761D01*
X69943833Y-38552380D01*
X69800976Y-38552380D01*
X69705738Y-38504761D01*
X69658119Y-38457142D01*
X69181928Y-37885714D02*
X69181928Y-38552380D01*
X69181928Y-37980952D02*
X69134309Y-37933333D01*
X69039071Y-37885714D01*
X68896214Y-37885714D01*
X68800976Y-37933333D01*
X68753357Y-38028571D01*
X68753357Y-38552380D01*
X67896214Y-38504761D02*
X67991452Y-38552380D01*
X68181928Y-38552380D01*
X68277166Y-38504761D01*
X68324785Y-38409523D01*
X68324785Y-38028571D01*
X68277166Y-37933333D01*
X68181928Y-37885714D01*
X67991452Y-37885714D01*
X67896214Y-37933333D01*
X67848595Y-38028571D01*
X67848595Y-38123809D01*
X68324785Y-38219047D01*
X75943833Y-60745714D02*
X75943833Y-61555238D01*
X75991452Y-61650476D01*
X76039071Y-61698095D01*
X76134309Y-61745714D01*
X76277166Y-61745714D01*
X76372404Y-61698095D01*
X75943833Y-61364761D02*
X76039071Y-61412380D01*
X76229547Y-61412380D01*
X76324785Y-61364761D01*
X76372404Y-61317142D01*
X76420023Y-61221904D01*
X76420023Y-60936190D01*
X76372404Y-60840952D01*
X76324785Y-60793333D01*
X76229547Y-60745714D01*
X76039071Y-60745714D01*
X75943833Y-60793333D01*
X75467642Y-60745714D02*
X75467642Y-61412380D01*
X75467642Y-60840952D02*
X75420023Y-60793333D01*
X75324785Y-60745714D01*
X75181928Y-60745714D01*
X75086690Y-60793333D01*
X75039071Y-60888571D01*
X75039071Y-61412380D01*
X74134309Y-61412380D02*
X74134309Y-60412380D01*
X74134309Y-61364761D02*
X74229547Y-61412380D01*
X74420023Y-61412380D01*
X74515261Y-61364761D01*
X74562880Y-61317142D01*
X74610500Y-61221904D01*
X74610500Y-60936190D01*
X74562880Y-60840952D01*
X74515261Y-60793333D01*
X74420023Y-60745714D01*
X74229547Y-60745714D01*
X74134309Y-60793333D01*
X75975595Y-58872380D02*
X76547023Y-58872380D01*
X76261309Y-58872380D02*
X76261309Y-57872380D01*
X76356547Y-58015238D01*
X76451785Y-58110476D01*
X76547023Y-58158095D01*
X74880357Y-58205714D02*
X74642261Y-58872380D01*
X74404166Y-58205714D01*
X73308928Y-57824761D02*
X74166071Y-59110476D01*
X72832738Y-58872380D02*
X72927976Y-58824761D01*
X72975595Y-58777142D01*
X73023214Y-58681904D01*
X73023214Y-58396190D01*
X72975595Y-58300952D01*
X72927976Y-58253333D01*
X72832738Y-58205714D01*
X72689880Y-58205714D01*
X72594642Y-58253333D01*
X72547023Y-58300952D01*
X72499404Y-58396190D01*
X72499404Y-58681904D01*
X72547023Y-58777142D01*
X72594642Y-58824761D01*
X72689880Y-58872380D01*
X72832738Y-58872380D01*
X71642261Y-58824761D02*
X71737500Y-58872380D01*
X71927976Y-58872380D01*
X72023214Y-58824761D01*
X72070833Y-58777142D01*
X72118452Y-58681904D01*
X72118452Y-58396190D01*
X72070833Y-58300952D01*
X72023214Y-58253333D01*
X71927976Y-58205714D01*
X71737500Y-58205714D01*
X71642261Y-58253333D01*
X71356547Y-58205714D02*
X70975595Y-58205714D01*
X71213690Y-57872380D02*
X71213690Y-58729523D01*
X71166071Y-58824761D01*
X71070833Y-58872380D01*
X70975595Y-58872380D01*
X75975595Y-55824380D02*
X76547023Y-55824380D01*
X76261309Y-55824380D02*
X76261309Y-54824380D01*
X76356547Y-54967238D01*
X76451785Y-55062476D01*
X76547023Y-55110095D01*
X74880357Y-55157714D02*
X74642261Y-55824380D01*
X74404166Y-55157714D01*
X73308928Y-54776761D02*
X74166071Y-56062476D01*
X72832738Y-55824380D02*
X72927976Y-55776761D01*
X72975595Y-55729142D01*
X73023214Y-55633904D01*
X73023214Y-55348190D01*
X72975595Y-55252952D01*
X72927976Y-55205333D01*
X72832738Y-55157714D01*
X72689880Y-55157714D01*
X72594642Y-55205333D01*
X72547023Y-55252952D01*
X72499404Y-55348190D01*
X72499404Y-55633904D01*
X72547023Y-55729142D01*
X72594642Y-55776761D01*
X72689880Y-55824380D01*
X72832738Y-55824380D01*
X71642261Y-55776761D02*
X71737500Y-55824380D01*
X71927976Y-55824380D01*
X72023214Y-55776761D01*
X72070833Y-55729142D01*
X72118452Y-55633904D01*
X72118452Y-55348190D01*
X72070833Y-55252952D01*
X72023214Y-55205333D01*
X71927976Y-55157714D01*
X71737500Y-55157714D01*
X71642261Y-55205333D01*
X71356547Y-55157714D02*
X70975595Y-55157714D01*
X71213690Y-54824380D02*
X71213690Y-55681523D01*
X71166071Y-55776761D01*
X71070833Y-55824380D01*
X70975595Y-55824380D01*
X75975595Y-53792380D02*
X76547023Y-53792380D01*
X76261309Y-53792380D02*
X76261309Y-52792380D01*
X76356547Y-52935238D01*
X76451785Y-53030476D01*
X76547023Y-53078095D01*
X74880357Y-53125714D02*
X74642261Y-53792380D01*
X74404166Y-53125714D01*
X73308928Y-52744761D02*
X74166071Y-54030476D01*
X72832738Y-53792380D02*
X72927976Y-53744761D01*
X72975595Y-53697142D01*
X73023214Y-53601904D01*
X73023214Y-53316190D01*
X72975595Y-53220952D01*
X72927976Y-53173333D01*
X72832738Y-53125714D01*
X72689880Y-53125714D01*
X72594642Y-53173333D01*
X72547023Y-53220952D01*
X72499404Y-53316190D01*
X72499404Y-53601904D01*
X72547023Y-53697142D01*
X72594642Y-53744761D01*
X72689880Y-53792380D01*
X72832738Y-53792380D01*
X71642261Y-53744761D02*
X71737500Y-53792380D01*
X71927976Y-53792380D01*
X72023214Y-53744761D01*
X72070833Y-53697142D01*
X72118452Y-53601904D01*
X72118452Y-53316190D01*
X72070833Y-53220952D01*
X72023214Y-53173333D01*
X71927976Y-53125714D01*
X71737500Y-53125714D01*
X71642261Y-53173333D01*
X71356547Y-53125714D02*
X70975595Y-53125714D01*
X71213690Y-52792380D02*
X71213690Y-53649523D01*
X71166071Y-53744761D01*
X71070833Y-53792380D01*
X70975595Y-53792380D01*
X76070833Y-68365714D02*
X76070833Y-69175238D01*
X76118452Y-69270476D01*
X76166071Y-69318095D01*
X76261309Y-69365714D01*
X76404166Y-69365714D01*
X76499404Y-69318095D01*
X76070833Y-68984761D02*
X76166071Y-69032380D01*
X76356547Y-69032380D01*
X76451785Y-68984761D01*
X76499404Y-68937142D01*
X76547023Y-68841904D01*
X76547023Y-68556190D01*
X76499404Y-68460952D01*
X76451785Y-68413333D01*
X76356547Y-68365714D01*
X76166071Y-68365714D01*
X76070833Y-68413333D01*
X75594642Y-68365714D02*
X75594642Y-69032380D01*
X75594642Y-68460952D02*
X75547023Y-68413333D01*
X75451785Y-68365714D01*
X75308928Y-68365714D01*
X75213690Y-68413333D01*
X75166071Y-68508571D01*
X75166071Y-69032380D01*
X74261309Y-69032380D02*
X74261309Y-68032380D01*
X74261309Y-68984761D02*
X74356547Y-69032380D01*
X74547023Y-69032380D01*
X74642261Y-68984761D01*
X74689880Y-68937142D01*
X74737500Y-68841904D01*
X74737500Y-68556190D01*
X74689880Y-68460952D01*
X74642261Y-68413333D01*
X74547023Y-68365714D01*
X74356547Y-68365714D01*
X74261309Y-68413333D01*
X76356547Y-66492380D02*
X76451785Y-66444761D01*
X76499404Y-66349523D01*
X76499404Y-65492380D01*
X75975595Y-66492380D02*
X75975595Y-65825714D01*
X75975595Y-65492380D02*
X76023214Y-65540000D01*
X75975595Y-65587619D01*
X75927976Y-65540000D01*
X75975595Y-65492380D01*
X75975595Y-65587619D01*
X75499404Y-65825714D02*
X75499404Y-66492380D01*
X75499404Y-65920952D02*
X75451785Y-65873333D01*
X75356547Y-65825714D01*
X75213690Y-65825714D01*
X75118452Y-65873333D01*
X75070833Y-65968571D01*
X75070833Y-66492380D01*
X73499404Y-65968571D02*
X73832738Y-65968571D01*
X73832738Y-66492380D02*
X73832738Y-65492380D01*
X73356547Y-65492380D01*
X72975595Y-66492380D02*
X72975595Y-65492380D01*
X72642261Y-66206666D01*
X72308928Y-65492380D01*
X72308928Y-66492380D01*
X76070833Y-75985714D02*
X76070833Y-76795238D01*
X76118452Y-76890476D01*
X76166071Y-76938095D01*
X76261309Y-76985714D01*
X76404166Y-76985714D01*
X76499404Y-76938095D01*
X76070833Y-76604761D02*
X76166071Y-76652380D01*
X76356547Y-76652380D01*
X76451785Y-76604761D01*
X76499404Y-76557142D01*
X76547023Y-76461904D01*
X76547023Y-76176190D01*
X76499404Y-76080952D01*
X76451785Y-76033333D01*
X76356547Y-75985714D01*
X76166071Y-75985714D01*
X76070833Y-76033333D01*
X75594642Y-75985714D02*
X75594642Y-76652380D01*
X75594642Y-76080952D02*
X75547023Y-76033333D01*
X75451785Y-75985714D01*
X75308928Y-75985714D01*
X75213690Y-76033333D01*
X75166071Y-76128571D01*
X75166071Y-76652380D01*
X74261309Y-76652380D02*
X74261309Y-75652380D01*
X74261309Y-76604761D02*
X74356547Y-76652380D01*
X74547023Y-76652380D01*
X74642261Y-76604761D01*
X74689880Y-76557142D01*
X74737500Y-76461904D01*
X74737500Y-76176190D01*
X74689880Y-76080952D01*
X74642261Y-76033333D01*
X74547023Y-75985714D01*
X74356547Y-75985714D01*
X74261309Y-76033333D01*
X76547023Y-74064761D02*
X76451785Y-74112380D01*
X76261309Y-74112380D01*
X76166071Y-74064761D01*
X76118452Y-73969523D01*
X76118452Y-73921904D01*
X76166071Y-73826666D01*
X76261309Y-73779047D01*
X76404166Y-73779047D01*
X76499404Y-73731428D01*
X76547023Y-73636190D01*
X76547023Y-73588571D01*
X76499404Y-73493333D01*
X76404166Y-73445714D01*
X76261309Y-73445714D01*
X76166071Y-73493333D01*
X75785119Y-73445714D02*
X75547023Y-74112380D01*
X75308928Y-73445714D02*
X75547023Y-74112380D01*
X75642261Y-74350476D01*
X75689880Y-74398095D01*
X75785119Y-74445714D01*
X74927976Y-73445714D02*
X74927976Y-74112380D01*
X74927976Y-73540952D02*
X74880357Y-73493333D01*
X74785119Y-73445714D01*
X74642261Y-73445714D01*
X74547023Y-73493333D01*
X74499404Y-73588571D01*
X74499404Y-74112380D01*
X73594642Y-74064761D02*
X73689880Y-74112380D01*
X73880357Y-74112380D01*
X73975595Y-74064761D01*
X74023214Y-74017142D01*
X74070833Y-73921904D01*
X74070833Y-73636190D01*
X74023214Y-73540952D01*
X73975595Y-73493333D01*
X73880357Y-73445714D01*
X73689880Y-73445714D01*
X73594642Y-73493333D01*
X76372404Y-91511428D02*
X75610500Y-91511428D01*
X74658119Y-90892380D02*
X75134309Y-90892380D01*
X75181928Y-91368571D01*
X75134309Y-91320952D01*
X75039071Y-91273333D01*
X74800976Y-91273333D01*
X74705738Y-91320952D01*
X74658119Y-91368571D01*
X74610500Y-91463809D01*
X74610500Y-91701904D01*
X74658119Y-91797142D01*
X74705738Y-91844761D01*
X74800976Y-91892380D01*
X75039071Y-91892380D01*
X75134309Y-91844761D01*
X75181928Y-91797142D01*
X74277166Y-91225714D02*
X74039071Y-91892380D01*
X73800976Y-91225714D01*
X72658119Y-91892380D02*
X72658119Y-91225714D01*
X72658119Y-91416190D02*
X72610500Y-91320952D01*
X72562880Y-91273333D01*
X72467642Y-91225714D01*
X72372404Y-91225714D01*
X71658119Y-91844761D02*
X71753357Y-91892380D01*
X71943833Y-91892380D01*
X72039071Y-91844761D01*
X72086690Y-91749523D01*
X72086690Y-91368571D01*
X72039071Y-91273333D01*
X71943833Y-91225714D01*
X71753357Y-91225714D01*
X71658119Y-91273333D01*
X71610500Y-91368571D01*
X71610500Y-91463809D01*
X72086690Y-91559047D01*
X71324785Y-91225714D02*
X70943833Y-91225714D01*
X71181928Y-91892380D02*
X71181928Y-91035238D01*
X71134309Y-90940000D01*
X71039071Y-90892380D01*
X70943833Y-90892380D01*
X69705738Y-91892380D02*
X69800976Y-91844761D01*
X69848595Y-91797142D01*
X69896214Y-91701904D01*
X69896214Y-91416190D01*
X69848595Y-91320952D01*
X69800976Y-91273333D01*
X69705738Y-91225714D01*
X69562880Y-91225714D01*
X69467642Y-91273333D01*
X69420023Y-91320952D01*
X69372404Y-91416190D01*
X69372404Y-91701904D01*
X69420023Y-91797142D01*
X69467642Y-91844761D01*
X69562880Y-91892380D01*
X69705738Y-91892380D01*
X68515261Y-91225714D02*
X68515261Y-91892380D01*
X68943833Y-91225714D02*
X68943833Y-91749523D01*
X68896214Y-91844761D01*
X68800976Y-91892380D01*
X68658119Y-91892380D01*
X68562880Y-91844761D01*
X68515261Y-91797142D01*
X68181928Y-91225714D02*
X67800976Y-91225714D01*
X68039071Y-90892380D02*
X68039071Y-91749523D01*
X67991452Y-91844761D01*
X67896214Y-91892380D01*
X67800976Y-91892380D01*
X76070833Y-88685714D02*
X76070833Y-89495238D01*
X76118452Y-89590476D01*
X76166071Y-89638095D01*
X76261309Y-89685714D01*
X76404166Y-89685714D01*
X76499404Y-89638095D01*
X76070833Y-89304761D02*
X76166071Y-89352380D01*
X76356547Y-89352380D01*
X76451785Y-89304761D01*
X76499404Y-89257142D01*
X76547023Y-89161904D01*
X76547023Y-88876190D01*
X76499404Y-88780952D01*
X76451785Y-88733333D01*
X76356547Y-88685714D01*
X76166071Y-88685714D01*
X76070833Y-88733333D01*
X75594642Y-88685714D02*
X75594642Y-89352380D01*
X75594642Y-88780952D02*
X75547023Y-88733333D01*
X75451785Y-88685714D01*
X75308928Y-88685714D01*
X75213690Y-88733333D01*
X75166071Y-88828571D01*
X75166071Y-89352380D01*
X74261309Y-89352380D02*
X74261309Y-88352380D01*
X74261309Y-89304761D02*
X74356547Y-89352380D01*
X74547023Y-89352380D01*
X74642261Y-89304761D01*
X74689880Y-89257142D01*
X74737500Y-89161904D01*
X74737500Y-88876190D01*
X74689880Y-88780952D01*
X74642261Y-88733333D01*
X74547023Y-88685714D01*
X74356547Y-88685714D01*
X74261309Y-88733333D01*
X76499404Y-86431428D02*
X75737500Y-86431428D01*
X76118452Y-86812380D02*
X76118452Y-86050476D01*
X74785119Y-85812380D02*
X75261309Y-85812380D01*
X75308928Y-86288571D01*
X75261309Y-86240952D01*
X75166071Y-86193333D01*
X74927976Y-86193333D01*
X74832738Y-86240952D01*
X74785119Y-86288571D01*
X74737500Y-86383809D01*
X74737500Y-86621904D01*
X74785119Y-86717142D01*
X74832738Y-86764761D01*
X74927976Y-86812380D01*
X75166071Y-86812380D01*
X75261309Y-86764761D01*
X75308928Y-86717142D01*
X74404166Y-86145714D02*
X74166071Y-86812380D01*
X73927976Y-86145714D01*
X72785119Y-86812380D02*
X72785119Y-86145714D01*
X72785119Y-86336190D02*
X72737500Y-86240952D01*
X72689880Y-86193333D01*
X72594642Y-86145714D01*
X72499404Y-86145714D01*
X71785119Y-86764761D02*
X71880357Y-86812380D01*
X72070833Y-86812380D01*
X72166071Y-86764761D01*
X72213690Y-86669523D01*
X72213690Y-86288571D01*
X72166071Y-86193333D01*
X72070833Y-86145714D01*
X71880357Y-86145714D01*
X71785119Y-86193333D01*
X71737500Y-86288571D01*
X71737500Y-86383809D01*
X72213690Y-86479047D01*
X71451785Y-86145714D02*
X71070833Y-86145714D01*
X71308928Y-86812380D02*
X71308928Y-85955238D01*
X71261309Y-85860000D01*
X71166071Y-85812380D01*
X71070833Y-85812380D01*
X69832738Y-86812380D02*
X69927976Y-86764761D01*
X69975595Y-86717142D01*
X70023214Y-86621904D01*
X70023214Y-86336190D01*
X69975595Y-86240952D01*
X69927976Y-86193333D01*
X69832738Y-86145714D01*
X69689880Y-86145714D01*
X69594642Y-86193333D01*
X69547023Y-86240952D01*
X69499404Y-86336190D01*
X69499404Y-86621904D01*
X69547023Y-86717142D01*
X69594642Y-86764761D01*
X69689880Y-86812380D01*
X69832738Y-86812380D01*
X68642261Y-86145714D02*
X68642261Y-86812380D01*
X69070833Y-86145714D02*
X69070833Y-86669523D01*
X69023214Y-86764761D01*
X68927976Y-86812380D01*
X68785119Y-86812380D01*
X68689880Y-86764761D01*
X68642261Y-86717142D01*
X68308928Y-86145714D02*
X67927976Y-86145714D01*
X68166071Y-85812380D02*
X68166071Y-86669523D01*
X68118452Y-86764761D01*
X68023214Y-86812380D01*
X67927976Y-86812380D01*
X76499404Y-83605714D02*
X76499404Y-84605714D01*
X76499404Y-83653333D02*
X76404166Y-83605714D01*
X76213690Y-83605714D01*
X76118452Y-83653333D01*
X76070833Y-83700952D01*
X76023214Y-83796190D01*
X76023214Y-84081904D01*
X76070833Y-84177142D01*
X76118452Y-84224761D01*
X76213690Y-84272380D01*
X76404166Y-84272380D01*
X76499404Y-84224761D01*
X75689880Y-83605714D02*
X75499404Y-84272380D01*
X75308928Y-83796190D01*
X75118452Y-84272380D01*
X74927976Y-83605714D01*
X74547023Y-84272380D02*
X74547023Y-83605714D01*
X74547023Y-83700952D02*
X74499404Y-83653333D01*
X74404166Y-83605714D01*
X74261309Y-83605714D01*
X74166071Y-83653333D01*
X74118452Y-83748571D01*
X74118452Y-84272380D01*
X74118452Y-83748571D02*
X74070833Y-83653333D01*
X73975595Y-83605714D01*
X73832738Y-83605714D01*
X73737500Y-83653333D01*
X73689880Y-83748571D01*
X73689880Y-84272380D01*
X76499404Y-81732380D02*
X76499404Y-81065714D01*
X76499404Y-81160952D02*
X76451785Y-81113333D01*
X76356547Y-81065714D01*
X76213690Y-81065714D01*
X76118452Y-81113333D01*
X76070833Y-81208571D01*
X76070833Y-81732380D01*
X76070833Y-81208571D02*
X76023214Y-81113333D01*
X75927976Y-81065714D01*
X75785119Y-81065714D01*
X75689880Y-81113333D01*
X75642261Y-81208571D01*
X75642261Y-81732380D01*
X74737500Y-81732380D02*
X74737500Y-81208571D01*
X74785119Y-81113333D01*
X74880357Y-81065714D01*
X75070833Y-81065714D01*
X75166071Y-81113333D01*
X74737500Y-81684761D02*
X74832738Y-81732380D01*
X75070833Y-81732380D01*
X75166071Y-81684761D01*
X75213690Y-81589523D01*
X75213690Y-81494285D01*
X75166071Y-81399047D01*
X75070833Y-81351428D01*
X74832738Y-81351428D01*
X74737500Y-81303809D01*
X74261309Y-81065714D02*
X74261309Y-81732380D01*
X74261309Y-81160952D02*
X74213690Y-81113333D01*
X74118452Y-81065714D01*
X73975595Y-81065714D01*
X73880357Y-81113333D01*
X73832738Y-81208571D01*
X73832738Y-81732380D01*
X72594642Y-81065714D02*
X72594642Y-82065714D01*
X72594642Y-81113333D02*
X72499404Y-81065714D01*
X72308928Y-81065714D01*
X72213690Y-81113333D01*
X72166071Y-81160952D01*
X72118452Y-81256190D01*
X72118452Y-81541904D01*
X72166071Y-81637142D01*
X72213690Y-81684761D01*
X72308928Y-81732380D01*
X72499404Y-81732380D01*
X72594642Y-81684761D01*
X71261309Y-81065714D02*
X71261309Y-81732380D01*
X71689880Y-81065714D02*
X71689880Y-81589523D01*
X71642261Y-81684761D01*
X71547023Y-81732380D01*
X71404166Y-81732380D01*
X71308928Y-81684761D01*
X71261309Y-81637142D01*
X70642261Y-81732380D02*
X70737500Y-81684761D01*
X70785119Y-81589523D01*
X70785119Y-80732380D01*
X70308928Y-81684761D02*
X70213690Y-81732380D01*
X70023214Y-81732380D01*
X69927976Y-81684761D01*
X69880357Y-81589523D01*
X69880357Y-81541904D01*
X69927976Y-81446666D01*
X70023214Y-81399047D01*
X70166071Y-81399047D01*
X70261309Y-81351428D01*
X70308928Y-81256190D01*
X70308928Y-81208571D01*
X70261309Y-81113333D01*
X70166071Y-81065714D01*
X70023214Y-81065714D01*
X69927976Y-81113333D01*
X69070833Y-81684761D02*
X69166071Y-81732380D01*
X69356547Y-81732380D01*
X69451785Y-81684761D01*
X69499404Y-81589523D01*
X69499404Y-81208571D01*
X69451785Y-81113333D01*
X69356547Y-81065714D01*
X69166071Y-81065714D01*
X69070833Y-81113333D01*
X69023214Y-81208571D01*
X69023214Y-81303809D01*
X69499404Y-81399047D01*
X67927976Y-81065714D02*
X67737500Y-81732380D01*
X67547023Y-81256190D01*
X67356547Y-81732380D01*
X67166071Y-81065714D01*
X66785119Y-81732380D02*
X66785119Y-81065714D01*
X66785119Y-80732380D02*
X66832738Y-80780000D01*
X66785119Y-80827619D01*
X66737500Y-80780000D01*
X66785119Y-80732380D01*
X66785119Y-80827619D01*
X65880357Y-81732380D02*
X65880357Y-80732380D01*
X65880357Y-81684761D02*
X65975595Y-81732380D01*
X66166071Y-81732380D01*
X66261309Y-81684761D01*
X66308928Y-81637142D01*
X66356547Y-81541904D01*
X66356547Y-81256190D01*
X66308928Y-81160952D01*
X66261309Y-81113333D01*
X66166071Y-81065714D01*
X65975595Y-81065714D01*
X65880357Y-81113333D01*
X65547023Y-81065714D02*
X65166071Y-81065714D01*
X65404166Y-80732380D02*
X65404166Y-81589523D01*
X65356547Y-81684761D01*
X65261309Y-81732380D01*
X65166071Y-81732380D01*
X64832738Y-81732380D02*
X64832738Y-80732380D01*
X64404166Y-81732380D02*
X64404166Y-81208571D01*
X64451785Y-81113333D01*
X64547023Y-81065714D01*
X64689880Y-81065714D01*
X64785119Y-81113333D01*
X64832738Y-81160952D01*
X78954285Y-97025833D02*
X78144761Y-97025833D01*
X78049523Y-97073452D01*
X78001904Y-97121071D01*
X77954285Y-97216309D01*
X77954285Y-97359166D01*
X78001904Y-97454404D01*
X78335238Y-97025833D02*
X78287619Y-97121071D01*
X78287619Y-97311547D01*
X78335238Y-97406785D01*
X78382857Y-97454404D01*
X78478095Y-97502023D01*
X78763809Y-97502023D01*
X78859047Y-97454404D01*
X78906666Y-97406785D01*
X78954285Y-97311547D01*
X78954285Y-97121071D01*
X78906666Y-97025833D01*
X78954285Y-96549642D02*
X78287619Y-96549642D01*
X78859047Y-96549642D02*
X78906666Y-96502023D01*
X78954285Y-96406785D01*
X78954285Y-96263928D01*
X78906666Y-96168690D01*
X78811428Y-96121071D01*
X78287619Y-96121071D01*
X78287619Y-95216309D02*
X79287619Y-95216309D01*
X78335238Y-95216309D02*
X78287619Y-95311547D01*
X78287619Y-95502023D01*
X78335238Y-95597261D01*
X78382857Y-95644880D01*
X78478095Y-95692500D01*
X78763809Y-95692500D01*
X78859047Y-95644880D01*
X78906666Y-95597261D01*
X78954285Y-95502023D01*
X78954285Y-95311547D01*
X78906666Y-95216309D01*
X76414285Y-97454404D02*
X75414285Y-97454404D01*
X76366666Y-97454404D02*
X76414285Y-97359166D01*
X76414285Y-97168690D01*
X76366666Y-97073452D01*
X76319047Y-97025833D01*
X76223809Y-96978214D01*
X75938095Y-96978214D01*
X75842857Y-97025833D01*
X75795238Y-97073452D01*
X75747619Y-97168690D01*
X75747619Y-97359166D01*
X75795238Y-97454404D01*
X76414285Y-96121071D02*
X75747619Y-96121071D01*
X76414285Y-96549642D02*
X75890476Y-96549642D01*
X75795238Y-96502023D01*
X75747619Y-96406785D01*
X75747619Y-96263928D01*
X75795238Y-96168690D01*
X75842857Y-96121071D01*
X75747619Y-95502023D02*
X75795238Y-95597261D01*
X75890476Y-95644880D01*
X76747619Y-95644880D01*
X75795238Y-95168690D02*
X75747619Y-95073452D01*
X75747619Y-94882976D01*
X75795238Y-94787738D01*
X75890476Y-94740119D01*
X75938095Y-94740119D01*
X76033333Y-94787738D01*
X76080952Y-94882976D01*
X76080952Y-95025833D01*
X76128571Y-95121071D01*
X76223809Y-95168690D01*
X76271428Y-95168690D01*
X76366666Y-95121071D01*
X76414285Y-95025833D01*
X76414285Y-94882976D01*
X76366666Y-94787738D01*
X75795238Y-93930595D02*
X75747619Y-94025833D01*
X75747619Y-94216309D01*
X75795238Y-94311547D01*
X75890476Y-94359166D01*
X76271428Y-94359166D01*
X76366666Y-94311547D01*
X76414285Y-94216309D01*
X76414285Y-94025833D01*
X76366666Y-93930595D01*
X76271428Y-93882976D01*
X76176190Y-93882976D01*
X76080952Y-94359166D01*
X73255238Y-97502023D02*
X73207619Y-97406785D01*
X73207619Y-97216309D01*
X73255238Y-97121071D01*
X73350476Y-97073452D01*
X73398095Y-97073452D01*
X73493333Y-97121071D01*
X73540952Y-97216309D01*
X73540952Y-97359166D01*
X73588571Y-97454404D01*
X73683809Y-97502023D01*
X73731428Y-97502023D01*
X73826666Y-97454404D01*
X73874285Y-97359166D01*
X73874285Y-97216309D01*
X73826666Y-97121071D01*
X73207619Y-96216309D02*
X73731428Y-96216309D01*
X73826666Y-96263928D01*
X73874285Y-96359166D01*
X73874285Y-96549642D01*
X73826666Y-96644880D01*
X73255238Y-96216309D02*
X73207619Y-96311547D01*
X73207619Y-96549642D01*
X73255238Y-96644880D01*
X73350476Y-96692500D01*
X73445714Y-96692500D01*
X73540952Y-96644880D01*
X73588571Y-96549642D01*
X73588571Y-96311547D01*
X73636190Y-96216309D01*
X73874285Y-95835357D02*
X73207619Y-95644880D01*
X73683809Y-95454404D01*
X73207619Y-95263928D01*
X73874285Y-95073452D01*
X71334285Y-97597261D02*
X71334285Y-97216309D01*
X71667619Y-97454404D02*
X70810476Y-97454404D01*
X70715238Y-97406785D01*
X70667619Y-97311547D01*
X70667619Y-97216309D01*
X70667619Y-96882976D02*
X71334285Y-96882976D01*
X71143809Y-96882976D02*
X71239047Y-96835357D01*
X71286666Y-96787738D01*
X71334285Y-96692500D01*
X71334285Y-96597261D01*
X70667619Y-96263928D02*
X71334285Y-96263928D01*
X71667619Y-96263928D02*
X71620000Y-96311547D01*
X71572380Y-96263928D01*
X71620000Y-96216309D01*
X71667619Y-96263928D01*
X71572380Y-96263928D01*
X68175238Y-97502023D02*
X68127619Y-97406785D01*
X68127619Y-97216309D01*
X68175238Y-97121071D01*
X68270476Y-97073452D01*
X68318095Y-97073452D01*
X68413333Y-97121071D01*
X68460952Y-97216309D01*
X68460952Y-97359166D01*
X68508571Y-97454404D01*
X68603809Y-97502023D01*
X68651428Y-97502023D01*
X68746666Y-97454404D01*
X68794285Y-97359166D01*
X68794285Y-97216309D01*
X68746666Y-97121071D01*
X68127619Y-96644880D02*
X68794285Y-96644880D01*
X69127619Y-96644880D02*
X69080000Y-96692500D01*
X69032380Y-96644880D01*
X69080000Y-96597261D01*
X69127619Y-96644880D01*
X69032380Y-96644880D01*
X68794285Y-96168690D02*
X68127619Y-96168690D01*
X68699047Y-96168690D02*
X68746666Y-96121071D01*
X68794285Y-96025833D01*
X68794285Y-95882976D01*
X68746666Y-95787738D01*
X68651428Y-95740119D01*
X68127619Y-95740119D01*
X68175238Y-94882976D02*
X68127619Y-94978214D01*
X68127619Y-95168690D01*
X68175238Y-95263928D01*
X68270476Y-95311547D01*
X68651428Y-95311547D01*
X68746666Y-95263928D01*
X68794285Y-95168690D01*
X68794285Y-94978214D01*
X68746666Y-94882976D01*
X68651428Y-94835357D01*
X68556190Y-94835357D01*
X68460952Y-95311547D01*
D11*
X80070000Y-98365000D02*
X80070000Y-101025000D01*
X69850000Y-98365000D02*
X80070000Y-98365000D01*
X69850000Y-101025000D02*
X80070000Y-101025000D01*
X69850000Y-98365000D02*
X69850000Y-101025000D01*
X68580000Y-98365000D02*
X67250000Y-98365000D01*
X67250000Y-98365000D02*
X67250000Y-99695000D01*
X34350000Y-49590000D02*
X29150000Y-49590000D01*
X34350000Y-39370000D02*
X34350000Y-49590000D01*
X29150000Y-36770000D02*
X29150000Y-49590000D01*
X34350000Y-39370000D02*
X31750000Y-39370000D01*
X31750000Y-39370000D02*
X31750000Y-36770000D01*
X31750000Y-36770000D02*
X29150000Y-36770000D01*
X34350000Y-38100000D02*
X34350000Y-36770000D01*
X34350000Y-36770000D02*
X33020000Y-36770000D01*
X80070000Y-92770000D02*
X77410000Y-92770000D01*
X80070000Y-82550000D02*
X80070000Y-92770000D01*
X77410000Y-82550000D02*
X77410000Y-92770000D01*
X80070000Y-82550000D02*
X77410000Y-82550000D01*
X80070000Y-81280000D02*
X80070000Y-79950000D01*
X80070000Y-79950000D02*
X78740000Y-79950000D01*
X80070000Y-77530000D02*
X77410000Y-77530000D01*
X80070000Y-74930000D02*
X80070000Y-77530000D01*
X77410000Y-74930000D02*
X77410000Y-77530000D01*
X80070000Y-74930000D02*
X77410000Y-74930000D01*
X80070000Y-73660000D02*
X80070000Y-72330000D01*
X80070000Y-72330000D02*
X78740000Y-72330000D01*
X80070000Y-69910000D02*
X77410000Y-69910000D01*
X80070000Y-67310000D02*
X80070000Y-69910000D01*
X77410000Y-67310000D02*
X77410000Y-69910000D01*
X80070000Y-67310000D02*
X77410000Y-67310000D01*
X80070000Y-66040000D02*
X80070000Y-64710000D01*
X80070000Y-64710000D02*
X78740000Y-64710000D01*
X80070000Y-62290000D02*
X77410000Y-62290000D01*
X80070000Y-54610000D02*
X80070000Y-62290000D01*
X77410000Y-54610000D02*
X77410000Y-62290000D01*
X80070000Y-54610000D02*
X77410000Y-54610000D01*
X80070000Y-53340000D02*
X80070000Y-52010000D01*
X80070000Y-52010000D02*
X78740000Y-52010000D01*
X80070000Y-49590000D02*
X77410000Y-49590000D01*
X80070000Y-39370000D02*
X80070000Y-49590000D01*
X77410000Y-39370000D02*
X77410000Y-49590000D01*
X80070000Y-39370000D02*
X77410000Y-39370000D01*
X80070000Y-38100000D02*
X80070000Y-36770000D01*
X80070000Y-36770000D02*
X78740000Y-36770000D01*
D10*
X66583333Y-99147380D02*
X66583333Y-99861666D01*
X66630952Y-100004523D01*
X66726190Y-100099761D01*
X66869047Y-100147380D01*
X66964285Y-100147380D01*
X66202380Y-99147380D02*
X65535714Y-99147380D01*
X65964285Y-100147380D01*
X32083333Y-35222380D02*
X32083333Y-35936666D01*
X32130952Y-36079523D01*
X32226190Y-36174761D01*
X32369047Y-36222380D01*
X32464285Y-36222380D01*
X31178571Y-35222380D02*
X31369047Y-35222380D01*
X31464285Y-35270000D01*
X31511904Y-35317619D01*
X31607142Y-35460476D01*
X31654761Y-35650952D01*
X31654761Y-36031904D01*
X31607142Y-36127142D01*
X31559523Y-36174761D01*
X31464285Y-36222380D01*
X31273809Y-36222380D01*
X31178571Y-36174761D01*
X31130952Y-36127142D01*
X31083333Y-36031904D01*
X31083333Y-35793809D01*
X31130952Y-35698571D01*
X31178571Y-35650952D01*
X31273809Y-35603333D01*
X31464285Y-35603333D01*
X31559523Y-35650952D01*
X31607142Y-35698571D01*
X31654761Y-35793809D01*
X79073333Y-78402380D02*
X79073333Y-79116666D01*
X79120952Y-79259523D01*
X79216190Y-79354761D01*
X79359047Y-79402380D01*
X79454285Y-79402380D01*
X78120952Y-78402380D02*
X78597142Y-78402380D01*
X78644761Y-78878571D01*
X78597142Y-78830952D01*
X78501904Y-78783333D01*
X78263809Y-78783333D01*
X78168571Y-78830952D01*
X78120952Y-78878571D01*
X78073333Y-78973809D01*
X78073333Y-79211904D01*
X78120952Y-79307142D01*
X78168571Y-79354761D01*
X78263809Y-79402380D01*
X78501904Y-79402380D01*
X78597142Y-79354761D01*
X78644761Y-79307142D01*
X79073333Y-70782380D02*
X79073333Y-71496666D01*
X79120952Y-71639523D01*
X79216190Y-71734761D01*
X79359047Y-71782380D01*
X79454285Y-71782380D01*
X78168571Y-71115714D02*
X78168571Y-71782380D01*
X78406666Y-70734761D02*
X78644761Y-71449047D01*
X78025714Y-71449047D01*
X79073333Y-63162380D02*
X79073333Y-63876666D01*
X79120952Y-64019523D01*
X79216190Y-64114761D01*
X79359047Y-64162380D01*
X79454285Y-64162380D01*
X78692380Y-63162380D02*
X78073333Y-63162380D01*
X78406666Y-63543333D01*
X78263809Y-63543333D01*
X78168571Y-63590952D01*
X78120952Y-63638571D01*
X78073333Y-63733809D01*
X78073333Y-63971904D01*
X78120952Y-64067142D01*
X78168571Y-64114761D01*
X78263809Y-64162380D01*
X78549523Y-64162380D01*
X78644761Y-64114761D01*
X78692380Y-64067142D01*
X79073333Y-50462380D02*
X79073333Y-51176666D01*
X79120952Y-51319523D01*
X79216190Y-51414761D01*
X79359047Y-51462380D01*
X79454285Y-51462380D01*
X78644761Y-50557619D02*
X78597142Y-50510000D01*
X78501904Y-50462380D01*
X78263809Y-50462380D01*
X78168571Y-50510000D01*
X78120952Y-50557619D01*
X78073333Y-50652857D01*
X78073333Y-50748095D01*
X78120952Y-50890952D01*
X78692380Y-51462380D01*
X78073333Y-51462380D01*
X79073333Y-35222380D02*
X79073333Y-35936666D01*
X79120952Y-36079523D01*
X79216190Y-36174761D01*
X79359047Y-36222380D01*
X79454285Y-36222380D01*
X78073333Y-36222380D02*
X78644761Y-36222380D01*
X78359047Y-36222380D02*
X78359047Y-35222380D01*
X78454285Y-35365238D01*
X78549523Y-35460476D01*
X78644761Y-35508095D01*
%LPC*%
D12*
X47625000Y-56515000D03*
X50165000Y-56515000D03*
X52705000Y-56515000D03*
X57785000Y-56515000D03*
X60325000Y-56515000D03*
X62865000Y-56515000D03*
X67945000Y-56515000D03*
X70485000Y-56515000D03*
X73025000Y-56515000D03*
D13*
X59690000Y-49530000D03*
X62230000Y-49530000D03*
D14*
X64770000Y-49530000D03*
D13*
X43180000Y-34290000D03*
X43180000Y-31750000D03*
D14*
X43180000Y-29210000D03*
D13*
X78740000Y-99695000D03*
X76200000Y-99695000D03*
X73660000Y-99695000D03*
X71120000Y-99695000D03*
D14*
X68580000Y-99695000D03*
D13*
X30480000Y-48260000D03*
X33020000Y-48260000D03*
X30480000Y-45720000D03*
X33020000Y-45720000D03*
X30480000Y-43180000D03*
X33020000Y-43180000D03*
X30480000Y-40640000D03*
X33020000Y-40640000D03*
X30480000Y-38100000D03*
D14*
X33020000Y-38100000D03*
D13*
X78740000Y-91440000D03*
X78740000Y-88900000D03*
X78740000Y-86360000D03*
X78740000Y-83820000D03*
D14*
X78740000Y-81280000D03*
D13*
X78740000Y-76200000D03*
D14*
X78740000Y-73660000D03*
D13*
X78740000Y-68580000D03*
D14*
X78740000Y-66040000D03*
D13*
X78740000Y-60960000D03*
X78740000Y-58420000D03*
X78740000Y-55880000D03*
D14*
X78740000Y-53340000D03*
D13*
X78740000Y-48260000D03*
X78740000Y-45720000D03*
X78740000Y-43180000D03*
X78740000Y-40640000D03*
D14*
X78740000Y-38100000D03*
D15*
X30480000Y-99060000D03*
X30480000Y-30480000D03*
M02*
