G04 #@! TF.GenerationSoftware,KiCad,Pcbnew,5.1.12-84ad8e8a86~92~ubuntu20.04.1*
G04 #@! TF.CreationDate,2021-12-23T14:30:50-05:00*
G04 #@! TF.ProjectId,SSI2130_VCO,53534932-3133-4305-9f56-434f2e6b6963,0*
G04 #@! TF.SameCoordinates,Original*
G04 #@! TF.FileFunction,Copper,L4,Bot*
G04 #@! TF.FilePolarity,Positive*
%FSLAX46Y46*%
G04 Gerber Fmt 4.6, Leading zero omitted, Abs format (unit mm)*
G04 Created by KiCad (PCBNEW 5.1.12-84ad8e8a86~92~ubuntu20.04.1) date 2021-12-23 14:30:50*
%MOMM*%
%LPD*%
G01*
G04 APERTURE LIST*
G04 #@! TA.AperFunction,ComponentPad*
%ADD10C,1.440000*%
G04 #@! TD*
G04 #@! TA.AperFunction,ComponentPad*
%ADD11O,1.700000X1.700000*%
G04 #@! TD*
G04 #@! TA.AperFunction,ComponentPad*
%ADD12R,1.700000X1.700000*%
G04 #@! TD*
G04 #@! TA.AperFunction,ComponentPad*
%ADD13C,5.600000*%
G04 #@! TD*
G04 #@! TA.AperFunction,ViaPad*
%ADD14C,1.000000*%
G04 #@! TD*
G04 #@! TA.AperFunction,ViaPad*
%ADD15C,0.800000*%
G04 #@! TD*
G04 #@! TA.AperFunction,Conductor*
%ADD16C,0.400000*%
G04 #@! TD*
G04 #@! TA.AperFunction,Conductor*
%ADD17C,0.500000*%
G04 #@! TD*
G04 APERTURE END LIST*
D10*
X47625000Y-56515000D03*
X50165000Y-56515000D03*
X52705000Y-56515000D03*
X57785000Y-56515000D03*
X60325000Y-56515000D03*
X62865000Y-56515000D03*
X67945000Y-56515000D03*
X70485000Y-56515000D03*
X73025000Y-56515000D03*
D11*
X59690000Y-49530000D03*
X62230000Y-49530000D03*
D12*
X64770000Y-49530000D03*
D11*
X43180000Y-34290000D03*
X43180000Y-31750000D03*
D12*
X43180000Y-29210000D03*
D11*
X78740000Y-99695000D03*
X76200000Y-99695000D03*
X73660000Y-99695000D03*
X71120000Y-99695000D03*
D12*
X68580000Y-99695000D03*
D11*
X30480000Y-48260000D03*
X33020000Y-48260000D03*
X30480000Y-45720000D03*
X33020000Y-45720000D03*
X30480000Y-43180000D03*
X33020000Y-43180000D03*
X30480000Y-40640000D03*
X33020000Y-40640000D03*
X30480000Y-38100000D03*
D12*
X33020000Y-38100000D03*
D11*
X78740000Y-91440000D03*
X78740000Y-88900000D03*
X78740000Y-86360000D03*
X78740000Y-83820000D03*
D12*
X78740000Y-81280000D03*
D11*
X78740000Y-76200000D03*
D12*
X78740000Y-73660000D03*
D11*
X78740000Y-68580000D03*
D12*
X78740000Y-66040000D03*
D11*
X78740000Y-60960000D03*
X78740000Y-58420000D03*
X78740000Y-55880000D03*
D12*
X78740000Y-53340000D03*
D11*
X78740000Y-48260000D03*
X78740000Y-45720000D03*
X78740000Y-43180000D03*
X78740000Y-40640000D03*
D12*
X78740000Y-38100000D03*
D13*
X30480000Y-99060000D03*
X30480000Y-30480000D03*
D14*
X55880000Y-82042000D03*
X67818000Y-82296000D03*
X47752000Y-65024000D03*
X58674000Y-66040000D03*
X66548000Y-96266000D03*
X61722000Y-41402000D03*
X40386000Y-53848000D03*
X40640000Y-55118000D03*
X40640000Y-57150000D03*
X40386000Y-58674000D03*
X35814000Y-67818000D03*
X40640000Y-69596000D03*
X28194000Y-68580000D03*
X46736000Y-67818000D03*
X34290000Y-73660000D03*
X43434000Y-73660000D03*
X34036000Y-84836000D03*
X43180000Y-84836000D03*
X42926000Y-89662000D03*
X34036000Y-88138000D03*
X59436000Y-90678000D03*
X68834000Y-90424000D03*
X68580000Y-85344000D03*
X59690000Y-87884000D03*
X68834000Y-72898000D03*
X59436000Y-73152000D03*
X57912000Y-71120000D03*
X68580000Y-77978000D03*
X68580000Y-69342000D03*
X73406000Y-63500000D03*
X54610000Y-30226000D03*
X53340000Y-31750000D03*
X65278000Y-30226000D03*
X66802000Y-36322000D03*
X56642000Y-45974000D03*
X64008000Y-42926000D03*
X50292000Y-45974000D03*
X46228000Y-36322000D03*
X43180000Y-77724000D03*
X34036000Y-77470000D03*
X50546000Y-37033693D03*
X52578000Y-61468000D03*
X55118000Y-46482000D03*
X37846000Y-61722000D03*
X40640000Y-50800000D03*
X63500000Y-29972000D03*
X39116000Y-71374000D03*
X37084000Y-71374000D03*
X44196000Y-62738000D03*
X62992000Y-64008000D03*
X42164000Y-60452000D03*
X65532000Y-63765000D03*
X75184000Y-72390000D03*
X52462000Y-39878000D03*
X36068000Y-66040000D03*
X50292000Y-64008000D03*
X58420000Y-88900000D03*
X30734000Y-82550000D03*
X46736000Y-82550000D03*
X48768000Y-101346000D03*
X28702000Y-78994000D03*
X48006000Y-99568000D03*
X48260000Y-82042000D03*
X51054000Y-85597998D03*
X26416000Y-54864000D03*
X68326000Y-63246000D03*
X69108428Y-66266126D03*
X50038000Y-68072000D03*
X53085994Y-41402000D03*
X30480000Y-85598000D03*
X56145000Y-85598000D03*
X58166000Y-43180000D03*
X61976000Y-37592000D03*
D15*
X52578000Y-36322000D03*
D16*
X67564000Y-82042000D02*
X67818000Y-82296000D01*
X55880000Y-82042000D02*
X67564000Y-82042000D01*
X48768000Y-66040000D02*
X58674000Y-66040000D01*
X47752000Y-65024000D02*
X48768000Y-66040000D01*
X52578000Y-61468000D02*
X38100000Y-61468000D01*
X38100000Y-61468000D02*
X37846000Y-61722000D01*
X39116000Y-71374000D02*
X37084000Y-71374000D01*
X61722000Y-62738000D02*
X62992000Y-64008000D01*
X44196000Y-62738000D02*
X61722000Y-62738000D01*
D17*
X62219000Y-60452000D02*
X65532000Y-63765000D01*
X42164000Y-60452000D02*
X62219000Y-60452000D01*
D16*
X50165000Y-56515000D02*
X52705000Y-56515000D01*
X38100000Y-64008000D02*
X50292000Y-64008000D01*
X36068000Y-66040000D02*
X38100000Y-64008000D01*
X76200000Y-88900000D02*
X78740000Y-86360000D01*
X58420000Y-88900000D02*
X76200000Y-88900000D01*
X30734000Y-82550000D02*
X46736000Y-82550000D01*
X28702000Y-92202000D02*
X28702000Y-78994000D01*
X37846000Y-101346000D02*
X28702000Y-92202000D01*
X48768000Y-101346000D02*
X37846000Y-101346000D01*
X64770000Y-49530000D02*
X61976000Y-52324000D01*
X28956000Y-52324000D02*
X26416000Y-54864000D01*
X61976000Y-52324000D02*
X28956000Y-52324000D01*
X55245001Y-86497999D02*
X56145000Y-85598000D01*
X31379999Y-86497999D02*
X55245001Y-86497999D01*
X30480000Y-85598000D02*
X31379999Y-86497999D01*
M02*
