M48
; DRILL file {KiCad 5.1.12-84ad8e8a86~92~ubuntu20.04.1} date Thu 23 Dec 2021 02:30:53 PM EST
; FORMAT={-:-/ absolute / metric / decimal}
; #@! TF.CreationDate,2021-12-23T14:30:53-05:00
; #@! TF.GenerationSoftware,Kicad,Pcbnew,5.1.12-84ad8e8a86~92~ubuntu20.04.1
; #@! TF.FileFunction,Plated,1,4,PTH
FMAT,2
METRIC
T1C0.400
T2C0.500
T3C0.800
T4C1.000
T5C3.200
%
G90
G05
T1
X52.578Y-36.322
T2
X26.416Y-54.864
X28.194Y-68.58
X28.702Y-78.994
X30.48Y-85.598
X30.734Y-82.55
X34.036Y-77.47
X34.036Y-84.836
X34.036Y-88.138
X34.29Y-73.66
X35.814Y-67.818
X36.068Y-66.04
X37.084Y-71.374
X37.846Y-61.722
X39.116Y-71.374
X40.386Y-53.848
X40.386Y-58.674
X40.64Y-50.8
X40.64Y-55.118
X40.64Y-57.15
X40.64Y-69.596
X42.164Y-60.452
X42.926Y-89.662
X43.18Y-77.724
X43.18Y-84.836
X43.434Y-73.66
X44.196Y-62.738
X46.228Y-36.322
X46.736Y-67.818
X46.736Y-82.55
X47.752Y-65.024
X48.006Y-99.568
X48.26Y-82.042
X48.768Y-101.346
X50.038Y-68.072
X50.292Y-45.974
X50.292Y-64.008
X50.546Y-37.034
X51.054Y-85.598
X52.462Y-39.878
X52.578Y-61.468
X53.086Y-41.402
X53.34Y-31.75
X54.61Y-30.226
X55.118Y-46.482
X55.88Y-82.042
X56.145Y-85.598
X56.642Y-45.974
X57.912Y-71.12
X58.166Y-43.18
X58.42Y-88.9
X58.674Y-66.04
X59.436Y-73.152
X59.436Y-90.678
X59.69Y-87.884
X61.722Y-41.402
X61.976Y-37.592
X62.992Y-64.008
X63.5Y-29.972
X64.008Y-42.926
X65.278Y-30.226
X65.532Y-63.765
X66.548Y-96.266
X66.802Y-36.322
X67.818Y-82.296
X68.326Y-63.246
X68.58Y-69.342
X68.58Y-77.978
X68.58Y-85.344
X68.834Y-72.898
X68.834Y-90.424
X69.108Y-66.266
X73.406Y-63.5
X75.184Y-72.39
T3
X47.625Y-56.515
X50.165Y-56.515
X52.705Y-56.515
X57.785Y-56.515
X60.325Y-56.515
X62.865Y-56.515
X67.945Y-56.515
X70.485Y-56.515
X73.025Y-56.515
T4
X30.48Y-38.1
X30.48Y-40.64
X30.48Y-43.18
X30.48Y-45.72
X30.48Y-48.26
X33.02Y-38.1
X33.02Y-40.64
X33.02Y-43.18
X33.02Y-45.72
X33.02Y-48.26
X43.18Y-29.21
X43.18Y-31.75
X43.18Y-34.29
X59.69Y-49.53
X62.23Y-49.53
X64.77Y-49.53
X68.58Y-99.695
X71.12Y-99.695
X73.66Y-99.695
X76.2Y-99.695
X78.74Y-38.1
X78.74Y-40.64
X78.74Y-43.18
X78.74Y-45.72
X78.74Y-48.26
X78.74Y-53.34
X78.74Y-55.88
X78.74Y-58.42
X78.74Y-60.96
X78.74Y-66.04
X78.74Y-68.58
X78.74Y-73.66
X78.74Y-76.2
X78.74Y-81.28
X78.74Y-83.82
X78.74Y-86.36
X78.74Y-88.9
X78.74Y-91.44
X78.74Y-99.695
T5
X30.48Y-30.48
X30.48Y-99.06
T0
M30
